<svg width="264" height="34" viewBox="0 0 264 34" fill="none" xmlns="http://www.w3.org/2000/svg">
<g clip-path="url(#clip0)">
<path fill-rule="evenodd" clip-rule="evenodd" d="M102.812 14.8019V3.4917C99.9897 2.4788 97.0097 1.96088 94.0065 1.96143C82.3651 1.96143 73.9268 8.7503 73.9268 18.0015C73.9366 20.6307 74.6619 23.209 76.027 25.4676C77.3921 27.7262 79.347 29.5822 81.6877 30.8419C85.3733 32.9708 89.5802 34.0631 93.8513 33.9999C96.8477 33.9921 99.8225 33.4986 102.656 32.5392L103.08 21.076C100.618 22.7533 97.7292 23.7171 94.7403 23.8583C90.3377 23.8583 87.6848 21.4655 87.6848 17.9737C87.6848 14.2593 90.6622 11.9082 95.0225 11.9082C97.8841 11.931 100.646 12.9455 102.826 14.774L102.812 14.8019Z" fill="#231F20"/>
<path fill-rule="evenodd" clip-rule="evenodd" d="M119.646 19.4763C119.671 19.1227 119.767 18.7775 119.928 18.4608C120.09 18.1441 120.314 17.8624 120.587 17.6319C120.86 17.4014 121.177 17.2268 121.52 17.1184C121.862 17.0099 122.223 16.9697 122.581 17.0001C122.937 16.9517 123.299 16.98 123.643 17.083C123.986 17.186 124.303 17.3612 124.571 17.5966C124.84 17.832 125.053 18.1219 125.196 18.4464C125.34 18.771 125.411 19.1223 125.403 19.4763H119.646ZM137.792 24.1645C137.814 23.7846 137.814 23.4037 137.792 23.0238C137.792 15.9428 131.301 10.9902 122.271 10.9902C113.24 10.9902 106.749 16.1932 106.749 22.5091C106.749 28.8249 113.197 34.0279 122.271 34.0279C129.763 34.0279 135.069 31.2455 137.002 26.7243L125.107 26.0843C124.885 26.5864 124.517 27.0127 124.05 27.3096C123.583 27.6066 123.038 27.7611 122.482 27.7537C120.493 27.7537 119.547 26.6825 119.547 24.5123V24.1645H137.792Z" fill="#231F20"/>
<path fill-rule="evenodd" clip-rule="evenodd" d="M141.828 33.1793H154.726V24.6515C154.726 22.0082 156.616 20.478 159.862 20.478C161.122 20.5424 162.356 20.8596 163.488 21.41V11.0042C163.174 10.9836 162.858 10.9836 162.543 11.0042C160.973 10.9651 159.415 11.2793 157.987 11.9229C156.559 12.5666 155.299 13.5227 154.302 14.7186V11.6441H141.828V33.1793Z" fill="#231F20"/>
<path fill-rule="evenodd" clip-rule="evenodd" d="M179.053 19.4763C179.074 19.1164 179.168 18.7644 179.331 18.4415C179.494 18.1187 179.721 17.8316 179.999 17.5976C180.277 17.3637 180.601 17.1876 180.95 17.0802C181.299 16.9727 181.666 16.936 182.03 16.9722C182.388 16.9234 182.753 16.9523 183.099 17.0569C183.444 17.1615 183.763 17.3392 184.031 17.5777C184.3 17.8162 184.513 18.1096 184.655 18.4376C184.796 18.7655 184.864 19.12 184.852 19.4763H179.053ZM197.199 24.1645C197.22 23.7846 197.22 23.4037 197.199 23.0238C197.199 15.9428 190.708 10.9902 181.677 10.9902C172.646 10.9902 166.155 16.1932 166.155 22.5091C166.155 28.8249 172.604 34.0279 181.677 34.0279C189.17 34.0279 194.476 31.2455 196.409 26.7243L184.514 26.0843C184.291 26.5864 183.924 27.0127 183.457 27.3096C182.99 27.6066 182.445 27.7611 181.889 27.7537C179.899 27.7537 178.954 26.6825 178.954 24.5123V24.1645H197.199Z" fill="#231F20"/>
<path fill-rule="evenodd" clip-rule="evenodd" d="M198.455 31.6485C202.334 33.2115 206.485 34.0103 210.675 33.9995C218.845 33.9995 223.728 30.3686 223.728 25.8056C223.728 22.6059 221.258 20.8113 216.235 19.8375C213.554 19.3228 212.086 19.2393 212.086 18.2933C212.086 17.6534 212.82 17.1943 214.034 17.1943C216.042 17.4142 217.973 18.0853 219.678 19.1558L222.952 12.673C219.704 11.5138 216.273 10.9344 212.82 10.9619C205.115 10.9619 200.29 14.3285 200.29 18.6411C200.29 21.8825 202.604 23.844 207.43 24.7344C209.574 25.1239 210.943 25.1239 210.943 26.1255C210.943 26.9046 210.209 27.3637 208.841 27.3637C206.36 27.1414 203.967 26.3454 201.856 25.0404L198.455 31.6902V31.6485Z" fill="#231F20"/>
<path fill-rule="evenodd" clip-rule="evenodd" d="M227.086 33.1792H239.885V11.644H227.044V33.1792H227.086ZM240.449 4.95254C240.449 1.96154 237.937 0 233.535 0C229.132 0 226.564 1.96154 226.564 4.95254C226.564 7.94354 229.174 9.97463 233.535 9.97463C237.895 9.97463 240.449 7.92962 240.449 4.95254Z" fill="#231F20"/>
<path fill-rule="evenodd" clip-rule="evenodd" d="M247.476 33.1789H260.331V19.5734H264V11.6437H260.331V4.521H247.476V11.6437H243.864V19.5734H247.476V33.1789Z" fill="#231F20"/>
<path fill-rule="evenodd" clip-rule="evenodd" d="M27.4738 1.93359C42.6007 1.93359 54.9336 9.09808 54.9336 17.8902C54.9336 26.6824 42.6007 33.8329 27.4738 33.8329C12.347 33.8329 0 26.6684 0 17.8902C0 9.11199 12.3329 1.93359 27.4738 1.93359Z" fill="#ED1C24"/>
<path fill-rule="evenodd" clip-rule="evenodd" d="M4.5437 22.996V12.5205H6.74499V16.4714H10.9783V12.5205H13.1372V22.9681H10.9359V18.3634H6.70266V22.996H4.5437ZM14.4213 18.9477C14.4288 18.287 14.5529 17.6326 14.7882 17.014C15.06 16.4436 15.4907 15.9611 16.0299 15.6228C16.6881 15.2426 17.4404 15.0499 18.203 15.0663C18.9679 15.0424 19.7217 15.2512 20.362 15.6645C20.9168 16.0507 21.3321 16.6015 21.5473 17.2365C21.7799 17.9136 21.9037 18.6224 21.9142 19.3372V19.6989H16.4392C16.5379 20.937 17.1729 21.5631 18.33 21.5631C18.6236 21.5567 18.9105 21.4752 19.1625 21.3266C19.3925 21.196 19.5676 20.9888 19.6564 20.7423H21.7872C21.6396 21.2526 21.3848 21.7265 21.0393 22.1334C20.7149 22.5017 20.3095 22.7919 19.854 22.982C19.3682 23.1697 18.8518 23.2687 18.33 23.2742C15.7054 23.2742 14.3931 21.883 14.3931 19.0311L14.4213 18.9477ZM16.5661 18.3634H19.7552C19.7371 17.9091 19.5572 17.4757 19.2472 17.1392C19.106 16.9964 18.937 16.8833 18.7502 16.8068C18.5635 16.7303 18.3629 16.6919 18.1607 16.694C17.2294 16.694 16.7496 17.2505 16.5379 18.3634H16.5661ZM23.0995 22.996V15.2194H25.1032V16.3879C25.3228 15.9544 25.6646 15.5926 26.0876 15.3458C26.5106 15.099 26.9968 14.9779 27.488 14.9968C27.974 15.0077 28.4532 15.1117 28.899 15.3028C29.2978 15.5043 29.6305 15.813 29.8586 16.1932C30.073 16.627 30.1885 17.1018 30.1972 17.5843V22.9681H28.2217V18.3217C28.231 17.9313 28.1439 17.5446 27.9677 17.1948C27.8407 16.9583 27.4315 16.7914 26.8389 16.7914C26.6082 16.7691 26.3756 16.8031 26.1615 16.8904C25.9474 16.9778 25.7584 17.1158 25.6112 17.2922C25.3551 17.6714 25.2177 18.1165 25.2161 18.5721V22.996H23.0995ZM31.8623 22.996V12.5205H33.9648V22.9681L31.8623 22.996ZM39.5104 18.9477C39.5224 18.2862 39.6513 17.6318 39.8914 17.014C40.1561 16.4433 40.5824 15.9602 41.119 15.6228C41.7792 15.2351 42.5382 15.042 43.3062 15.0663C44.0719 15.0358 44.8277 15.2453 45.4652 15.6645C45.9785 16.0492 46.3621 16.5777 46.5658 17.1809C46.7936 17.8587 46.9127 18.5675 46.9186 19.2816V19.6433H41.5141C41.6129 20.8814 42.2479 21.5074 43.3909 21.5074C43.6889 21.501 43.9804 21.4196 44.2375 21.2709C44.463 21.1387 44.6331 20.9315 44.7173 20.6866H46.8622C46.7146 21.1969 46.4598 21.6709 46.1143 22.0778C45.787 22.4429 45.3824 22.7326 44.929 22.9264C44.4382 23.1139 43.9172 23.2129 43.3909 23.2185C40.7663 23.2185 39.454 21.8274 39.454 18.9755L39.5104 18.9477ZM41.6694 18.3634H44.8725C44.8509 17.9099 44.6715 17.4776 44.3645 17.1392C44.2234 16.9964 44.0543 16.8833 43.8675 16.8068C43.6808 16.7303 43.4802 16.6919 43.278 16.694C42.3467 16.694 41.7964 17.2505 41.6553 18.3634H41.6694ZM48.3015 22.996V12.5205H50.404V22.9681L48.3015 22.996ZM36.6882 15.8176H38.946L36.2226 18.8225L39.454 22.996H37.1962L33.9648 18.8225L36.6882 15.8176Z" fill="white"/>
</g>
<defs>
<clipPath id="clip0">
<rect width="264" height="34" fill="white"/>
</clipPath>
</defs>
</svg>
