<svg width="270" height="90" viewBox="0 0 270 90" fill="none" xmlns="http://www.w3.org/2000/svg">
<path d="M173.092 78.0846C173.092 78.0846 173.345 77.9578 173.852 77.7043C176.134 74.9156 181.204 68.7043 182.725 67.5635C184.88 65.9156 189.697 63.8874 191.979 62.7466C193.5 62.1128 194.768 61.6057 196.162 61.0987C195.148 60.8451 194.134 60.4649 193.373 59.7043C192.866 59.324 192.486 58.817 192.106 58.3099C189.951 60.5916 188.176 61.6057 186.401 61.2254L185.007 62.8733L186.148 61.2254C185.514 61.0987 184.88 60.8451 184.247 60.3381C183.74 59.9578 183.232 59.4508 182.852 58.6902V58.9437C182.852 59.5775 182.472 60.0846 181.965 60.4649C181.711 62.6198 181.458 64.9015 180.824 66.4226C179.81 68.7043 172.331 78.9719 172.331 78.9719L172.711 79.0987C172.711 79.0987 172.965 78.7184 173.472 78.2113C173.218 78.3381 173.092 78.3381 173.092 78.3381V78.0846Z" fill="#178202"/>
<path d="M190.584 35.493C190.838 35.2395 191.092 34.986 191.345 34.986C194.514 33.8451 196.796 33.4648 198.57 34.3522C199.204 34.7324 199.838 35.2395 200.218 35.8733C200.345 34.986 201.106 34.2254 201.993 34.2254H208.965C209.472 34.2254 209.979 34.4789 210.359 34.8592C210.359 34.8592 210.359 34.8592 210.486 34.8592C211.5 34.0986 212.387 33.2113 213.528 32.324C213.782 32.0705 214.162 31.9437 214.415 31.6902C213.401 30.5493 212.641 29.2817 212.134 27.6339C212.007 27.2536 212.007 26.7465 212.261 26.3662C212.641 25.4789 213.782 25.0986 214.669 25.4789C216.951 26.493 219.106 24.0846 220.373 22.5634C220.627 22.3099 220.88 21.9296 221.134 21.6761C222.021 20.7888 222.908 20.0282 223.796 19.5212C224.81 19.0141 225.951 18.6339 226.965 18.6339C228.106 18.5071 229.246 18.6339 230.387 19.1409C231.021 19.3944 231.528 19.7747 232.162 20.2817C235.204 18.6339 238.5 17.1127 242.556 15.5916L244.965 14.5775L248.387 13.0564L245.092 14.831L242.81 15.9719C239.514 17.493 236.852 19.0141 234.317 20.5353H234.951C235.458 20.5353 235.965 20.662 236.345 21.1691C236.979 21.9296 236.979 23.0705 236.218 23.7043L234.57 25.2254C234.951 27.6339 234.19 29.7888 232.923 31.4367C231.782 32.831 230.261 33.9719 228.613 34.6057C229.246 34.8592 229.753 35.493 229.753 36.2536C229.753 37.1409 229.754 38.9155 229.627 40.817C229.627 41.831 229.627 42.9719 229.5 44.1127C238.753 37.0141 243.19 30.6761 247.627 21.5493C250.289 15.8451 255.866 11.155 260.556 7.98597L263.092 6.46484L260.176 7.35217C255.359 8.87329 248.894 10.1409 241.923 10.1409C240.782 10.1409 239.514 10.1409 238.373 10.0141C236.725 9.88738 235.204 9.88738 233.683 9.88738C220.373 9.88738 208.458 14.324 196.796 25.2254C193.5 28.9015 191.092 31.9437 189.317 34.7324C189.824 34.986 190.331 35.2395 190.711 35.493C190.331 35.3662 190.458 35.493 190.584 35.493Z" fill="#178202"/>
<path d="M230.007 57.9297C230.261 58.817 229.753 59.8311 228.866 60.0846C225.824 61.2255 223.796 61.3522 222.148 60.8452C221.387 60.5917 220.88 60.2114 220.373 59.7043C219.739 60.2114 219.106 60.4649 218.472 60.7184C217.458 61.0987 216.317 61.2255 215.176 60.9719C214.035 60.8452 213.021 60.3381 212.007 59.5776C211.753 59.3241 211.373 59.0705 211.12 58.6903C210.993 59.3241 210.613 59.8311 209.979 59.9579C206.937 61.0987 204.908 61.2255 203.261 60.7184C202.5 60.4649 201.993 60.0846 201.486 59.5776C200.852 60.0846 200.218 60.3381 199.584 60.5917C198.951 60.8452 198.19 60.9719 197.43 60.9719C195.782 62.4931 194.134 64.2677 192.232 66.1691C190.458 67.817 187.415 71.6198 185.387 72.8874C183.866 73.9015 176.261 76.5635 173.725 77.5776C173.599 77.8311 173.472 77.9579 173.218 78.0846C175.12 77.5776 183.613 75.0424 185.387 75.0424C187.542 75.0424 191.092 76.6903 192.866 77.1973C201.866 79.986 205.922 82.648 213.782 82.648C215.43 82.648 217.204 82.5213 219.232 82.2677C230.894 82.2677 235.458 76.31 243.444 70.8593C247.627 67.4367 252.444 65.9156 255.866 65.2818L258.021 65.4086L255.993 64.5212C252.697 63.3804 248.387 61.2255 244.838 57.2959C240.275 52.0987 235.711 48.2959 228.739 47.4086C229.246 51.8452 229.373 55.9015 230.007 57.9297ZM244.204 64.0142L245.852 64.2677L248.134 64.5212H245.852H244.204H244.077C241.669 64.5212 239.768 64.3945 237.866 64.3945C233.176 64.3945 229.246 64.648 221.514 66.2959C209.599 67.9438 202.627 69.3382 194.514 71.6198H194.387L189.824 72.8874L194.387 71.2396C202.5 67.6903 209.599 66.0424 221.514 64.2677C226.077 63.3804 229.373 63.0001 232.289 63.0001C236.345 63.0001 239.514 63.6339 244.204 64.0142Z" fill="#178202"/>
<path d="M173.092 78.0846V78.4649C173.092 78.4649 173.218 78.4649 173.472 78.3381C173.599 78.2113 173.725 77.9578 173.979 77.8311C173.345 77.9578 173.092 78.0846 173.092 78.0846Z" fill="#178202"/>
<path fill-rule="evenodd" clip-rule="evenodd" d="M234.824 22.1832L231.275 22.31C230.134 20.6621 228.486 20.2818 226.838 20.4086C225.317 20.5353 223.542 21.2959 222.148 22.9438C220.627 24.4649 217.711 29.0283 213.528 27.1269C214.923 31.6903 218.979 33.7184 222.782 33.7184V36.1269H220.5V49.31C220.627 55.141 217.965 54.8874 217.965 49.31C217.965 46.5212 217.965 44.1128 217.965 41.1973C217.965 35.3663 215.81 34.7325 210.486 36.7607C211.627 40.6903 211.12 49.5635 211.12 53.8734C211.247 60.8452 218.979 60.9719 220.627 56.2818C221.007 59.4508 222.909 60.4649 227.979 58.5635C226.585 54.1269 227.345 41.3241 227.345 36.2536H225.697V33.5917H225.824C230.134 32.5776 233.683 29.0283 232.416 24.4649C233.176 23.5776 234.064 22.9438 234.824 22.1832ZM223.796 36.1269V33.7184C224.176 33.7184 224.557 33.5917 224.937 33.5917V36.1269H223.796ZM228.613 25.0987C227.979 25.0987 227.345 24.5917 227.345 23.8311C227.345 23.1973 227.852 22.5635 228.613 22.5635C229.247 22.5635 229.88 23.0705 229.88 23.8311C229.88 24.5917 229.373 25.0987 228.613 25.0987Z" fill="#186EC3"/>
<path fill-rule="evenodd" clip-rule="evenodd" d="M30.8663 53.6198C29.3452 53.6198 28.9649 52.8593 28.8381 51.0846V38.5353C28.8381 33.0846 24.2747 31.1832 19.4578 31.1832C16.6691 31.1832 13.7536 31.817 11.5987 32.4508C11.8522 33.3382 12.6128 34.479 12.486 38.0283C12.3592 41.0705 11.7254 48.2959 10.7114 51.2114C10.2043 52.8593 9.44375 53.6198 7.79586 53.6198C7.79586 56.4086 8.17614 60.2114 7.28882 62.7466C12.993 64.9015 14.6409 63.3804 14.7677 59.3241H23.8945C24.0212 63.3804 25.6691 64.7748 31.3733 62.7466C30.486 60.2114 30.7395 56.4086 30.8663 53.6198ZM21.6128 53.6198H17.6832C18.824 48.0424 19.4578 39.9297 19.4578 34.6058V34.3522C20.979 34.3522 21.6128 35.8734 21.6128 38.9156V53.6198Z" fill="#186EC3"/>
<path fill-rule="evenodd" clip-rule="evenodd" d="M119.472 36.1268H106.542C106.796 37.0142 107.049 39.1691 107.049 40.5634V59.0705H114.021V40.0564C115.415 40.0564 117.317 40.4367 118.584 40.817L119.472 36.1268Z" fill="#186EC3"/>
<path fill-rule="evenodd" clip-rule="evenodd" d="M126.571 35.7466C115.542 35.7466 114.402 59.4508 126.824 59.4508C138.359 59.4508 138.866 35.7466 126.571 35.7466ZM126.824 55.0142C125.176 55.0142 125.176 40.0564 126.824 40.0564C128.472 40.0564 128.472 55.0142 126.824 55.0142Z" fill="#186EC3"/>
<path fill-rule="evenodd" clip-rule="evenodd" d="M148.12 35.6199C146.725 35.6199 145.204 36.3804 144.19 37.7748C143.937 34.479 138.486 35.8734 136.458 36.634C136.711 37.141 137.218 39.1692 137.218 40.4368V60.8452C137.218 65.2819 138.739 67.0565 144.697 64.7748C144.063 62.8734 144.19 58.8171 144.19 56.7889C145.331 58.31 146.725 59.0706 148.247 59.1973C149.007 59.1973 149.894 58.9438 150.655 58.4368C153.697 56.2819 154.078 49.4368 153.951 46.141C153.697 42.972 152.81 35.4931 148.12 35.6199ZM144.824 54.5072V40.5635C144.824 39.1692 146.725 40.4368 146.852 47.4086C146.725 54.3804 144.824 55.9016 144.824 54.5072Z" fill="#186EC3"/>
<path fill-rule="evenodd" clip-rule="evenodd" d="M183.993 35.7466C184.627 40.1832 183.613 44.1128 181.078 44.7466V40.5635C181.078 36.1269 179.556 34.3523 173.599 36.6339C174.232 38.5354 174.232 40.4368 174.232 42.4649V58.9438H181.078V49.0565C183.866 59.7044 186.401 61.9861 191.345 56.5354C192.993 54.6339 189.697 55.9016 186.148 46.3945C190.078 44.6199 194.134 34.479 183.993 35.7466Z" fill="#186EC3"/>
<path fill-rule="evenodd" clip-rule="evenodd" d="M96.5283 35.7466C85.5001 35.7466 84.3593 59.4508 96.7818 59.4508C108.317 59.4508 108.824 35.7466 96.5283 35.7466ZM96.7818 55.0142C95.1339 55.0142 95.1339 40.0564 96.7818 40.0564C98.4297 40.0564 98.4297 55.0142 96.7818 55.0142Z" fill="#186EC3"/>
<path fill-rule="evenodd" clip-rule="evenodd" d="M86.2606 52.6058V36.1269H79.2887V44.3663H76.7535V40.6903C76.7535 36.2537 75.2324 34.479 69.2747 36.6339C69.7817 38.1551 69.7817 39.6762 69.9085 41.1973V59.0706H76.8803V50.5776H79.4155V53.6199V54.3804C79.4155 58.817 80.9366 60.5917 86.8944 58.4368C86.2606 56.5353 86.2606 54.6339 86.2606 52.6058Z" fill="#186EC3"/>
<path fill-rule="evenodd" clip-rule="evenodd" d="M165.106 50.5776C164.979 53.1128 164.599 55.1409 163.965 55.1409C162.317 55.1409 162.317 40.0564 163.965 40.0564C164.599 40.0564 164.979 42.7184 165.106 45.7607C167.387 47.4086 169.796 45.0001 172.458 44.4931C171.571 39.8029 168.655 35.7466 163.711 35.7466C152.683 35.7466 151.542 59.4508 163.965 59.4508C169.416 59.4508 172.331 54.2536 172.711 48.6762C171.317 48.0424 167.768 48.6762 165.106 50.5776Z" fill="#186EC3"/>
<path fill-rule="evenodd" clip-rule="evenodd" d="M208.838 36.1269H201.866V49.31C201.993 55.141 199.331 54.8875 199.331 49.31C199.331 46.5213 199.331 44.1129 199.331 41.1974C199.331 35.3664 197.176 34.7326 191.852 36.7607C192.993 40.6903 192.486 49.5636 192.486 53.8734C192.613 60.8452 200.345 60.972 201.993 56.2819C202.373 59.4509 204.275 60.465 209.345 58.5636C208.078 54.0002 208.838 41.1974 208.838 36.1269Z" fill="#186EC3"/>
<path fill-rule="evenodd" clip-rule="evenodd" d="M48.8663 36.1269H41.8945V49.31C42.0212 55.141 39.3592 54.8875 39.3592 49.31C39.3592 46.5213 39.3592 44.1129 39.3592 41.1974C39.3592 35.3664 37.2043 34.7326 31.8804 36.7607C33.0212 40.6903 32.5142 49.5636 32.5142 53.8734C32.6409 60.8452 40.3733 60.972 42.0212 56.2819C42.4015 59.4509 44.3029 60.465 49.3733 58.5636C48.1057 54.0002 48.8663 41.1974 48.8663 36.1269Z" fill="#186EC3"/>
<path fill-rule="evenodd" clip-rule="evenodd" d="M65.9789 41.9579C66.993 40.0565 66.993 37.5213 65.9789 35.4931C63.6972 31.31 56.4719 30.9297 53.5564 34.479C52.2888 36.1269 51.7817 38.2818 51.7817 40.6903V59.4509H59.0071V58.1833C60.7817 59.8311 62.6831 59.9579 64.7113 58.6903C66.8662 57.2959 68.5141 54.5072 68.5141 50.5776C68.6409 47.2818 67.5 43.9861 65.9789 41.9579C66.1057 41.9579 65.9789 41.9579 65.9789 41.9579ZM59.0071 35.1128C59.0071 34.6058 59.2606 34.479 59.6409 34.6058C60.655 35.2396 60.9085 37.2678 60.9085 38.1551C60.9085 39.0424 60.655 40.5635 59.8944 41.1973C59.5141 41.5776 59.0071 41.3241 59.0071 40.8171V35.1128ZM61.2888 50.0706C61.2888 51.3382 61.0353 53.8734 60.0212 54.7607C59.5141 55.2678 58.8803 55.0142 58.8803 54.1269V45.1269C58.8803 44.3664 59.2606 44.1128 59.6409 44.4931C61.162 45.5072 61.4155 48.6762 61.2888 50.0706Z" fill="#186EC3"/>
<path fill-rule="evenodd" clip-rule="evenodd" d="M89.4296 71.6198L87.5282 71.8733C87.5282 72.2536 87.0212 73.0141 85.8804 74.4085C84.7395 75.8028 84.1057 76.6902 83.9789 77.0705H83.8522C83.8522 76.1831 83.9789 75.4226 83.9789 74.9155C83.9789 73.9014 83.979 72.7606 84.1057 71.7465L81.6973 72C81.824 73.0141 81.9508 74.2817 81.9508 75.9296C81.9508 77.324 81.9508 78.7183 81.824 79.8592H83.5987C83.5987 79.4789 84.1057 78.5916 85.2466 77.324C86.3874 75.9296 87.148 75.0423 87.2747 74.662H87.4015C87.4015 75.4226 87.2747 76.0564 87.2747 76.5634C87.2747 77.831 87.2747 78.8451 87.148 79.8592H89.3029C89.1761 78.5916 89.1761 77.1972 89.1761 75.9296C89.3029 74.155 89.3029 72.7606 89.4296 71.6198Z" fill="#186EC3"/>
<path fill-rule="evenodd" clip-rule="evenodd" d="M146.979 70.6057C149.007 70.6057 150.021 69.7184 150.021 67.9438L148.247 67.6902C148.247 68.1973 148.12 68.5776 147.993 68.8311C147.866 69.0846 147.486 69.2114 146.979 69.2114C146.218 69.2114 145.838 68.7043 145.838 67.5635L143.937 67.817C143.937 68.5776 144.19 69.0846 144.571 69.5916C145.204 70.3522 145.965 70.6057 146.979 70.6057Z" fill="#186EC3"/>
<path fill-rule="evenodd" clip-rule="evenodd" d="M106.542 71.493C105.528 71.493 104.641 71.7466 104.134 72.3804H104.007L103.881 71.6198L101.726 71.8733C101.979 73.2677 102.106 75.4226 102.106 78.0846C102.106 80.2395 102.106 82.0142 101.979 83.662H104.261C104.261 82.2677 104.261 80.8733 104.261 79.479H104.388C104.768 79.8592 105.402 80.1128 106.289 80.1128C107.43 80.1128 108.444 79.6057 109.078 78.7184C109.712 77.8311 110.092 76.6902 110.092 75.5494C110.092 74.5353 109.838 73.5212 109.204 72.7606C108.444 71.8733 107.557 71.493 106.542 71.493ZM107.176 77.7043C106.796 78.2113 106.289 78.5916 105.528 78.5916C105.021 78.5916 104.514 78.4649 104.134 78.2113C104.134 76.9437 104.134 75.4226 104.007 73.9015C104.388 73.3944 104.895 73.2677 105.655 73.2677C106.289 73.2677 106.796 73.5212 107.176 74.0283C107.557 74.5353 107.683 75.1691 107.683 75.8029C107.81 76.4367 107.557 77.1973 107.176 77.7043Z" fill="#186EC3"/>
<path fill-rule="evenodd" clip-rule="evenodd" d="M78.9086 71.8733H75.7396C75.7396 72.5071 75.486 73.6479 74.979 75.1691C74.4719 76.6902 74.2184 77.7043 74.2184 77.9578H74.0917C74.0917 77.7043 73.8381 76.6902 73.3311 75.1691C72.8241 73.6479 72.5705 72.5071 72.5705 71.8733H69.5283C69.5283 72.6339 69.4015 74.0282 69.2748 76.3099C69.0212 78.5916 69.0212 79.7324 69.0212 79.8592H70.9226C70.9226 79.3522 70.9226 78.2113 71.0494 76.5634C71.0494 74.9155 71.1762 73.9015 71.1762 73.5212H71.3029C71.5565 74.4085 71.9367 75.5493 72.317 76.9437C72.8241 78.2113 72.9508 79.2254 72.9508 79.8592H74.8522C74.8522 79.2254 75.1057 78.2113 75.7396 76.5634C76.3734 74.9155 76.7536 73.9015 76.8804 73.5212H77.0072C77.0072 73.9015 77.0072 74.7888 77.0072 76.3099C77.0072 77.831 77.0072 78.9719 77.0072 79.8592H79.1621C79.1621 79.6057 79.1621 78.4648 79.0353 76.1831C79.0353 74.0282 78.9086 72.5071 78.9086 71.8733Z" fill="#186EC3"/>
<path fill-rule="evenodd" clip-rule="evenodd" d="M98.1761 76.6902C97.7958 76.1832 97.4155 75.8029 96.9085 75.6761V75.5494C97.669 75.2959 98.4296 74.2818 99.0634 72.5071C99.1901 72.1268 99.3169 71.8733 99.3169 71.7466H97.162C97.0352 71.8733 97.0352 72.0001 97.0352 72.1268C96.5282 74.0283 95.8944 74.9156 94.8803 74.9156C94.7535 74.9156 94.6268 74.9156 94.3732 74.9156C94.3732 73.5212 94.3732 72.3804 94.5 71.493L92.0916 71.7466C92.3451 72.8874 92.3451 74.155 92.3451 75.8029C92.3451 77.1973 92.3451 78.4649 92.2183 79.6057H94.5C94.3732 78.4649 94.3732 77.324 94.3732 76.3099C94.6268 76.3099 94.7535 76.3099 94.8803 76.3099C95.3873 76.3099 95.8944 76.5635 96.1479 76.9437C96.5282 77.324 96.7817 78.0846 97.162 79.2254C97.2887 79.479 97.2887 79.6057 97.4155 79.7325H99.6972C99.5704 79.3522 99.4437 79.0987 99.3169 78.8452C98.9366 77.9578 98.5563 77.1973 98.1761 76.6902Z" fill="#186EC3"/>
<path fill-rule="evenodd" clip-rule="evenodd" d="M116.556 71.493C115.416 71.493 114.402 71.8733 113.514 72.6339C112.627 73.3944 112.247 74.5353 112.247 75.9297C112.247 77.1973 112.627 78.2114 113.387 78.9719C114.148 79.7325 115.162 80.1128 116.303 80.1128C117.444 80.1128 118.458 79.7325 119.345 78.9719C120.232 78.2114 120.613 77.0705 120.613 75.6761C120.613 74.4085 120.232 73.2677 119.472 72.6339C118.585 71.8733 117.571 71.493 116.556 71.493ZM117.824 77.8311C117.444 78.3381 116.937 78.5916 116.43 78.5916C115.796 78.5916 115.289 78.3381 114.909 77.7043C114.528 77.1973 114.275 76.4367 114.275 75.6761C114.275 74.9156 114.402 74.2818 114.782 73.7747C115.162 73.2677 115.669 73.0142 116.176 73.0142C116.81 73.0142 117.317 73.2677 117.697 73.9015C118.078 74.4085 118.204 75.1691 118.204 75.9297C118.331 76.6902 118.204 77.324 117.824 77.8311Z" fill="#186EC3"/>
<path fill-rule="evenodd" clip-rule="evenodd" d="M127.711 71.493C126.697 71.493 125.81 71.7466 125.303 72.3804H125.176L125.049 71.6198L122.895 71.8733C123.148 73.2677 123.275 75.4226 123.275 78.0846C123.275 80.2395 123.275 82.0142 123.148 83.662H125.43C125.43 82.2677 125.43 80.8733 125.43 79.479H125.557C125.937 79.8592 126.571 80.1128 127.458 80.1128C128.599 80.1128 129.613 79.6057 130.247 78.7184C130.88 77.8311 131.261 76.6902 131.261 75.5494C131.261 74.5353 131.007 73.5212 130.373 72.7606C129.613 71.8733 128.726 71.493 127.711 71.493ZM128.345 77.7043C127.965 78.2113 127.458 78.5916 126.697 78.5916C126.19 78.5916 125.683 78.4649 125.303 78.2113C125.303 76.9437 125.303 75.4226 125.176 73.9015C125.556 73.3944 126.064 73.2677 126.824 73.2677C127.458 73.2677 127.965 73.5212 128.345 74.0283C128.726 74.5353 128.852 75.1691 128.852 75.8029C128.852 76.4367 128.726 77.1973 128.345 77.7043Z" fill="#186EC3"/>
<path fill-rule="evenodd" clip-rule="evenodd" d="M171.317 79.8593C171.19 78.5917 171.19 77.3241 171.19 75.9297C171.19 74.2818 171.19 72.8874 171.317 71.7466L168.909 72.0001C169.035 72.7607 169.162 73.7748 169.162 74.9156H165.993C165.993 73.1409 166.12 72.1269 166.12 71.7466L163.711 72.0001C163.965 73.1409 163.965 74.4086 163.965 75.9297C163.965 77.4508 163.965 78.7184 163.838 79.8593H166.12C165.993 78.8452 165.993 77.5776 165.993 76.4367H169.162C169.162 77.7043 169.162 78.9719 169.035 79.8593H171.317Z" fill="#186EC3"/>
<path fill-rule="evenodd" clip-rule="evenodd" d="M157.373 71.493C156.232 71.493 155.218 71.8733 154.331 72.6339C153.444 73.3944 153.063 74.5353 153.063 75.9297C153.063 77.1973 153.444 78.2114 154.204 78.9719C154.965 79.7325 155.979 80.1128 157.12 80.1128C158.261 80.1128 159.275 79.7325 160.162 78.9719C161.049 78.2114 161.43 77.0705 161.43 75.6761C161.43 74.4085 161.049 73.2677 160.289 72.6339C159.402 71.8733 158.387 71.493 157.373 71.493ZM158.641 77.8311C158.261 78.3381 157.754 78.5916 157.247 78.5916C156.613 78.5916 156.106 78.3381 155.725 77.7043C155.345 77.1973 155.092 76.4367 155.092 75.6761C155.092 74.9156 155.218 74.2818 155.599 73.7747C155.979 73.2677 156.486 73.0142 156.993 73.0142C157.627 73.0142 158.134 73.2677 158.514 73.9015C158.894 74.4085 159.021 75.1691 159.021 75.9297C159.148 76.6902 159.021 77.324 158.641 77.8311Z" fill="#186EC3"/>
<path fill-rule="evenodd" clip-rule="evenodd" d="M140.261 75.6761C140.261 75.0423 140.261 74.6621 140.261 74.4085C140.261 73.3944 140.007 72.6339 139.373 72.1268C138.866 71.7466 137.979 71.493 136.965 71.493C135.571 71.493 134.556 71.6198 133.796 71.8733L133.669 73.3944C134.43 73.1409 135.317 73.0142 136.204 73.0142C136.965 73.0142 137.472 73.1409 137.852 73.2677C138.106 73.5212 138.232 73.9015 138.232 74.4085C138.232 74.5353 138.232 74.5353 138.232 74.6621C136.458 74.6621 135.19 75.0423 134.43 75.5494C133.669 76.0564 133.289 76.817 133.289 77.5775C133.289 78.2113 133.542 78.7184 133.923 79.0987C134.43 79.479 134.937 79.7325 135.697 79.7325C136.711 79.7325 137.599 79.479 138.232 78.9719H138.359C138.359 79.0987 138.359 79.3522 138.486 79.6057L140.514 79.479C140.387 78.7184 140.261 77.8311 140.261 76.6902C140.134 76.6902 140.261 76.3099 140.261 75.6761ZM136.585 78.5916C135.697 78.5916 135.317 78.2113 135.317 77.5775C135.317 76.5635 136.331 76.1832 138.232 76.1832C138.232 76.6902 138.232 77.324 138.232 78.0846C137.725 78.3381 137.218 78.5916 136.585 78.5916Z" fill="#186EC3"/>
<path fill-rule="evenodd" clip-rule="evenodd" d="M150.528 71.6198L148.754 71.8733C148.754 72.2536 148.247 73.0141 147.106 74.4085C145.965 75.8028 145.331 76.6902 145.204 77.0705H145.078C145.078 76.1831 145.204 75.4226 145.204 74.9155C145.204 73.9014 145.204 72.7606 145.331 71.7465L142.923 72C143.049 73.0141 143.176 74.2817 143.176 75.9296C143.176 77.324 143.176 78.7183 143.049 79.8592H144.824C144.824 79.4789 145.331 78.5916 146.472 77.324C147.613 75.9296 148.373 75.0423 148.5 74.662H148.627C148.627 75.4226 148.5 76.0564 148.5 76.5634C148.5 77.831 148.5 78.8451 148.373 79.8592H150.528C150.401 78.5916 150.402 77.1972 150.402 75.9296C150.402 74.155 150.528 72.7606 150.528 71.6198Z" fill="#186EC3"/>
</svg>
