<svg width="186" height="38" viewBox="0 0 186 38" fill="none" xmlns="http://www.w3.org/2000/svg">
<path fill-rule="evenodd" clip-rule="evenodd" d="M0 0H186V38H0V0Z" fill="#ED1C24"/>
<path fill-rule="evenodd" clip-rule="evenodd" d="M6.08435 12.9004H57.4732V23.5867H6.08435V12.9004Z" fill="white"/>
<path fill-rule="evenodd" clip-rule="evenodd" d="M76.124 19.751H116.358V31.5444H76.124V19.751Z" fill="white"/>
<path fill-rule="evenodd" clip-rule="evenodd" d="M166.743 5.43701H179.816V31.5447H166.743V5.43701Z" fill="white"/>
<path fill-rule="evenodd" clip-rule="evenodd" d="M76.1239 5.43701H90.3108V31.5447H76.1239V5.43701Z" fill="white"/>
<path fill-rule="evenodd" clip-rule="evenodd" d="M59.7002 5.43701H73.897V31.5447H59.7002V5.43701Z" fill="white"/>
<path fill-rule="evenodd" clip-rule="evenodd" d="M128.825 9.87549H141.908V31.5446H128.825V9.87549Z" fill="white"/>
<path fill-rule="evenodd" clip-rule="evenodd" d="M164.506 5.43701H106.228V17.3392H164.506V5.43701Z" fill="white"/>
<path fill-rule="evenodd" clip-rule="evenodd" d="M6.08435 5.43701H20.0724V31.5447H6.08435V5.43701Z" fill="white"/>
<path fill-rule="evenodd" clip-rule="evenodd" d="M43.5846 5.43701H57.5726V31.5447H43.5846V5.43701Z" fill="white"/>
</svg>
