<svg width="150" height="89" viewBox="0 0 150 89" fill="none" xmlns="http://www.w3.org/2000/svg">
<g clip-path="url(#clip0)">
<path d="M120.486 89L130.943 18.8062H150L148.709 26.9881H141.69L140.256 38.4712H146.991L145.844 46.6531H138.967L132.664 89H120.486Z" fill="#00AEEF"/>
<path d="M76.7902 19.0923L60.4587 71.3428H71.9231L74.5024 60.8647H78.3666L77.937 71.3428H88.2526L90.5442 19.0923H76.7902ZM79.943 52.8269H75.7872L82.0928 29.2841L79.943 52.8269Z" fill="#00AEEF"/>
<path d="M99.4272 19.0036L93.1216 62.3002C93.1216 62.3002 91.2496 72.5414 105.441 72.2058C117.619 71.9175 118.766 62.5885 118.766 62.5885L125.215 18.8062H114.9L108.594 61.2952C108.594 61.2952 108.88 64.4543 106.015 64.3101C103.149 64.166 103.865 62.0139 103.865 62.0139L110.314 19.0924L99.4272 19.0036Z" fill="#00AEEF"/>
<path d="M30.8029 71.4868H40.545L44.2692 48.0882L45.8456 71.0564L57.306 71.2005L64.9003 19.3784H55.1562L51.8615 39.4758L50.429 19.3784H38.8247L30.8029 71.4868Z" fill="#00AEEF"/>
<path d="M16.0457 71.4871H27.5061L24.3553 44.0706L33.9536 19.667H23.6381L16.4753 39.1899L21.6341 0H10.7451L0 71.6312H11.0308L14.757 49.3817L16.0457 71.4871Z" fill="#00AEEF"/>
</g>
<defs>
<clipPath id="clip0">
<rect width="150" height="89" fill="white"/>
</clipPath>
</defs>
</svg>
