<svg width="290" height="85" viewBox="0 0 290 85" fill="none" xmlns="http://www.w3.org/2000/svg">
<g clip-path="url(#clip0)">
<path d="M46.3343 80.6659C44.332 82.0762 42.611 83.433 40.7783 84.534C38.8504 85.6722 37.2287 84.5093 35.7105 83.4C27.9687 77.7504 20.2325 72.0939 12.5019 66.4305C9.23776 64.0428 5.94471 61.6964 2.70543 59.2798C-0.893765 56.5993 -0.90204 53.6343 2.70543 50.9703C6.42873 48.2074 10.2017 45.5104 14.4049 42.4546C12.0551 40.636 10.0321 39.0443 7.97598 37.5061C6.0109 36.0256 3.98376 34.6194 2.03523 33.1266C-0.413873 31.2296 -0.711737 28.2316 1.68359 26.413C7.90978 21.6871 14.2725 17.1386 20.6394 12.6024C21.0944 12.2807 22.1907 12.3756 22.7079 12.7096C24.6191 13.9467 26.4312 15.3447 28.5369 16.8953L11.3476 29.6337L46.3343 55.0983C44.2658 56.5127 42.611 58.1787 40.5756 58.8922C39.3055 59.3458 37.266 58.7849 36.0249 57.9684C31.7141 55.0818 27.573 51.9642 23.4484 48.8218C22.1618 47.8445 21.1606 47.8321 19.9361 48.7888C18.1365 50.195 16.2831 51.5353 14.4338 52.8796C11.48 55.0281 11.4759 55.1684 14.3552 57.2591C24.3089 64.4923 34.2611 71.7296 44.212 78.971C44.8367 79.4205 45.4117 79.9277 46.3343 80.6659Z" fill="#F7F7F7"/>
<path d="M32.2314 29.5347C34.1014 28.2069 35.6238 27.0316 37.2372 26.0006C39.2437 24.7264 40.9357 25.7614 42.5533 26.9326C46.6117 29.8729 50.7073 32.7596 54.6995 35.7864C56.1599 36.8916 57.2686 36.8545 58.6711 35.737C61.2029 33.7328 63.8465 31.8771 66.9451 29.5966L32.2687 4.0867C34.2338 2.72584 35.81 1.51344 37.5061 0.494856C39.5746 -0.742287 41.2294 0.589704 42.7932 1.732C50.6977 7.45035 58.5814 13.1838 66.4445 18.9324C69.6424 21.2624 72.8527 23.5676 76.0175 25.9429C78.9879 28.1615 79.0044 31.0523 76.0423 33.308C72.7534 35.8112 69.3983 38.2236 66.0846 40.6938C65.4723 41.1474 64.9179 41.6752 63.9912 42.467C67.8221 45.2959 71.4006 47.9269 74.9709 50.5703C79.4885 53.9147 79.4595 56.4756 74.9419 59.754C68.8977 64.1335 62.8825 68.5542 56.677 73.0822L49.4786 67.8202C54.6127 64.0552 59.4074 60.5375 64.2188 57.0158C66.7465 55.1601 66.7672 55.0694 64.2188 53.1807C54.0142 45.6836 43.8095 38.1934 33.6049 30.71C33.2367 30.4585 32.9347 30.1533 32.2314 29.5347Z" fill="#F7F7F7"/>
<path d="M97.439 41.7866C96.2714 41.1745 95.2964 40.2526 94.6217 39.1226C93.9494 37.9511 93.5957 36.6248 93.5957 35.2751C93.5957 33.9254 93.9494 32.5991 94.6217 31.4276C95.2964 30.2976 96.2714 29.3756 97.439 28.7636C98.6788 28.1122 100.063 27.7818 101.464 27.8027C102.633 27.7845 103.794 28.0063 104.873 28.4543C105.863 28.8789 106.739 29.5302 107.43 30.3554L105.274 32.3348C104.833 31.7982 104.277 31.3676 103.646 31.0749C103.015 30.7822 102.326 30.6349 101.63 30.644C100.793 30.6285 99.9657 30.8303 99.2303 31.2296C98.534 31.6133 97.9604 32.1851 97.5755 32.8791C97.187 33.6177 96.9841 34.4391 96.9841 35.273C96.9841 36.1069 97.187 36.9284 97.5755 37.6669C97.958 38.3628 98.5322 38.9351 99.2303 39.3164C99.9653 39.717 100.792 39.9202 101.63 39.9061C102.328 39.9149 103.018 39.7654 103.65 39.4689C104.281 39.1724 104.837 38.7367 105.274 38.1947L107.43 40.1742C106.742 41.0125 105.861 41.6719 104.861 42.0959C103.779 42.5463 102.616 42.7709 101.444 42.7557C100.048 42.7725 98.6712 42.4393 97.439 41.7866V41.7866Z" fill="#F7F7F7"/>
<path d="M116.25 28.0419H119.584V37.4607L126.497 28.0419H129.646V42.4753H126.336V33.106L119.423 42.5H116.25V28.0419Z" fill="#F7F7F7"/>
<path d="M153.069 42.5L153.048 33.84L148.779 40.9701H147.277L143.02 34.0173V42.5H139.876V28.0419H142.648L148.076 37.0195L153.416 28.0419H156.192L156.213 42.4753L153.069 42.5Z" fill="#F7F7F7"/>
<path d="M179.629 42.5L179.609 33.84L175.343 40.9701H173.854L169.589 34.0173V42.5H166.44V28.0419H169.204L174.628 37.0195L179.981 28.0419H182.757L182.777 42.4753L179.629 42.5Z" fill="#F7F7F7"/>
<path d="M204.228 39.8154V42.5H193.004V28.0419H203.955V30.7265H196.338V33.8647H203.069V36.4627H196.338V39.8072L204.228 39.8154Z" fill="#F7F7F7"/>
<path d="M224.639 30.776H220.006V42.5H216.696V30.776H212.075V28.0419H224.639V30.776Z" fill="#F7F7F7"/>
<path d="M243.012 28.6894C243.668 29.0032 244.251 29.4508 244.722 30.0032C245.194 30.5556 245.544 31.2005 245.75 31.8962C245.956 32.592 246.013 33.3231 245.918 34.0422C245.822 34.7613 245.577 35.4525 245.196 36.071C244.663 36.8766 243.903 37.5077 243.012 37.8855C241.953 38.328 240.813 38.543 239.665 38.5164H236.745V42.5H233.394V28.0419H239.665C240.814 28.0184 241.955 28.2391 243.012 28.6894V28.6894ZM241.771 35.139C242.035 34.9116 242.243 34.6268 242.38 34.3065C242.516 33.9861 242.577 33.6389 242.557 33.2915C242.578 32.9416 242.518 32.5916 242.381 32.2685C242.245 31.9454 242.036 31.6577 241.771 31.4276C241.105 30.9483 240.29 30.7176 239.471 30.776H236.736V35.7906H239.471C240.293 35.8488 241.11 35.6183 241.779 35.139H241.771Z" fill="#F7F7F7"/>
<path d="M254.803 28.0419H258.15V37.4607L265.05 28.0419H268.198V42.4753H264.889V33.106L257.972 42.5H254.807L254.803 28.0419Z" fill="#F7F7F7"/>
<path d="M290.004 28.0419V42.4753H286.694V38.6607H283.633L281.064 42.5H277.523L280.547 38.1453C279.624 37.7915 278.835 37.1603 278.288 36.339C277.748 35.4743 277.475 34.4706 277.502 33.4524C277.474 32.4368 277.74 31.4347 278.267 30.5657C278.794 29.7475 279.551 29.102 280.443 28.71C281.486 28.2556 282.615 28.0332 283.753 28.0584L290.004 28.0419ZM281.647 31.4358C281.386 31.6891 281.184 31.9966 281.055 32.3366C280.926 32.6766 280.874 33.0406 280.903 33.4029C280.879 33.7592 280.932 34.1164 281.057 34.4511C281.181 34.7858 281.376 35.0905 281.627 35.3452C282.224 35.8377 282.988 36.0814 283.761 36.0256H286.694V30.776H283.84C283.052 30.7186 282.271 30.9536 281.647 31.4358V31.4358Z" fill="#F7F7F7"/>
<path d="M96.1855 59.3045C95.5361 58.9644 94.9935 58.4521 94.6176 57.8241C94.2436 57.1709 94.0469 56.4318 94.0469 55.6797C94.0469 54.9276 94.2436 54.1885 94.6176 53.5353C94.9935 52.9074 95.5361 52.395 96.1855 52.0549C96.8756 51.6905 97.647 51.5061 98.4278 51.5188C99.078 51.5097 99.723 51.6347 100.323 51.8858C100.876 52.1217 101.365 52.4849 101.75 52.9456L100.55 54.0467C100.304 53.7482 99.9935 53.5087 99.6419 53.346C99.2902 53.1832 98.9064 53.1014 98.5188 53.1064C98.0526 53.0977 97.5921 53.21 97.1825 53.4322C96.7957 53.6446 96.4772 53.962 96.2641 54.3477C96.0495 54.7591 95.9374 55.216 95.9374 55.6797C95.9374 56.1434 96.0495 56.6003 96.2641 57.0117C96.4772 57.3973 96.7957 57.7148 97.1825 57.9272C97.5921 58.1494 98.0526 58.2617 98.5188 58.253C98.9076 58.2575 99.2923 58.1741 99.6441 58.0091C99.9959 57.8441 100.306 57.6018 100.55 57.3004L101.75 58.4055C101.366 58.871 100.875 59.2373 100.318 59.4736C99.7159 59.7244 99.0682 59.8493 98.4154 59.8406C97.6386 59.8523 96.8715 59.6679 96.1855 59.3045Z" fill="#F7F7F7"/>
<path d="M109.059 53.1724H106.474V59.7004H104.629V53.1724H102.06V51.659H109.059V53.1724Z" fill="#F7F7F7"/>
<path d="M117.176 51.659L113.739 58.0262C113.459 58.5782 113.051 59.0549 112.547 59.4159C112.101 59.723 111.571 59.887 111.029 59.886C110.578 59.8808 110.132 59.7869 109.717 59.6097L110.164 58.1952C110.424 58.2863 110.696 58.3377 110.971 58.3478C111.191 58.3502 111.407 58.2917 111.596 58.1787C111.801 58.0445 111.974 57.8654 112.1 57.655L112.171 57.5643L108.989 51.659H110.983L113.13 55.9766L115.344 51.659H117.176Z" fill="#F7F7F7"/>
<path d="M126.262 58.187V61.3706H124.524V59.721H118.836V61.3706H117.106V58.187H117.429C117.913 58.187 118.257 57.8158 118.455 57.1272C118.691 56.1603 118.815 55.1696 118.823 54.1745L118.914 51.659H125.12V58.187H126.262ZM120.242 56.756C120.173 57.2711 119.98 57.7619 119.68 58.187H123.283V53.1724H120.515L120.482 54.3477C120.459 55.1551 120.379 55.9599 120.242 56.756Z" fill="#F7F7F7"/>
<path d="M127.519 51.659H129.376V56.9086L133.223 51.6714H134.978V59.7128H133.132V54.4714L129.281 59.7004H127.519V51.659Z" fill="#F7F7F7"/>
<path d="M143.43 51.659V59.7004H141.585V57.5643H139.88L138.449 59.7004H136.476L138.159 57.2756C137.651 57.0793 137.217 56.7288 136.918 56.2735C136.615 55.7897 136.462 55.2272 136.48 54.657C136.46 54.0937 136.603 53.5367 136.893 53.0528C137.187 52.5988 137.607 52.2394 138.101 52.0178C138.683 51.767 139.313 51.6446 139.947 51.659H143.43ZM138.776 53.5436C138.631 53.6838 138.519 53.8539 138.447 54.042C138.376 54.2302 138.347 54.4317 138.362 54.6323C138.35 54.8313 138.381 55.0306 138.452 55.2168C138.524 55.4031 138.634 55.5721 138.776 55.7127C139.107 55.9886 139.533 56.1248 139.963 56.0921H141.618V53.1724H139.996C139.557 53.1422 139.123 53.2744 138.776 53.5436V53.5436Z" fill="#F7F7F7"/>
<path d="M157.037 58.187V61.3706H155.308V59.721H149.611V61.3706H147.882V58.187H148.205C148.689 58.187 149.032 57.8158 149.231 57.1272C149.467 56.1603 149.59 55.1696 149.599 54.1745L149.69 51.659H155.895V58.187H157.037ZM151.001 56.756C150.932 57.272 150.738 57.7633 150.434 58.187H154.046V53.1724H151.278L151.241 54.3477C151.22 55.1552 151.14 55.9601 151.001 56.756V56.756Z" fill="#F7F7F7"/>
<path d="M158.295 51.659H160.148V56.9086L164 51.6714H165.754V59.7128H163.909V54.4714L160.057 59.7004H158.295V51.659Z" fill="#F7F7F7"/>
<path d="M173.448 56.2612C173.718 56.598 173.864 57.0173 173.861 57.4488C173.868 57.9207 173.695 58.3775 173.377 58.7272C173.02 59.1095 172.57 59.3935 172.07 59.552C171.49 59.75 170.88 59.8477 170.266 59.8406C169.708 59.8394 169.153 59.7702 168.612 59.6344C168.063 59.4958 167.537 59.282 167.048 58.9994L167.627 57.6674C167.989 57.8825 168.381 58.0436 168.79 58.1457C169.195 58.2527 169.612 58.3081 170.031 58.3107C170.508 58.3281 170.981 58.226 171.408 58.0138C171.568 57.9416 171.704 57.8258 171.801 57.6799C171.897 57.534 171.95 57.3638 171.954 57.189C171.96 57.0532 171.928 56.9184 171.863 56.7992C171.797 56.68 171.7 56.581 171.582 56.5127C171.269 56.3446 170.915 56.2647 170.56 56.2818H168.587V54.8797H170.444C170.755 54.8972 171.064 54.8164 171.326 54.6488C171.427 54.5785 171.51 54.4839 171.565 54.3737C171.621 54.2635 171.648 54.1411 171.644 54.0178C171.644 53.8644 171.601 53.714 171.52 53.5836C171.439 53.4532 171.323 53.3479 171.185 53.2796C170.826 53.0914 170.424 53.0004 170.018 53.0157C169.648 53.0184 169.28 53.0668 168.922 53.1601C168.548 53.2493 168.188 53.388 167.85 53.5724L167.284 52.125C168.14 51.687 169.089 51.462 170.051 51.4693C170.643 51.4624 171.232 51.5559 171.793 51.7456C172.281 51.9039 172.718 52.1885 173.059 52.5704C173.37 52.9071 173.54 53.3497 173.535 53.8075C173.541 54.173 173.431 54.531 173.22 54.8302C173.005 55.1338 172.71 55.3721 172.368 55.5189C172.793 55.6562 173.168 55.9142 173.448 56.2612V56.2612Z" fill="#F7F7F7"/>
<path d="M180.787 57.9767H177.039L176.328 59.7004H174.412L178.011 51.659H179.852L183.464 59.7004H181.503L180.787 57.9767ZM180.2 56.5663L178.921 53.4858L177.639 56.5663H180.2Z" fill="#F7F7F7"/>
<path d="M184.535 51.659H186.393V56.9086L190.244 51.6714H191.994V59.7128H190.149V54.4714L186.298 59.7004H184.535V51.659ZM186.024 49.3827H187.303C187.303 49.9394 187.638 50.2074 188.258 50.2074C188.511 50.2254 188.761 50.1506 188.962 49.9971C189.047 49.9167 189.113 49.8192 189.157 49.7111C189.202 49.6031 189.222 49.4869 189.218 49.3703H190.497C190.509 49.617 190.465 49.8633 190.367 50.09C190.268 50.3168 190.119 50.5178 189.93 50.6775C189.445 51.0098 188.862 51.1682 188.275 51.127C186.788 51.1325 186.038 50.5511 186.024 49.3827Z" fill="#F7F7F7"/>
<path d="M201.406 51.659V59.7004H199.536V56.4014H195.871V59.7004H194.001V51.659H195.871V54.8467H199.536V51.6755L201.406 51.659Z" fill="#F7F7F7"/>
<path d="M208.885 57.9767H205.137L204.425 59.7004H202.51L206.109 51.659H207.954L211.562 59.7004H209.601L208.885 57.9767ZM208.297 56.5663L207.019 53.4858L205.737 56.5663H208.297Z" fill="#F7F7F7"/>
<path d="M215.898 51.659H217.756V56.9086L221.603 51.6714H223.357V59.7128H221.512V54.4714L217.661 59.7004H215.898V51.659Z" fill="#F7F7F7"/>
<path d="M233.98 52.0136C234.477 52.2237 234.9 52.5752 235.197 53.024C235.478 53.4917 235.627 54.027 235.627 54.5725C235.627 55.1179 235.478 55.6532 235.197 56.1209C234.902 56.5731 234.479 56.9266 233.98 57.1354C233.391 57.3802 232.757 57.4996 232.119 57.4859H230.493V59.7004H228.627V51.659H232.119C232.757 51.6425 233.392 51.7634 233.98 52.0136V52.0136ZM233.298 55.6055C233.434 55.4702 233.542 55.3096 233.615 55.1327C233.689 54.9557 233.727 54.7661 233.727 54.5745C233.727 54.383 233.689 54.1933 233.615 54.0164C233.542 53.8395 233.434 53.6788 233.298 53.5436C232.925 53.2786 232.472 53.1504 232.015 53.1807H230.493V55.9766H232.015C232.473 56.0045 232.926 55.8734 233.298 55.6055V55.6055Z" fill="#F7F7F7"/>
<path d="M243.107 58.2076V59.7004H236.86V51.659H242.958V53.1518H238.705V54.8962H242.454V56.3478H238.705V58.2076H243.107Z" fill="#F7F7F7"/>
<path d="M251.965 59.7004V54.8879L249.59 58.8509H248.763L246.388 54.9787V59.7004H244.634V51.659H246.152L249.172 56.657L252.147 51.659H253.694V59.7004H251.965Z" fill="#F7F7F7"/>
<path d="M257.321 59.3004C256.667 58.9586 256.12 58.4435 255.741 57.8117C255.367 57.1631 255.17 56.428 255.17 55.6797C255.17 54.9315 255.367 54.1963 255.741 53.5477C256.12 52.916 256.667 52.4008 257.321 52.059C258.023 51.704 258.798 51.519 259.584 51.519C260.371 51.519 261.146 51.704 261.847 52.059C262.498 52.4045 263.042 52.9189 263.424 53.5477C263.803 54.1947 264.002 54.9305 264.002 55.6797C264.002 56.429 263.803 57.1648 263.424 57.8117C263.042 58.4405 262.498 58.9549 261.847 59.3004C261.146 59.6554 260.371 59.8404 259.584 59.8404C258.798 59.8404 258.023 59.6554 257.321 59.3004V59.3004ZM260.875 57.9272C261.257 57.7119 261.57 57.3949 261.781 57.0117C261.999 56.6011 262.112 56.1439 262.112 55.6797C262.112 55.2155 261.999 54.7583 261.781 54.3477C261.57 53.9645 261.257 53.6475 260.875 53.4322C260.479 53.2186 260.035 53.1067 259.584 53.1067C259.134 53.1067 258.69 53.2186 258.294 53.4322C257.912 53.6475 257.598 53.9645 257.388 54.3477C257.173 54.7591 257.061 55.216 257.061 55.6797C257.061 56.1434 257.173 56.6003 257.388 57.0117C257.598 57.3949 257.912 57.7119 258.294 57.9272C258.69 58.1409 259.134 58.2527 259.584 58.2527C260.035 58.2527 260.479 58.1409 260.875 57.9272V57.9272Z" fill="#F7F7F7"/>
<path d="M272.831 51.659V59.7004H270.973V56.4014H267.308V59.7004H265.43V51.659H267.3V54.8467H270.973V51.6755L272.831 51.659Z" fill="#F7F7F7"/>
<path d="M281.018 53.1724H278.42V59.7004H276.575V53.1724H274.002V51.659H281.002L281.018 53.1724Z" fill="#F7F7F7"/>
<path d="M287.257 57.9767H283.509L282.793 59.7004H280.902L284.497 51.659H286.343L289.954 59.7004H287.993L287.257 57.9767ZM286.669 56.5663L285.391 53.4858L284.109 56.5663H286.669Z" fill="#F7F7F7"/>
</g>
<defs>
<clipPath id="clip0">
<rect width="290" height="85" fill="white"/>
</clipPath>
</defs>
</svg>
