<svg width="184" height="39" viewBox="0 0 184 39" fill="none" xmlns="http://www.w3.org/2000/svg">
<g clip-path="url(#clip0)">
<path d="M47.5016 14.2246H80.3013C83.0687 14.2246 85.7227 15.3315 87.6796 17.3017C89.6364 19.2719 90.7357 21.944 90.7357 24.7303C90.7357 24.7412 90.7314 24.7516 90.7238 24.7593C90.7162 24.767 90.7058 24.7713 90.695 24.7713H57.8953C55.128 24.7713 52.4739 23.6644 50.5171 21.6942C48.5603 19.724 47.4609 17.0519 47.4609 14.2656C47.4609 14.2602 47.462 14.2549 47.464 14.2499C47.4661 14.2449 47.4691 14.2404 47.4729 14.2366C47.4766 14.2328 47.4811 14.2298 47.4861 14.2277C47.491 14.2257 47.4963 14.2246 47.5016 14.2246Z" fill="#DD3B33"/>
<path d="M80.3009 10.5469L47.5013 10.5469C47.4905 10.5469 47.4801 10.5426 47.4725 10.5349C47.4649 10.5272 47.4606 10.5168 47.4606 10.5059C47.4606 7.71961 48.5599 5.04745 50.5167 3.07725C52.4736 1.10705 55.1276 0.000201225 57.895 0.000201225L90.6947 0.000201225C90.7055 0.000201225 90.7158 0.00451851 90.7234 0.0122023C90.7311 0.019887 90.7354 0.0303097 90.7354 0.0411768C90.7354 2.82746 89.636 5.49963 87.6792 7.46983C85.7224 9.44003 83.0683 10.5469 80.3009 10.5469V10.5469Z" fill="#DD3B33"/>
<path d="M31.3504 38.9961H31.2627V38.9268C31.2639 38.9371 31.2671 38.9472 31.2721 38.9563C31.2772 38.9654 31.284 38.9734 31.2921 38.9799C31.3003 38.9863 31.3096 38.9911 31.3196 38.9939C31.3296 38.9967 31.3401 38.9974 31.3504 38.9961Z" fill="#DD3B33"/>
<path d="M90.7322 28.5254C90.7322 31.4158 89.3986 34.0351 87.2416 35.9327C84.8883 37.9408 81.8954 39.0284 78.8108 38.9964H31.3504C31.3401 38.9978 31.3296 38.997 31.3196 38.9942C31.3096 38.9914 31.3003 38.9867 31.2921 38.9802C31.284 38.9738 31.2772 38.9658 31.2721 38.9566C31.2671 38.9475 31.2639 38.9375 31.2627 38.9271V14.3003C31.2651 14.2791 31.2755 14.2597 31.2919 14.2462C31.3083 14.2326 31.3292 14.226 31.3504 14.2278H43.2718V28.4498H90.6508C90.6611 28.4493 90.6714 28.451 90.681 28.4545C90.6907 28.4581 90.6996 28.4636 90.7071 28.4706C90.7147 28.4776 90.7208 28.4861 90.7251 28.4955C90.7294 28.5049 90.7318 28.5151 90.7322 28.5254Z" fill="#DD3B33"/>
<path d="M43.2308 10.5469L10.4718 10.5469C7.69364 10.5469 5.02925 9.43571 3.06479 7.45783C1.10033 5.47994 -0.0032959 2.79735 -0.0032959 0.000201225L32.8371 0.000201225C35.6045 0.000201225 38.2585 1.10705 40.2153 3.07725C42.1721 5.04745 43.2715 7.71961 43.2715 10.5059V10.5059C43.2715 10.5168 43.2672 10.5272 43.2596 10.5349C43.2519 10.5426 43.2416 10.5469 43.2308 10.5469V10.5469Z" fill="#DD3B33"/>
<path d="M27.6406 14.2285V38.9593C27.6406 38.9702 27.6363 38.9806 27.6287 38.9883C27.6211 38.996 27.6107 39.0003 27.5999 39.0003C24.4257 39.0003 21.3815 37.7307 19.137 35.4709C16.8925 33.211 15.6315 30.146 15.6315 26.9501V14.2285H27.6406Z" fill="#DD3B33"/>
<path d="M8.52796 25.0714C10.5751 25.0714 12.2346 23.4005 12.2346 21.3394C12.2346 19.2783 10.5751 17.6074 8.52796 17.6074C6.48082 17.6074 4.82129 19.2783 4.82129 21.3394C4.82129 23.4005 6.48082 25.0714 8.52796 25.0714Z" fill="#DD3B33"/>
<path d="M101.114 10.5654H100.388V28.5162H101.114V10.5654Z" fill="#282828"/>
<path d="M112.212 26.7925C112.068 26.625 111.995 26.408 112.008 26.1873V16.9266C112.008 15.4767 112.415 14.3346 113.229 13.5004C114.043 12.6661 115.164 12.2459 116.592 12.2396C117.399 12.2284 118.193 12.447 118.883 12.87C119.557 13.2775 120.101 13.8716 120.448 14.5815C120.794 13.8672 121.337 13.2693 122.014 12.8605C122.71 12.4347 123.513 12.2162 124.327 12.2301C125.753 12.2301 126.874 12.6441 127.69 13.472C128.506 14.2999 128.913 15.4452 128.911 16.9077V26.1967C128.917 26.3068 128.901 26.417 128.865 26.5209C128.828 26.6248 128.771 26.7204 128.698 26.8019C128.623 26.8736 128.535 26.9294 128.439 26.9662C128.343 27.0031 128.24 27.0201 128.137 27.0163C128.034 27.023 127.931 27.0073 127.834 26.9703C127.737 26.9333 127.65 26.8759 127.577 26.8019C127.438 26.6324 127.369 26.416 127.383 26.1967V16.9266C127.383 15.8465 127.142 15.0186 126.66 14.4428C126.178 13.8671 125.387 13.5802 124.287 13.5823C123.868 13.5587 123.449 13.6261 123.058 13.78C122.668 13.934 122.315 14.1708 122.023 14.4744C121.45 15.1568 121.159 16.0345 121.209 16.9266V26.1967C121.222 26.4174 121.149 26.6345 121.006 26.8019C120.934 26.8744 120.848 26.9309 120.753 26.9678C120.658 27.0047 120.556 27.0212 120.455 27.0163C120.355 27.0216 120.255 27.0052 120.162 26.9682C120.069 26.9313 119.985 26.8745 119.916 26.8019C119.779 26.6316 119.71 26.4158 119.722 26.1967V16.9266C119.766 16.037 119.461 15.1657 118.874 14.4996C118.586 14.1964 118.237 13.9585 117.85 13.8014C117.464 13.6444 117.049 13.5718 116.632 13.5886C115.534 13.5886 114.743 13.8755 114.259 14.4491C113.775 15.0228 113.534 15.8507 113.536 16.9329V26.1967C113.546 26.4146 113.472 26.6279 113.329 26.7925C113.254 26.8659 113.165 26.9229 113.067 26.9597C112.969 26.9966 112.864 27.0127 112.76 27.0068C112.659 27.0113 112.558 26.9946 112.463 26.9577C112.369 26.9208 112.283 26.8645 112.212 26.7925Z" fill="#282828"/>
<path d="M134.305 26.1615C134.066 25.9203 133.882 25.631 133.762 25.3126C133.643 24.9943 133.592 24.6541 133.613 24.3144V14.9151C133.595 14.5827 133.646 14.2501 133.763 13.9389C133.881 13.6278 134.062 13.345 134.295 13.109C134.815 12.6499 135.493 12.4145 136.183 12.4534H142.498C143.027 12.4534 143.293 12.6709 143.293 13.109C143.297 13.195 143.28 13.2806 143.245 13.3589C143.209 13.4373 143.156 13.5061 143.089 13.5597C142.917 13.6809 142.708 13.7388 142.498 13.7236H136.208C136.063 13.7162 135.918 13.7405 135.783 13.7949C135.648 13.8493 135.526 13.9325 135.426 14.0388C135.222 14.2785 135.117 14.5874 135.131 14.9025V18.8331H140.957C141.486 18.8331 141.749 19.0506 141.749 19.4887C141.755 19.579 141.738 19.6692 141.701 19.7515C141.664 19.8339 141.607 19.906 141.537 19.9615C141.367 20.0786 141.163 20.1362 140.957 20.1254H135.131V24.3491C135.116 24.6633 135.221 24.9714 135.426 25.2096C135.525 25.3162 135.647 25.3997 135.782 25.4541C135.918 25.5086 136.063 25.5327 136.208 25.5248H142.952C143.484 25.5248 143.747 25.736 143.747 26.1552C143.752 26.2454 143.735 26.3355 143.698 26.4177C143.661 26.5 143.604 26.5721 143.534 26.628C143.363 26.7458 143.158 26.8034 142.952 26.7919H136.23C135.532 26.8407 134.841 26.6147 134.305 26.1615Z" fill="#282828"/>
<path d="M148.705 26.1425C148.469 25.9026 148.285 25.6154 148.166 25.2993C148.047 24.9833 147.995 24.6455 148.014 24.308V14.915C147.996 14.5819 148.049 14.2489 148.168 13.9377C148.287 13.6265 148.471 13.3441 148.705 13.1089C149.229 12.6459 149.913 12.4102 150.609 12.4533H153.461C154.749 12.4222 156.024 12.7297 157.158 13.3453C158.197 13.9284 159.044 14.805 159.594 15.8669C160.183 17.0377 160.477 18.3369 160.448 19.6493C160.479 20.962 160.185 22.2617 159.594 23.4318C159.041 24.4839 158.195 25.3497 157.158 25.9219C156.022 26.5315 154.748 26.8355 153.461 26.8044H150.643C149.936 26.8502 149.239 26.6122 148.705 26.1425ZM153.26 25.531C155.053 25.531 156.442 25.0172 157.427 23.9897C158.412 22.9621 158.904 21.5132 158.902 19.643C158.902 17.7707 158.406 16.3145 157.415 15.2743C156.423 14.2341 155.039 13.7088 153.26 13.6983H150.634C150.488 13.6906 150.342 13.7148 150.207 13.7692C150.071 13.8236 149.949 13.907 149.848 14.0135C149.644 14.2532 149.539 14.5621 149.554 14.8772V24.349C149.539 24.6632 149.644 24.9713 149.848 25.2095C149.948 25.3166 150.071 25.4002 150.206 25.4547C150.342 25.5091 150.488 25.533 150.634 25.5247L153.26 25.531Z" fill="#282828"/>
<path d="M165.586 26.7917C165.442 26.6249 165.368 26.4074 165.383 26.1865V13.0678C165.368 12.8469 165.442 12.6294 165.586 12.4626C165.658 12.3904 165.743 12.334 165.838 12.2971C165.932 12.2602 166.033 12.2436 166.134 12.2483C166.239 12.2422 166.345 12.2591 166.443 12.2977C166.541 12.3363 166.63 12.3958 166.704 12.4721C166.846 12.6365 166.92 12.8498 166.91 13.0678V26.196C166.921 26.413 166.847 26.6256 166.704 26.7885C166.552 26.9301 166.352 27.0087 166.145 27.0087C165.938 27.0087 165.738 26.9301 165.586 26.7885V26.7917Z" fill="#282828"/>
<path d="M172.43 26.7919C172.286 26.6245 172.213 26.4074 172.226 26.1868V18.1743C172.226 16.3188 172.748 14.8668 173.791 13.8182C174.835 12.7696 176.278 12.2443 178.121 12.2422C179.951 12.2422 181.39 12.7675 182.438 13.8182C183.486 14.8689 184.008 16.3178 184.003 18.1648V26.1962C184.016 26.4169 183.943 26.6339 183.8 26.8014C183.725 26.875 183.636 26.932 183.538 26.9689C183.439 27.0058 183.335 27.0218 183.23 27.0157C183.127 27.0199 183.025 27.0031 182.928 26.9662C182.832 26.9294 182.744 26.8733 182.67 26.8014C182.596 26.7202 182.538 26.6248 182.502 26.5208C182.465 26.4167 182.45 26.3063 182.457 26.1962V21.5816H173.751V26.1962C173.763 26.4169 173.69 26.6339 173.547 26.8014C173.472 26.875 173.383 26.932 173.285 26.9689C173.187 27.0058 173.082 27.0218 172.977 27.0157C172.876 27.019 172.774 27.0008 172.68 26.9622C172.586 26.9237 172.5 26.8657 172.43 26.7919ZM182.448 20.2988V18.0923C182.448 16.6214 182.074 15.4961 181.327 14.7165C180.58 13.9369 179.509 13.5492 178.115 13.5534C176.7 13.5534 175.62 13.9432 174.875 14.7228C174.129 15.5024 173.755 16.633 173.751 18.1144V20.3208L182.448 20.2988Z" fill="#282828"/>
</g>
<defs>
<clipPath id="clip0">
<rect width="184" height="39" fill="white"/>
</clipPath>
</defs>
</svg>
