<svg width="222" height="43" viewBox="0 0 222 43" fill="none" xmlns="http://www.w3.org/2000/svg">
<path fill-rule="evenodd" clip-rule="evenodd" d="M211.594 34.9272L219.9 12.2907H196.975C195.391 12.3909 193.869 12.9331 192.586 13.854C191.302 14.775 190.31 16.0369 189.725 17.4929L183.471 34.3414H171.202L177.135 19.1098H183.388L186.355 11.0371H180.232L184.444 0H173.575L169.493 10.9902H162.314L159.348 19.0629H166.527L160.867 34.2945H148.324L157.105 11.5174H146.426L137.799 34.8687H127.915L125.15 26.0812L141.086 12.0213H129.766L116.927 23.3512H115.942L124.248 0.785014H114.293L101.715 34.9272H92.5544L100.789 12.2907H77.9237C76.3358 12.4006 74.8105 12.9457 73.5192 13.8647C72.2279 14.7837 71.2219 16.0402 70.6143 17.4929L64.0761 35.4545H55.4614L64.0761 12.2322H45.2567L47.2977 6.63161H28.9173L30.8515 1.30054H0V11.0605H17.3955L5.60073 43H15.4851L25.2982 16.4619H33.7942L23.9811 43H33.9247L41.6376 22.0507H50.5252L42.8242 43H58.6297L63.6964 37.8564C63.7676 40.3872 65.0847 43 67.3274 43H76.4167L81.875 37.2706C81.7327 39.942 83.0616 43 85.4348 43H94.5241L100.908 36.8136L98.7484 43H108.692L114.554 27.124H115.669L120.677 43H131.285L137.218 36.755C136.957 39.5436 138.404 42.8008 140.849 42.8008H154.091L160.214 36.1692C159.68 39.0281 161.14 42.8008 163.774 42.8008H177.016L182.747 36.6262C182.285 39.4147 183.732 43 186.307 43H195.397L200.867 37.2706C200.736 39.942 202.125 43 204.498 43H221.953V34.9272H211.594ZM82.3378 34.7398H74.5063L79.7036 20.6798H87.547L82.3378 34.7398ZM201.377 34.7398H193.534L198.814 20.6798H206.586L201.377 34.7398V34.7398Z" fill="#D2232A"/>
<path fill-rule="evenodd" clip-rule="evenodd" d="M161.591 0H150.65L147.363 8.91635H158.161L161.591 0Z" fill="#D2232A"/>
</svg>
