<svg width="125" height="140" viewBox="0 0 125 140" fill="none" xmlns="http://www.w3.org/2000/svg">
<path fill-rule="evenodd" clip-rule="evenodd" d="M122.324 132.847C120.793 132.847 119.638 133.954 119.638 135.743C119.638 137.463 120.804 138.639 122.489 138.639C123.184 138.639 123.879 138.416 124.445 137.98L124.998 139.064C124.479 139.617 123.432 139.995 122.359 139.995C119.838 139.995 118.106 138.31 118.106 135.743C118.106 133.376 119.602 131.492 122.324 131.492C123.396 131.492 124.291 131.834 124.833 132.328L124.185 133.4C123.69 133.07 123.149 132.847 122.324 132.847ZM118.685 114.75C118.336 114.75 117.452 114.75 116.87 114.68V120.217H113.145V103.93C114.053 103.93 116.87 103.884 118.127 103.884C123.085 103.884 124.715 106.466 124.715 109.281C124.715 112.19 122.457 114.75 118.685 114.75ZM118.499 107.374C118.01 107.374 117.638 107.397 116.87 107.42V111.143C117.405 111.213 118.033 111.259 118.569 111.259C119.547 111.259 120.757 110.841 120.757 109.258C120.757 107.816 119.826 107.374 118.499 107.374ZM117.116 131.622L113.724 135.461L117.329 139.865H115.49L112.121 135.613V139.865H110.672V131.622H112.121V135.531L115.373 131.622H117.116ZM99.7122 120.497C94.7537 120.497 91.0522 117.262 91.0522 112.074C91.0522 107.351 94.5204 103.651 99.7122 103.651C104.671 103.651 108.372 106.885 108.372 112.074C108.372 117.006 104.671 120.497 99.7122 120.497ZM99.7122 107.141C97.0118 107.141 95.0091 109.095 95.0091 112.074C95.0091 114.866 97.1045 117.006 99.7122 117.006C102.808 117.006 104.415 114.82 104.415 112.074C104.415 109.095 102.343 107.141 99.7122 107.141ZM82.8798 120.217H79.1551V103.93H88.4671V107.42H82.8798V120.217ZM81.8087 131.622V139.865H80.3717V133.906L77.7677 137.568H77.5554L74.9288 133.942V139.865H73.4795V131.622H74.9401L77.7559 135.473L80.4423 131.622H81.8087ZM69.9827 116.797H63.5339L62.1837 120.217H58.4358L65.2101 103.93H68.5393L75.3135 120.217H71.3329L69.9827 116.797ZM66.7699 108.7L64.931 113.307H68.5862L66.7699 108.7ZM61.639 131.622L58.2462 135.461L61.8512 139.865H60.0134L56.6438 135.613V139.865H55.195V131.622H56.6438V135.531L59.8954 131.622H61.639ZM49.2623 118.216V120.404H45.5377V118.216C41.1848 118.17 38.2979 115.913 38.2979 111.841C38.2979 107.816 41.2543 105.582 45.5377 105.466V103.745H49.2623V105.466C53.5 105.559 56.549 107.862 56.549 111.841C56.549 115.89 53.5926 118.17 49.2623 118.216ZM45.5377 108.886C43.1632 108.956 42.2553 110.259 42.2553 111.841C42.2553 113.726 43.2564 114.75 45.5377 114.796V108.886ZM49.2623 108.886V114.796C51.7069 114.75 52.5915 113.749 52.5915 111.841C52.5915 110.306 51.7537 108.956 49.2623 108.886ZM35.6266 139.995C33.1761 139.995 31.3383 138.31 31.3383 135.743C31.3383 133.353 33.0937 131.492 35.6266 131.492C38.077 131.492 39.9267 133.177 39.9267 135.743C39.9267 138.216 38.077 139.995 35.6266 139.995ZM35.6266 132.847C34.0479 132.847 32.8696 134.035 32.8696 135.743C32.8696 137.392 34.0829 138.639 35.6266 138.639C37.3582 138.639 38.3949 137.368 38.3949 135.743C38.3949 134.035 37.1815 132.847 35.6266 132.847ZM30.0334 110.096L22.8162 120.217H19.5571V103.93H23.2817V114.051L30.4989 103.93H33.758V120.217H30.0334V110.096ZM19.8987 139.865H18.4498V134.012L14.126 139.865H12.8534V131.622H14.3028V137.486L18.6266 131.622H19.8987V139.865ZM9.89542 107.42H4.1923V120.217H0.467083V103.93H13.6206V120.217H9.89542V107.42ZM1.7909 131.622L4.78335 135.555V131.622H6.22085V135.555L9.20146 131.622H10.8744L7.77635 135.555L11.0043 139.865H9.33131L6.22085 135.591V139.865H4.78335V135.591L1.66159 139.865H0.000488281L3.2284 135.566L0.130337 131.622H1.7909ZM23.7629 133.271L23.8809 131.622H29.0765V139.865H27.639V132.976H25.2354L25.0705 134.531C24.5878 139.323 23.5156 140.1 21.8895 139.865L21.9251 138.428C22.5614 138.511 23.3976 138.24 23.7629 133.271ZM45.8523 131.304C44.4391 131.304 43.5786 130.621 43.4962 129.62H44.8512C44.945 130.08 45.2634 130.303 45.8523 130.303C46.3825 130.303 46.7478 130.127 46.7952 129.62H48.1497C48.1147 130.633 47.1487 131.304 45.8523 131.304ZM43.6379 137.486L47.9612 131.622H49.2338V139.865H47.7844V134.012L43.4606 139.865H42.1885V131.622H43.6379V137.486ZM66.9175 131.492C69.368 131.492 71.2176 133.177 71.2176 135.743C71.2176 138.216 69.368 139.995 66.9175 139.995C64.4671 139.995 62.6287 138.31 62.6287 135.743C62.6287 133.353 64.3841 131.492 66.9175 131.492ZM66.9175 138.639C68.6487 138.639 69.6858 137.368 69.6858 135.743C69.6858 134.035 68.4725 132.847 66.9175 132.847C65.3383 132.847 64.16 134.035 64.16 135.743C64.16 137.392 65.3739 138.639 66.9175 138.639ZM91.257 139.865H89.8081V132.976H86.132V139.865H84.6831V131.622H91.257V139.865ZM95.1212 133.271L95.2392 131.622H100.434V139.865H98.9973V132.976H96.5937L96.4288 134.531C95.9455 139.323 94.8739 140.1 93.2478 139.865L93.2828 138.428C93.9191 138.511 94.7553 138.24 95.1212 133.271ZM108.081 132.976H104.758V135.025H107.727V136.379H104.758V138.511H108.198V139.865H103.309V131.622H108.081V132.976Z" fill="#2B2A29"/>
<path fill-rule="evenodd" clip-rule="evenodd" d="M98.138 37.8169C101.602 26.4267 104.315 13.0956 99.4952 9.54512C96.4763 7.32183 91.8971 6.19348 85.8837 6.19348C76.6423 6.19348 66.2042 8.79181 59.0744 10.9709C45.8222 15.0214 30.1056 22.0717 26.9138 27.9775C24.7258 32.0065 26.7042 39.4803 32.7921 50.191C37.944 59.2561 44.7301 67.8513 48.7705 71.6556C57.4111 79.7916 64.6638 83.9171 70.326 83.9171C70.3271 83.9171 70.3271 83.9171 70.3271 83.9171C71.8578 83.9171 73.2603 83.6094 74.4973 82.9989C74.819 82.8394 75.152 82.6276 75.4909 82.3927C74.4882 83.4779 73.5733 84.2592 72.7705 84.693C71.764 85.2378 70.5771 85.5131 69.2452 85.5131C69.2446 85.5131 69.2446 85.5131 69.2446 85.5131C65.3535 85.5131 58.3362 83.1514 47.0043 71.9029C43.0286 67.9564 35.6552 58.4139 29.8195 48.5028C23.2021 37.2619 20.4822 28.7465 22.3583 25.1394C25.0086 20.0424 40.7463 12.0831 58.1875 7.01792C65.6202 4.85929 76.5879 2.28629 86.6331 2.28629C93.6218 2.28629 98.8384 3.54504 102.139 6.02644C105.64 8.65979 103.992 21.0436 98.138 37.8169ZM95.4752 14.8894C93.1229 13.2039 89.6072 12.3493 85.0243 12.3493C76.9289 12.3493 67.2732 14.9433 60.5981 17.1197C49.1568 20.8491 36.3389 26.8578 33.499 31.8696C31.4672 35.4228 32.8923 41.7645 37.7328 50.718C41.5658 57.8055 47.4925 65.6458 52.146 69.7847C59.8077 76.5968 66.2743 80.0514 71.3675 80.0524C72.7387 80.0524 74.0054 79.7965 75.1337 79.2932C75.7371 79.0243 76.3675 78.617 77.0151 78.1007C75.4548 79.9156 74.3163 80.7492 73.5668 81.1221C72.624 81.5855 71.534 81.8204 70.3271 81.8204C66.8125 81.8204 60.4704 79.7938 50.2085 70.1306C46.2813 66.433 39.6633 58.0415 34.6137 49.1559C29.069 39.3995 26.9893 32.2334 28.7581 28.9749C31.1735 24.5047 44.4704 17.6257 59.6881 12.9749C66.68 10.8367 76.9009 8.28907 85.8837 8.28907C91.4402 8.28907 95.6002 9.27947 98.2516 11.2323C101.705 13.7767 99.9418 26.7059 93.7807 44.3936C97.4004 32.2269 100.218 18.288 95.4752 14.8894ZM91.0803 46.7069C90.8093 47.5695 90.528 48.4274 90.2409 49.2836C90.3874 48.7496 90.5318 48.2146 90.6703 47.6762C94.7425 31.916 95.0065 22.6823 91.4548 20.2327C89.7403 19.0499 87.2296 18.4507 83.9941 18.4507C77.152 18.4507 68.3222 21.0706 62.1186 23.2685C53.6213 26.2791 42.7506 31.3583 40.0841 35.7628C38.208 38.8618 39.0787 44.0692 42.6735 51.2407C45.7419 57.3637 50.9052 64.0621 55.5221 67.9106C62.1148 73.4068 67.7834 76.1937 72.3723 76.1948C72.3723 76.1948 72.3723 76.1948 72.3734 76.1948C73.5992 76.1948 74.7436 75.9879 75.7748 75.5832C76.6918 75.2233 77.6363 74.5998 78.5798 73.7528C77.0593 75.6694 75.5862 77.0058 74.3573 77.5527C73.4753 77.9466 72.4693 78.1471 71.3675 78.1471C68.1972 78.1471 62.5081 76.4481 53.4133 68.361C48.9074 64.3542 43.1487 56.7262 39.41 49.8128C35.0302 41.7123 33.5183 35.675 35.1552 32.811C37.3292 28.9771 48.2775 23.1397 61.1891 18.9303C67.7328 16.7975 77.1789 14.2547 85.0243 14.2547C89.2005 14.2547 92.3432 14.9891 94.3653 16.4381C97.5431 18.7158 96.3158 30.0316 91.0803 46.7069ZM87.3729 52.9128C87.7732 51.3242 88.1337 49.6991 88.4381 48.0707C90.8519 35.1496 90.5124 27.5809 87.4316 25.5748C86.3071 24.8425 84.7134 24.4718 82.694 24.4718C77.2436 24.4718 69.3222 27.1628 63.6369 29.4206C54.9548 32.8681 48.6126 36.6934 46.6714 39.6544C44.5043 42.9619 45.9866 48.0599 47.6116 51.7542C49.8664 56.8814 54.2964 62.487 58.8966 66.0348C64.249 70.1635 69.2414 72.3458 73.3346 72.3458H73.3357C74.4397 72.3458 75.4774 72.1863 76.4187 71.8706C77.6477 71.4594 78.8578 70.6614 79.9812 69.54C79.8955 69.6618 79.8088 69.7944 79.7236 69.9092C78.1935 71.981 76.5679 73.4295 75.1471 73.9877C74.3168 74.3137 73.3837 74.4786 72.3734 74.4786H72.3723C68.2543 74.4786 62.8077 71.752 56.6207 66.5942C52.1692 62.8826 47.18 56.404 44.2075 50.4723C40.9876 44.0487 40.0453 39.1398 41.5518 36.6508C43.5237 33.3951 52.0194 28.6667 62.6929 24.8845C68.7689 22.7313 77.396 20.1653 83.9941 20.1653C86.875 20.1653 89.0571 20.6627 90.4806 21.6444C91.7931 22.5497 94.2781 26.8567 89.0092 47.2468C88.5162 49.1575 87.9634 51.0575 87.3729 52.9128ZM86.2032 48.4603C86.7107 42.8234 87.0227 33.0481 83.4014 30.9143C82.7921 30.5548 81.9709 30.3733 80.9618 30.3733C77.8109 30.3733 72.4903 32.124 65.1471 35.5764C61.6913 37.2016 55.5523 40.3975 53.2608 43.5443C51.6676 45.7326 51.4133 48.8234 52.5448 52.2489C53.8907 56.3221 57.7091 60.9977 62.2727 64.1596C66.3195 66.9633 70.5712 68.5081 74.2441 68.5087C75.2516 68.5087 76.2015 68.3896 77.0658 68.1541C78.5674 67.7462 79.9176 66.8835 81.013 65.6786C80.6665 66.2719 80.3201 66.7989 79.979 67.2397C78.7457 68.8331 77.3098 69.9647 75.9338 70.4254C75.1482 70.6878 74.2748 70.8209 73.3357 70.8209H73.3346C69.5819 70.8209 64.9122 68.7485 59.8287 64.8278C55.4839 61.4762 51.1353 55.9761 49.0076 51.141C47.5351 47.7916 46.1557 43.2253 47.9478 40.4896C49.6961 37.8218 55.9235 34.1236 64.2005 30.8367C72.1757 27.6699 78.5701 25.9967 82.694 25.9967C84.4122 25.9967 85.7269 26.2845 86.5992 26.8524C89.0076 28.4205 89.1315 36.0522 86.9391 47.791C86.4634 50.3387 85.8551 52.874 85.1633 55.2578C85.618 53.1693 85.9855 50.8786 86.2032 48.4603ZM80.5162 61.876C79.437 62.9472 77.4984 63.5373 75.055 63.5373H75.0539C72.0663 63.5373 68.6832 62.6767 66.2253 61.2924C61.1956 58.4586 58.757 54.7977 58.6186 52.5949C58.4629 50.0989 62.0119 46.0365 67.2511 42.7156C72.5825 39.3354 76.9133 37.236 78.5528 37.236C78.7398 37.236 78.8308 37.2657 78.8691 37.2835C80.5884 38.0793 82.4758 41.9795 82.8163 48.8978C83.1417 55.4933 81.4672 60.9303 80.5162 61.876ZM83.9602 48.8418C83.6396 42.3379 81.8298 37.3939 79.3503 36.2451C79.1277 36.1422 78.8675 36.0921 78.5528 36.0921C75.8535 36.0921 69.3206 40.0483 66.6369 41.7489C60.8853 45.3958 57.2894 49.6808 57.4769 52.6665C57.6708 55.7724 60.9602 59.6398 65.6638 62.2888C68.2824 63.7641 71.881 64.6812 75.0539 64.6812C75.0539 64.6812 75.0539 64.6812 75.055 64.6812C76.999 64.6812 79.6633 64.3353 81.3222 62.688C81.3637 62.6465 81.4063 62.5878 81.4483 62.5372C81.0372 63.4069 80.6261 64.1036 80.2387 64.5648C79.2818 65.7045 78.0642 66.5009 76.7166 66.8668C75.965 67.0705 75.1337 67.174 74.2441 67.174C70.84 67.174 66.8589 65.7137 63.0334 63.0625C58.6929 60.0552 55.0733 55.6464 53.8125 51.8302C53.2371 50.0897 52.5415 46.8001 54.34 44.3289C55.8858 42.2058 60.0318 39.4561 65.7155 36.7839C72.7791 33.4625 78.0507 31.7069 80.9618 31.7069C81.7285 31.7069 82.3217 31.8271 82.7231 32.0631C84.874 33.331 85.6773 39.4157 84.874 48.3406C84.6099 51.2661 84.1121 54.0541 83.5011 56.4967C83.8853 54.2599 84.0976 51.6174 83.9602 48.8418ZM103.514 4.20028C99.8082 1.41389 94.1288 0.000488281 86.6331 0.000488281C76.319 0.000488281 65.1245 2.62307 57.5491 4.82373C41.6261 9.44705 23.7279 17.5481 20.3292 24.0849C17.4074 29.7045 22.8061 41.0953 27.8486 49.6619C33.7818 59.7389 41.3158 69.4775 45.3928 73.5248C54.9338 82.9956 62.9591 87.7989 69.2446 87.7989C69.2446 87.7989 69.2446 87.7989 69.2452 87.7989C70.9607 87.7989 72.5135 87.4298 73.8589 86.704C80.2085 83.2721 90.4849 63.8681 97.354 46.473C101.648 35.6001 110.844 9.71378 103.514 4.20028Z" fill="#2B2A29"/>
</svg>
