<svg width="248" height="129" viewBox="0 0 248 129" fill="none" xmlns="http://www.w3.org/2000/svg">
<g clip-path="url(#clip0)">
<path d="M14.5367 99.8389C13.4275 101.01 11.209 101.83 8.99058 101.83C3.67797 101.83 0 98.2579 0 92.8121C0 87.7763 3.15254 83.7944 8.87382 83.7944C11.1507 83.7944 13.0188 84.4971 14.1864 85.5511L12.8437 87.8348C11.7928 87.1322 10.6836 86.6637 8.9322 86.6637C5.72128 86.6637 3.2693 89.006 3.2693 92.8121C3.2693 96.4426 5.72128 98.9606 9.28249 98.9606C10.742 98.9606 12.2015 98.4921 13.4275 97.5552L14.5367 99.8389ZM18.1563 84.0872H28.1977V86.9565H21.1921V91.2897H27.4388V94.1589H21.1921V98.6678H28.4313V101.478H18.1563V84.0872ZM36.0791 93.9833V98.6092C36.4878 98.6678 37.2467 98.7263 38.064 98.7263C40.1073 98.7263 41.2166 97.848 41.2166 96.2084C41.2166 94.7445 40.1073 93.9833 38.1808 93.9833H36.0791ZM36.0791 86.9565V91.3482H38.1224C39.5235 91.3482 40.6911 90.6455 40.6911 89.006C40.6911 87.6006 39.5819 86.8394 37.9473 86.8394C37.3051 86.8394 36.6045 86.8979 36.0791 86.9565ZM33.0433 84.1458C34.0358 84.0872 36.3126 84.0287 38.064 84.0287C42.209 84.0287 43.7853 85.9025 43.7853 88.3618C43.7853 90.3528 42.7928 91.641 41.275 92.3437V92.4022C42.968 92.8121 44.3107 94.1589 44.3107 96.4426C44.3107 100.015 41.5085 101.654 37.8305 101.654C36.2542 101.654 33.9774 101.596 32.9849 101.537V84.1458H33.0433ZM48.9228 84.0872H59.0226V86.9565H52.0169V91.2897H58.2637V94.1589H52.0169V98.6678H59.2561V101.478H48.9228V84.0872ZM66.8456 86.9565V92.2851C67.5461 92.3437 68.3051 92.4022 69.0056 92.4022C70.8154 92.4022 72.2166 91.5239 72.2166 89.5915C72.2166 87.7763 71.1073 86.8979 69.0056 86.8979C68.4218 86.8979 67.7213 86.8979 66.8456 86.9565ZM63.8098 101.478V84.0287C64.8023 84.0287 67.5461 83.9701 68.7721 83.9701C73.9096 83.9701 75.4859 86.7223 75.4859 89.5915C75.4859 92.5779 73.2674 95.2715 69.1224 95.2715C68.597 95.2715 67.6045 95.2715 66.8456 95.213V101.537H63.8098V101.478ZM90.6064 94.0418H82.6667V101.478H79.6309V84.0872H82.6667V91.1725H90.6064V84.0872H93.6422V101.478H90.6064V94.0418ZM102.866 94.1589H107.945L105.435 87.9519L102.866 94.1589ZM104.151 84.0287H106.836L114.192 101.537H110.923L109.113 97.0868H101.699L99.8889 101.537H96.7947L104.151 84.0287ZM125.284 92.6365V86.9565C124.876 86.9565 123.883 86.8979 123.358 86.8979C121.373 86.8979 120.03 88.1276 120.03 89.8843C120.03 91.4653 121.198 92.4022 122.482 92.695H125.284V92.6365ZM125.284 95.5057H122.774L118.863 101.537H115.418L119.855 94.8616C118.22 94.0418 116.819 92.4608 116.819 90.0014C116.819 86.7808 118.921 83.9701 124 83.9701C125.109 83.9701 127.328 84.0287 128.32 84.0287V101.478H125.284V95.5057ZM139.529 84.0872H142.623V92.3437L149.454 84.0872H153.132L146.009 92.168L153.599 101.478H149.687L142.623 92.5193V101.478H139.529V84.0872ZM163.64 98.902C167.318 98.902 169.478 96.2084 169.478 92.7536C169.478 89.1231 166.91 86.6051 163.64 86.6051C160.313 86.6051 157.802 89.1231 157.802 92.7536C157.802 96.267 160.371 98.902 163.64 98.902ZM163.64 83.7944C168.778 83.7944 172.689 87.3664 172.689 92.8121C172.689 98.0237 168.778 101.83 163.64 101.83C158.503 101.83 154.591 98.2579 154.591 92.8121C154.591 87.7177 158.269 83.7944 163.64 83.7944ZM179.87 86.9565V92.2851C180.571 92.3437 181.33 92.4022 182.03 92.4022C183.84 92.4022 185.241 91.5239 185.241 89.5915C185.241 87.7763 184.132 86.8979 182.03 86.8979C181.446 86.8979 180.687 86.8979 179.87 86.9565ZM176.834 101.478V84.0287C177.827 84.0287 180.571 83.9701 181.797 83.9701C186.934 83.9701 188.51 86.7223 188.51 89.5915C188.51 92.5779 186.292 95.2715 182.147 95.2715C181.621 95.2715 180.629 95.2715 179.87 95.213V101.537H176.834V101.478ZM200.245 98.902C203.923 98.902 206.083 96.2084 206.083 92.7536C206.083 89.1231 203.514 86.6051 200.245 86.6051C196.917 86.6051 194.407 89.1231 194.407 92.7536C194.407 96.267 196.976 98.902 200.245 98.902ZM200.245 83.7944C205.382 83.7944 209.294 87.3664 209.294 92.8121C209.294 98.0237 205.382 101.83 200.245 101.83C195.107 101.83 191.196 98.2579 191.196 92.8121C191.196 87.7177 194.874 83.7944 200.245 83.7944ZM224.414 94.0418H216.475V101.478H213.439V84.0872H216.475V91.1725H224.414V84.0872H227.45V101.478H224.414V94.0418ZM236.674 94.1589H241.753L239.243 87.9519L236.674 94.1589ZM237.959 84.0287H240.644L248 101.537H244.731L242.921 97.0868H235.507L233.697 101.537H230.603L237.959 84.0287ZM55.1695 123.262L59.6648 128.824H58.1469L53.7684 123.262L57.9718 118.167H59.4896L55.1695 123.262ZM52.1921 118.167H53.4765V128.824H52.1921V118.167ZM46.2373 118.167H47.7552L51.9586 123.262L47.58 128.824H46.0621L50.5574 123.262L46.2373 118.167ZM61.9416 128.824V118.167H63.226V126.658L69.7062 118.167H70.8154V128.824H69.5311V120.275L63.0508 128.824H61.9416ZM80.9153 119.338H77.0621L76.887 121.329C76.2448 128.122 74.8437 129 73.1507 128.766V127.478C73.9096 127.536 75.194 127.185 75.661 120.217L75.8362 118.109H82.1996V128.824H80.9153V119.338ZM90.3729 127.77C92.8249 127.77 94.4595 125.897 94.4595 123.496C94.4595 121.036 92.7081 119.221 90.3729 119.221C88.0377 119.221 86.2863 120.978 86.2863 123.496C86.2863 125.897 88.096 127.77 90.3729 127.77ZM90.3729 117.991C93.467 117.991 95.8023 120.217 95.8023 123.496C95.8023 126.658 93.467 129 90.3729 129C87.2787 129 84.9435 126.775 84.9435 123.496C84.9435 120.392 87.2203 117.991 90.3729 117.991ZM101.465 115.708C101.699 116.352 102.224 116.703 103.1 116.703C103.917 116.703 104.501 116.41 104.676 115.708H105.902C105.785 116.879 104.559 117.64 103.1 117.64C101.524 117.64 100.414 116.82 100.239 115.708H101.465ZM98.5461 128.824V118.167H99.8305V126.716L106.311 118.167H107.478V128.824H106.194V120.275L99.6554 128.824H98.5461ZM117.812 123.144L122.774 128.824H121.139L116.294 123.262L120.964 118.167H122.54L117.812 123.144ZM114.776 118.167H116.06V128.824H114.776V118.167ZM129.021 127.77C131.473 127.77 133.107 125.897 133.107 123.496C133.107 121.036 131.356 119.221 129.021 119.221C126.685 119.221 124.934 120.978 124.934 123.496C124.934 125.897 126.744 127.77 129.021 127.77ZM129.021 117.991C132.115 117.991 134.45 120.217 134.45 123.496C134.45 126.658 132.115 129 129.021 129C125.927 129 123.591 126.775 123.591 123.496C123.591 120.392 125.868 117.991 129.021 117.991ZM137.136 118.167H138.478L142.448 123.613L146.301 118.167H147.527V128.824H146.243V120.158L142.448 125.487H142.273L138.478 120.217V128.824H137.136V118.167ZM158.153 119.338H152.373V128.824H151.089V118.167H159.437V128.824H158.153V119.338ZM169.537 119.338H165.684L165.508 121.329C164.866 128.122 163.465 129 161.772 128.766V127.478C162.531 127.536 163.815 127.185 164.282 120.217L164.458 118.109H170.821V128.824H169.537V119.338ZM174.441 118.167H180.395V119.338H175.725V122.793H179.987V124.023H175.725V127.595H180.571V128.824H174.441V118.167ZM186.584 123.144L191.546 128.824H189.911L185.066 123.262L189.736 118.167H191.313L186.584 123.144ZM183.548 118.167H184.832V128.824H183.548V118.167ZM201.121 127.77C200.42 128.532 199.077 128.941 197.734 128.941C194.524 128.941 192.363 126.775 192.363 123.437C192.363 120.392 194.348 117.933 197.676 117.933C199.019 117.933 200.128 118.343 200.887 118.987L200.303 119.982C199.603 119.455 198.785 119.163 197.676 119.163C195.341 119.163 193.706 120.919 193.706 123.437C193.706 126.014 195.399 127.712 197.851 127.712C198.844 127.712 199.836 127.36 200.595 126.775L201.121 127.77Z" fill="#6C1C3A"/>
<path d="M123.825 34.4898L103.041 51.764L78.9887 35.3681L80.6817 40.2283L104.209 56.2142L123.883 39.877L143.557 56.2142L167.085 40.1698L168.719 35.3096L144.608 51.7054L123.825 34.4898ZM123.825 0L98.3126 21.256L69.2975 1.52247L70.29 4.45029L99.3051 24.1838L123.766 3.80617L148.228 24.1838L177.243 4.39174L178.235 1.46391L149.22 21.1975L123.825 0ZM123.825 43.1561L104.209 59.4349L81.3823 43.8588L83.1921 49.1875L105.318 64.2365L123.766 48.8947L142.215 64.2365L164.399 49.1289L166.209 43.8003L143.324 59.3763L123.825 43.1561ZM123.825 17.2742L100.648 36.5393L74.1431 18.4453L75.4859 22.31L101.757 40.1698L123.825 21.783L145.893 40.1698L172.164 22.2515L173.507 18.3867L146.944 36.4221L123.825 17.2742ZM123.825 25.882L101.874 44.1516L76.5951 26.936L78.113 31.3277L102.983 48.2506L123.825 30.8593L144.667 48.2506L169.595 31.2692L171.113 26.8774L145.776 44.0931L123.825 25.882ZM148.17 28.8684L175.959 9.95461L174.791 13.3509L147.119 32.2061L123.825 12.8239L100.531 32.2061L72.8588 13.3509L71.6911 9.95461L99.4218 28.8684L123.766 8.60781L148.17 28.8684Z" fill="#B51541"/>
</g>
<defs>
<clipPath id="clip0">
<rect width="248" height="129" fill="white"/>
</clipPath>
</defs>
</svg>
