<svg width="165" height="99" viewBox="0 0 165 99" fill="none" xmlns="http://www.w3.org/2000/svg">
<path fill-rule="evenodd" clip-rule="evenodd" d="M17.0774 99.0095H147.134L82.4484 34.4463L17.0774 99.0095Z" fill="#72BF44"/>
<path fill-rule="evenodd" clip-rule="evenodd" d="M14.5895 95.7577L24.7195 85.8999L21.3491 82.4421L14.9838 88.6361L3.76472 77.1665L0 80.8398L14.5895 95.7577Z" fill="#231F20"/>
<path fill-rule="evenodd" clip-rule="evenodd" d="M26.9445 83.651L37.328 73.5402L34.474 70.6166L27.8833 77.0448L24.7195 73.8026L29.9957 68.6581L27.0196 65.6033L21.734 70.7478L19.0208 67.9741L25.3954 61.7614L22.5508 58.8472L12.1954 68.9299L26.9445 83.651Z" fill="#231F20"/>
<path fill-rule="evenodd" clip-rule="evenodd" d="M39.5155 71.4878L43.4116 67.6927L35.4503 59.5497L48.3217 62.9419L52.1803 59.1936C52.1803 59.1936 42.8577 56.017 42.4165 56.1014C42.2756 56.1014 44.4162 50.4228 39.6 47.8927C38.4149 47.3538 37.0927 47.1905 35.8118 47.4251C34.5308 47.6597 33.3528 48.2808 32.4367 49.2046L24.804 56.7011L39.5155 71.4878Z" fill="#231F20"/>
<path fill-rule="evenodd" clip-rule="evenodd" d="M61.0242 50.7322C66.1878 45.7095 64.3476 39.197 60.9397 35.7393C56.7525 31.4476 49.4859 31.991 45.9841 35.3738C42.4822 38.7566 40.6984 45.5409 45.6367 50.601C51.0631 56.1484 57.5223 54.1337 61.0148 50.7322H61.0242Z" fill="#231F20"/>
<path fill-rule="evenodd" clip-rule="evenodd" d="M57.851 47.79C60.1699 45.5411 60.0854 43.3109 56.33 39.4783C53.0441 36.1237 50.284 37.3044 48.9226 38.6256C46.9511 40.556 46.7821 43.3109 49.5047 46.1221C52.7437 49.4299 55.5696 50.039 57.8885 47.79H57.851Z" fill="white"/>
<path fill-rule="evenodd" clip-rule="evenodd" d="M72.6094 39.2627L76.4398 35.5332L70.6754 29.6391L67.2205 15.3115L62.8361 19.5939L65.1175 27.7181L57.4003 24.8789L53.26 28.9176L66.4131 33.1343L72.6094 39.2627Z" fill="#231F20"/>
<path fill-rule="evenodd" clip-rule="evenodd" d="M35.2908 59.4188L31.7795 55.8205C32.6596 54.8646 33.6004 53.9663 34.596 53.1311C35.0327 52.7712 35.5878 52.5863 36.1535 52.6123C36.7192 52.6383 37.255 52.8733 37.6566 53.2717C37.9614 53.4933 38.2108 53.7822 38.3854 54.1159C38.56 54.4495 38.6551 54.8189 38.6633 55.1952C38.6715 55.5715 38.5925 55.9446 38.4326 56.2855C38.2726 56.6264 38.036 56.9258 37.7411 57.1604C36.9719 57.9689 36.1536 58.7294 35.2908 59.4375V59.4188Z" fill="white"/>
<path fill-rule="evenodd" clip-rule="evenodd" d="M71.4171 18.1414L68.0092 14.7118L82.8803 0L87.7341 4.89143L82.3827 15.4146L93.3013 10.495L97.9767 15.1991L83.115 29.9108L79.5286 26.3032L87.3773 18.535L76.6464 23.3983L74.4308 21.1681L79.416 10.4669L71.4171 18.1414Z" fill="#231F20"/>
<path fill-rule="evenodd" clip-rule="evenodd" d="M97.2256 44.1075L86.9172 33.7342L101.779 19.0225L112.116 29.4238L109.111 32.3943L102.633 25.8817L100.221 28.2806L105.318 33.4156L102.192 36.5079L97.1224 31.401L93.874 34.6151L100.286 41.0714L97.2256 44.1075Z" fill="#231F20"/>
<path fill-rule="evenodd" clip-rule="evenodd" d="M100.568 47.4712L104.389 51.3225L112.51 43.2825L109.59 56.5512L113.514 60.4963C113.514 60.4963 116.603 51.0132 116.697 50.6009C116.697 50.6009 120.049 52.4751 123.719 49.2891C123.719 49.2891 127.24 45.8688 124.48 41.8676L115.477 32.7969L100.568 47.4712Z" fill="#231F20"/>
<path fill-rule="evenodd" clip-rule="evenodd" d="M131.202 48.6333L135.032 52.4846L123.785 63.6168L130.075 69.9513L126.461 73.5309L116.34 63.3451L131.202 48.6333Z" fill="#231F20"/>
<path fill-rule="evenodd" clip-rule="evenodd" d="M129.137 76.2201L143.998 61.5083L147.735 65.2753L132.873 79.9871L129.137 76.2201Z" fill="#231F20"/>
<path fill-rule="evenodd" clip-rule="evenodd" d="M139.652 86.8088L136.159 83.2855L151.021 68.5737L156.09 73.6807L151.762 88.9547L161.592 79.2187L165 82.6389L150.138 97.3601L145.698 92.8903L149.519 76.8573L139.652 86.8088Z" fill="#231F20"/>
<path fill-rule="evenodd" clip-rule="evenodd" d="M112.792 43.011L116.35 39.4971C116.35 39.4971 118.772 41.9428 119.082 42.2426C119.392 42.5425 121.297 43.9949 118.969 46.1783C118.419 46.5347 117.762 46.6886 117.111 46.6133C116.46 46.538 115.855 46.2384 115.401 45.766L112.792 43.011Z" fill="white"/>
</svg>
