<svg width="450" height="450" viewBox="0 0 450 450" fill="none" xmlns="http://www.w3.org/2000/svg">
<rect width="450" height="450" fill="white"/>
<path d="M113.254 117.144C111.59 117.144 110.086 116.776 108.742 116.04C107.414 115.304 106.366 114.288 105.598 112.992C104.846 111.68 104.47 110.216 104.47 108.6C104.47 106.984 104.846 105.528 105.598 104.232C106.366 102.92 107.422 101.896 108.766 101.16C110.11 100.424 111.614 100.056 113.278 100.056C114.526 100.056 115.678 100.264 116.734 100.68C117.79 101.096 118.686 101.704 119.422 102.504L118.294 103.632C116.982 102.304 115.326 101.64 113.326 101.64C111.998 101.64 110.79 101.944 109.702 102.552C108.614 103.16 107.758 103.992 107.134 105.048C106.526 106.104 106.222 107.288 106.222 108.6C106.222 109.912 106.526 111.096 107.134 112.152C107.758 113.208 108.614 114.04 109.702 114.648C110.79 115.256 111.998 115.56 113.326 115.56C115.342 115.56 116.998 114.888 118.294 113.544L119.422 114.672C118.686 115.472 117.782 116.088 116.71 116.52C115.654 116.936 114.502 117.144 113.254 117.144ZM127.327 117.12C126.111 117.12 125.015 116.848 124.039 116.304C123.063 115.744 122.295 114.976 121.735 114C121.175 113.024 120.895 111.92 120.895 110.688C120.895 109.456 121.175 108.352 121.735 107.376C122.295 106.4 123.063 105.64 124.039 105.096C125.015 104.552 126.111 104.28 127.327 104.28C128.543 104.28 129.639 104.552 130.615 105.096C131.591 105.64 132.351 106.4 132.895 107.376C133.455 108.352 133.735 109.456 133.735 110.688C133.735 111.92 133.455 113.024 132.895 114C132.351 114.976 131.591 115.744 130.615 116.304C129.639 116.848 128.543 117.12 127.327 117.12ZM127.327 115.608C128.223 115.608 129.023 115.408 129.727 115.008C130.447 114.592 131.007 114.008 131.407 113.256C131.807 112.504 132.007 111.648 132.007 110.688C132.007 109.728 131.807 108.872 131.407 108.12C131.007 107.368 130.447 106.792 129.727 106.392C129.023 105.976 128.223 105.768 127.327 105.768C126.431 105.768 125.623 105.976 124.903 106.392C124.199 106.792 123.639 107.368 123.223 108.12C122.823 108.872 122.623 109.728 122.623 110.688C122.623 111.648 122.823 112.504 123.223 113.256C123.639 114.008 124.199 114.592 124.903 115.008C125.623 115.408 126.431 115.608 127.327 115.608ZM143.427 110.424C144.323 110.632 145.011 110.992 145.491 111.504C145.987 112.016 146.235 112.64 146.235 113.376C146.235 114.112 145.979 114.768 145.467 115.344C144.971 115.92 144.291 116.368 143.427 116.688C142.563 116.992 141.611 117.144 140.571 117.144C139.659 117.144 138.763 117.016 137.883 116.76C137.003 116.488 136.235 116.096 135.579 115.584L136.155 114.312C136.731 114.744 137.403 115.08 138.171 115.32C138.939 115.56 139.715 115.68 140.499 115.68C141.667 115.68 142.619 115.464 143.355 115.032C144.107 114.584 144.483 113.984 144.483 113.232C144.483 112.56 144.179 112.04 143.571 111.672C142.963 111.288 142.131 111.096 141.075 111.096H138.915V109.848H140.979C141.923 109.848 142.683 109.672 143.259 109.32C143.835 108.952 144.123 108.464 144.123 107.856C144.123 107.184 143.795 106.656 143.139 106.272C142.499 105.888 141.659 105.696 140.619 105.696C139.259 105.696 137.915 106.04 136.587 106.728L136.107 105.408C137.611 104.624 139.171 104.232 140.787 104.232C141.747 104.232 142.611 104.376 143.379 104.664C144.163 104.936 144.771 105.328 145.203 105.84C145.651 106.352 145.875 106.944 145.875 107.616C145.875 108.256 145.651 108.824 145.203 109.32C144.771 109.816 144.179 110.184 143.427 110.424ZM162.416 115.512V120.048H160.808V117H149.504V120.048H147.896V115.512H148.616C149.464 115.464 150.04 114.84 150.344 113.64C150.648 112.44 150.856 110.76 150.968 108.6L151.136 104.376H160.448V115.512H162.416ZM152.528 108.696C152.448 110.488 152.296 111.968 152.072 113.136C151.848 114.288 151.448 115.08 150.872 115.512H158.744V105.888H152.672L152.528 108.696ZM170.081 104.28C171.729 104.28 172.993 104.696 173.873 105.528C174.753 106.344 175.193 107.56 175.193 109.176V117H173.561V115.032C173.177 115.688 172.609 116.2 171.857 116.568C171.121 116.936 170.241 117.12 169.217 117.12C167.809 117.12 166.689 116.784 165.857 116.112C165.025 115.44 164.609 114.552 164.609 113.448C164.609 112.376 164.993 111.512 165.761 110.856C166.545 110.2 167.785 109.872 169.48 109.872H173.489V109.104C173.489 108.016 173.185 107.192 172.577 106.632C171.969 106.056 171.081 105.768 169.913 105.768C169.113 105.768 168.345 105.904 167.609 106.176C166.873 106.432 166.241 106.792 165.713 107.256L164.945 105.984C165.585 105.44 166.353 105.024 167.249 104.736C168.145 104.432 169.089 104.28 170.081 104.28ZM169.48 115.776C170.441 115.776 171.265 115.56 171.953 115.128C172.641 114.68 173.153 114.04 173.489 113.208V111.144H169.529C167.369 111.144 166.289 111.896 166.289 113.4C166.289 114.136 166.569 114.72 167.129 115.152C167.689 115.568 168.473 115.776 169.48 115.776ZM190.769 111.216H180.209C180.305 112.528 180.809 113.592 181.721 114.408C182.633 115.208 183.785 115.608 185.177 115.608C185.961 115.608 186.681 115.472 187.337 115.2C187.993 114.912 188.561 114.496 189.041 113.952L190.001 115.056C189.441 115.728 188.737 116.24 187.889 116.592C187.057 116.944 186.137 117.12 185.129 117.12C183.833 117.12 182.681 116.848 181.673 116.304C180.681 115.744 179.905 114.976 179.345 114C178.785 113.024 178.505 111.92 178.505 110.688C178.505 109.456 178.769 108.352 179.297 107.376C179.841 106.4 180.577 105.64 181.505 105.096C182.449 104.552 183.505 104.28 184.673 104.28C185.841 104.28 186.889 104.552 187.817 105.096C188.745 105.64 189.473 106.4 190.001 107.376C190.529 108.336 190.793 109.44 190.793 110.688L190.769 111.216ZM184.673 105.744C183.457 105.744 182.433 106.136 181.601 106.92C180.785 107.688 180.321 108.696 180.209 109.944H189.161C189.049 108.696 188.577 107.688 187.745 106.92C186.929 106.136 185.905 105.744 184.673 105.744ZM182.537 101.856C182.249 101.856 182.001 101.76 181.793 101.568C181.601 101.376 181.505 101.128 181.505 100.824C181.505 100.536 181.601 100.296 181.793 100.104C182.001 99.896 182.249 99.792 182.537 99.792C182.809 99.792 183.049 99.896 183.257 100.104C183.465 100.296 183.569 100.536 183.569 100.824C183.569 101.112 183.465 101.36 183.257 101.568C183.065 101.76 182.825 101.856 182.537 101.856ZM186.809 101.856C186.521 101.856 186.273 101.76 186.065 101.568C185.873 101.36 185.777 101.112 185.777 100.824C185.777 100.536 185.881 100.296 186.089 100.104C186.297 99.896 186.537 99.792 186.809 99.792C187.097 99.792 187.337 99.896 187.529 100.104C187.737 100.296 187.841 100.536 187.841 100.824C187.841 101.128 187.737 101.376 187.529 101.568C187.337 101.76 187.097 101.856 186.809 101.856ZM208.677 104.376V117H207.117V107.016L202.005 115.464H201.237L196.125 106.992V117H194.565V104.376H196.293L201.645 113.472L207.093 104.376H208.677ZM228.735 105.888H221.511V117H219.807V104.376H228.735V105.888ZM235.541 104.28C237.189 104.28 238.453 104.696 239.333 105.528C240.213 106.344 240.653 107.56 240.653 109.176V117H239.021V115.032C238.637 115.688 238.069 116.2 237.317 116.568C236.581 116.936 235.701 117.12 234.677 117.12C233.269 117.12 232.149 116.784 231.317 116.112C230.485 115.44 230.069 114.552 230.069 113.448C230.069 112.376 230.453 111.512 231.221 110.856C232.005 110.2 233.245 109.872 234.941 109.872H238.949V109.104C238.949 108.016 238.645 107.192 238.037 106.632C237.429 106.056 236.541 105.768 235.373 105.768C234.573 105.768 233.805 105.904 233.069 106.176C232.333 106.432 231.701 106.792 231.173 107.256L230.405 105.984C231.045 105.44 231.813 105.024 232.709 104.736C233.605 104.432 234.549 104.28 235.541 104.28ZM234.941 115.776C235.901 115.776 236.725 115.56 237.413 115.128C238.101 114.68 238.613 114.04 238.949 113.208V111.144H234.989C232.829 111.144 231.749 111.896 231.749 113.4C231.749 114.136 232.029 114.72 232.589 115.152C233.149 115.568 233.933 115.776 234.941 115.776ZM251.694 104.28C252.878 104.28 253.95 104.552 254.91 105.096C255.87 105.624 256.622 106.376 257.166 107.352C257.71 108.328 257.982 109.44 257.982 110.688C257.982 111.952 257.71 113.072 257.166 114.048C256.622 115.024 255.87 115.784 254.91 116.328C253.966 116.856 252.894 117.12 251.694 117.12C250.67 117.12 249.742 116.912 248.91 116.496C248.094 116.064 247.422 115.44 246.894 114.624V121.656H245.19V104.376H246.822V106.872C247.334 106.04 248.006 105.4 248.838 104.952C249.686 104.504 250.638 104.28 251.694 104.28ZM251.574 115.608C252.454 115.608 253.254 115.408 253.974 115.008C254.694 114.592 255.254 114.008 255.654 113.256C256.07 112.504 256.278 111.648 256.278 110.688C256.278 109.728 256.07 108.88 255.654 108.144C255.254 107.392 254.694 106.808 253.974 106.392C253.254 105.976 252.454 105.768 251.574 105.768C250.678 105.768 249.87 105.976 249.15 106.392C248.446 106.808 247.886 107.392 247.47 108.144C247.07 108.88 246.87 109.728 246.87 110.688C246.87 111.648 247.07 112.504 247.47 113.256C247.886 114.008 248.446 114.592 249.15 115.008C249.87 115.408 250.678 115.608 251.574 115.608ZM275.755 104.376V117H274.195V107.016L269.083 115.464H268.315L263.203 106.992V117H261.643V104.376H263.371L268.723 113.472L274.171 104.376H275.755ZM285.812 117.12C284.596 117.12 283.5 116.848 282.524 116.304C281.548 115.744 280.78 114.976 280.22 114C279.66 113.024 279.38 111.92 279.38 110.688C279.38 109.456 279.66 108.352 280.22 107.376C280.78 106.4 281.548 105.64 282.524 105.096C283.5 104.552 284.596 104.28 285.812 104.28C287.028 104.28 288.124 104.552 289.1 105.096C290.076 105.64 290.836 106.4 291.38 107.376C291.94 108.352 292.22 109.456 292.22 110.688C292.22 111.92 291.94 113.024 291.38 114C290.836 114.976 290.076 115.744 289.1 116.304C288.124 116.848 287.028 117.12 285.812 117.12ZM285.812 115.608C286.708 115.608 287.508 115.408 288.212 115.008C288.932 114.592 289.492 114.008 289.892 113.256C290.292 112.504 290.492 111.648 290.492 110.688C290.492 109.728 290.292 108.872 289.892 108.12C289.492 107.368 288.932 106.792 288.212 106.392C287.508 105.976 286.708 105.768 285.812 105.768C284.916 105.768 284.108 105.976 283.388 106.392C282.684 106.792 282.124 107.368 281.708 108.12C281.308 108.872 281.108 109.728 281.108 110.688C281.108 111.648 281.308 112.504 281.708 113.256C282.124 114.008 282.684 114.592 283.388 115.008C284.108 115.408 284.916 115.608 285.812 115.608ZM295.862 104.376H297.566V109.968H305.51V104.376H307.214V117H305.51V111.432H297.566V117H295.862V104.376ZM312.057 104.376H313.761V114.408L322.185 104.376H323.697V117H321.993V106.968L313.593 117H312.057V104.376ZM339.428 104.28C340.612 104.28 341.676 104.552 342.62 105.096C343.58 105.64 344.332 106.4 344.876 107.376C345.42 108.352 345.692 109.456 345.692 110.688C345.692 111.92 345.42 113.024 344.876 114C344.332 114.976 343.58 115.744 342.62 116.304C341.676 116.848 340.612 117.12 339.428 117.12C338.308 117.12 337.292 116.88 336.38 116.4C335.468 115.904 334.724 115.224 334.148 114.36C333.588 113.496 333.26 112.504 333.164 111.384H330.284V117H328.58V104.376H330.284V109.824H333.188C333.316 108.736 333.66 107.776 334.22 106.944C334.796 106.096 335.532 105.44 336.428 104.976C337.324 104.512 338.324 104.28 339.428 104.28ZM339.428 115.632C340.292 115.632 341.068 115.424 341.756 115.008C342.46 114.592 343.012 114.008 343.412 113.256C343.812 112.504 344.012 111.648 344.012 110.688C344.012 109.728 343.812 108.872 343.412 108.12C343.012 107.368 342.46 106.792 341.756 106.392C341.068 105.976 340.292 105.768 339.428 105.768C338.564 105.768 337.78 105.976 337.076 106.392C336.388 106.792 335.844 107.368 335.444 108.12C335.044 108.872 334.844 109.728 334.844 110.688C334.844 111.648 335.044 112.504 335.444 113.256C335.844 114.008 336.388 114.592 337.076 115.008C337.78 115.424 338.564 115.632 339.428 115.632ZM128.368 133.376V146H126.808V136.016L121.696 144.464H120.928L115.816 135.992V146H114.256V133.376H115.984L121.336 142.472L126.784 133.376H128.368ZM144.257 140.216H133.697C133.793 141.528 134.297 142.592 135.209 143.408C136.121 144.208 137.273 144.608 138.665 144.608C139.449 144.608 140.169 144.472 140.825 144.2C141.481 143.912 142.049 143.496 142.529 142.952L143.489 144.056C142.929 144.728 142.225 145.24 141.377 145.592C140.545 145.944 139.625 146.12 138.617 146.12C137.321 146.12 136.169 145.848 135.161 145.304C134.169 144.744 133.393 143.976 132.833 143C132.273 142.024 131.993 140.92 131.993 139.688C131.993 138.456 132.257 137.352 132.785 136.376C133.329 135.4 134.065 134.64 134.993 134.096C135.937 133.552 136.993 133.28 138.161 133.28C139.329 133.28 140.377 133.552 141.305 134.096C142.233 134.64 142.961 135.4 143.489 136.376C144.017 137.336 144.281 138.44 144.281 139.688L144.257 140.216ZM138.161 134.744C136.945 134.744 135.921 135.136 135.089 135.92C134.273 136.688 133.809 137.696 133.697 138.944H142.649C142.537 137.696 142.065 136.688 141.233 135.92C140.417 135.136 139.393 134.744 138.161 134.744ZM158.765 140.384H156.029V146H154.325V140.384H151.589L147.725 146H145.685L150.221 139.496L146.045 133.376H147.893L151.589 138.92H154.325V133.376H156.029V138.92H158.765L162.485 133.376H164.333L160.157 139.52L164.693 146H162.653L158.765 140.384ZM179.841 144.512V149.048H178.233V146H166.929V149.048H165.321V144.512H166.041C166.889 144.464 167.465 143.84 167.769 142.64C168.073 141.44 168.281 139.76 168.393 137.6L168.561 133.376H177.873V144.512H179.841ZM169.953 137.696C169.873 139.488 169.721 140.968 169.497 142.136C169.273 143.288 168.873 144.08 168.297 144.512H176.169V134.888H170.097L169.953 137.696ZM193.89 133.376L187.578 147.512C187.066 148.696 186.474 149.536 185.802 150.032C185.13 150.528 184.322 150.776 183.378 150.776C182.77 150.776 182.202 150.68 181.674 150.488C181.146 150.296 180.69 150.008 180.306 149.624L181.098 148.352C181.738 148.992 182.506 149.312 183.402 149.312C183.978 149.312 184.466 149.152 184.866 148.832C185.282 148.512 185.666 147.968 186.018 147.2L186.57 145.976L180.93 133.376H182.706L187.458 144.104L192.21 133.376H193.89ZM207.41 140.384H204.53V146H202.826V133.376H204.53V138.92H207.434L211.874 133.376H213.722L208.754 139.496L214.082 146H212.066L207.41 140.384ZM223.276 133.28C224.46 133.28 225.532 133.552 226.492 134.096C227.452 134.624 228.204 135.376 228.748 136.352C229.292 137.328 229.564 138.44 229.564 139.688C229.564 140.952 229.292 142.072 228.748 143.048C228.204 144.024 227.452 144.784 226.492 145.328C225.548 145.856 224.476 146.12 223.276 146.12C222.252 146.12 221.324 145.912 220.492 145.496C219.676 145.064 219.004 144.44 218.476 143.624V150.656H216.772V133.376H218.404V135.872C218.916 135.04 219.588 134.4 220.42 133.952C221.268 133.504 222.22 133.28 223.276 133.28ZM223.156 144.608C224.036 144.608 224.836 144.408 225.556 144.008C226.276 143.592 226.836 143.008 227.236 142.256C227.652 141.504 227.86 140.648 227.86 139.688C227.86 138.728 227.652 137.88 227.236 137.144C226.836 136.392 226.276 135.808 225.556 135.392C224.836 134.976 224.036 134.768 223.156 134.768C222.26 134.768 221.452 134.976 220.732 135.392C220.028 135.808 219.468 136.392 219.052 137.144C218.652 137.88 218.452 138.728 218.452 139.688C218.452 140.648 218.652 141.504 219.052 142.256C219.468 143.008 220.028 143.592 220.732 144.008C221.452 144.408 222.26 144.608 223.156 144.608ZM237.498 133.28C239.146 133.28 240.41 133.696 241.29 134.528C242.17 135.344 242.61 136.56 242.61 138.176V146H240.978V144.032C240.594 144.688 240.026 145.2 239.274 145.568C238.538 145.936 237.658 146.12 236.634 146.12C235.226 146.12 234.106 145.784 233.274 145.112C232.442 144.44 232.026 143.552 232.026 142.448C232.026 141.376 232.41 140.512 233.178 139.856C233.962 139.2 235.202 138.872 236.898 138.872H240.906V138.104C240.906 137.016 240.602 136.192 239.994 135.632C239.386 135.056 238.498 134.768 237.33 134.768C236.53 134.768 235.762 134.904 235.026 135.176C234.29 135.432 233.658 135.792 233.13 136.256L232.362 134.984C233.002 134.44 233.77 134.024 234.666 133.736C235.562 133.432 236.506 133.28 237.498 133.28ZM236.898 144.776C237.858 144.776 238.682 144.56 239.37 144.128C240.058 143.68 240.57 143.04 240.906 142.208V140.144H236.946C234.786 140.144 233.706 140.896 233.706 142.4C233.706 143.136 233.986 143.72 234.546 144.152C235.106 144.568 235.89 144.776 236.898 144.776ZM252.427 146.12C251.179 146.12 250.059 145.848 249.067 145.304C248.091 144.76 247.323 144 246.763 143.024C246.203 142.032 245.923 140.92 245.923 139.688C245.923 138.456 246.203 137.352 246.763 136.376C247.323 135.4 248.091 134.64 249.067 134.096C250.059 133.552 251.179 133.28 252.427 133.28C253.515 133.28 254.483 133.496 255.331 133.928C256.195 134.344 256.875 134.96 257.371 135.776L256.099 136.64C255.683 136.016 255.155 135.552 254.515 135.248C253.875 134.928 253.179 134.768 252.427 134.768C251.515 134.768 250.691 134.976 249.955 135.392C249.235 135.792 248.667 136.368 248.251 137.12C247.851 137.872 247.651 138.728 247.651 139.688C247.651 140.664 247.851 141.528 248.251 142.28C248.667 143.016 249.235 143.592 249.955 144.008C250.691 144.408 251.515 144.608 252.427 144.608C253.179 144.608 253.875 144.456 254.515 144.152C255.155 143.848 255.683 143.384 256.099 142.76L257.371 143.624C256.875 144.44 256.195 145.064 255.331 145.496C254.467 145.912 253.499 146.12 252.427 146.12ZM265.667 146.12C264.451 146.12 263.355 145.848 262.379 145.304C261.403 144.744 260.635 143.976 260.075 143C259.515 142.024 259.235 140.92 259.235 139.688C259.235 138.456 259.515 137.352 260.075 136.376C260.635 135.4 261.403 134.64 262.379 134.096C263.355 133.552 264.451 133.28 265.667 133.28C266.883 133.28 267.979 133.552 268.955 134.096C269.931 134.64 270.691 135.4 271.235 136.376C271.795 137.352 272.075 138.456 272.075 139.688C272.075 140.92 271.795 142.024 271.235 143C270.691 143.976 269.931 144.744 268.955 145.304C267.979 145.848 266.883 146.12 265.667 146.12ZM265.667 144.608C266.563 144.608 267.363 144.408 268.067 144.008C268.787 143.592 269.347 143.008 269.747 142.256C270.147 141.504 270.347 140.648 270.347 139.688C270.347 138.728 270.147 137.872 269.747 137.12C269.347 136.368 268.787 135.792 268.067 135.392C267.363 134.976 266.563 134.768 265.667 134.768C264.771 134.768 263.963 134.976 263.243 135.392C262.539 135.792 261.979 136.368 261.563 137.12C261.163 137.872 260.963 138.728 260.963 139.688C260.963 140.648 261.163 141.504 261.563 142.256C261.979 143.008 262.539 143.592 263.243 144.008C263.963 144.408 264.771 144.608 265.667 144.608ZM284.128 134.888H279.352V146H277.648V134.888H272.872V133.376H284.128V134.888ZM291.214 146.12C289.998 146.12 288.902 145.848 287.926 145.304C286.95 144.744 286.182 143.976 285.622 143C285.062 142.024 284.782 140.92 284.782 139.688C284.782 138.456 285.062 137.352 285.622 136.376C286.182 135.4 286.95 134.64 287.926 134.096C288.902 133.552 289.998 133.28 291.214 133.28C292.43 133.28 293.526 133.552 294.502 134.096C295.478 134.64 296.238 135.4 296.782 136.376C297.342 137.352 297.622 138.456 297.622 139.688C297.622 140.92 297.342 142.024 296.782 143C296.238 143.976 295.478 144.744 294.502 145.304C293.526 145.848 292.43 146.12 291.214 146.12ZM291.214 144.608C292.11 144.608 292.91 144.408 293.614 144.008C294.334 143.592 294.894 143.008 295.294 142.256C295.694 141.504 295.894 140.648 295.894 139.688C295.894 138.728 295.694 137.872 295.294 137.12C294.894 136.368 294.334 135.792 293.614 135.392C292.91 134.976 292.11 134.768 291.214 134.768C290.318 134.768 289.51 134.976 288.79 135.392C288.086 135.792 287.526 136.368 287.11 137.12C286.71 137.872 286.51 138.728 286.51 139.688C286.51 140.648 286.71 141.504 287.11 142.256C287.526 143.008 288.086 143.592 288.79 144.008C289.51 144.408 290.318 144.608 291.214 144.608ZM301.264 133.376H302.968V143.408L311.392 133.376H312.904V146H311.2V135.968L302.8 146H301.264V133.376ZM307 131.552C305.912 131.552 305.048 131.28 304.408 130.736C303.768 130.192 303.44 129.424 303.424 128.432H304.648C304.664 129.056 304.888 129.56 305.32 129.944C305.752 130.312 306.312 130.496 307 130.496C307.688 130.496 308.248 130.312 308.68 129.944C309.128 129.56 309.36 129.056 309.376 128.432H310.6C310.584 129.424 310.248 130.192 309.592 130.736C308.952 131.28 308.088 131.552 307 131.552ZM324.069 133.376H325.773V143.408L334.197 133.376H335.709V146H334.005V135.968L325.605 146H324.069V133.376ZM139.963 162.376V175H138.259V163.888H130.339V175H128.635V162.376H139.963ZM151.311 162.28C152.495 162.28 153.567 162.552 154.527 163.096C155.487 163.624 156.239 164.376 156.783 165.352C157.327 166.328 157.599 167.44 157.599 168.688C157.599 169.952 157.327 171.072 156.783 172.048C156.239 173.024 155.487 173.784 154.527 174.328C153.583 174.856 152.511 175.12 151.311 175.12C150.287 175.12 149.359 174.912 148.527 174.496C147.711 174.064 147.039 173.44 146.511 172.624V179.656H144.807V162.376H146.439V164.872C146.951 164.04 147.623 163.4 148.455 162.952C149.303 162.504 150.255 162.28 151.311 162.28ZM151.191 173.608C152.071 173.608 152.871 173.408 153.591 173.008C154.311 172.592 154.871 172.008 155.271 171.256C155.687 170.504 155.895 169.648 155.895 168.688C155.895 167.728 155.687 166.88 155.271 166.144C154.871 165.392 154.311 164.808 153.591 164.392C152.871 163.976 152.071 163.768 151.191 163.768C150.295 163.768 149.487 163.976 148.767 164.392C148.063 164.808 147.503 165.392 147.087 166.144C146.687 166.88 146.487 167.728 146.487 168.688C146.487 169.648 146.687 170.504 147.087 171.256C147.503 172.008 148.063 172.592 148.767 173.008C149.487 173.408 150.295 173.608 151.191 173.608ZM165.534 162.28C167.182 162.28 168.446 162.696 169.326 163.528C170.206 164.344 170.646 165.56 170.646 167.176V175H169.014V173.032C168.63 173.688 168.062 174.2 167.31 174.568C166.574 174.936 165.694 175.12 164.67 175.12C163.262 175.12 162.142 174.784 161.31 174.112C160.478 173.44 160.062 172.552 160.062 171.448C160.062 170.376 160.446 169.512 161.214 168.856C161.998 168.2 163.238 167.872 164.934 167.872H168.942V167.104C168.942 166.016 168.638 165.192 168.03 164.632C167.422 164.056 166.534 163.768 165.366 163.768C164.566 163.768 163.798 163.904 163.062 164.176C162.326 164.432 161.694 164.792 161.166 165.256L160.398 163.984C161.038 163.44 161.806 163.024 162.702 162.736C163.598 162.432 164.542 162.28 165.534 162.28ZM164.934 173.776C165.894 173.776 166.718 173.56 167.406 173.128C168.094 172.68 168.606 172.04 168.942 171.208V169.144H164.982C162.822 169.144 161.742 169.896 161.742 171.4C161.742 172.136 162.022 172.72 162.582 173.152C163.142 173.568 163.926 173.776 164.934 173.776ZM179.766 169.384H176.886V175H175.182V162.376H176.886V167.92H179.79L184.23 162.376H186.078L181.11 168.496L186.438 175H184.422L179.766 169.384ZM197.749 163.888H192.973V175H191.269V163.888H186.493V162.376H197.749V163.888ZM200.213 162.376H201.917V172.408L210.341 162.376H211.853V175H210.149V164.968L201.749 175H200.213V162.376ZM226.265 162.376V175H224.561V169.744C223.105 170.384 221.673 170.704 220.265 170.704C218.745 170.704 217.561 170.36 216.713 169.672C215.865 168.968 215.441 167.92 215.441 166.528V162.376H217.145V166.432C217.145 167.376 217.449 168.096 218.057 168.592C218.665 169.072 219.505 169.312 220.577 169.312C221.761 169.312 223.089 169 224.561 168.376V162.376H226.265ZM231.104 162.376H232.808V167.968H240.752V162.376H242.456V175H240.752V169.432H232.808V175H231.104V162.376ZM252.507 175.12C251.291 175.12 250.195 174.848 249.219 174.304C248.243 173.744 247.475 172.976 246.915 172C246.355 171.024 246.075 169.92 246.075 168.688C246.075 167.456 246.355 166.352 246.915 165.376C247.475 164.4 248.243 163.64 249.219 163.096C250.195 162.552 251.291 162.28 252.507 162.28C253.723 162.28 254.819 162.552 255.795 163.096C256.771 163.64 257.531 164.4 258.075 165.376C258.635 166.352 258.915 167.456 258.915 168.688C258.915 169.92 258.635 171.024 258.075 172C257.531 172.976 256.771 173.744 255.795 174.304C254.819 174.848 253.723 175.12 252.507 175.12ZM252.507 173.608C253.403 173.608 254.203 173.408 254.907 173.008C255.627 172.592 256.187 172.008 256.587 171.256C256.987 170.504 257.187 169.648 257.187 168.688C257.187 167.728 256.987 166.872 256.587 166.12C256.187 165.368 255.627 164.792 254.907 164.392C254.203 163.976 253.403 163.768 252.507 163.768C251.611 163.768 250.803 163.976 250.083 164.392C249.379 164.792 248.819 165.368 248.403 166.12C248.003 166.872 247.803 167.728 247.803 168.688C247.803 169.648 248.003 170.504 248.403 171.256C248.819 172.008 249.379 172.592 250.083 173.008C250.803 173.408 251.611 173.608 252.507 173.608ZM267.837 175.12C266.589 175.12 265.469 174.848 264.477 174.304C263.501 173.76 262.733 173 262.173 172.024C261.613 171.032 261.333 169.92 261.333 168.688C261.333 167.456 261.613 166.352 262.173 165.376C262.733 164.4 263.501 163.64 264.477 163.096C265.469 162.552 266.589 162.28 267.837 162.28C268.925 162.28 269.893 162.496 270.741 162.928C271.605 163.344 272.285 163.96 272.781 164.776L271.509 165.64C271.093 165.016 270.565 164.552 269.925 164.248C269.285 163.928 268.589 163.768 267.837 163.768C266.925 163.768 266.101 163.976 265.365 164.392C264.645 164.792 264.077 165.368 263.661 166.12C263.261 166.872 263.061 167.728 263.061 168.688C263.061 169.664 263.261 170.528 263.661 171.28C264.077 172.016 264.645 172.592 265.365 173.008C266.101 173.408 266.925 173.608 267.837 173.608C268.589 173.608 269.285 173.456 269.925 173.152C270.565 172.848 271.093 172.384 271.509 171.76L272.781 172.624C272.285 173.44 271.605 174.064 270.741 174.496C269.877 174.912 268.909 175.12 267.837 175.12ZM284.726 163.888H279.95V175H278.246V163.888H273.47V162.376H284.726V163.888ZM292.614 166.84C294.198 166.856 295.398 167.208 296.214 167.896C297.046 168.584 297.462 169.576 297.462 170.872C297.462 172.216 297.014 173.248 296.118 173.968C295.238 174.688 293.958 175.04 292.278 175.024L287.19 175V162.376H288.894V166.792L292.614 166.84ZM292.182 173.728C293.35 173.744 294.23 173.512 294.822 173.032C295.43 172.536 295.734 171.816 295.734 170.872C295.734 169.944 295.438 169.256 294.846 168.808C294.254 168.36 293.366 168.128 292.182 168.112L288.894 168.064V173.68L292.182 173.728ZM311.561 162.28C312.745 162.28 313.809 162.552 314.753 163.096C315.713 163.64 316.465 164.4 317.009 165.376C317.553 166.352 317.825 167.456 317.825 168.688C317.825 169.92 317.553 171.024 317.009 172C316.465 172.976 315.713 173.744 314.753 174.304C313.809 174.848 312.745 175.12 311.561 175.12C310.441 175.12 309.425 174.88 308.513 174.4C307.601 173.904 306.857 173.224 306.281 172.36C305.721 171.496 305.393 170.504 305.297 169.384H302.417V175H300.713V162.376H302.417V167.824H305.321C305.449 166.736 305.793 165.776 306.353 164.944C306.929 164.096 307.665 163.44 308.561 162.976C309.457 162.512 310.457 162.28 311.561 162.28ZM311.561 173.632C312.425 173.632 313.201 173.424 313.889 173.008C314.593 172.592 315.145 172.008 315.545 171.256C315.945 170.504 316.145 169.648 316.145 168.688C316.145 167.728 315.945 166.872 315.545 166.12C315.145 165.368 314.593 164.792 313.889 164.392C313.201 163.976 312.425 163.768 311.561 163.768C310.697 163.768 309.913 163.976 309.209 164.392C308.521 164.792 307.977 165.368 307.577 166.12C307.177 166.872 306.977 167.728 306.977 168.688C306.977 169.648 307.177 170.504 307.577 171.256C307.977 172.008 308.521 172.592 309.209 173.008C309.913 173.424 310.697 173.632 311.561 173.632ZM321.247 175.12C320.895 175.12 320.591 174.992 320.335 174.736C320.095 174.48 319.975 174.168 319.975 173.8C319.975 173.432 320.095 173.128 320.335 172.888C320.591 172.632 320.895 172.504 321.247 172.504C321.599 172.504 321.903 172.632 322.159 172.888C322.415 173.128 322.543 173.432 322.543 173.8C322.543 174.168 322.415 174.48 322.159 174.736C321.903 174.992 321.599 175.12 321.247 175.12ZM105.234 187.2V204H103.482V188.736H92.8496V204H91.0976V187.2H105.234ZM115.702 204.12C114.486 204.12 113.39 203.848 112.414 203.304C111.438 202.744 110.67 201.976 110.11 201C109.55 200.024 109.27 198.92 109.27 197.688C109.27 196.456 109.55 195.352 110.11 194.376C110.67 193.4 111.438 192.64 112.414 192.096C113.39 191.552 114.486 191.28 115.702 191.28C116.918 191.28 118.014 191.552 118.99 192.096C119.966 192.64 120.726 193.4 121.27 194.376C121.83 195.352 122.11 196.456 122.11 197.688C122.11 198.92 121.83 200.024 121.27 201C120.726 201.976 119.966 202.744 118.99 203.304C118.014 203.848 116.918 204.12 115.702 204.12ZM115.702 202.608C116.598 202.608 117.398 202.408 118.102 202.008C118.822 201.592 119.382 201.008 119.782 200.256C120.182 199.504 120.382 198.648 120.382 197.688C120.382 196.728 120.182 195.872 119.782 195.12C119.382 194.368 118.822 193.792 118.102 193.392C117.398 192.976 116.598 192.768 115.702 192.768C114.806 192.768 113.998 192.976 113.278 193.392C112.574 193.792 112.014 194.368 111.598 195.12C111.198 195.872 110.998 196.728 110.998 197.688C110.998 198.648 111.198 199.504 111.598 200.256C112.014 201.008 112.574 201.592 113.278 202.008C113.998 202.408 114.806 202.608 115.702 202.608ZM137.994 202.512V207.048H136.386V204H125.082V207.048H123.474V202.512H124.194C125.042 202.464 125.618 201.84 125.922 200.64C126.226 199.44 126.434 197.76 126.546 195.6L126.714 191.376H136.026V202.512H137.994ZM128.106 195.696C128.026 197.488 127.874 198.968 127.65 200.136C127.426 201.288 127.026 202.08 126.45 202.512H134.322V192.888H128.25L128.106 195.696ZM147.435 191.688C148.603 191.688 149.643 191.952 150.555 192.48C151.483 192.992 152.203 193.72 152.715 194.664C153.227 195.592 153.483 196.656 153.483 197.856C153.483 199.088 153.211 200.184 152.667 201.144C152.139 202.088 151.395 202.824 150.435 203.352C149.475 203.88 148.371 204.144 147.123 204.144C145.027 204.144 143.403 203.408 142.251 201.936C141.099 200.464 140.523 198.432 140.523 195.84C140.523 193.136 141.035 191.064 142.059 189.624C143.099 188.184 144.715 187.208 146.907 186.696L152.571 185.4L152.859 186.96L147.531 188.184C145.723 188.584 144.395 189.296 143.547 190.32C142.699 191.328 142.235 192.824 142.155 194.808C142.667 193.832 143.379 193.072 144.291 192.528C145.203 191.968 146.251 191.688 147.435 191.688ZM147.171 202.728C148.051 202.728 148.835 202.528 149.523 202.128C150.227 201.712 150.771 201.136 151.155 200.4C151.555 199.664 151.755 198.832 151.755 197.904C151.755 196.976 151.563 196.16 151.179 195.456C150.795 194.752 150.251 194.208 149.547 193.824C148.859 193.424 148.067 193.224 147.171 193.224C146.275 193.224 145.475 193.424 144.771 193.824C144.083 194.208 143.539 194.752 143.139 195.456C142.755 196.16 142.563 196.976 142.563 197.904C142.563 198.832 142.755 199.664 143.139 200.4C143.539 201.136 144.091 201.712 144.795 202.128C145.499 202.528 146.291 202.728 147.171 202.728ZM157.135 191.376H158.839V201.408L167.263 191.376H168.775V204H167.071V193.968L158.671 204H157.135V191.376ZM180.162 191.28C181.346 191.28 182.418 191.552 183.378 192.096C184.338 192.624 185.09 193.376 185.634 194.352C186.178 195.328 186.45 196.44 186.45 197.688C186.45 198.952 186.178 200.072 185.634 201.048C185.09 202.024 184.338 202.784 183.378 203.328C182.434 203.856 181.362 204.12 180.162 204.12C179.138 204.12 178.21 203.912 177.378 203.496C176.562 203.064 175.89 202.44 175.362 201.624V208.656H173.658V191.376H175.29V193.872C175.802 193.04 176.474 192.4 177.306 191.952C178.154 191.504 179.106 191.28 180.162 191.28ZM180.042 202.608C180.922 202.608 181.722 202.408 182.442 202.008C183.162 201.592 183.722 201.008 184.122 200.256C184.538 199.504 184.746 198.648 184.746 197.688C184.746 196.728 184.538 195.88 184.122 195.144C183.722 194.392 183.162 193.808 182.442 193.392C181.722 192.976 180.922 192.768 180.042 192.768C179.146 192.768 178.338 192.976 177.618 193.392C176.914 193.808 176.354 194.392 175.938 195.144C175.538 195.88 175.338 196.728 175.338 197.688C175.338 198.648 175.538 199.504 175.938 200.256C176.354 201.008 176.914 201.592 177.618 202.008C178.338 202.408 179.146 202.608 180.042 202.608ZM194.385 191.28C196.033 191.28 197.297 191.696 198.177 192.528C199.057 193.344 199.497 194.56 199.497 196.176V204H197.865V202.032C197.481 202.688 196.913 203.2 196.161 203.568C195.425 203.936 194.545 204.12 193.521 204.12C192.113 204.12 190.993 203.784 190.161 203.112C189.329 202.44 188.913 201.552 188.913 200.448C188.913 199.376 189.297 198.512 190.065 197.856C190.849 197.2 192.089 196.872 193.785 196.872H197.793V196.104C197.793 195.016 197.489 194.192 196.881 193.632C196.273 193.056 195.385 192.768 194.217 192.768C193.417 192.768 192.649 192.904 191.913 193.176C191.177 193.432 190.545 193.792 190.017 194.256L189.249 192.984C189.889 192.44 190.657 192.024 191.553 191.736C192.449 191.432 193.393 191.28 194.385 191.28ZM193.785 202.776C194.745 202.776 195.569 202.56 196.257 202.128C196.945 201.68 197.457 201.04 197.793 200.208V198.144H193.833C191.673 198.144 190.593 198.896 190.593 200.4C190.593 201.136 190.873 201.72 191.433 202.152C191.993 202.568 192.777 202.776 193.785 202.776ZM215.073 198.216H204.513C204.609 199.528 205.113 200.592 206.025 201.408C206.937 202.208 208.089 202.608 209.481 202.608C210.265 202.608 210.985 202.472 211.641 202.2C212.297 201.912 212.865 201.496 213.345 200.952L214.305 202.056C213.745 202.728 213.041 203.24 212.193 203.592C211.361 203.944 210.441 204.12 209.433 204.12C208.137 204.12 206.985 203.848 205.977 203.304C204.985 202.744 204.209 201.976 203.649 201C203.089 200.024 202.809 198.92 202.809 197.688C202.809 196.456 203.073 195.352 203.601 194.376C204.145 193.4 204.881 192.64 205.809 192.096C206.753 191.552 207.809 191.28 208.977 191.28C210.145 191.28 211.193 191.552 212.121 192.096C213.049 192.64 213.777 193.4 214.305 194.376C214.833 195.336 215.097 196.44 215.097 197.688L215.073 198.216ZM208.977 192.744C207.761 192.744 206.737 193.136 205.905 193.92C205.089 194.688 204.625 195.696 204.513 196.944H213.465C213.353 195.696 212.881 194.688 212.049 193.92C211.233 193.136 210.209 192.744 208.977 192.744ZM232.981 191.376V204H231.421V194.016L226.309 202.464H225.541L220.429 193.992V204H218.869V191.376H220.597L225.949 200.472L231.397 191.376H232.981ZM257.264 202.512V207.168H255.656V204H244.112V191.376H245.816V202.512H253.52V191.376H255.224V202.512H257.264ZM268.558 197.472C270.27 197.872 271.126 198.904 271.126 200.568C271.126 201.672 270.718 202.52 269.902 203.112C269.086 203.704 267.87 204 266.254 204H260.518V191.376H266.086C267.526 191.376 268.654 191.656 269.47 192.216C270.286 192.776 270.694 193.576 270.694 194.616C270.694 195.304 270.502 195.896 270.118 196.392C269.75 196.872 269.23 197.232 268.558 197.472ZM262.174 196.992H265.966C266.942 196.992 267.686 196.808 268.198 196.44C268.726 196.072 268.99 195.536 268.99 194.832C268.99 194.128 268.726 193.6 268.198 193.248C267.686 192.896 266.942 192.72 265.966 192.72H262.174V196.992ZM266.182 202.656C267.27 202.656 268.086 202.48 268.63 202.128C269.174 201.776 269.446 201.224 269.446 200.472C269.446 199.72 269.198 199.168 268.702 198.816C268.206 198.448 267.422 198.264 266.35 198.264H262.174V202.656H266.182ZM286.159 198.216H275.599C275.695 199.528 276.199 200.592 277.111 201.408C278.023 202.208 279.175 202.608 280.567 202.608C281.351 202.608 282.071 202.472 282.727 202.2C283.383 201.912 283.951 201.496 284.431 200.952L285.391 202.056C284.831 202.728 284.127 203.24 283.279 203.592C282.447 203.944 281.527 204.12 280.519 204.12C279.223 204.12 278.071 203.848 277.063 203.304C276.071 202.744 275.295 201.976 274.735 201C274.175 200.024 273.895 198.92 273.895 197.688C273.895 196.456 274.159 195.352 274.687 194.376C275.231 193.4 275.967 192.64 276.895 192.096C277.839 191.552 278.895 191.28 280.063 191.28C281.231 191.28 282.279 191.552 283.207 192.096C284.135 192.64 284.863 193.4 285.391 194.376C285.919 195.336 286.183 196.44 286.183 197.688L286.159 198.216ZM280.063 192.744C278.847 192.744 277.823 193.136 276.991 193.92C276.175 194.688 275.711 195.696 275.599 196.944H284.551C284.439 195.696 283.967 194.688 283.135 193.92C282.319 193.136 281.295 192.744 280.063 192.744ZM298.273 192.888H293.497V204H291.793V192.888H287.017V191.376H298.273V192.888ZM305.359 204.12C304.143 204.12 303.047 203.848 302.071 203.304C301.095 202.744 300.327 201.976 299.767 201C299.207 200.024 298.927 198.92 298.927 197.688C298.927 196.456 299.207 195.352 299.767 194.376C300.327 193.4 301.095 192.64 302.071 192.096C303.047 191.552 304.143 191.28 305.359 191.28C306.575 191.28 307.671 191.552 308.647 192.096C309.623 192.64 310.383 193.4 310.927 194.376C311.487 195.352 311.767 196.456 311.767 197.688C311.767 198.92 311.487 200.024 310.927 201C310.383 201.976 309.623 202.744 308.647 203.304C307.671 203.848 306.575 204.12 305.359 204.12ZM305.359 202.608C306.255 202.608 307.055 202.408 307.759 202.008C308.479 201.592 309.039 201.008 309.439 200.256C309.839 199.504 310.039 198.648 310.039 197.688C310.039 196.728 309.839 195.872 309.439 195.12C309.039 194.368 308.479 193.792 307.759 193.392C307.055 192.976 306.255 192.768 305.359 192.768C304.463 192.768 303.655 192.976 302.935 193.392C302.231 193.792 301.671 194.368 301.255 195.12C300.855 195.872 300.655 196.728 300.655 197.688C300.655 198.648 300.855 199.504 301.255 200.256C301.671 201.008 302.231 201.592 302.935 202.008C303.655 202.408 304.463 202.608 305.359 202.608ZM323.448 197.472C325.16 197.872 326.016 198.904 326.016 200.568C326.016 201.672 325.608 202.52 324.792 203.112C323.976 203.704 322.76 204 321.144 204H315.408V191.376H320.976C322.416 191.376 323.544 191.656 324.36 192.216C325.176 192.776 325.584 193.576 325.584 194.616C325.584 195.304 325.392 195.896 325.008 196.392C324.64 196.872 324.12 197.232 323.448 197.472ZM317.064 196.992H320.856C321.832 196.992 322.576 196.808 323.088 196.44C323.616 196.072 323.88 195.536 323.88 194.832C323.88 194.128 323.616 193.6 323.088 193.248C322.576 192.896 321.832 192.72 320.856 192.72H317.064V196.992ZM321.072 202.656C322.16 202.656 322.976 202.48 323.52 202.128C324.064 201.776 324.336 201.224 324.336 200.472C324.336 199.72 324.088 199.168 323.592 198.816C323.096 198.448 322.312 198.264 321.24 198.264H317.064V202.656H321.072ZM340.738 191.376L334.426 205.512C333.914 206.696 333.322 207.536 332.65 208.032C331.978 208.528 331.17 208.776 330.226 208.776C329.618 208.776 329.05 208.68 328.522 208.488C327.994 208.296 327.538 208.008 327.154 207.624L327.946 206.352C328.586 206.992 329.354 207.312 330.25 207.312C330.826 207.312 331.314 207.152 331.714 206.832C332.13 206.512 332.514 205.968 332.866 205.2L333.418 203.976L327.778 191.376H329.554L334.306 202.104L339.058 191.376H340.738ZM354.241 191.28C355.425 191.28 356.489 191.552 357.433 192.096C358.393 192.64 359.145 193.4 359.689 194.376C360.233 195.352 360.505 196.456 360.505 197.688C360.505 198.92 360.233 200.024 359.689 201C359.145 201.976 358.393 202.744 357.433 203.304C356.489 203.848 355.425 204.12 354.241 204.12C353.121 204.12 352.105 203.88 351.193 203.4C350.281 202.904 349.537 202.224 348.961 201.36C348.401 200.496 348.073 199.504 347.977 198.384H345.097V204H343.393V191.376H345.097V196.824H348.001C348.129 195.736 348.473 194.776 349.033 193.944C349.609 193.096 350.345 192.44 351.241 191.976C352.137 191.512 353.137 191.28 354.241 191.28ZM354.241 202.632C355.105 202.632 355.881 202.424 356.569 202.008C357.273 201.592 357.825 201.008 358.225 200.256C358.625 199.504 358.825 198.648 358.825 197.688C358.825 196.728 358.625 195.872 358.225 195.12C357.825 194.368 357.273 193.792 356.569 193.392C355.881 192.976 355.105 192.768 354.241 192.768C353.377 192.768 352.593 192.976 351.889 193.392C351.201 193.792 350.657 194.368 350.257 195.12C349.857 195.872 349.657 196.728 349.657 197.688C349.657 198.648 349.857 199.504 350.257 200.256C350.657 201.008 351.201 201.592 351.889 202.008C352.593 202.424 353.377 202.632 354.241 202.632ZM104.223 222.888H96.9991V234H95.2951V221.376H104.223V222.888ZM111.03 221.28C112.678 221.28 113.942 221.696 114.822 222.528C115.702 223.344 116.142 224.56 116.142 226.176V234H114.51V232.032C114.126 232.688 113.558 233.2 112.806 233.568C112.07 233.936 111.19 234.12 110.166 234.12C108.758 234.12 107.638 233.784 106.806 233.112C105.974 232.44 105.558 231.552 105.558 230.448C105.558 229.376 105.942 228.512 106.71 227.856C107.494 227.2 108.734 226.872 110.43 226.872H114.438V226.104C114.438 225.016 114.134 224.192 113.526 223.632C112.918 223.056 112.03 222.768 110.862 222.768C110.062 222.768 109.294 222.904 108.558 223.176C107.822 223.432 107.19 223.792 106.662 224.256L105.894 222.984C106.534 222.44 107.302 222.024 108.198 221.736C109.094 221.432 110.038 221.28 111.03 221.28ZM110.43 232.776C111.39 232.776 112.214 232.56 112.902 232.128C113.59 231.68 114.102 231.04 114.438 230.208V228.144H110.478C108.318 228.144 107.238 228.896 107.238 230.4C107.238 231.136 107.518 231.72 108.078 232.152C108.638 232.568 109.422 232.776 110.43 232.776ZM134.79 221.376V234H133.23V224.016L128.118 232.464H127.35L122.238 223.992V234H120.678V221.376H122.406L127.758 230.472L133.206 221.376H134.79ZM153.751 221.376V234H152.191V224.016L147.079 232.464H146.311L141.199 223.992V234H139.639V221.376H141.367L146.719 230.472L152.167 221.376H153.751ZM169.328 221.376L163.016 235.512C162.504 236.696 161.912 237.536 161.24 238.032C160.568 238.528 159.76 238.776 158.816 238.776C158.208 238.776 157.64 238.68 157.112 238.488C156.584 238.296 156.128 238.008 155.744 237.624L156.536 236.352C157.176 236.992 157.944 237.312 158.84 237.312C159.416 237.312 159.904 237.152 160.304 236.832C160.72 236.512 161.104 235.968 161.456 235.2L162.008 233.976L156.368 221.376H158.144L162.896 232.104L167.648 221.376H169.328ZM171.306 231.504C171.674 231.504 171.978 231.632 172.218 231.888C172.458 232.128 172.578 232.432 172.578 232.8C172.578 232.992 172.546 233.2 172.482 233.424C172.434 233.648 172.354 233.904 172.242 234.192L171.234 237.504H170.082L170.898 234.024C170.642 233.944 170.434 233.8 170.274 233.592C170.114 233.368 170.034 233.104 170.034 232.8C170.034 232.432 170.154 232.128 170.394 231.888C170.634 231.632 170.938 231.504 171.306 231.504ZM193.857 221.376V234H192.153V222.888H184.233V234H182.529V221.376H193.857ZM205.205 221.28C206.389 221.28 207.461 221.552 208.421 222.096C209.381 222.624 210.133 223.376 210.677 224.352C211.221 225.328 211.493 226.44 211.493 227.688C211.493 228.952 211.221 230.072 210.677 231.048C210.133 232.024 209.381 232.784 208.421 233.328C207.477 233.856 206.405 234.12 205.205 234.12C204.181 234.12 203.253 233.912 202.421 233.496C201.605 233.064 200.933 232.44 200.405 231.624V238.656H198.701V221.376H200.333V223.872C200.845 223.04 201.517 222.4 202.349 221.952C203.197 221.504 204.149 221.28 205.205 221.28ZM205.085 232.608C205.965 232.608 206.765 232.408 207.485 232.008C208.205 231.592 208.765 231.008 209.165 230.256C209.581 229.504 209.789 228.648 209.789 227.688C209.789 226.728 209.581 225.88 209.165 225.144C208.765 224.392 208.205 223.808 207.485 223.392C206.765 222.976 205.965 222.768 205.085 222.768C204.189 222.768 203.381 222.976 202.661 223.392C201.957 223.808 201.397 224.392 200.981 225.144C200.581 225.88 200.381 226.728 200.381 227.688C200.381 228.648 200.581 229.504 200.981 230.256C201.397 231.008 201.957 231.592 202.661 232.008C203.381 232.408 204.189 232.608 205.085 232.608ZM220.362 234.12C219.146 234.12 218.05 233.848 217.074 233.304C216.098 232.744 215.33 231.976 214.77 231C214.21 230.024 213.93 228.92 213.93 227.688C213.93 226.456 214.21 225.352 214.77 224.376C215.33 223.4 216.098 222.64 217.074 222.096C218.05 221.552 219.146 221.28 220.362 221.28C221.578 221.28 222.674 221.552 223.65 222.096C224.626 222.64 225.386 223.4 225.93 224.376C226.49 225.352 226.77 226.456 226.77 227.688C226.77 228.92 226.49 230.024 225.93 231C225.386 231.976 224.626 232.744 223.65 233.304C222.674 233.848 221.578 234.12 220.362 234.12ZM220.362 232.608C221.258 232.608 222.058 232.408 222.762 232.008C223.482 231.592 224.042 231.008 224.442 230.256C224.842 229.504 225.042 228.648 225.042 227.688C225.042 226.728 224.842 225.872 224.442 225.12C224.042 224.368 223.482 223.792 222.762 223.392C222.058 222.976 221.258 222.768 220.362 222.768C219.466 222.768 218.658 222.976 217.938 223.392C217.234 223.792 216.674 224.368 216.258 225.12C215.858 225.872 215.658 226.728 215.658 227.688C215.658 228.648 215.858 229.504 216.258 230.256C216.674 231.008 217.234 231.592 217.938 232.008C218.658 232.408 219.466 232.608 220.362 232.608ZM242.654 232.512V237.048H241.046V234H229.742V237.048H228.134V232.512H228.854C229.702 232.464 230.278 231.84 230.582 230.64C230.886 229.44 231.094 227.76 231.206 225.6L231.374 221.376H240.686V232.512H242.654ZM232.766 225.696C232.686 227.488 232.534 228.968 232.31 230.136C232.086 231.288 231.686 232.08 231.11 232.512H238.982V222.888H232.91L232.766 225.696ZM256.703 221.376L250.391 235.512C249.879 236.696 249.287 237.536 248.615 238.032C247.943 238.528 247.135 238.776 246.191 238.776C245.583 238.776 245.015 238.68 244.487 238.488C243.959 238.296 243.503 238.008 243.119 237.624L243.911 236.352C244.551 236.992 245.319 237.312 246.215 237.312C246.791 237.312 247.279 237.152 247.679 236.832C248.095 236.512 248.479 235.968 248.831 235.2L249.383 233.976L243.743 221.376H245.519L250.271 232.104L255.023 221.376H256.703ZM273.47 221.376V234H271.91V224.016L266.798 232.464H266.03L260.918 223.992V234H259.358V221.376H261.086L266.438 230.472L271.886 221.376H273.47ZM283.623 225.84C285.207 225.856 286.415 226.208 287.247 226.896C288.079 227.584 288.495 228.576 288.495 229.872C288.495 231.216 288.047 232.248 287.151 232.968C286.255 233.688 284.975 234.04 283.311 234.024L278.319 234V221.376H280.023V225.792L283.623 225.84ZM290.607 221.376H292.311V234H290.607V221.376ZM283.215 232.728C284.383 232.744 285.263 232.512 285.855 232.032C286.463 231.536 286.767 230.816 286.767 229.872C286.767 228.944 286.471 228.256 285.879 227.808C285.287 227.36 284.399 227.128 283.215 227.112L280.023 227.064V232.68L283.215 232.728ZM305.202 227.472C306.914 227.872 307.77 228.904 307.77 230.568C307.77 231.672 307.362 232.52 306.546 233.112C305.73 233.704 304.514 234 302.898 234H297.162V221.376H302.73C304.17 221.376 305.298 221.656 306.114 222.216C306.93 222.776 307.338 223.576 307.338 224.616C307.338 225.304 307.146 225.896 306.762 226.392C306.394 226.872 305.874 227.232 305.202 227.472ZM298.818 226.992H302.61C303.586 226.992 304.33 226.808 304.842 226.44C305.37 226.072 305.634 225.536 305.634 224.832C305.634 224.128 305.37 223.6 304.842 223.248C304.33 222.896 303.586 222.72 302.61 222.72H298.818V226.992ZM302.826 232.656C303.914 232.656 304.73 232.48 305.274 232.128C305.818 231.776 306.09 231.224 306.09 230.472C306.09 229.72 305.842 229.168 305.346 228.816C304.85 228.448 304.066 228.264 302.994 228.264H298.818V232.656H302.826ZM316.108 221.28C317.756 221.28 319.02 221.696 319.9 222.528C320.78 223.344 321.22 224.56 321.22 226.176V234H319.588V232.032C319.204 232.688 318.636 233.2 317.884 233.568C317.148 233.936 316.268 234.12 315.244 234.12C313.836 234.12 312.716 233.784 311.884 233.112C311.052 232.44 310.636 231.552 310.636 230.448C310.636 229.376 311.02 228.512 311.788 227.856C312.572 227.2 313.812 226.872 315.508 226.872H319.516V226.104C319.516 225.016 319.212 224.192 318.604 223.632C317.996 223.056 317.108 222.768 315.94 222.768C315.14 222.768 314.372 222.904 313.636 223.176C312.9 223.432 312.268 223.792 311.74 224.256L310.972 222.984C311.612 222.44 312.38 222.024 313.276 221.736C314.172 221.432 315.116 221.28 316.108 221.28ZM315.508 232.776C316.468 232.776 317.292 232.56 317.98 232.128C318.668 231.68 319.18 231.04 319.516 230.208V228.144H315.556C313.396 228.144 312.316 228.896 312.316 230.4C312.316 231.136 312.596 231.72 313.156 232.152C313.716 232.568 314.5 232.776 315.508 232.776ZM336.796 228.216H326.236C326.332 229.528 326.836 230.592 327.748 231.408C328.66 232.208 329.812 232.608 331.204 232.608C331.988 232.608 332.708 232.472 333.364 232.2C334.02 231.912 334.588 231.496 335.068 230.952L336.028 232.056C335.468 232.728 334.764 233.24 333.916 233.592C333.084 233.944 332.164 234.12 331.156 234.12C329.86 234.12 328.708 233.848 327.7 233.304C326.708 232.744 325.932 231.976 325.372 231C324.812 230.024 324.532 228.92 324.532 227.688C324.532 226.456 324.796 225.352 325.324 224.376C325.868 223.4 326.604 222.64 327.532 222.096C328.476 221.552 329.532 221.28 330.7 221.28C331.868 221.28 332.916 221.552 333.844 222.096C334.772 222.64 335.5 223.4 336.028 224.376C336.556 225.336 336.82 226.44 336.82 227.688L336.796 228.216ZM330.7 222.744C329.484 222.744 328.46 223.136 327.628 223.92C326.812 224.688 326.348 225.696 326.236 226.944H335.188C335.076 225.696 334.604 224.688 333.772 223.92C332.956 223.136 331.932 222.744 330.7 222.744ZM354.704 221.376V234H353.144V224.016L348.032 232.464H347.264L342.152 223.992V234H340.592V221.376H342.32L347.672 230.472L353.12 221.376H354.704ZM86.7991 250.28C87.9831 250.28 89.0551 250.552 90.0151 251.096C90.9751 251.624 91.7271 252.376 92.2711 253.352C92.8151 254.328 93.0871 255.44 93.0871 256.688C93.0871 257.952 92.8151 259.072 92.2711 260.048C91.7271 261.024 90.9751 261.784 90.0151 262.328C89.0711 262.856 87.9991 263.12 86.7991 263.12C85.7751 263.12 84.8471 262.912 84.0151 262.496C83.1991 262.064 82.5271 261.44 81.9991 260.624V267.656H80.2951V250.376H81.9271V252.872C82.4391 252.04 83.1111 251.4 83.9431 250.952C84.7911 250.504 85.7431 250.28 86.7991 250.28ZM86.6791 261.608C87.5591 261.608 88.3591 261.408 89.0791 261.008C89.7991 260.592 90.3591 260.008 90.7591 259.256C91.1751 258.504 91.3831 257.648 91.3831 256.688C91.3831 255.728 91.1751 254.88 90.7591 254.144C90.3591 253.392 89.7991 252.808 89.0791 252.392C88.3591 251.976 87.5591 251.768 86.6791 251.768C85.7831 251.768 84.9751 251.976 84.2551 252.392C83.5511 252.808 82.9911 253.392 82.5751 254.144C82.1751 254.88 81.9751 255.728 81.9751 256.688C81.9751 257.648 82.1751 258.504 82.5751 259.256C82.9911 260.008 83.5511 260.592 84.2551 261.008C84.9751 261.408 85.7831 261.608 86.6791 261.608ZM101.022 250.28C102.67 250.28 103.934 250.696 104.814 251.528C105.694 252.344 106.134 253.56 106.134 255.176V263H104.502V261.032C104.118 261.688 103.55 262.2 102.798 262.568C102.062 262.936 101.182 263.12 100.158 263.12C98.7499 263.12 97.6299 262.784 96.7979 262.112C95.9659 261.44 95.5499 260.552 95.5499 259.448C95.5499 258.376 95.9339 257.512 96.7019 256.856C97.4859 256.2 98.7259 255.872 100.422 255.872H104.43V255.104C104.43 254.016 104.126 253.192 103.518 252.632C102.91 252.056 102.022 251.768 100.854 251.768C100.054 251.768 99.2859 251.904 98.5499 252.176C97.8139 252.432 97.1819 252.792 96.6539 253.256L95.8859 251.984C96.5259 251.44 97.2939 251.024 98.1899 250.736C99.0859 250.432 100.03 250.28 101.022 250.28ZM100.422 261.776C101.382 261.776 102.206 261.56 102.894 261.128C103.582 260.68 104.094 260.04 104.43 259.208V257.144H100.47C98.3099 257.144 97.2299 257.896 97.2299 259.4C97.2299 260.136 97.5099 260.72 98.0699 261.152C98.6299 261.568 99.4139 261.776 100.422 261.776ZM115.95 263.12C114.702 263.12 113.582 262.848 112.59 262.304C111.614 261.76 110.846 261 110.286 260.024C109.726 259.032 109.446 257.92 109.446 256.688C109.446 255.456 109.726 254.352 110.286 253.376C110.846 252.4 111.614 251.64 112.59 251.096C113.582 250.552 114.702 250.28 115.95 250.28C117.038 250.28 118.006 250.496 118.854 250.928C119.718 251.344 120.398 251.96 120.894 252.776L119.622 253.64C119.206 253.016 118.678 252.552 118.038 252.248C117.398 251.928 116.702 251.768 115.95 251.768C115.038 251.768 114.214 251.976 113.478 252.392C112.758 252.792 112.19 253.368 111.774 254.12C111.374 254.872 111.174 255.728 111.174 256.688C111.174 257.664 111.374 258.528 111.774 259.28C112.19 260.016 112.758 260.592 113.478 261.008C114.214 261.408 115.038 261.608 115.95 261.608C116.702 261.608 117.398 261.456 118.038 261.152C118.678 260.848 119.206 260.384 119.622 259.76L120.894 260.624C120.398 261.44 119.718 262.064 118.854 262.496C117.99 262.912 117.022 263.12 115.95 263.12ZM135.522 250.376V263H133.818V251.888H125.898V263H124.194V250.376H135.522ZM145.573 263.12C144.357 263.12 143.261 262.848 142.285 262.304C141.309 261.744 140.541 260.976 139.981 260C139.421 259.024 139.141 257.92 139.141 256.688C139.141 255.456 139.421 254.352 139.981 253.376C140.541 252.4 141.309 251.64 142.285 251.096C143.261 250.552 144.357 250.28 145.573 250.28C146.789 250.28 147.885 250.552 148.861 251.096C149.837 251.64 150.597 252.4 151.141 253.376C151.701 254.352 151.981 255.456 151.981 256.688C151.981 257.92 151.701 259.024 151.141 260C150.597 260.976 149.837 261.744 148.861 262.304C147.885 262.848 146.789 263.12 145.573 263.12ZM145.573 261.608C146.469 261.608 147.269 261.408 147.973 261.008C148.693 260.592 149.253 260.008 149.653 259.256C150.053 258.504 150.253 257.648 150.253 256.688C150.253 255.728 150.053 254.872 149.653 254.12C149.253 253.368 148.693 252.792 147.973 252.392C147.269 251.976 146.469 251.768 145.573 251.768C144.677 251.768 143.869 251.976 143.149 252.392C142.445 252.792 141.885 253.368 141.469 254.12C141.069 254.872 140.869 255.728 140.869 256.688C140.869 257.648 141.069 258.504 141.469 259.256C141.885 260.008 142.445 260.592 143.149 261.008C143.869 261.408 144.677 261.608 145.573 261.608ZM165.873 250.376V263H164.169V251.888H158.121L157.953 255.008C157.825 257.632 157.521 259.648 157.041 261.056C156.561 262.464 155.705 263.168 154.473 263.168C154.137 263.168 153.729 263.104 153.249 262.976L153.369 261.512C153.657 261.576 153.857 261.608 153.969 261.608C154.625 261.608 155.121 261.304 155.457 260.696C155.793 260.088 156.017 259.336 156.129 258.44C156.241 257.544 156.337 256.36 156.417 254.888L156.633 250.376H165.873ZM175.925 263.12C174.709 263.12 173.613 262.848 172.637 262.304C171.661 261.744 170.893 260.976 170.333 260C169.773 259.024 169.493 257.92 169.493 256.688C169.493 255.456 169.773 254.352 170.333 253.376C170.893 252.4 171.661 251.64 172.637 251.096C173.613 250.552 174.709 250.28 175.925 250.28C177.141 250.28 178.237 250.552 179.213 251.096C180.189 251.64 180.949 252.4 181.493 253.376C182.053 254.352 182.333 255.456 182.333 256.688C182.333 257.92 182.053 259.024 181.493 260C180.949 260.976 180.189 261.744 179.213 262.304C178.237 262.848 177.141 263.12 175.925 263.12ZM175.925 261.608C176.821 261.608 177.621 261.408 178.325 261.008C179.045 260.592 179.605 260.008 180.005 259.256C180.405 258.504 180.605 257.648 180.605 256.688C180.605 255.728 180.405 254.872 180.005 254.12C179.605 253.368 179.045 252.792 178.325 252.392C177.621 251.976 176.821 251.768 175.925 251.768C175.029 251.768 174.221 251.976 173.501 252.392C172.797 252.792 172.237 253.368 171.821 254.12C171.421 254.872 171.221 255.728 171.221 256.688C171.221 257.648 171.421 258.504 171.821 259.256C172.237 260.008 172.797 260.592 173.501 261.008C174.221 261.408 175.029 261.608 175.925 261.608ZM196.593 257.384H193.857V263H192.153V257.384H189.417L185.553 263H183.513L188.049 256.496L183.873 250.376H185.721L189.417 255.92H192.153V250.376H193.857V255.92H196.593L200.313 250.376H202.161L197.985 256.52L202.521 263H200.481L196.593 257.384ZM215.952 257.216H205.392C205.488 258.528 205.992 259.592 206.904 260.408C207.816 261.208 208.968 261.608 210.36 261.608C211.144 261.608 211.864 261.472 212.52 261.2C213.176 260.912 213.744 260.496 214.224 259.952L215.184 261.056C214.624 261.728 213.92 262.24 213.072 262.592C212.24 262.944 211.32 263.12 210.312 263.12C209.016 263.12 207.864 262.848 206.856 262.304C205.864 261.744 205.088 260.976 204.528 260C203.968 259.024 203.688 257.92 203.688 256.688C203.688 255.456 203.952 254.352 204.48 253.376C205.024 252.4 205.76 251.64 206.688 251.096C207.632 250.552 208.688 250.28 209.856 250.28C211.024 250.28 212.072 250.552 213 251.096C213.928 251.64 214.656 252.4 215.184 253.376C215.712 254.336 215.976 255.44 215.976 256.688L215.952 257.216ZM209.856 251.744C208.64 251.744 207.616 252.136 206.784 252.92C205.968 253.688 205.504 254.696 205.392 255.944H214.344C214.232 254.696 213.76 253.688 212.928 252.92C212.112 252.136 211.088 251.744 209.856 251.744ZM219.748 250.376H221.452V255.968H229.396V250.376H231.1V263H229.396V257.432H221.452V263H219.748V250.376ZM235.944 250.376H237.648V260.408L246.072 250.376H247.584V263H245.88V252.968L237.48 263H235.944V250.376ZM263.507 257.216H252.947C253.043 258.528 253.547 259.592 254.459 260.408C255.371 261.208 256.523 261.608 257.915 261.608C258.699 261.608 259.419 261.472 260.075 261.2C260.731 260.912 261.299 260.496 261.779 259.952L262.739 261.056C262.179 261.728 261.475 262.24 260.627 262.592C259.795 262.944 258.875 263.12 257.867 263.12C256.571 263.12 255.419 262.848 254.411 262.304C253.419 261.744 252.643 260.976 252.083 260C251.523 259.024 251.243 257.92 251.243 256.688C251.243 255.456 251.507 254.352 252.035 253.376C252.579 252.4 253.315 251.64 254.243 251.096C255.187 250.552 256.243 250.28 257.411 250.28C258.579 250.28 259.627 250.552 260.555 251.096C261.483 251.64 262.211 252.4 262.739 253.376C263.267 254.336 263.531 255.44 263.531 256.688L263.507 257.216ZM257.411 251.744C256.195 251.744 255.171 252.136 254.339 252.92C253.523 253.688 253.059 254.696 252.947 255.944H261.899C261.787 254.696 261.315 253.688 260.483 252.92C259.667 252.136 258.643 251.744 257.411 251.744ZM287.696 250.376V263H286.136V253.016L281.024 261.464H280.256L275.144 252.992V263H273.584V250.376H275.312L280.664 259.472L286.112 250.376H287.696ZM303.585 257.216H293.025C293.121 258.528 293.625 259.592 294.537 260.408C295.449 261.208 296.601 261.608 297.993 261.608C298.777 261.608 299.497 261.472 300.153 261.2C300.809 260.912 301.377 260.496 301.857 259.952L302.817 261.056C302.257 261.728 301.553 262.24 300.705 262.592C299.873 262.944 298.953 263.12 297.945 263.12C296.649 263.12 295.497 262.848 294.489 262.304C293.497 261.744 292.721 260.976 292.161 260C291.601 259.024 291.321 257.92 291.321 256.688C291.321 255.456 291.585 254.352 292.113 253.376C292.657 252.4 293.393 251.64 294.321 251.096C295.265 250.552 296.321 250.28 297.489 250.28C298.657 250.28 299.705 250.552 300.633 251.096C301.561 251.64 302.289 252.4 302.817 253.376C303.345 254.336 303.609 255.44 303.609 256.688L303.585 257.216ZM297.489 251.744C296.273 251.744 295.249 252.136 294.417 252.92C293.601 253.688 293.137 254.696 293.025 255.944H301.977C301.865 254.696 301.393 253.688 300.561 252.92C299.745 252.136 298.721 251.744 297.489 251.744ZM313.501 250.688C314.669 250.688 315.709 250.952 316.621 251.48C317.549 251.992 318.269 252.72 318.781 253.664C319.293 254.592 319.549 255.656 319.549 256.856C319.549 258.088 319.277 259.184 318.733 260.144C318.205 261.088 317.461 261.824 316.501 262.352C315.541 262.88 314.437 263.144 313.189 263.144C311.093 263.144 309.469 262.408 308.317 260.936C307.165 259.464 306.589 257.432 306.589 254.84C306.589 252.136 307.101 250.064 308.125 248.624C309.165 247.184 310.781 246.208 312.973 245.696L318.637 244.4L318.925 245.96L313.597 247.184C311.789 247.584 310.461 248.296 309.613 249.32C308.765 250.328 308.301 251.824 308.221 253.808C308.733 252.832 309.445 252.072 310.357 251.528C311.269 250.968 312.317 250.688 313.501 250.688ZM313.237 261.728C314.117 261.728 314.901 261.528 315.589 261.128C316.293 260.712 316.837 260.136 317.221 259.4C317.621 258.664 317.821 257.832 317.821 256.904C317.821 255.976 317.629 255.16 317.245 254.456C316.861 253.752 316.317 253.208 315.613 252.824C314.925 252.424 314.133 252.224 313.237 252.224C312.341 252.224 311.541 252.424 310.837 252.824C310.149 253.208 309.605 253.752 309.205 254.456C308.821 255.16 308.629 255.976 308.629 256.904C308.629 257.832 308.821 258.664 309.205 259.4C309.605 260.136 310.157 260.712 310.861 261.128C311.565 261.528 312.357 261.728 313.237 261.728ZM334.241 257.216H323.681C323.777 258.528 324.281 259.592 325.193 260.408C326.105 261.208 327.257 261.608 328.649 261.608C329.433 261.608 330.153 261.472 330.809 261.2C331.465 260.912 332.033 260.496 332.513 259.952L333.473 261.056C332.913 261.728 332.209 262.24 331.361 262.592C330.529 262.944 329.609 263.12 328.601 263.12C327.305 263.12 326.153 262.848 325.145 262.304C324.153 261.744 323.377 260.976 322.817 260C322.257 259.024 321.977 257.92 321.977 256.688C321.977 255.456 322.241 254.352 322.769 253.376C323.313 252.4 324.049 251.64 324.977 251.096C325.921 250.552 326.977 250.28 328.145 250.28C329.313 250.28 330.361 250.552 331.289 251.096C332.217 251.64 332.945 252.4 333.473 253.376C334.001 254.336 334.265 255.44 334.265 256.688L334.241 257.216ZM328.145 251.744C326.929 251.744 325.905 252.136 325.073 252.92C324.257 253.688 323.793 254.696 323.681 255.944H332.633C332.521 254.696 332.049 253.688 331.217 252.92C330.401 252.136 329.377 251.744 328.145 251.744ZM348.099 250.376V263H346.395V251.888H340.347L340.179 255.008C340.051 257.632 339.747 259.648 339.267 261.056C338.787 262.464 337.931 263.168 336.699 263.168C336.363 263.168 335.955 263.104 335.475 262.976L335.595 261.512C335.883 261.576 336.083 261.608 336.195 261.608C336.851 261.608 337.347 261.304 337.683 260.696C338.019 260.088 338.243 259.336 338.355 258.44C338.467 257.544 338.563 256.36 338.643 254.888L338.859 250.376H348.099ZM352.944 250.376H354.648V260.408L363.072 250.376H364.584V263H362.88V252.968L354.48 263H352.944V250.376ZM369.587 263.12C369.235 263.12 368.931 262.992 368.675 262.736C368.435 262.48 368.315 262.168 368.315 261.8C368.315 261.432 368.435 261.128 368.675 260.888C368.931 260.632 369.235 260.504 369.587 260.504C369.939 260.504 370.243 260.632 370.499 260.888C370.755 261.128 370.883 261.432 370.883 261.8C370.883 262.168 370.755 262.48 370.499 262.736C370.243 262.992 369.939 263.12 369.587 263.12ZM90.5618 275.2V292H88.8098V276.736H78.1778V292H76.4258V275.2H90.5618ZM102.326 279.28C103.51 279.28 104.582 279.552 105.542 280.096C106.502 280.624 107.254 281.376 107.798 282.352C108.342 283.328 108.614 284.44 108.614 285.688C108.614 286.952 108.342 288.072 107.798 289.048C107.254 290.024 106.502 290.784 105.542 291.328C104.598 291.856 103.526 292.12 102.326 292.12C101.302 292.12 100.374 291.912 99.5424 291.496C98.7264 291.064 98.0544 290.44 97.5264 289.624V296.656H95.8224V279.376H97.4544V281.872C97.9664 281.04 98.6384 280.4 99.4704 279.952C100.318 279.504 101.27 279.28 102.326 279.28ZM102.206 290.608C103.086 290.608 103.886 290.408 104.606 290.008C105.326 289.592 105.886 289.008 106.286 288.256C106.702 287.504 106.91 286.648 106.91 285.688C106.91 284.728 106.702 283.88 106.286 283.144C105.886 282.392 105.326 281.808 104.606 281.392C103.886 280.976 103.086 280.768 102.206 280.768C101.31 280.768 100.502 280.976 99.7824 281.392C99.0784 281.808 98.5184 282.392 98.1024 283.144C97.7024 283.88 97.5024 284.728 97.5024 285.688C97.5024 286.648 97.7024 287.504 98.1024 288.256C98.5184 289.008 99.0784 289.592 99.7824 290.008C100.502 290.408 101.31 290.608 102.206 290.608ZM117.484 292.12C116.268 292.12 115.172 291.848 114.196 291.304C113.22 290.744 112.452 289.976 111.892 289C111.332 288.024 111.052 286.92 111.052 285.688C111.052 284.456 111.332 283.352 111.892 282.376C112.452 281.4 113.22 280.64 114.196 280.096C115.172 279.552 116.268 279.28 117.484 279.28C118.7 279.28 119.796 279.552 120.772 280.096C121.748 280.64 122.508 281.4 123.052 282.376C123.612 283.352 123.892 284.456 123.892 285.688C123.892 286.92 123.612 288.024 123.052 289C122.508 289.976 121.748 290.744 120.772 291.304C119.796 291.848 118.7 292.12 117.484 292.12ZM117.484 290.608C118.38 290.608 119.18 290.408 119.884 290.008C120.604 289.592 121.164 289.008 121.564 288.256C121.964 287.504 122.164 286.648 122.164 285.688C122.164 284.728 121.964 283.872 121.564 283.12C121.164 282.368 120.604 281.792 119.884 281.392C119.18 280.976 118.38 280.768 117.484 280.768C116.588 280.768 115.78 280.976 115.06 281.392C114.356 281.792 113.796 282.368 113.38 283.12C112.98 283.872 112.78 284.728 112.78 285.688C112.78 286.648 112.98 287.504 113.38 288.256C113.796 289.008 114.356 289.592 115.06 290.008C115.78 290.408 116.588 290.608 117.484 290.608ZM138.573 286.216H128.013C128.109 287.528 128.613 288.592 129.525 289.408C130.437 290.208 131.589 290.608 132.981 290.608C133.765 290.608 134.485 290.472 135.141 290.2C135.797 289.912 136.365 289.496 136.845 288.952L137.805 290.056C137.245 290.728 136.541 291.24 135.693 291.592C134.861 291.944 133.941 292.12 132.933 292.12C131.637 292.12 130.485 291.848 129.477 291.304C128.485 290.744 127.709 289.976 127.149 289C126.589 288.024 126.309 286.92 126.309 285.688C126.309 284.456 126.573 283.352 127.101 282.376C127.645 281.4 128.381 280.64 129.309 280.096C130.253 279.552 131.309 279.28 132.477 279.28C133.645 279.28 134.693 279.552 135.621 280.096C136.549 280.64 137.277 281.4 137.805 282.376C138.333 283.336 138.597 284.44 138.597 285.688L138.573 286.216ZM132.477 280.744C131.261 280.744 130.237 281.136 129.405 281.92C128.589 282.688 128.125 283.696 128.013 284.944H136.965C136.853 283.696 136.381 282.688 135.549 281.92C134.733 281.136 133.709 280.744 132.477 280.744ZM146.953 286.384H144.073V292H142.369V279.376H144.073V284.92H146.977L151.417 279.376H153.265L148.297 285.496L153.625 292H151.609L146.953 286.384ZM164.937 280.888H160.161V292H158.457V280.888H153.681V279.376H164.937V280.888ZM167.401 279.376H169.105V289.408L177.529 279.376H179.041V292H177.337V281.968L168.937 292H167.401V279.376ZM190.428 279.28C191.612 279.28 192.684 279.552 193.644 280.096C194.604 280.624 195.356 281.376 195.9 282.352C196.444 283.328 196.716 284.44 196.716 285.688C196.716 286.952 196.444 288.072 195.9 289.048C195.356 290.024 194.604 290.784 193.644 291.328C192.7 291.856 191.628 292.12 190.428 292.12C189.404 292.12 188.476 291.912 187.644 291.496C186.828 291.064 186.156 290.44 185.628 289.624V296.656H183.924V279.376H185.556V281.872C186.068 281.04 186.74 280.4 187.572 279.952C188.42 279.504 189.372 279.28 190.428 279.28ZM190.308 290.608C191.188 290.608 191.988 290.408 192.708 290.008C193.428 289.592 193.988 289.008 194.388 288.256C194.804 287.504 195.012 286.648 195.012 285.688C195.012 284.728 194.804 283.88 194.388 283.144C193.988 282.392 193.428 281.808 192.708 281.392C191.988 280.976 191.188 280.768 190.308 280.768C189.412 280.768 188.604 280.976 187.884 281.392C187.18 281.808 186.62 282.392 186.204 283.144C185.804 283.88 185.604 284.728 185.604 285.688C185.604 286.648 185.804 287.504 186.204 288.256C186.62 289.008 187.18 289.592 187.884 290.008C188.604 290.408 189.412 290.608 190.308 290.608ZM210.754 279.376L204.442 293.512C203.93 294.696 203.338 295.536 202.666 296.032C201.994 296.528 201.186 296.776 200.242 296.776C199.634 296.776 199.066 296.68 198.538 296.488C198.01 296.296 197.554 296.008 197.17 295.624L197.962 294.352C198.602 294.992 199.37 295.312 200.266 295.312C200.842 295.312 201.33 295.152 201.73 294.832C202.146 294.512 202.53 293.968 202.882 293.2L203.434 291.976L197.794 279.376H199.57L204.322 290.104L209.074 279.376H210.754ZM224.097 286.216H213.537C213.633 287.528 214.137 288.592 215.049 289.408C215.961 290.208 217.113 290.608 218.505 290.608C219.289 290.608 220.009 290.472 220.665 290.2C221.321 289.912 221.889 289.496 222.369 288.952L223.329 290.056C222.769 290.728 222.065 291.24 221.217 291.592C220.385 291.944 219.465 292.12 218.457 292.12C217.161 292.12 216.009 291.848 215.001 291.304C214.009 290.744 213.233 289.976 212.673 289C212.113 288.024 211.833 286.92 211.833 285.688C211.833 284.456 212.097 283.352 212.625 282.376C213.169 281.4 213.905 280.64 214.833 280.096C215.777 279.552 216.833 279.28 218.001 279.28C219.169 279.28 220.217 279.552 221.145 280.096C222.073 280.64 222.801 281.4 223.329 282.376C223.857 283.336 224.121 284.44 224.121 285.688L224.097 286.216ZM218.001 280.744C216.785 280.744 215.761 281.136 214.929 281.92C214.113 282.688 213.649 283.696 213.537 284.944H222.489C222.377 283.696 221.905 282.688 221.073 281.92C220.257 281.136 219.233 280.744 218.001 280.744ZM242.005 279.376V292H240.445V282.016L235.333 290.464H234.565L229.453 281.992V292H227.893V279.376H229.621L234.973 288.472L240.421 279.376H242.005ZM262.015 280.888H257.239V292H255.535V280.888H250.759V279.376H262.015V280.888ZM268.823 279.28C270.471 279.28 271.735 279.696 272.615 280.528C273.495 281.344 273.935 282.56 273.935 284.176V292H272.303V290.032C271.919 290.688 271.351 291.2 270.599 291.568C269.863 291.936 268.983 292.12 267.959 292.12C266.551 292.12 265.431 291.784 264.599 291.112C263.767 290.44 263.351 289.552 263.351 288.448C263.351 287.376 263.735 286.512 264.503 285.856C265.287 285.2 266.527 284.872 268.223 284.872H272.231V284.104C272.231 283.016 271.927 282.192 271.319 281.632C270.711 281.056 269.823 280.768 268.655 280.768C267.855 280.768 267.087 280.904 266.351 281.176C265.615 281.432 264.983 281.792 264.455 282.256L263.687 280.984C264.327 280.44 265.095 280.024 265.991 279.736C266.887 279.432 267.831 279.28 268.823 279.28ZM268.223 290.776C269.183 290.776 270.007 290.56 270.695 290.128C271.383 289.68 271.895 289.04 272.231 288.208V286.144H268.271C266.111 286.144 265.031 286.896 265.031 288.4C265.031 289.136 265.311 289.72 265.871 290.152C266.431 290.568 267.215 290.776 268.223 290.776ZM283.055 286.384H280.175V292H278.471V279.376H280.175V284.92H283.079L287.519 279.376H289.367L284.399 285.496L289.727 292H287.711L283.055 286.384ZM292.56 289.504C292.928 289.504 293.232 289.632 293.472 289.888C293.712 290.128 293.832 290.432 293.832 290.8C293.832 290.992 293.8 291.2 293.736 291.424C293.688 291.648 293.608 291.904 293.496 292.192L292.488 295.504H291.336L292.152 292.024C291.896 291.944 291.688 291.8 291.528 291.592C291.368 291.368 291.288 291.104 291.288 290.8C291.288 290.432 291.408 290.128 291.648 289.888C291.888 289.632 292.192 289.504 292.56 289.504ZM313.311 279.376V292H311.607V286.744C310.151 287.384 308.719 287.704 307.311 287.704C305.791 287.704 304.607 287.36 303.759 286.672C302.911 285.968 302.487 284.92 302.487 283.528V279.376H304.191V283.432C304.191 284.376 304.495 285.096 305.103 285.592C305.711 286.072 306.551 286.312 307.623 286.312C308.807 286.312 310.135 286 311.607 285.376V279.376H313.311ZM327.031 280.888H322.255V292H320.551V280.888H315.775V279.376H327.031V280.888ZM334.116 292.12C332.9 292.12 331.804 291.848 330.828 291.304C329.852 290.744 329.084 289.976 328.524 289C327.964 288.024 327.684 286.92 327.684 285.688C327.684 284.456 327.964 283.352 328.524 282.376C329.084 281.4 329.852 280.64 330.828 280.096C331.804 279.552 332.9 279.28 334.116 279.28C335.332 279.28 336.428 279.552 337.404 280.096C338.38 280.64 339.14 281.4 339.684 282.376C340.244 283.352 340.524 284.456 340.524 285.688C340.524 286.92 340.244 288.024 339.684 289C339.14 289.976 338.38 290.744 337.404 291.304C336.428 291.848 335.332 292.12 334.116 292.12ZM334.116 290.608C335.012 290.608 335.812 290.408 336.516 290.008C337.236 289.592 337.796 289.008 338.196 288.256C338.596 287.504 338.796 286.648 338.796 285.688C338.796 284.728 338.596 283.872 338.196 283.12C337.796 282.368 337.236 281.792 336.516 281.392C335.812 280.976 335.012 280.768 334.116 280.768C333.22 280.768 332.412 280.976 331.692 281.392C330.988 281.792 330.428 282.368 330.012 283.12C329.612 283.872 329.412 284.728 329.412 285.688C329.412 286.648 329.612 287.504 330.012 288.256C330.428 289.008 330.988 289.592 331.692 290.008C332.412 290.408 333.22 290.608 334.116 290.608ZM350.286 279.688C351.454 279.688 352.494 279.952 353.406 280.48C354.334 280.992 355.054 281.72 355.566 282.664C356.078 283.592 356.334 284.656 356.334 285.856C356.334 287.088 356.062 288.184 355.518 289.144C354.99 290.088 354.246 290.824 353.286 291.352C352.326 291.88 351.222 292.144 349.974 292.144C347.878 292.144 346.254 291.408 345.102 289.936C343.95 288.464 343.374 286.432 343.374 283.84C343.374 281.136 343.886 279.064 344.91 277.624C345.95 276.184 347.566 275.208 349.758 274.696L355.422 273.4L355.71 274.96L350.382 276.184C348.574 276.584 347.246 277.296 346.398 278.32C345.55 279.328 345.086 280.824 345.006 282.808C345.518 281.832 346.23 281.072 347.142 280.528C348.054 279.968 349.102 279.688 350.286 279.688ZM350.022 290.728C350.902 290.728 351.686 290.528 352.374 290.128C353.078 289.712 353.622 289.136 354.006 288.4C354.406 287.664 354.606 286.832 354.606 285.904C354.606 284.976 354.414 284.16 354.03 283.456C353.646 282.752 353.102 282.208 352.398 281.824C351.71 281.424 350.918 281.224 350.022 281.224C349.126 281.224 348.326 281.424 347.622 281.824C346.934 282.208 346.39 282.752 345.99 283.456C345.606 284.16 345.414 284.976 345.414 285.904C345.414 286.832 345.606 287.664 345.99 288.4C346.39 289.136 346.942 289.712 347.646 290.128C348.35 290.528 349.142 290.728 350.022 290.728ZM365.291 283.84C366.875 283.856 368.083 284.208 368.915 284.896C369.747 285.584 370.163 286.576 370.163 287.872C370.163 289.216 369.715 290.248 368.819 290.968C367.923 291.688 366.643 292.04 364.979 292.024L359.987 292V279.376H361.691V283.792L365.291 283.84ZM372.275 279.376H373.979V292H372.275V279.376ZM364.883 290.728C366.051 290.744 366.931 290.512 367.523 290.032C368.131 289.536 368.435 288.816 368.435 287.872C368.435 286.944 368.139 286.256 367.547 285.808C366.955 285.36 366.067 285.128 364.883 285.112L361.691 285.064V290.68L364.883 290.728ZM102.562 314.472C104.274 314.872 105.13 315.904 105.13 317.568C105.13 318.672 104.722 319.52 103.906 320.112C103.09 320.704 101.874 321 100.258 321H94.5217V308.376H100.09C101.53 308.376 102.658 308.656 103.474 309.216C104.29 309.776 104.698 310.576 104.698 311.616C104.698 312.304 104.506 312.896 104.122 313.392C103.754 313.872 103.234 314.232 102.562 314.472ZM96.1777 313.992H99.9697C100.946 313.992 101.69 313.808 102.202 313.44C102.73 313.072 102.994 312.536 102.994 311.832C102.994 311.128 102.73 310.6 102.202 310.248C101.69 309.896 100.946 309.72 99.9697 309.72H96.1777V313.992ZM100.186 319.656C101.274 319.656 102.09 319.48 102.634 319.128C103.178 318.776 103.45 318.224 103.45 317.472C103.45 316.72 103.202 316.168 102.706 315.816C102.21 315.448 101.426 315.264 100.354 315.264H96.1777V319.656H100.186ZM113.467 308.28C115.115 308.28 116.379 308.696 117.259 309.528C118.139 310.344 118.579 311.56 118.579 313.176V321H116.947V319.032C116.563 319.688 115.995 320.2 115.243 320.568C114.507 320.936 113.627 321.12 112.603 321.12C111.195 321.12 110.075 320.784 109.243 320.112C108.411 319.44 107.995 318.552 107.995 317.448C107.995 316.376 108.379 315.512 109.147 314.856C109.931 314.2 111.171 313.872 112.867 313.872H116.875V313.104C116.875 312.016 116.571 311.192 115.963 310.632C115.355 310.056 114.467 309.768 113.299 309.768C112.499 309.768 111.731 309.904 110.995 310.176C110.259 310.432 109.627 310.792 109.099 311.256L108.331 309.984C108.971 309.44 109.739 309.024 110.635 308.736C111.531 308.432 112.475 308.28 113.467 308.28ZM112.867 319.776C113.827 319.776 114.651 319.56 115.339 319.128C116.027 318.68 116.539 318.04 116.875 317.208V315.144H112.915C110.755 315.144 109.675 315.896 109.675 317.4C109.675 318.136 109.955 318.72 110.515 319.152C111.075 319.568 111.859 319.776 112.867 319.776ZM137.227 308.376V321H135.667V311.016L130.555 319.464H129.787L124.675 310.992V321H123.115V308.376H124.843L130.195 317.472L135.643 308.376H137.227ZM154.478 308.688C155.646 308.688 156.686 308.952 157.598 309.48C158.526 309.992 159.246 310.72 159.758 311.664C160.27 312.592 160.526 313.656 160.526 314.856C160.526 316.088 160.254 317.184 159.71 318.144C159.182 319.088 158.438 319.824 157.478 320.352C156.518 320.88 155.414 321.144 154.166 321.144C152.07 321.144 150.446 320.408 149.294 318.936C148.142 317.464 147.566 315.432 147.566 312.84C147.566 310.136 148.078 308.064 149.102 306.624C150.142 305.184 151.758 304.208 153.95 303.696L159.614 302.4L159.902 303.96L154.574 305.184C152.766 305.584 151.438 306.296 150.59 307.32C149.742 308.328 149.278 309.824 149.198 311.808C149.71 310.832 150.422 310.072 151.334 309.528C152.246 308.968 153.294 308.688 154.478 308.688ZM154.214 319.728C155.094 319.728 155.878 319.528 156.566 319.128C157.27 318.712 157.814 318.136 158.198 317.4C158.598 316.664 158.798 315.832 158.798 314.904C158.798 313.976 158.606 313.16 158.222 312.456C157.838 311.752 157.294 311.208 156.59 310.824C155.902 310.424 155.11 310.224 154.214 310.224C153.318 310.224 152.518 310.424 151.814 310.824C151.126 311.208 150.582 311.752 150.182 312.456C149.798 313.16 149.606 313.976 149.606 314.904C149.606 315.832 149.798 316.664 150.182 317.4C150.582 318.136 151.134 318.712 151.838 319.128C152.542 319.528 153.334 319.728 154.214 319.728ZM169.482 312.84C171.066 312.856 172.274 313.208 173.106 313.896C173.938 314.584 174.354 315.576 174.354 316.872C174.354 318.216 173.906 319.248 173.01 319.968C172.114 320.688 170.834 321.04 169.17 321.024L164.178 321V308.376H165.882V312.792L169.482 312.84ZM176.466 308.376H178.17V321H176.466V308.376ZM169.074 319.728C170.242 319.744 171.122 319.512 171.714 319.032C172.322 318.536 172.626 317.816 172.626 316.872C172.626 315.944 172.33 315.256 171.738 314.808C171.146 314.36 170.258 314.128 169.074 314.112L165.882 314.064V319.68L169.074 319.728ZM193.342 308.376V321H191.638V309.888H185.59L185.422 313.008C185.294 315.632 184.99 317.648 184.51 319.056C184.03 320.464 183.174 321.168 181.942 321.168C181.606 321.168 181.198 321.104 180.718 320.976L180.838 319.512C181.126 319.576 181.326 319.608 181.438 319.608C182.094 319.608 182.59 319.304 182.926 318.696C183.262 318.088 183.486 317.336 183.598 316.44C183.71 315.544 183.806 314.36 183.886 312.888L184.102 308.376H193.342ZM203.394 321.12C202.178 321.12 201.082 320.848 200.106 320.304C199.13 319.744 198.362 318.976 197.802 318C197.242 317.024 196.962 315.92 196.962 314.688C196.962 313.456 197.242 312.352 197.802 311.376C198.362 310.4 199.13 309.64 200.106 309.096C201.082 308.552 202.178 308.28 203.394 308.28C204.61 308.28 205.706 308.552 206.682 309.096C207.658 309.64 208.418 310.4 208.962 311.376C209.522 312.352 209.802 313.456 209.802 314.688C209.802 315.92 209.522 317.024 208.962 318C208.418 318.976 207.658 319.744 206.682 320.304C205.706 320.848 204.61 321.12 203.394 321.12ZM203.394 319.608C204.29 319.608 205.09 319.408 205.794 319.008C206.514 318.592 207.074 318.008 207.474 317.256C207.874 316.504 208.074 315.648 208.074 314.688C208.074 313.728 207.874 312.872 207.474 312.12C207.074 311.368 206.514 310.792 205.794 310.392C205.09 309.976 204.29 309.768 203.394 309.768C202.498 309.768 201.69 309.976 200.97 310.392C200.266 310.792 199.706 311.368 199.29 312.12C198.89 312.872 198.69 313.728 198.69 314.688C198.69 315.648 198.89 316.504 199.29 317.256C199.706 318.008 200.266 318.592 200.97 319.008C201.69 319.408 202.498 319.608 203.394 319.608ZM224.309 315.384H221.429V321H219.725V308.376H221.429V313.92H224.333L228.773 308.376H230.621L225.653 314.496L230.981 321H228.965L224.309 315.384ZM238.433 321.12C237.217 321.12 236.121 320.848 235.145 320.304C234.169 319.744 233.401 318.976 232.841 318C232.281 317.024 232.001 315.92 232.001 314.688C232.001 313.456 232.281 312.352 232.841 311.376C233.401 310.4 234.169 309.64 235.145 309.096C236.121 308.552 237.217 308.28 238.433 308.28C239.649 308.28 240.745 308.552 241.721 309.096C242.697 309.64 243.457 310.4 244.001 311.376C244.561 312.352 244.841 313.456 244.841 314.688C244.841 315.92 244.561 317.024 244.001 318C243.457 318.976 242.697 319.744 241.721 320.304C240.745 320.848 239.649 321.12 238.433 321.12ZM238.433 319.608C239.329 319.608 240.129 319.408 240.833 319.008C241.553 318.592 242.113 318.008 242.513 317.256C242.913 316.504 243.113 315.648 243.113 314.688C243.113 313.728 242.913 312.872 242.513 312.12C242.113 311.368 241.553 310.792 240.833 310.392C240.129 309.976 239.329 309.768 238.433 309.768C237.537 309.768 236.729 309.976 236.009 310.392C235.305 310.792 234.745 311.368 234.329 312.12C233.929 312.872 233.729 313.728 233.729 314.688C233.729 315.648 233.929 316.504 234.329 317.256C234.745 318.008 235.305 318.592 236.009 319.008C236.729 319.408 237.537 319.608 238.433 319.608ZM262.595 308.376V321H261.035V311.016L255.923 319.464H255.155L250.043 310.992V321H248.483V308.376H250.211L255.563 317.472L261.011 308.376H262.595ZM282.684 314.664C282.684 316.632 282.036 318.176 280.74 319.296C279.444 320.416 277.612 321.024 275.244 321.12V325.656H273.588V321.144C271.236 321.048 269.412 320.44 268.116 319.32C266.836 318.184 266.196 316.632 266.196 314.664C266.196 312.712 266.836 311.184 268.116 310.08C269.412 308.976 271.236 308.376 273.588 308.28V303.192H275.244V308.28C277.612 308.392 279.444 309 280.74 310.104C282.036 311.208 282.684 312.728 282.684 314.664ZM267.876 314.664C267.876 316.168 268.356 317.344 269.316 318.192C270.292 319.04 271.716 319.52 273.588 319.632V309.792C271.732 309.888 270.316 310.36 269.34 311.208C268.364 312.04 267.876 313.192 267.876 314.664ZM275.244 319.632C277.116 319.536 278.54 319.064 279.516 318.216C280.508 317.368 281.004 316.184 281.004 314.664C281.004 313.176 280.508 312.016 279.516 311.184C278.54 310.352 277.116 309.888 275.244 309.792V319.632ZM291.495 321.12C290.279 321.12 289.183 320.848 288.207 320.304C287.231 319.744 286.463 318.976 285.903 318C285.343 317.024 285.063 315.92 285.063 314.688C285.063 313.456 285.343 312.352 285.903 311.376C286.463 310.4 287.231 309.64 288.207 309.096C289.183 308.552 290.279 308.28 291.495 308.28C292.711 308.28 293.807 308.552 294.783 309.096C295.759 309.64 296.519 310.4 297.063 311.376C297.623 312.352 297.903 313.456 297.903 314.688C297.903 315.92 297.623 317.024 297.063 318C296.519 318.976 295.759 319.744 294.783 320.304C293.807 320.848 292.711 321.12 291.495 321.12ZM291.495 319.608C292.391 319.608 293.191 319.408 293.895 319.008C294.615 318.592 295.175 318.008 295.575 317.256C295.975 316.504 296.175 315.648 296.175 314.688C296.175 313.728 295.975 312.872 295.575 312.12C295.175 311.368 294.615 310.792 293.895 310.392C293.191 309.976 292.391 309.768 291.495 309.768C290.599 309.768 289.791 309.976 289.071 310.392C288.367 310.792 287.807 311.368 287.391 312.12C286.991 312.872 286.791 313.728 286.791 314.688C286.791 315.648 286.991 316.504 287.391 317.256C287.807 318.008 288.367 318.592 289.071 319.008C289.791 319.408 290.599 319.608 291.495 319.608ZM308.049 308.28C309.233 308.28 310.305 308.552 311.265 309.096C312.225 309.624 312.977 310.376 313.521 311.352C314.065 312.328 314.337 313.44 314.337 314.688C314.337 315.952 314.065 317.072 313.521 318.048C312.977 319.024 312.225 319.784 311.265 320.328C310.321 320.856 309.249 321.12 308.049 321.12C307.025 321.12 306.097 320.912 305.265 320.496C304.449 320.064 303.777 319.44 303.249 318.624V325.656H301.545V308.376H303.177V310.872C303.689 310.04 304.361 309.4 305.193 308.952C306.041 308.504 306.993 308.28 308.049 308.28ZM307.929 319.608C308.809 319.608 309.609 319.408 310.329 319.008C311.049 318.592 311.609 318.008 312.009 317.256C312.425 316.504 312.633 315.648 312.633 314.688C312.633 313.728 312.425 312.88 312.009 312.144C311.609 311.392 311.049 310.808 310.329 310.392C309.609 309.976 308.809 309.768 307.929 309.768C307.033 309.768 306.225 309.976 305.505 310.392C304.801 310.808 304.241 311.392 303.825 312.144C303.425 312.88 303.225 313.728 303.225 314.688C303.225 315.648 303.425 316.504 303.825 317.256C304.241 318.008 304.801 318.592 305.505 319.008C306.225 319.408 307.033 319.608 307.929 319.608ZM326.409 309.888H321.633V321H319.929V309.888H315.153V308.376H326.409V309.888ZM328.873 308.376H330.577V313.968H338.521V308.376H340.225V321H338.521V315.432H330.577V321H328.873V308.376ZM350.277 321.12C349.061 321.12 347.965 320.848 346.989 320.304C346.013 319.744 345.245 318.976 344.685 318C344.125 317.024 343.845 315.92 343.845 314.688C343.845 313.456 344.125 312.352 344.685 311.376C345.245 310.4 346.013 309.64 346.989 309.096C347.965 308.552 349.061 308.28 350.277 308.28C351.493 308.28 352.589 308.552 353.565 309.096C354.541 309.64 355.301 310.4 355.845 311.376C356.405 312.352 356.685 313.456 356.685 314.688C356.685 315.92 356.405 317.024 355.845 318C355.301 318.976 354.541 319.744 353.565 320.304C352.589 320.848 351.493 321.12 350.277 321.12ZM350.277 319.608C351.173 319.608 351.973 319.408 352.677 319.008C353.397 318.592 353.957 318.008 354.357 317.256C354.757 316.504 354.957 315.648 354.957 314.688C354.957 313.728 354.757 312.872 354.357 312.12C353.957 311.368 353.397 310.792 352.677 310.392C351.973 309.976 351.173 309.768 350.277 309.768C349.381 309.768 348.573 309.976 347.853 310.392C347.149 310.792 346.589 311.368 346.173 312.12C345.773 312.872 345.573 313.728 345.573 314.688C345.573 315.648 345.773 316.504 346.173 317.256C346.589 318.008 347.149 318.592 347.853 319.008C348.573 319.408 349.381 319.608 350.277 319.608ZM205.429 345.384H202.693V351H200.989V345.384H198.253L194.389 351H192.349L196.885 344.496L192.709 338.376H194.557L198.253 343.92H200.989V338.376H202.693V343.92H205.429L209.149 338.376H210.997L206.821 344.52L211.357 351H209.317L205.429 345.384ZM214.194 338.376H215.898V348.408L224.322 338.376H225.834V351H224.13V340.968L215.73 351H214.194V338.376ZM239.597 339.888H234.821V351H233.117V339.888H228.341V338.376H239.597V339.888ZM247.485 342.84C249.069 342.856 250.269 343.208 251.085 343.896C251.917 344.584 252.333 345.576 252.333 346.872C252.333 348.216 251.885 349.248 250.989 349.968C250.109 350.688 248.829 351.04 247.149 351.024L242.061 351V338.376H243.765V342.792L247.485 342.84ZM247.053 349.728C248.221 349.744 249.101 349.512 249.693 349.032C250.301 348.536 250.605 347.816 250.605 346.872C250.605 345.944 250.309 345.256 249.717 344.808C249.125 344.36 248.237 344.128 247.053 344.112L243.765 344.064V349.68L247.053 349.728ZM255.517 351.12C255.165 351.12 254.861 350.992 254.605 350.736C254.365 350.48 254.245 350.168 254.245 349.8C254.245 349.432 254.365 349.128 254.605 348.888C254.861 348.632 255.165 348.504 255.517 348.504C255.869 348.504 256.173 348.632 256.429 348.888C256.685 349.128 256.813 349.432 256.813 349.8C256.813 350.168 256.685 350.48 256.429 350.736C256.173 350.992 255.869 351.12 255.517 351.12Z" fill="black"/>
</svg>
