<svg width="450" height="450" viewBox="0 0 450 450" fill="none" xmlns="http://www.w3.org/2000/svg">
<rect width="450" height="450" fill="white"/>
<path d="M85.7086 124.296H81.8686V132H80.1406V115.2H81.8686V122.736H85.7086L91.3966 115.2H93.3166L87.0766 123.36L93.6766 132H91.6366L85.7086 124.296ZM101.066 132.12C99.8496 132.12 98.7536 131.848 97.7776 131.304C96.8016 130.744 96.0336 129.976 95.4736 129C94.9136 128.024 94.6336 126.92 94.6336 125.688C94.6336 124.456 94.9136 123.352 95.4736 122.376C96.0336 121.4 96.8016 120.64 97.7776 120.096C98.7536 119.552 99.8496 119.28 101.066 119.28C102.282 119.28 103.378 119.552 104.354 120.096C105.33 120.64 106.09 121.4 106.634 122.376C107.194 123.352 107.474 124.456 107.474 125.688C107.474 126.92 107.194 128.024 106.634 129C106.09 129.976 105.33 130.744 104.354 131.304C103.378 131.848 102.282 132.12 101.066 132.12ZM101.066 130.608C101.962 130.608 102.762 130.408 103.466 130.008C104.186 129.592 104.746 129.008 105.146 128.256C105.546 127.504 105.746 126.648 105.746 125.688C105.746 124.728 105.546 123.872 105.146 123.12C104.746 122.368 104.186 121.792 103.466 121.392C102.762 120.976 101.962 120.768 101.066 120.768C100.17 120.768 99.3616 120.976 98.6416 121.392C97.9376 121.792 97.3776 122.368 96.9616 123.12C96.5616 123.872 96.3616 124.728 96.3616 125.688C96.3616 126.648 96.5616 127.504 96.9616 128.256C97.3776 129.008 97.9376 129.592 98.6416 130.008C99.3616 130.408 100.17 130.608 101.066 130.608ZM125.227 119.376V132H123.667V122.016L118.555 130.464H117.787L112.675 121.992V132H111.115V119.376H112.843L118.195 128.472L123.643 119.376H125.227ZM141.404 119.376V132H139.7V120.888H131.78V132H130.076V119.376H141.404ZM150.592 119.28C152.24 119.28 153.504 119.696 154.384 120.528C155.264 121.344 155.704 122.56 155.704 124.176V132H154.072V130.032C153.688 130.688 153.12 131.2 152.368 131.568C151.632 131.936 150.752 132.12 149.728 132.12C148.32 132.12 147.2 131.784 146.368 131.112C145.536 130.44 145.12 129.552 145.12 128.448C145.12 127.376 145.504 126.512 146.272 125.856C147.056 125.2 148.296 124.872 149.992 124.872H154V124.104C154 123.016 153.696 122.192 153.088 121.632C152.48 121.056 151.592 120.768 150.424 120.768C149.624 120.768 148.856 120.904 148.12 121.176C147.384 121.432 146.752 121.792 146.224 122.256L145.456 120.984C146.096 120.44 146.864 120.024 147.76 119.736C148.656 119.432 149.6 119.28 150.592 119.28ZM149.992 130.776C150.952 130.776 151.776 130.56 152.464 130.128C153.152 129.68 153.664 129.04 154 128.208V126.144H150.04C147.88 126.144 146.8 126.896 146.8 128.4C146.8 129.136 147.08 129.72 147.64 130.152C148.2 130.568 148.984 130.776 149.992 130.776ZM164.824 126.384H161.944V132H160.24V119.376H161.944V124.92H164.848L169.288 119.376H171.136L166.168 125.496L171.496 132H169.48L164.824 126.384ZM182.808 120.888H178.032V132H176.328V120.888H171.552V119.376H182.808V120.888ZM185.272 119.376H186.976V124.968H194.92V119.376H196.624V132H194.92V126.432H186.976V132H185.272V119.376ZM206.771 123.84C208.355 123.856 209.563 124.208 210.395 124.896C211.227 125.584 211.643 126.576 211.643 127.872C211.643 129.216 211.195 130.248 210.299 130.968C209.403 131.688 208.123 132.04 206.459 132.024L201.467 132V119.376H203.171V123.792L206.771 123.84ZM213.755 119.376H215.459V132H213.755V119.376ZM206.363 130.728C207.531 130.744 208.411 130.512 209.003 130.032C209.611 129.536 209.915 128.816 209.915 127.872C209.915 126.944 209.619 126.256 209.027 125.808C208.435 125.36 207.547 125.128 206.363 125.112L203.171 125.064V130.68L206.363 130.728ZM231.351 126.216H220.791C220.887 127.528 221.391 128.592 222.303 129.408C223.215 130.208 224.367 130.608 225.759 130.608C226.543 130.608 227.263 130.472 227.919 130.2C228.575 129.912 229.143 129.496 229.623 128.952L230.583 130.056C230.023 130.728 229.319 131.24 228.471 131.592C227.639 131.944 226.719 132.12 225.711 132.12C224.415 132.12 223.263 131.848 222.255 131.304C221.263 130.744 220.487 129.976 219.927 129C219.367 128.024 219.087 126.92 219.087 125.688C219.087 124.456 219.351 123.352 219.879 122.376C220.423 121.4 221.159 120.64 222.087 120.096C223.031 119.552 224.087 119.28 225.255 119.28C226.423 119.28 227.471 119.552 228.399 120.096C229.327 120.64 230.055 121.4 230.583 122.376C231.111 123.336 231.375 124.44 231.375 125.688L231.351 126.216ZM225.255 120.744C224.039 120.744 223.015 121.136 222.183 121.92C221.367 122.688 220.903 123.696 220.791 124.944H229.743C229.631 123.696 229.159 122.688 228.327 121.92C227.511 121.136 226.487 120.744 225.255 120.744ZM253.74 130.512V135.048H252.132V132H240.828V135.048H239.22V130.512H239.94C240.788 130.464 241.364 129.84 241.668 128.64C241.972 127.44 242.18 125.76 242.292 123.6L242.46 119.376H251.772V130.512H253.74ZM243.852 123.696C243.772 125.488 243.62 126.968 243.396 128.136C243.172 129.288 242.772 130.08 242.196 130.512H250.068V120.888H243.996L243.852 123.696ZM262.269 132.12C261.053 132.12 259.957 131.848 258.981 131.304C258.005 130.744 257.237 129.976 256.677 129C256.117 128.024 255.837 126.92 255.837 125.688C255.837 124.456 256.117 123.352 256.677 122.376C257.237 121.4 258.005 120.64 258.981 120.096C259.957 119.552 261.053 119.28 262.269 119.28C263.485 119.28 264.581 119.552 265.557 120.096C266.533 120.64 267.293 121.4 267.837 122.376C268.397 123.352 268.677 124.456 268.677 125.688C268.677 126.92 268.397 128.024 267.837 129C267.293 129.976 266.533 130.744 265.557 131.304C264.581 131.848 263.485 132.12 262.269 132.12ZM262.269 130.608C263.165 130.608 263.965 130.408 264.669 130.008C265.389 129.592 265.949 129.008 266.349 128.256C266.749 127.504 266.949 126.648 266.949 125.688C266.949 124.728 266.749 123.872 266.349 123.12C265.949 122.368 265.389 121.792 264.669 121.392C263.965 120.976 263.165 120.768 262.269 120.768C261.373 120.768 260.565 120.976 259.845 121.392C259.141 121.792 258.581 122.368 258.165 123.12C257.765 123.872 257.565 124.728 257.565 125.688C257.565 126.648 257.765 127.504 258.165 128.256C258.581 129.008 259.141 129.592 259.845 130.008C260.565 130.408 261.373 130.608 262.269 130.608ZM286.431 119.376V132H284.871V122.016L279.759 130.464H278.991L273.879 121.992V132H272.319V119.376H274.047L279.399 128.472L284.847 119.376H286.431ZM295.623 119.28C297.271 119.28 298.535 119.696 299.415 120.528C300.295 121.344 300.735 122.56 300.735 124.176V132H299.103V130.032C298.719 130.688 298.151 131.2 297.399 131.568C296.663 131.936 295.783 132.12 294.759 132.12C293.351 132.12 292.231 131.784 291.399 131.112C290.567 130.44 290.151 129.552 290.151 128.448C290.151 127.376 290.535 126.512 291.303 125.856C292.087 125.2 293.327 124.872 295.023 124.872H299.031V124.104C299.031 123.016 298.727 122.192 298.119 121.632C297.511 121.056 296.623 120.768 295.455 120.768C294.655 120.768 293.887 120.904 293.151 121.176C292.415 121.432 291.783 121.792 291.255 122.256L290.487 120.984C291.127 120.44 291.895 120.024 292.791 119.736C293.687 119.432 294.631 119.28 295.623 119.28ZM295.023 130.776C295.983 130.776 296.807 130.56 297.495 130.128C298.183 129.68 298.695 129.04 299.031 128.208V126.144H295.071C292.911 126.144 291.831 126.896 291.831 128.4C291.831 129.136 292.111 129.72 292.671 130.152C293.231 130.568 294.015 130.776 295.023 130.776ZM322.696 119.376V132H305.272V119.376H306.976V130.512H313.168V119.376H314.872V130.512H320.992V119.376H322.696ZM327.561 119.376H329.265V124.968H337.209V119.376H338.913V132H337.209V126.432H329.265V132H327.561V119.376ZM343.756 119.376H345.46V129.408L353.884 119.376H355.396V132H353.692V121.968L345.292 132H343.756V119.376ZM371.319 126.216H360.759C360.855 127.528 361.359 128.592 362.271 129.408C363.183 130.208 364.335 130.608 365.727 130.608C366.511 130.608 367.231 130.472 367.887 130.2C368.543 129.912 369.111 129.496 369.591 128.952L370.551 130.056C369.991 130.728 369.287 131.24 368.439 131.592C367.607 131.944 366.687 132.12 365.679 132.12C364.383 132.12 363.231 131.848 362.223 131.304C361.231 130.744 360.455 129.976 359.895 129C359.335 128.024 359.055 126.92 359.055 125.688C359.055 124.456 359.319 123.352 359.847 122.376C360.391 121.4 361.127 120.64 362.055 120.096C362.999 119.552 364.055 119.28 365.223 119.28C366.391 119.28 367.439 119.552 368.367 120.096C369.295 120.64 370.023 121.4 370.551 122.376C371.079 123.336 371.343 124.44 371.343 125.688L371.319 126.216ZM365.223 120.744C364.007 120.744 362.983 121.136 362.151 121.92C361.335 122.688 360.871 123.696 360.759 124.944H369.711C369.599 123.696 369.127 122.688 368.295 121.92C367.479 121.136 366.455 120.744 365.223 120.744ZM150.268 148.28C151.452 148.28 152.524 148.552 153.484 149.096C154.444 149.624 155.196 150.376 155.74 151.352C156.284 152.328 156.556 153.44 156.556 154.688C156.556 155.952 156.284 157.072 155.74 158.048C155.196 159.024 154.444 159.784 153.484 160.328C152.54 160.856 151.468 161.12 150.268 161.12C149.244 161.12 148.316 160.912 147.484 160.496C146.668 160.064 145.996 159.44 145.468 158.624V165.656H143.764V148.376H145.396V150.872C145.908 150.04 146.58 149.4 147.412 148.952C148.26 148.504 149.212 148.28 150.268 148.28ZM150.148 159.608C151.028 159.608 151.828 159.408 152.548 159.008C153.268 158.592 153.828 158.008 154.228 157.256C154.644 156.504 154.852 155.648 154.852 154.688C154.852 153.728 154.644 152.88 154.228 152.144C153.828 151.392 153.268 150.808 152.548 150.392C151.828 149.976 151.028 149.768 150.148 149.768C149.252 149.768 148.444 149.976 147.724 150.392C147.02 150.808 146.46 151.392 146.044 152.144C145.644 152.88 145.444 153.728 145.444 154.688C145.444 155.648 145.644 156.504 146.044 157.256C146.46 158.008 147.02 158.592 147.724 159.008C148.444 159.408 149.252 159.608 150.148 159.608ZM171.257 155.216H160.697C160.793 156.528 161.297 157.592 162.209 158.408C163.121 159.208 164.273 159.608 165.665 159.608C166.449 159.608 167.169 159.472 167.825 159.2C168.481 158.912 169.049 158.496 169.529 157.952L170.489 159.056C169.929 159.728 169.225 160.24 168.377 160.592C167.545 160.944 166.625 161.12 165.617 161.12C164.321 161.12 163.169 160.848 162.161 160.304C161.169 159.744 160.393 158.976 159.833 158C159.273 157.024 158.993 155.92 158.993 154.688C158.993 153.456 159.257 152.352 159.785 151.376C160.329 150.4 161.065 149.64 161.993 149.096C162.937 148.552 163.993 148.28 165.161 148.28C166.329 148.28 167.377 148.552 168.305 149.096C169.233 149.64 169.961 150.4 170.489 151.376C171.017 152.336 171.281 153.44 171.281 154.688L171.257 155.216ZM165.161 149.744C163.945 149.744 162.921 150.136 162.089 150.92C161.273 151.688 160.809 152.696 160.697 153.944H169.649C169.537 152.696 169.065 151.688 168.233 150.92C167.417 150.136 166.393 149.744 165.161 149.744ZM192.477 148.376V161H175.053V148.376H176.757V159.512H182.949V148.376H184.653V159.512H190.773V148.376H192.477ZM208.382 155.216H197.822C197.918 156.528 198.422 157.592 199.334 158.408C200.246 159.208 201.398 159.608 202.79 159.608C203.574 159.608 204.294 159.472 204.95 159.2C205.606 158.912 206.174 158.496 206.654 157.952L207.614 159.056C207.054 159.728 206.35 160.24 205.502 160.592C204.67 160.944 203.75 161.12 202.742 161.12C201.446 161.12 200.294 160.848 199.286 160.304C198.294 159.744 197.518 158.976 196.958 158C196.398 157.024 196.118 155.92 196.118 154.688C196.118 153.456 196.382 152.352 196.91 151.376C197.454 150.4 198.19 149.64 199.118 149.096C200.062 148.552 201.118 148.28 202.286 148.28C203.454 148.28 204.502 148.552 205.43 149.096C206.358 149.64 207.086 150.4 207.614 151.376C208.142 152.336 208.406 153.44 208.406 154.688L208.382 155.216ZM202.286 149.744C201.07 149.744 200.046 150.136 199.214 150.92C198.398 151.688 197.934 152.696 197.822 153.944H206.774C206.662 152.696 206.19 151.688 205.358 150.92C204.542 150.136 203.518 149.744 202.286 149.744ZM212.178 148.376H213.882V153.968H221.826V148.376H223.53V161H221.826V155.432H213.882V161H212.178V148.376ZM228.373 148.376H230.077V158.408L238.501 148.376H240.013V161H238.309V150.968L229.909 161H228.373V148.376ZM254.593 148.376V161H253.033V156.824H249.073H248.593L245.665 161H243.817L246.961 156.584C245.985 156.312 245.233 155.848 244.705 155.192C244.177 154.536 243.913 153.704 243.913 152.696C243.913 151.288 244.393 150.216 245.353 149.48C246.313 148.744 247.625 148.376 249.289 148.376H254.593ZM245.641 152.744C245.641 154.616 246.833 155.552 249.217 155.552H253.033V149.888H249.337C246.873 149.888 245.641 150.84 245.641 152.744ZM278.045 159.512V164.048H276.437V161H265.133V164.048H263.525V159.512H264.245C265.093 159.464 265.669 158.84 265.973 157.64C266.277 156.44 266.485 154.76 266.597 152.6L266.765 148.376H276.077V159.512H278.045ZM268.157 152.696C268.077 154.488 267.925 155.968 267.701 157.136C267.477 158.288 267.077 159.08 266.501 159.512H274.373V149.888H268.301L268.157 152.696ZM291.685 148.376V161H289.981V149.888H283.933L283.765 153.008C283.637 155.632 283.333 157.648 282.853 159.056C282.373 160.464 281.517 161.168 280.285 161.168C279.949 161.168 279.541 161.104 279.061 160.976L279.181 159.512C279.469 159.576 279.669 159.608 279.781 159.608C280.437 159.608 280.933 159.304 281.269 158.696C281.605 158.088 281.829 157.336 281.941 156.44C282.053 155.544 282.149 154.36 282.229 152.888L282.445 148.376H291.685ZM306.225 148.376V161H304.665V156.824H300.705H300.225L297.297 161H295.449L298.593 156.584C297.617 156.312 296.865 155.848 296.337 155.192C295.809 154.536 295.545 153.704 295.545 152.696C295.545 151.288 296.025 150.216 296.985 149.48C297.945 148.744 299.257 148.376 300.921 148.376H306.225ZM297.273 152.744C297.273 154.616 298.465 155.552 300.849 155.552H304.665V149.888H300.969C298.505 149.888 297.273 150.84 297.273 152.744ZM72.2758 177.28C73.9238 177.28 75.1878 177.696 76.0678 178.528C76.9478 179.344 77.3878 180.56 77.3878 182.176V190H75.7558V188.032C75.3718 188.688 74.8038 189.2 74.0518 189.568C73.3158 189.936 72.4358 190.12 71.4118 190.12C70.0038 190.12 68.8838 189.784 68.0518 189.112C67.2198 188.44 66.8038 187.552 66.8038 186.448C66.8038 185.376 67.1878 184.512 67.9558 183.856C68.7398 183.2 69.9798 182.872 71.6758 182.872H75.6838V182.104C75.6838 181.016 75.3798 180.192 74.7718 179.632C74.1638 179.056 73.2758 178.768 72.1078 178.768C71.3078 178.768 70.5398 178.904 69.8038 179.176C69.0678 179.432 68.4358 179.792 67.9078 180.256L67.1398 178.984C67.7798 178.44 68.5478 178.024 69.4438 177.736C70.3398 177.432 71.2838 177.28 72.2758 177.28ZM71.6758 188.776C72.6358 188.776 73.4598 188.56 74.1478 188.128C74.8358 187.68 75.3478 187.04 75.6838 186.208V184.144H71.7238C69.5638 184.144 68.4838 184.896 68.4838 186.4C68.4838 187.136 68.7638 187.72 69.3238 188.152C69.8838 188.568 70.6678 188.776 71.6758 188.776ZM89.964 183.472C91.676 183.872 92.532 184.904 92.532 186.568C92.532 187.672 92.124 188.52 91.308 189.112C90.492 189.704 89.276 190 87.66 190H81.924V177.376H87.492C88.932 177.376 90.06 177.656 90.876 178.216C91.692 178.776 92.1 179.576 92.1 180.616C92.1 181.304 91.908 181.896 91.524 182.392C91.156 182.872 90.636 183.232 89.964 183.472ZM83.58 182.992H87.372C88.348 182.992 89.092 182.808 89.604 182.44C90.132 182.072 90.396 181.536 90.396 180.832C90.396 180.128 90.132 179.6 89.604 179.248C89.092 178.896 88.348 178.72 87.372 178.72H83.58V182.992ZM87.588 188.656C88.676 188.656 89.492 188.48 90.036 188.128C90.58 187.776 90.852 187.224 90.852 186.472C90.852 185.72 90.604 185.168 90.108 184.816C89.612 184.448 88.828 184.264 87.756 184.264H83.58V188.656H87.588ZM105.406 178.888H100.63V190H98.9256V178.888H94.1496V177.376H105.406V178.888ZM112.491 190.12C111.275 190.12 110.179 189.848 109.203 189.304C108.227 188.744 107.459 187.976 106.899 187C106.339 186.024 106.059 184.92 106.059 183.688C106.059 182.456 106.339 181.352 106.899 180.376C107.459 179.4 108.227 178.64 109.203 178.096C110.179 177.552 111.275 177.28 112.491 177.28C113.707 177.28 114.803 177.552 115.779 178.096C116.755 178.64 117.515 179.4 118.059 180.376C118.619 181.352 118.899 182.456 118.899 183.688C118.899 184.92 118.619 186.024 118.059 187C117.515 187.976 116.755 188.744 115.779 189.304C114.803 189.848 113.707 190.12 112.491 190.12ZM112.491 188.608C113.387 188.608 114.187 188.408 114.891 188.008C115.611 187.592 116.171 187.008 116.571 186.256C116.971 185.504 117.171 184.648 117.171 183.688C117.171 182.728 116.971 181.872 116.571 181.12C116.171 180.368 115.611 179.792 114.891 179.392C114.187 178.976 113.387 178.768 112.491 178.768C111.595 178.768 110.787 178.976 110.067 179.392C109.363 179.792 108.803 180.368 108.387 181.12C107.987 181.872 107.787 182.728 107.787 183.688C107.787 184.648 107.987 185.504 108.387 186.256C108.803 187.008 109.363 187.592 110.067 188.008C110.787 188.408 111.595 188.608 112.491 188.608ZM136.653 177.376V190H135.093V180.016L129.981 188.464H129.213L124.101 179.992V190H122.541V177.376H124.269L129.621 186.472L135.069 177.376H136.653ZM145.846 177.28C147.494 177.28 148.758 177.696 149.638 178.528C150.518 179.344 150.958 180.56 150.958 182.176V190H149.326V188.032C148.942 188.688 148.374 189.2 147.622 189.568C146.886 189.936 146.006 190.12 144.982 190.12C143.574 190.12 142.454 189.784 141.622 189.112C140.79 188.44 140.374 187.552 140.374 186.448C140.374 185.376 140.758 184.512 141.526 183.856C142.31 183.2 143.55 182.872 145.246 182.872H149.254V182.104C149.254 181.016 148.95 180.192 148.342 179.632C147.734 179.056 146.846 178.768 145.678 178.768C144.878 178.768 144.11 178.904 143.374 179.176C142.638 179.432 142.006 179.792 141.478 180.256L140.71 178.984C141.35 178.44 142.118 178.024 143.014 177.736C143.91 177.432 144.854 177.28 145.846 177.28ZM145.246 188.776C146.206 188.776 147.03 188.56 147.718 188.128C148.406 187.68 148.918 187.04 149.254 186.208V184.144H145.294C143.134 184.144 142.054 184.896 142.054 186.4C142.054 187.136 142.334 187.72 142.894 188.152C143.454 188.568 144.238 188.776 145.246 188.776ZM164.374 178.888H159.598V190H157.894V178.888H153.118V177.376H164.374V178.888ZM166.838 177.376H168.542V187.408L176.966 177.376H178.478V190H176.774V179.968L168.374 190H166.838V177.376ZM189.248 183.424C190.144 183.632 190.832 183.992 191.312 184.504C191.808 185.016 192.056 185.64 192.056 186.376C192.056 187.112 191.8 187.768 191.288 188.344C190.792 188.92 190.112 189.368 189.248 189.688C188.384 189.992 187.432 190.144 186.392 190.144C185.48 190.144 184.584 190.016 183.704 189.76C182.824 189.488 182.056 189.096 181.4 188.584L181.976 187.312C182.552 187.744 183.224 188.08 183.992 188.32C184.76 188.56 185.536 188.68 186.32 188.68C187.488 188.68 188.44 188.464 189.176 188.032C189.928 187.584 190.304 186.984 190.304 186.232C190.304 185.56 190 185.04 189.392 184.672C188.784 184.288 187.952 184.096 186.896 184.096H184.736V182.848H186.8C187.744 182.848 188.504 182.672 189.08 182.32C189.656 181.952 189.944 181.464 189.944 180.856C189.944 180.184 189.616 179.656 188.96 179.272C188.32 178.888 187.48 178.696 186.44 178.696C185.08 178.696 183.736 179.04 182.408 179.728L181.928 178.408C183.432 177.624 184.992 177.232 186.608 177.232C187.568 177.232 188.432 177.376 189.2 177.664C189.984 177.936 190.592 178.328 191.024 178.84C191.472 179.352 191.696 179.944 191.696 180.616C191.696 181.256 191.472 181.824 191.024 182.32C190.592 182.816 190 183.184 189.248 183.424ZM200.268 177.28C201.916 177.28 203.18 177.696 204.06 178.528C204.94 179.344 205.38 180.56 205.38 182.176V190H203.748V188.032C203.364 188.688 202.796 189.2 202.044 189.568C201.308 189.936 200.428 190.12 199.404 190.12C197.996 190.12 196.876 189.784 196.044 189.112C195.212 188.44 194.796 187.552 194.796 186.448C194.796 185.376 195.18 184.512 195.948 183.856C196.732 183.2 197.972 182.872 199.668 182.872H203.676V182.104C203.676 181.016 203.372 180.192 202.764 179.632C202.156 179.056 201.268 178.768 200.1 178.768C199.3 178.768 198.532 178.904 197.796 179.176C197.06 179.432 196.428 179.792 195.9 180.256L195.132 178.984C195.772 178.44 196.54 178.024 197.436 177.736C198.332 177.432 199.276 177.28 200.268 177.28ZM199.668 188.776C200.628 188.776 201.452 188.56 202.14 188.128C202.828 187.68 203.34 187.04 203.676 186.208V184.144H199.716C197.556 184.144 196.476 184.896 196.476 186.4C196.476 187.136 196.756 187.72 197.316 188.152C197.876 188.568 198.66 188.776 199.668 188.776ZM223.068 188.512V193.168H221.46V190H209.916V177.376H211.62V188.512H219.324V177.376H221.028V188.512H223.068ZM226.322 177.376H228.026V187.408L236.45 177.376H237.962V190H236.258V179.968L227.858 190H226.322V177.376ZM242.846 177.376H244.55V187.408L252.974 177.376H254.486V190H252.782V179.968L244.382 190H242.846V177.376ZM272.155 177.28C273.339 177.28 274.411 177.552 275.371 178.096C276.331 178.624 277.083 179.376 277.627 180.352C278.171 181.328 278.443 182.44 278.443 183.688C278.443 184.952 278.171 186.072 277.627 187.048C277.083 188.024 276.331 188.784 275.371 189.328C274.427 189.856 273.355 190.12 272.155 190.12C271.131 190.12 270.203 189.912 269.371 189.496C268.555 189.064 267.883 188.44 267.355 187.624V194.656H265.651V177.376H267.283V179.872C267.795 179.04 268.467 178.4 269.299 177.952C270.147 177.504 271.099 177.28 272.155 177.28ZM272.035 188.608C272.915 188.608 273.715 188.408 274.435 188.008C275.155 187.592 275.715 187.008 276.115 186.256C276.531 185.504 276.739 184.648 276.739 183.688C276.739 182.728 276.531 181.88 276.115 181.144C275.715 180.392 275.155 179.808 274.435 179.392C273.715 178.976 272.915 178.768 272.035 178.768C271.139 178.768 270.331 178.976 269.611 179.392C268.907 179.808 268.347 180.392 267.931 181.144C267.531 181.88 267.331 182.728 267.331 183.688C267.331 184.648 267.531 185.504 267.931 186.256C268.347 187.008 268.907 187.592 269.611 188.008C270.331 188.408 271.139 188.608 272.035 188.608ZM292.48 177.376L286.168 191.512C285.656 192.696 285.064 193.536 284.392 194.032C283.72 194.528 282.912 194.776 281.968 194.776C281.36 194.776 280.792 194.68 280.264 194.488C279.736 194.296 279.28 194.008 278.896 193.624L279.688 192.352C280.328 192.992 281.096 193.312 281.992 193.312C282.568 193.312 283.056 193.152 283.456 192.832C283.872 192.512 284.256 191.968 284.608 191.2L285.16 189.976L279.52 177.376H281.296L286.048 188.104L290.8 177.376H292.48ZM304.062 178.888H299.286V190H297.582V178.888H292.806V177.376H304.062V178.888ZM306.526 177.376H308.23V187.408L316.654 177.376H318.166V190H316.462V179.968L308.062 190H306.526V177.376ZM323.049 177.376H324.753V182.968H332.697V177.376H334.401V190H332.697V184.432H324.753V190H323.049V177.376ZM339.244 177.376H340.948V182.968H348.892V177.376H350.596V190H348.892V184.432H340.948V190H339.244V177.376ZM360.744 181.84C362.328 181.856 363.536 182.208 364.368 182.896C365.2 183.584 365.616 184.576 365.616 185.872C365.616 187.216 365.168 188.248 364.272 188.968C363.376 189.688 362.096 190.04 360.432 190.024L355.44 190V177.376H357.144V181.792L360.744 181.84ZM367.728 177.376H369.432V190H367.728V177.376ZM360.336 188.728C361.504 188.744 362.384 188.512 362.976 188.032C363.584 187.536 363.888 186.816 363.888 185.872C363.888 184.944 363.592 184.256 363 183.808C362.408 183.36 361.52 183.128 360.336 183.112L357.144 183.064V188.68L360.336 188.728ZM382.179 190L378.171 184.72L374.139 190H372.219L377.211 183.52L372.459 177.376H374.379L378.171 182.32L381.963 177.376H383.835L379.083 183.52L384.123 190H382.179ZM165.264 206.376V219H163.56V207.888H155.64V219H153.936V206.376H165.264ZM176.612 206.28C177.796 206.28 178.868 206.552 179.828 207.096C180.788 207.624 181.54 208.376 182.084 209.352C182.628 210.328 182.9 211.44 182.9 212.688C182.9 213.952 182.628 215.072 182.084 216.048C181.54 217.024 180.788 217.784 179.828 218.328C178.884 218.856 177.812 219.12 176.612 219.12C175.588 219.12 174.66 218.912 173.828 218.496C173.012 218.064 172.34 217.44 171.812 216.624V223.656H170.108V206.376H171.74V208.872C172.252 208.04 172.924 207.4 173.756 206.952C174.604 206.504 175.556 206.28 176.612 206.28ZM176.492 217.608C177.372 217.608 178.172 217.408 178.892 217.008C179.612 216.592 180.172 216.008 180.572 215.256C180.988 214.504 181.196 213.648 181.196 212.688C181.196 211.728 180.988 210.88 180.572 210.144C180.172 209.392 179.612 208.808 178.892 208.392C178.172 207.976 177.372 207.768 176.492 207.768C175.596 207.768 174.788 207.976 174.068 208.392C173.364 208.808 172.804 209.392 172.388 210.144C171.988 210.88 171.788 211.728 171.788 212.688C171.788 213.648 171.988 214.504 172.388 215.256C172.804 216.008 173.364 216.592 174.068 217.008C174.788 217.408 175.596 217.608 176.492 217.608ZM191.769 219.12C190.553 219.12 189.457 218.848 188.481 218.304C187.505 217.744 186.737 216.976 186.177 216C185.617 215.024 185.337 213.92 185.337 212.688C185.337 211.456 185.617 210.352 186.177 209.376C186.737 208.4 187.505 207.64 188.481 207.096C189.457 206.552 190.553 206.28 191.769 206.28C192.985 206.28 194.081 206.552 195.057 207.096C196.033 207.64 196.793 208.4 197.337 209.376C197.897 210.352 198.177 211.456 198.177 212.688C198.177 213.92 197.897 215.024 197.337 216C196.793 216.976 196.033 217.744 195.057 218.304C194.081 218.848 192.985 219.12 191.769 219.12ZM191.769 217.608C192.665 217.608 193.465 217.408 194.169 217.008C194.889 216.592 195.449 216.008 195.849 215.256C196.249 214.504 196.449 213.648 196.449 212.688C196.449 211.728 196.249 210.872 195.849 210.12C195.449 209.368 194.889 208.792 194.169 208.392C193.465 207.976 192.665 207.768 191.769 207.768C190.873 207.768 190.065 207.976 189.345 208.392C188.641 208.792 188.081 209.368 187.665 210.12C187.265 210.872 187.065 211.728 187.065 212.688C187.065 213.648 187.265 214.504 187.665 215.256C188.081 216.008 188.641 216.592 189.345 217.008C190.065 217.408 190.873 217.608 191.769 217.608ZM214.971 217.512V222.168H213.363V219H201.819V206.376H203.523V217.512H211.227V206.376H212.931V217.512H214.971ZM229.265 213.216H218.705C218.801 214.528 219.305 215.592 220.217 216.408C221.129 217.208 222.281 217.608 223.673 217.608C224.457 217.608 225.177 217.472 225.833 217.2C226.489 216.912 227.057 216.496 227.537 215.952L228.497 217.056C227.937 217.728 227.233 218.24 226.385 218.592C225.553 218.944 224.633 219.12 223.625 219.12C222.329 219.12 221.177 218.848 220.169 218.304C219.177 217.744 218.401 216.976 217.841 216C217.281 215.024 217.001 213.92 217.001 212.688C217.001 211.456 217.265 210.352 217.793 209.376C218.337 208.4 219.073 207.64 220.001 207.096C220.945 206.552 222.001 206.28 223.169 206.28C224.337 206.28 225.385 206.552 226.313 207.096C227.241 207.64 227.969 208.4 228.497 209.376C229.025 210.336 229.289 211.44 229.289 212.688L229.265 213.216ZM223.169 207.744C221.953 207.744 220.929 208.136 220.097 208.92C219.281 209.688 218.817 210.696 218.705 211.944H227.657C227.545 210.696 227.073 209.688 226.241 208.92C225.425 208.136 224.401 207.744 223.169 207.744ZM238.341 219.12C237.093 219.12 235.973 218.848 234.981 218.304C234.005 217.76 233.237 217 232.677 216.024C232.117 215.032 231.837 213.92 231.837 212.688C231.837 211.456 232.117 210.352 232.677 209.376C233.237 208.4 234.005 207.64 234.981 207.096C235.973 206.552 237.093 206.28 238.341 206.28C239.429 206.28 240.397 206.496 241.245 206.928C242.109 207.344 242.789 207.96 243.285 208.776L242.013 209.64C241.597 209.016 241.069 208.552 240.429 208.248C239.789 207.928 239.093 207.768 238.341 207.768C237.429 207.768 236.605 207.976 235.869 208.392C235.149 208.792 234.581 209.368 234.165 210.12C233.765 210.872 233.565 211.728 233.565 212.688C233.565 213.664 233.765 214.528 234.165 215.28C234.581 216.016 235.149 216.592 235.869 217.008C236.605 217.408 237.429 217.608 238.341 217.608C239.093 217.608 239.789 217.456 240.429 217.152C241.069 216.848 241.597 216.384 242.013 215.76L243.285 216.624C242.789 217.44 242.109 218.064 241.245 218.496C240.381 218.912 239.413 219.12 238.341 219.12ZM251.653 219.12C250.405 219.12 249.285 218.848 248.293 218.304C247.317 217.76 246.549 217 245.989 216.024C245.429 215.032 245.149 213.92 245.149 212.688C245.149 211.456 245.429 210.352 245.989 209.376C246.549 208.4 247.317 207.64 248.293 207.096C249.285 206.552 250.405 206.28 251.653 206.28C252.741 206.28 253.709 206.496 254.557 206.928C255.421 207.344 256.101 207.96 256.597 208.776L255.325 209.64C254.909 209.016 254.381 208.552 253.741 208.248C253.101 207.928 252.405 207.768 251.653 207.768C250.741 207.768 249.917 207.976 249.181 208.392C248.461 208.792 247.893 209.368 247.477 210.12C247.077 210.872 246.877 211.728 246.877 212.688C246.877 213.664 247.077 214.528 247.477 215.28C247.893 216.016 248.461 216.592 249.181 217.008C249.917 217.408 250.741 217.608 251.653 217.608C252.405 217.608 253.101 217.456 253.741 217.152C254.381 216.848 254.909 216.384 255.325 215.76L256.597 216.624C256.101 217.44 255.421 218.064 254.557 218.496C253.693 218.912 252.725 219.12 251.653 219.12ZM264.894 219.12C263.678 219.12 262.582 218.848 261.606 218.304C260.63 217.744 259.862 216.976 259.302 216C258.742 215.024 258.462 213.92 258.462 212.688C258.462 211.456 258.742 210.352 259.302 209.376C259.862 208.4 260.63 207.64 261.606 207.096C262.582 206.552 263.678 206.28 264.894 206.28C266.11 206.28 267.206 206.552 268.182 207.096C269.158 207.64 269.918 208.4 270.462 209.376C271.022 210.352 271.302 211.456 271.302 212.688C271.302 213.92 271.022 215.024 270.462 216C269.918 216.976 269.158 217.744 268.182 218.304C267.206 218.848 266.11 219.12 264.894 219.12ZM264.894 217.608C265.79 217.608 266.59 217.408 267.294 217.008C268.014 216.592 268.574 216.008 268.974 215.256C269.374 214.504 269.574 213.648 269.574 212.688C269.574 211.728 269.374 210.872 268.974 210.12C268.574 209.368 268.014 208.792 267.294 208.392C266.59 207.976 265.79 207.768 264.894 207.768C263.998 207.768 263.19 207.976 262.47 208.392C261.766 208.792 261.206 209.368 260.79 210.12C260.39 210.872 260.19 211.728 260.19 212.688C260.19 213.648 260.39 214.504 260.79 215.256C261.206 216.008 261.766 216.592 262.47 217.008C263.19 217.408 263.998 217.608 264.894 217.608ZM282.984 212.472C284.696 212.872 285.552 213.904 285.552 215.568C285.552 216.672 285.144 217.52 284.328 218.112C283.512 218.704 282.296 219 280.68 219H274.944V206.376H280.512C281.952 206.376 283.08 206.656 283.896 207.216C284.712 207.776 285.12 208.576 285.12 209.616C285.12 210.304 284.928 210.896 284.544 211.392C284.176 211.872 283.656 212.232 282.984 212.472ZM276.6 211.992H280.392C281.368 211.992 282.112 211.808 282.624 211.44C283.152 211.072 283.416 210.536 283.416 209.832C283.416 209.128 283.152 208.6 282.624 208.248C282.112 207.896 281.368 207.72 280.392 207.72H276.6V211.992ZM280.608 217.656C281.696 217.656 282.512 217.48 283.056 217.128C283.6 216.776 283.872 216.224 283.872 215.472C283.872 214.72 283.624 214.168 283.128 213.816C282.632 213.448 281.848 213.264 280.776 213.264H276.6V217.656H280.608ZM289.665 219.12C289.313 219.12 289.009 218.992 288.753 218.736C288.513 218.48 288.393 218.168 288.393 217.8C288.393 217.432 288.513 217.128 288.753 216.888C289.009 216.632 289.313 216.504 289.665 216.504C290.017 216.504 290.321 216.632 290.577 216.888C290.833 217.128 290.961 217.432 290.961 217.8C290.961 218.168 290.833 218.48 290.577 218.736C290.321 218.992 290.017 219.12 289.665 219.12ZM143.972 240.336C145.14 240.576 146.028 241.048 146.636 241.752C147.244 242.44 147.548 243.344 147.548 244.464C147.548 245.92 147.028 247.04 145.988 247.824C144.964 248.608 143.452 249 141.452 249H134.012V232.2H140.996C142.788 232.2 144.188 232.568 145.196 233.304C146.204 234.04 146.708 235.104 146.708 236.496C146.708 237.44 146.468 238.24 145.988 238.896C145.508 239.536 144.836 240.016 143.972 240.336ZM135.764 239.808H140.9C142.196 239.808 143.188 239.544 143.876 239.016C144.58 238.488 144.932 237.72 144.932 236.712C144.932 235.704 144.58 234.936 143.876 234.408C143.188 233.88 142.196 233.616 140.9 233.616H135.764V239.808ZM141.452 247.584C144.348 247.584 145.796 246.504 145.796 244.344C145.796 242.232 144.348 241.176 141.452 241.176H135.764V247.584H141.452ZM156.164 243.384H153.284V249H151.58V236.376H153.284V241.92H156.188L160.628 236.376H162.476L157.508 242.496L162.836 249H160.82L156.164 243.384ZM175.846 236.376V249H174.142V237.888H168.094L167.926 241.008C167.798 243.632 167.494 245.648 167.014 247.056C166.534 248.464 165.678 249.168 164.446 249.168C164.11 249.168 163.702 249.104 163.222 248.976L163.342 247.512C163.63 247.576 163.83 247.608 163.942 247.608C164.598 247.608 165.094 247.304 165.43 246.696C165.766 246.088 165.99 245.336 166.102 244.44C166.214 243.544 166.31 242.36 166.39 240.888L166.606 236.376H175.846ZM191.538 236.28C192.722 236.28 193.786 236.552 194.73 237.096C195.69 237.64 196.442 238.4 196.986 239.376C197.53 240.352 197.802 241.456 197.802 242.688C197.802 243.92 197.53 245.024 196.986 246C196.442 246.976 195.69 247.744 194.73 248.304C193.786 248.848 192.722 249.12 191.538 249.12C190.418 249.12 189.402 248.88 188.49 248.4C187.578 247.904 186.834 247.224 186.258 246.36C185.698 245.496 185.37 244.504 185.274 243.384H182.394V249H180.69V236.376H182.394V241.824H185.298C185.426 240.736 185.77 239.776 186.33 238.944C186.906 238.096 187.642 237.44 188.538 236.976C189.434 236.512 190.434 236.28 191.538 236.28ZM191.538 247.632C192.402 247.632 193.178 247.424 193.866 247.008C194.57 246.592 195.122 246.008 195.522 245.256C195.922 244.504 196.122 243.648 196.122 242.688C196.122 241.728 195.922 240.872 195.522 240.12C195.122 239.368 194.57 238.792 193.866 238.392C193.178 237.976 192.402 237.768 191.538 237.768C190.674 237.768 189.89 237.976 189.186 238.392C188.498 238.792 187.954 239.368 187.554 240.12C187.154 240.872 186.954 241.728 186.954 242.688C186.954 243.648 187.154 244.504 187.554 245.256C187.954 246.008 188.498 246.592 189.186 247.008C189.89 247.424 190.674 247.632 191.538 247.632ZM210.983 236.376V249H209.279V243.744C207.823 244.384 206.391 244.704 204.983 244.704C203.463 244.704 202.279 244.36 201.431 243.672C200.583 242.968 200.159 241.92 200.159 240.528V236.376H201.863V240.432C201.863 241.376 202.167 242.096 202.775 242.592C203.383 243.072 204.223 243.312 205.295 243.312C206.479 243.312 207.807 243 209.279 242.376V236.376H210.983ZM215.822 236.376H217.526V246.408L225.95 236.376H227.462V249H225.758V238.968L217.358 249H215.822V236.376ZM241.226 237.888H236.45V249H234.746V237.888H229.97V236.376H241.226V237.888ZM249.114 240.84C250.698 240.856 251.898 241.208 252.714 241.896C253.546 242.584 253.962 243.576 253.962 244.872C253.962 246.216 253.514 247.248 252.618 247.968C251.738 248.688 250.458 249.04 248.778 249.024L243.69 249V236.376H245.394V240.792L249.114 240.84ZM248.682 247.728C249.85 247.744 250.73 247.512 251.322 247.032C251.93 246.536 252.234 245.816 252.234 244.872C252.234 243.944 251.938 243.256 251.346 242.808C250.754 242.36 249.866 242.128 248.682 242.112L245.394 242.064V247.68L248.682 247.728ZM268.774 249.12C267.526 249.12 266.406 248.848 265.414 248.304C264.438 247.76 263.67 247 263.11 246.024C262.55 245.032 262.27 243.92 262.27 242.688C262.27 241.456 262.55 240.352 263.11 239.376C263.67 238.4 264.438 237.64 265.414 237.096C266.406 236.552 267.526 236.28 268.774 236.28C269.862 236.28 270.83 236.496 271.678 236.928C272.542 237.344 273.222 237.96 273.718 238.776L272.446 239.64C272.03 239.016 271.502 238.552 270.862 238.248C270.222 237.928 269.526 237.768 268.774 237.768C267.862 237.768 267.038 237.976 266.302 238.392C265.582 238.792 265.014 239.368 264.598 240.12C264.198 240.872 263.998 241.728 263.998 242.688C263.998 243.664 264.198 244.528 264.598 245.28C265.014 246.016 265.582 246.592 266.302 247.008C267.038 247.408 267.862 247.608 268.774 247.608C269.526 247.608 270.222 247.456 270.862 247.152C271.502 246.848 272.03 246.384 272.446 245.76L273.718 246.624C273.222 247.44 272.542 248.064 271.678 248.496C270.814 248.912 269.846 249.12 268.774 249.12ZM285.058 242.472C286.77 242.872 287.626 243.904 287.626 245.568C287.626 246.672 287.218 247.52 286.402 248.112C285.586 248.704 284.37 249 282.754 249H277.018V236.376H282.586C284.026 236.376 285.154 236.656 285.97 237.216C286.786 237.776 287.194 238.576 287.194 239.616C287.194 240.304 287.002 240.896 286.618 241.392C286.25 241.872 285.73 242.232 285.058 242.472ZM278.674 241.992H282.466C283.442 241.992 284.186 241.808 284.698 241.44C285.226 241.072 285.49 240.536 285.49 239.832C285.49 239.128 285.226 238.6 284.698 238.248C284.186 237.896 283.442 237.72 282.466 237.72H278.674V241.992ZM282.682 247.656C283.77 247.656 284.586 247.48 285.13 247.128C285.674 246.776 285.946 246.224 285.946 245.472C285.946 244.72 285.698 244.168 285.202 243.816C284.706 243.448 283.922 243.264 282.85 243.264H278.674V247.656H282.682ZM302.659 243.216H292.099C292.195 244.528 292.699 245.592 293.611 246.408C294.523 247.208 295.675 247.608 297.067 247.608C297.851 247.608 298.571 247.472 299.227 247.2C299.883 246.912 300.451 246.496 300.931 245.952L301.891 247.056C301.331 247.728 300.627 248.24 299.779 248.592C298.947 248.944 298.027 249.12 297.019 249.12C295.723 249.12 294.571 248.848 293.563 248.304C292.571 247.744 291.795 246.976 291.235 246C290.675 245.024 290.395 243.92 290.395 242.688C290.395 241.456 290.659 240.352 291.187 239.376C291.731 238.4 292.467 237.64 293.395 237.096C294.339 236.552 295.395 236.28 296.563 236.28C297.731 236.28 298.779 236.552 299.707 237.096C300.635 237.64 301.363 238.4 301.891 239.376C302.419 240.336 302.683 241.44 302.683 242.688L302.659 243.216ZM296.563 237.744C295.347 237.744 294.323 238.136 293.491 238.92C292.675 239.688 292.211 240.696 292.099 241.944H301.051C300.939 240.696 300.467 239.688 299.635 238.92C298.819 238.136 297.795 237.744 296.563 237.744ZM314.773 237.888H309.997V249H308.293V237.888H303.517V236.376H314.773V237.888ZM316.302 246.504C316.67 246.504 316.974 246.632 317.214 246.888C317.454 247.128 317.574 247.432 317.574 247.8C317.574 247.992 317.542 248.2 317.478 248.424C317.43 248.648 317.35 248.904 317.238 249.192L316.23 252.504H315.078L315.894 249.024C315.638 248.944 315.43 248.8 315.27 248.592C315.11 248.368 315.03 248.104 315.03 247.8C315.03 247.432 315.15 247.128 315.39 246.888C315.63 246.632 315.934 246.504 316.302 246.504ZM121.981 272.384H119.101V278H117.397V265.376H119.101V270.92H122.005L126.445 265.376H128.293L123.325 271.496L128.653 278H126.637L121.981 272.384ZM141.662 265.376V278H139.958V266.888H133.91L133.742 270.008C133.614 272.632 133.31 274.648 132.83 276.056C132.35 277.464 131.494 278.168 130.262 278.168C129.926 278.168 129.518 278.104 129.038 277.976L129.158 276.512C129.446 276.576 129.646 276.608 129.758 276.608C130.414 276.608 130.91 276.304 131.246 275.696C131.582 275.088 131.806 274.336 131.918 273.44C132.03 272.544 132.126 271.36 132.206 269.888L132.422 265.376H141.662ZM146.506 265.376H148.21V275.408L156.634 265.376H158.146V278H156.442V267.968L148.042 278H146.506V265.376ZM177.141 265.376V278H175.581V268.016L170.469 276.464H169.701L164.589 267.992V278H163.029V265.376H164.757L170.109 274.472L175.557 265.376H177.141ZM186.334 265.28C187.982 265.28 189.246 265.696 190.126 266.528C191.006 267.344 191.446 268.56 191.446 270.176V278H189.814V276.032C189.43 276.688 188.862 277.2 188.11 277.568C187.374 277.936 186.494 278.12 185.47 278.12C184.062 278.12 182.942 277.784 182.11 277.112C181.278 276.44 180.862 275.552 180.862 274.448C180.862 273.376 181.246 272.512 182.014 271.856C182.798 271.2 184.038 270.872 185.734 270.872H189.742V270.104C189.742 269.016 189.438 268.192 188.83 267.632C188.222 267.056 187.334 266.768 186.166 266.768C185.366 266.768 184.598 266.904 183.862 267.176C183.126 267.432 182.494 267.792 181.966 268.256L181.198 266.984C181.838 266.44 182.606 266.024 183.502 265.736C184.398 265.432 185.342 265.28 186.334 265.28ZM185.734 276.776C186.694 276.776 187.518 276.56 188.206 276.128C188.894 275.68 189.406 275.04 189.742 274.208V272.144H185.782C183.622 272.144 182.542 272.896 182.542 274.4C182.542 275.136 182.822 275.72 183.382 276.152C183.942 276.568 184.726 276.776 185.734 276.776ZM204.863 266.888H200.087V278H198.383V266.888H193.607V265.376H204.863V266.888ZM205.78 270.752H212.068V272.24H205.78V270.752ZM220.512 272.384H217.632V278H215.928V265.376H217.632V270.92H220.536L224.976 265.376H226.824L221.856 271.496L227.184 278H225.168L220.512 272.384ZM234.636 278.12C233.42 278.12 232.324 277.848 231.348 277.304C230.372 276.744 229.604 275.976 229.044 275C228.484 274.024 228.204 272.92 228.204 271.688C228.204 270.456 228.484 269.352 229.044 268.376C229.604 267.4 230.372 266.64 231.348 266.096C232.324 265.552 233.42 265.28 234.636 265.28C235.852 265.28 236.948 265.552 237.924 266.096C238.9 266.64 239.66 267.4 240.204 268.376C240.764 269.352 241.044 270.456 241.044 271.688C241.044 272.92 240.764 274.024 240.204 275C239.66 275.976 238.9 276.744 237.924 277.304C236.948 277.848 235.852 278.12 234.636 278.12ZM234.636 276.608C235.532 276.608 236.332 276.408 237.036 276.008C237.756 275.592 238.316 275.008 238.716 274.256C239.116 273.504 239.316 272.648 239.316 271.688C239.316 270.728 239.116 269.872 238.716 269.12C238.316 268.368 237.756 267.792 237.036 267.392C236.332 266.976 235.532 266.768 234.636 266.768C233.74 266.768 232.932 266.976 232.212 267.392C231.508 267.792 230.948 268.368 230.532 269.12C230.132 269.872 229.932 270.728 229.932 271.688C229.932 272.648 230.132 273.504 230.532 274.256C230.948 275.008 231.508 275.592 232.212 276.008C232.932 276.408 233.74 276.608 234.636 276.608ZM244.686 265.376H246.39V270.968H254.334V265.376H256.038V278H254.334V272.432H246.39V278H244.686V265.376ZM269.761 266.888H264.985V278H263.281V266.888H258.505V265.376H269.761V266.888ZM278.729 265.28C279.913 265.28 280.985 265.552 281.945 266.096C282.905 266.624 283.657 267.376 284.201 268.352C284.745 269.328 285.017 270.44 285.017 271.688C285.017 272.952 284.745 274.072 284.201 275.048C283.657 276.024 282.905 276.784 281.945 277.328C281.001 277.856 279.929 278.12 278.729 278.12C277.705 278.12 276.777 277.912 275.945 277.496C275.129 277.064 274.457 276.44 273.929 275.624V282.656H272.225V265.376H273.857V267.872C274.369 267.04 275.041 266.4 275.873 265.952C276.721 265.504 277.673 265.28 278.729 265.28ZM278.609 276.608C279.489 276.608 280.289 276.408 281.009 276.008C281.729 275.592 282.289 275.008 282.689 274.256C283.105 273.504 283.313 272.648 283.313 271.688C283.313 270.728 283.105 269.88 282.689 269.144C282.289 268.392 281.729 267.808 281.009 267.392C280.289 266.976 279.489 266.768 278.609 266.768C277.713 266.768 276.905 266.976 276.185 267.392C275.481 267.808 274.921 268.392 274.505 269.144C274.105 269.88 273.905 270.728 273.905 271.688C273.905 272.648 274.105 273.504 274.505 274.256C274.921 275.008 275.481 275.592 276.185 276.008C276.905 276.408 277.713 276.608 278.609 276.608ZM293.886 278.12C292.67 278.12 291.574 277.848 290.598 277.304C289.622 276.744 288.854 275.976 288.294 275C287.734 274.024 287.454 272.92 287.454 271.688C287.454 270.456 287.734 269.352 288.294 268.376C288.854 267.4 289.622 266.64 290.598 266.096C291.574 265.552 292.67 265.28 293.886 265.28C295.102 265.28 296.198 265.552 297.174 266.096C298.15 266.64 298.91 267.4 299.454 268.376C300.014 269.352 300.294 270.456 300.294 271.688C300.294 272.92 300.014 274.024 299.454 275C298.91 275.976 298.15 276.744 297.174 277.304C296.198 277.848 295.102 278.12 293.886 278.12ZM293.886 276.608C294.782 276.608 295.582 276.408 296.286 276.008C297.006 275.592 297.566 275.008 297.966 274.256C298.366 273.504 298.566 272.648 298.566 271.688C298.566 270.728 298.366 269.872 297.966 269.12C297.566 268.368 297.006 267.792 296.286 267.392C295.582 266.976 294.782 266.768 293.886 266.768C292.99 266.768 292.182 266.976 291.462 267.392C290.758 267.792 290.198 268.368 289.782 269.12C289.382 269.872 289.182 270.728 289.182 271.688C289.182 272.648 289.382 273.504 289.782 274.256C290.198 275.008 290.758 275.592 291.462 276.008C292.182 276.408 292.99 276.608 293.886 276.608ZM314.185 265.376V278H312.481V266.888H306.433L306.265 270.008C306.137 272.632 305.833 274.648 305.353 276.056C304.873 277.464 304.017 278.168 302.785 278.168C302.449 278.168 302.041 278.104 301.561 277.976L301.681 276.512C301.969 276.576 302.169 276.608 302.281 276.608C302.937 276.608 303.433 276.304 303.769 275.696C304.105 275.088 304.329 274.336 304.441 273.44C304.553 272.544 304.649 271.36 304.729 269.888L304.945 265.376H314.185ZM324.453 269.84C326.037 269.856 327.237 270.208 328.053 270.896C328.885 271.584 329.301 272.576 329.301 273.872C329.301 275.216 328.853 276.248 327.957 276.968C327.077 277.688 325.797 278.04 324.117 278.024L319.029 278V265.376H320.733V269.792L324.453 269.84ZM324.021 276.728C325.189 276.744 326.069 276.512 326.661 276.032C327.269 275.536 327.573 274.816 327.573 273.872C327.573 272.944 327.277 272.256 326.685 271.808C326.093 271.36 325.205 271.128 324.021 271.112L320.733 271.064V276.68L324.021 276.728ZM332.509 275.504C332.877 275.504 333.181 275.632 333.421 275.888C333.661 276.128 333.781 276.432 333.781 276.8C333.781 276.992 333.749 277.2 333.685 277.424C333.637 277.648 333.557 277.904 333.445 278.192L332.437 281.504H331.285L332.101 278.024C331.845 277.944 331.637 277.8 331.477 277.592C331.317 277.368 331.237 277.104 331.237 276.8C331.237 276.432 331.357 276.128 331.597 275.888C331.837 275.632 332.141 275.504 332.509 275.504ZM168.601 294.376L162.289 308.512C161.777 309.696 161.185 310.536 160.513 311.032C159.841 311.528 159.033 311.776 158.089 311.776C157.481 311.776 156.913 311.68 156.385 311.488C155.857 311.296 155.401 311.008 155.017 310.624L155.809 309.352C156.449 309.992 157.217 310.312 158.113 310.312C158.689 310.312 159.177 310.152 159.577 309.832C159.993 309.512 160.377 308.968 160.729 308.2L161.281 306.976L155.641 294.376H157.417L162.169 305.104L166.921 294.376H168.601ZM176.184 307.12C174.936 307.12 173.816 306.848 172.824 306.304C171.848 305.76 171.08 305 170.52 304.024C169.96 303.032 169.68 301.92 169.68 300.688C169.68 299.456 169.96 298.352 170.52 297.376C171.08 296.4 171.848 295.64 172.824 295.096C173.816 294.552 174.936 294.28 176.184 294.28C177.272 294.28 178.24 294.496 179.088 294.928C179.952 295.344 180.632 295.96 181.128 296.776L179.856 297.64C179.44 297.016 178.912 296.552 178.272 296.248C177.632 295.928 176.936 295.768 176.184 295.768C175.272 295.768 174.448 295.976 173.712 296.392C172.992 296.792 172.424 297.368 172.008 298.12C171.608 298.872 171.408 299.728 171.408 300.688C171.408 301.664 171.608 302.528 172.008 303.28C172.424 304.016 172.992 304.592 173.712 305.008C174.448 305.408 175.272 305.608 176.184 305.608C176.936 305.608 177.632 305.456 178.272 305.152C178.912 304.848 179.44 304.384 179.856 303.76L181.128 304.624C180.632 305.44 179.952 306.064 179.088 306.496C178.224 306.912 177.256 307.12 176.184 307.12ZM193.074 295.888H188.298V307H186.594V295.888H181.818V294.376H193.074V295.888ZM199.881 294.28C201.529 294.28 202.793 294.696 203.673 295.528C204.553 296.344 204.993 297.56 204.993 299.176V307H203.361V305.032C202.977 305.688 202.409 306.2 201.657 306.568C200.921 306.936 200.041 307.12 199.017 307.12C197.609 307.12 196.489 306.784 195.657 306.112C194.825 305.44 194.409 304.552 194.409 303.448C194.409 302.376 194.793 301.512 195.561 300.856C196.345 300.2 197.585 299.872 199.281 299.872H203.289V299.104C203.289 298.016 202.985 297.192 202.377 296.632C201.769 296.056 200.881 295.768 199.713 295.768C198.913 295.768 198.145 295.904 197.409 296.176C196.673 296.432 196.041 296.792 195.513 297.256L194.745 295.984C195.385 295.44 196.153 295.024 197.049 294.736C197.945 294.432 198.889 294.28 199.881 294.28ZM199.281 305.776C200.241 305.776 201.065 305.56 201.753 305.128C202.441 304.68 202.953 304.04 203.289 303.208V301.144H199.329C197.169 301.144 196.089 301.896 196.089 303.4C196.089 304.136 196.369 304.72 196.929 305.152C197.489 305.568 198.273 305.776 199.281 305.776ZM209.529 294.376H211.233V299.968H219.177V294.376H220.881V307H219.177V301.432H211.233V307H209.529V294.376ZM230.933 307.12C229.717 307.12 228.621 306.848 227.645 306.304C226.669 305.744 225.901 304.976 225.341 304C224.781 303.024 224.501 301.92 224.501 300.688C224.501 299.456 224.781 298.352 225.341 297.376C225.901 296.4 226.669 295.64 227.645 295.096C228.621 294.552 229.717 294.28 230.933 294.28C232.149 294.28 233.245 294.552 234.221 295.096C235.197 295.64 235.957 296.4 236.501 297.376C237.061 298.352 237.341 299.456 237.341 300.688C237.341 301.92 237.061 303.024 236.501 304C235.957 304.976 235.197 305.744 234.221 306.304C233.245 306.848 232.149 307.12 230.933 307.12ZM230.933 305.608C231.829 305.608 232.629 305.408 233.333 305.008C234.053 304.592 234.613 304.008 235.013 303.256C235.413 302.504 235.613 301.648 235.613 300.688C235.613 299.728 235.413 298.872 235.013 298.12C234.613 297.368 234.053 296.792 233.333 296.392C232.629 295.976 231.829 295.768 230.933 295.768C230.037 295.768 229.229 295.976 228.509 296.392C227.805 296.792 227.245 297.368 226.829 298.12C226.429 298.872 226.229 299.728 226.229 300.688C226.229 301.648 226.429 302.504 226.829 303.256C227.245 304.008 227.805 304.592 228.509 305.008C229.229 305.408 230.037 305.608 230.933 305.608ZM249.023 300.472C250.735 300.872 251.591 301.904 251.591 303.568C251.591 304.672 251.183 305.52 250.367 306.112C249.551 306.704 248.335 307 246.719 307H240.983V294.376H246.551C247.991 294.376 249.119 294.656 249.935 295.216C250.751 295.776 251.159 296.576 251.159 297.616C251.159 298.304 250.967 298.896 250.583 299.392C250.215 299.872 249.695 300.232 249.023 300.472ZM242.639 299.992H246.431C247.407 299.992 248.151 299.808 248.663 299.44C249.191 299.072 249.455 298.536 249.455 297.832C249.455 297.128 249.191 296.6 248.663 296.248C248.151 295.896 247.407 295.72 246.431 295.72H242.639V299.992ZM246.647 305.656C247.735 305.656 248.551 305.48 249.095 305.128C249.639 304.776 249.911 304.224 249.911 303.472C249.911 302.72 249.663 302.168 249.167 301.816C248.671 301.448 247.887 301.264 246.815 301.264H242.639V305.656H246.647ZM255.584 294.376H257.288V304.408L265.712 294.376H267.224V307H265.52V296.968L257.12 307H255.584V294.376ZM280.988 295.888H276.212V307H274.508V295.888H269.732V294.376H280.988V295.888ZM288.875 298.84C290.459 298.856 291.659 299.208 292.475 299.896C293.307 300.584 293.723 301.576 293.723 302.872C293.723 304.216 293.275 305.248 292.379 305.968C291.499 306.688 290.219 307.04 288.539 307.024L283.451 307V294.376H285.155V298.792L288.875 298.84ZM288.443 305.728C289.611 305.744 290.491 305.512 291.083 305.032C291.691 304.536 291.995 303.816 291.995 302.872C291.995 301.944 291.699 301.256 291.107 300.808C290.515 300.36 289.627 300.128 288.443 300.112L285.155 300.064V305.68L288.443 305.728ZM114.585 330.472C116.297 330.872 117.153 331.904 117.153 333.568C117.153 334.672 116.745 335.52 115.929 336.112C115.113 336.704 113.897 337 112.281 337H106.545V324.376H112.113C113.553 324.376 114.681 324.656 115.497 325.216C116.313 325.776 116.721 326.576 116.721 327.616C116.721 328.304 116.529 328.896 116.145 329.392C115.777 329.872 115.257 330.232 114.585 330.472ZM108.201 329.992H111.993C112.969 329.992 113.713 329.808 114.225 329.44C114.753 329.072 115.017 328.536 115.017 327.832C115.017 327.128 114.753 326.6 114.225 326.248C113.713 325.896 112.969 325.72 111.993 325.72H108.201V329.992ZM112.209 335.656C113.297 335.656 114.113 335.48 114.657 335.128C115.201 334.776 115.473 334.224 115.473 333.472C115.473 332.72 115.225 332.168 114.729 331.816C114.233 331.448 113.449 331.264 112.377 331.264H108.201V335.656H112.209ZM121.147 324.376H122.851V334.408L131.275 324.376H132.787V337H131.083V326.968L122.683 337H121.147V324.376ZM149.982 335.512V340.048H148.374V337H137.07V340.048H135.462V335.512H136.182C137.03 335.464 137.606 334.84 137.91 333.64C138.214 332.44 138.422 330.76 138.534 328.6L138.702 324.376H148.014V335.512H149.982ZM140.094 328.696C140.014 330.488 139.862 331.968 139.638 333.136C139.414 334.288 139.014 335.08 138.438 335.512H146.31V325.888H140.238L140.094 328.696ZM164.343 331.216H153.783C153.879 332.528 154.383 333.592 155.295 334.408C156.207 335.208 157.359 335.608 158.751 335.608C159.535 335.608 160.255 335.472 160.911 335.2C161.567 334.912 162.135 334.496 162.615 333.952L163.575 335.056C163.015 335.728 162.311 336.24 161.463 336.592C160.631 336.944 159.711 337.12 158.703 337.12C157.407 337.12 156.255 336.848 155.247 336.304C154.255 335.744 153.479 334.976 152.919 334C152.359 333.024 152.079 331.92 152.079 330.688C152.079 329.456 152.343 328.352 152.871 327.376C153.415 326.4 154.151 325.64 155.079 325.096C156.023 324.552 157.079 324.28 158.247 324.28C159.415 324.28 160.463 324.552 161.391 325.096C162.319 325.64 163.047 326.4 163.575 327.376C164.103 328.336 164.367 329.44 164.367 330.688L164.343 331.216ZM158.247 325.744C157.031 325.744 156.007 326.136 155.175 326.92C154.359 327.688 153.895 328.696 153.783 329.944H162.735C162.623 328.696 162.151 327.688 161.319 326.92C160.503 326.136 159.479 325.744 158.247 325.744ZM173.347 337.12C172.131 337.12 171.035 336.848 170.059 336.304C169.083 335.744 168.315 334.976 167.755 334C167.195 333.024 166.915 331.92 166.915 330.688C166.915 329.456 167.195 328.352 167.755 327.376C168.315 326.4 169.083 325.64 170.059 325.096C171.035 324.552 172.131 324.28 173.347 324.28C174.563 324.28 175.659 324.552 176.635 325.096C177.611 325.64 178.371 326.4 178.915 327.376C179.475 328.352 179.755 329.456 179.755 330.688C179.755 331.92 179.475 333.024 178.915 334C178.371 334.976 177.611 335.744 176.635 336.304C175.659 336.848 174.563 337.12 173.347 337.12ZM173.347 335.608C174.243 335.608 175.043 335.408 175.747 335.008C176.467 334.592 177.027 334.008 177.427 333.256C177.827 332.504 178.027 331.648 178.027 330.688C178.027 329.728 177.827 328.872 177.427 328.12C177.027 327.368 176.467 326.792 175.747 326.392C175.043 325.976 174.243 325.768 173.347 325.768C172.451 325.768 171.643 325.976 170.923 326.392C170.219 326.792 169.659 327.368 169.243 328.12C168.843 328.872 168.643 329.728 168.643 330.688C168.643 331.648 168.843 332.504 169.243 333.256C169.659 334.008 170.219 334.592 170.923 335.008C171.643 335.408 172.451 335.608 173.347 335.608ZM183.397 324.376H185.101V329.968H193.045V324.376H194.749V337H193.045V331.432H185.101V337H183.397V324.376ZM203.936 324.28C205.584 324.28 206.848 324.696 207.728 325.528C208.608 326.344 209.048 327.56 209.048 329.176V337H207.416V335.032C207.032 335.688 206.464 336.2 205.712 336.568C204.976 336.936 204.096 337.12 203.072 337.12C201.664 337.12 200.544 336.784 199.712 336.112C198.88 335.44 198.464 334.552 198.464 333.448C198.464 332.376 198.848 331.512 199.616 330.856C200.4 330.2 201.64 329.872 203.336 329.872H207.344V329.104C207.344 328.016 207.04 327.192 206.432 326.632C205.824 326.056 204.936 325.768 203.768 325.768C202.968 325.768 202.2 325.904 201.464 326.176C200.728 326.432 200.096 326.792 199.568 327.256L198.8 325.984C199.44 325.44 200.208 325.024 201.104 324.736C202 324.432 202.944 324.28 203.936 324.28ZM203.336 335.776C204.296 335.776 205.12 335.56 205.808 335.128C206.496 334.68 207.008 334.04 207.344 333.208V331.144H203.384C201.224 331.144 200.144 331.896 200.144 333.4C200.144 334.136 200.424 334.72 200.984 335.152C201.544 335.568 202.328 335.776 203.336 335.776ZM219.704 324.688C220.872 324.688 221.912 324.952 222.824 325.48C223.752 325.992 224.472 326.72 224.984 327.664C225.496 328.592 225.752 329.656 225.752 330.856C225.752 332.088 225.48 333.184 224.936 334.144C224.408 335.088 223.664 335.824 222.704 336.352C221.744 336.88 220.64 337.144 219.392 337.144C217.296 337.144 215.672 336.408 214.52 334.936C213.368 333.464 212.792 331.432 212.792 328.84C212.792 326.136 213.304 324.064 214.328 322.624C215.368 321.184 216.984 320.208 219.176 319.696L224.84 318.4L225.128 319.96L219.8 321.184C217.992 321.584 216.664 322.296 215.816 323.32C214.968 324.328 214.504 325.824 214.424 327.808C214.936 326.832 215.648 326.072 216.56 325.528C217.472 324.968 218.52 324.688 219.704 324.688ZM219.44 335.728C220.32 335.728 221.104 335.528 221.792 335.128C222.496 334.712 223.04 334.136 223.424 333.4C223.824 332.664 224.024 331.832 224.024 330.904C224.024 329.976 223.832 329.16 223.448 328.456C223.064 327.752 222.52 327.208 221.816 326.824C221.128 326.424 220.336 326.224 219.44 326.224C218.544 326.224 217.744 326.424 217.04 326.824C216.352 327.208 215.808 327.752 215.408 328.456C215.024 329.16 214.832 329.976 214.832 330.904C214.832 331.832 215.024 332.664 215.408 333.4C215.808 334.136 216.36 334.712 217.064 335.128C217.768 335.528 218.56 335.728 219.44 335.728ZM239.654 324.376V337H237.95V325.888H231.902L231.734 329.008C231.606 331.632 231.302 333.648 230.822 335.056C230.342 336.464 229.486 337.168 228.254 337.168C227.918 337.168 227.51 337.104 227.03 336.976L227.15 335.512C227.438 335.576 227.638 335.608 227.75 335.608C228.406 335.608 228.902 335.304 229.238 334.696C229.574 334.088 229.798 333.336 229.91 332.44C230.022 331.544 230.118 330.36 230.198 328.888L230.414 324.376H239.654ZM255.346 324.28C256.53 324.28 257.594 324.552 258.538 325.096C259.498 325.64 260.25 326.4 260.794 327.376C261.338 328.352 261.61 329.456 261.61 330.688C261.61 331.92 261.338 333.024 260.794 334C260.25 334.976 259.498 335.744 258.538 336.304C257.594 336.848 256.53 337.12 255.346 337.12C254.226 337.12 253.21 336.88 252.298 336.4C251.386 335.904 250.642 335.224 250.066 334.36C249.506 333.496 249.178 332.504 249.082 331.384H246.202V337H244.498V324.376H246.202V329.824H249.106C249.234 328.736 249.578 327.776 250.138 326.944C250.714 326.096 251.45 325.44 252.346 324.976C253.242 324.512 254.242 324.28 255.346 324.28ZM255.346 335.632C256.21 335.632 256.986 335.424 257.674 335.008C258.378 334.592 258.93 334.008 259.33 333.256C259.73 332.504 259.93 331.648 259.93 330.688C259.93 329.728 259.73 328.872 259.33 328.12C258.93 327.368 258.378 326.792 257.674 326.392C256.986 325.976 256.21 325.768 255.346 325.768C254.482 325.768 253.698 325.976 252.994 326.392C252.306 326.792 251.762 327.368 251.362 328.12C250.962 328.872 250.762 329.728 250.762 330.688C250.762 331.648 250.962 332.504 251.362 333.256C251.762 334.008 252.306 334.592 252.994 335.008C253.698 335.424 254.482 335.632 255.346 335.632ZM277.506 335.512V340.048H275.898V337H264.594V340.048H262.986V335.512H263.706C264.554 335.464 265.13 334.84 265.434 333.64C265.738 332.44 265.946 330.76 266.058 328.6L266.226 324.376H275.538V335.512H277.506ZM267.618 328.696C267.538 330.488 267.386 331.968 267.162 333.136C266.938 334.288 266.538 335.08 265.962 335.512H273.834V325.888H267.762L267.618 328.696ZM291.866 331.216H281.306C281.402 332.528 281.906 333.592 282.818 334.408C283.73 335.208 284.882 335.608 286.274 335.608C287.058 335.608 287.778 335.472 288.434 335.2C289.09 334.912 289.658 334.496 290.138 333.952L291.098 335.056C290.538 335.728 289.834 336.24 288.986 336.592C288.154 336.944 287.234 337.12 286.226 337.12C284.93 337.12 283.778 336.848 282.77 336.304C281.778 335.744 281.002 334.976 280.442 334C279.882 333.024 279.602 331.92 279.602 330.688C279.602 329.456 279.866 328.352 280.394 327.376C280.938 326.4 281.674 325.64 282.602 325.096C283.546 324.552 284.602 324.28 285.77 324.28C286.938 324.28 287.986 324.552 288.914 325.096C289.842 325.64 290.57 326.4 291.098 327.376C291.626 328.336 291.89 329.44 291.89 330.688L291.866 331.216ZM285.77 325.744C284.554 325.744 283.53 326.136 282.698 326.92C281.882 327.688 281.418 328.696 281.306 329.944H290.258C290.146 328.696 289.674 327.688 288.842 326.92C288.026 326.136 287.002 325.744 285.77 325.744ZM295.662 324.376H297.366V329.968H305.31V324.376H307.014V337H305.31V331.432H297.366V337H295.662V324.376ZM311.858 324.376H313.562V334.408L321.986 324.376H323.498V337H321.794V326.968L313.394 337H311.858V324.376ZM339.421 331.216H328.861C328.957 332.528 329.461 333.592 330.373 334.408C331.285 335.208 332.437 335.608 333.829 335.608C334.613 335.608 335.333 335.472 335.989 335.2C336.645 334.912 337.213 334.496 337.693 333.952L338.653 335.056C338.093 335.728 337.389 336.24 336.541 336.592C335.709 336.944 334.789 337.12 333.781 337.12C332.485 337.12 331.333 336.848 330.325 336.304C329.333 335.744 328.557 334.976 327.997 334C327.437 333.024 327.157 331.92 327.157 330.688C327.157 329.456 327.421 328.352 327.949 327.376C328.493 326.4 329.229 325.64 330.157 325.096C331.101 324.552 332.157 324.28 333.325 324.28C334.493 324.28 335.541 324.552 336.469 325.096C337.397 325.64 338.125 326.4 338.653 327.376C339.181 328.336 339.445 329.44 339.445 330.688L339.421 331.216ZM333.325 325.744C332.109 325.744 331.085 326.136 330.253 326.92C329.437 327.688 328.973 328.696 328.861 329.944H337.813C337.701 328.696 337.229 327.688 336.397 326.92C335.581 326.136 334.557 325.744 333.325 325.744ZM343.337 337.12C342.985 337.12 342.681 336.992 342.425 336.736C342.185 336.48 342.065 336.168 342.065 335.8C342.065 335.432 342.185 335.128 342.425 334.888C342.681 334.632 342.985 334.504 343.337 334.504C343.689 334.504 343.993 334.632 344.249 334.888C344.505 335.128 344.633 335.432 344.633 335.8C344.633 336.168 344.505 336.48 344.249 336.736C343.993 336.992 343.689 337.12 343.337 337.12Z" fill="black"/>
</svg>
