<svg width="450" height="450" viewBox="0 0 450 450" fill="none" xmlns="http://www.w3.org/2000/svg">
<rect width="450" height="450" fill="white"/>
<path d="M149.376 129.2V146H147.624V138.248H137.112V146H135.336V129.2H137.112V136.688H147.624V129.2H149.376ZM158.983 133.28C160.631 133.28 161.895 133.696 162.775 134.528C163.655 135.344 164.095 136.56 164.095 138.176V146H162.463V144.032C162.079 144.688 161.511 145.2 160.759 145.568C160.023 145.936 159.143 146.12 158.119 146.12C156.711 146.12 155.591 145.784 154.759 145.112C153.927 144.44 153.511 143.552 153.511 142.448C153.511 141.376 153.895 140.512 154.663 139.856C155.447 139.2 156.687 138.872 158.383 138.872H162.391V138.104C162.391 137.016 162.087 136.192 161.479 135.632C160.871 135.056 159.983 134.768 158.815 134.768C158.015 134.768 157.247 134.904 156.511 135.176C155.775 135.432 155.143 135.792 154.615 136.256L153.847 134.984C154.487 134.44 155.255 134.024 156.151 133.736C157.047 133.432 157.991 133.28 158.983 133.28ZM158.383 144.776C159.343 144.776 160.167 144.56 160.855 144.128C161.543 143.68 162.055 143.04 162.391 142.208V140.144H158.431C156.271 140.144 155.191 140.896 155.191 142.4C155.191 143.136 155.471 143.72 156.031 144.152C156.591 144.568 157.375 144.776 158.383 144.776ZM186.055 133.376V146H168.631V133.376H170.335V144.512H176.527V133.376H178.231V144.512H184.351V133.376H186.055ZM209.513 144.512V149.048H207.905V146H196.601V149.048H194.993V144.512H195.713C196.561 144.464 197.137 143.84 197.441 142.64C197.745 141.44 197.953 139.76 198.065 137.6L198.233 133.376H207.545V144.512H209.513ZM199.625 137.696C199.545 139.488 199.393 140.968 199.169 142.136C198.945 143.288 198.545 144.08 197.969 144.512H205.841V134.888H199.769L199.625 137.696ZM212.834 133.376H214.538V143.408L222.962 133.376H224.474V146H222.77V135.968L214.37 146H212.834V133.376ZM235.244 139.424C236.14 139.632 236.828 139.992 237.308 140.504C237.804 141.016 238.052 141.64 238.052 142.376C238.052 143.112 237.796 143.768 237.284 144.344C236.788 144.92 236.108 145.368 235.244 145.688C234.38 145.992 233.428 146.144 232.388 146.144C231.476 146.144 230.58 146.016 229.7 145.76C228.82 145.488 228.052 145.096 227.396 144.584L227.972 143.312C228.548 143.744 229.22 144.08 229.988 144.32C230.756 144.56 231.532 144.68 232.316 144.68C233.484 144.68 234.436 144.464 235.172 144.032C235.924 143.584 236.3 142.984 236.3 142.232C236.3 141.56 235.996 141.04 235.388 140.672C234.78 140.288 233.948 140.096 232.892 140.096H230.732V138.848H232.796C233.74 138.848 234.5 138.672 235.076 138.32C235.652 137.952 235.94 137.464 235.94 136.856C235.94 136.184 235.612 135.656 234.956 135.272C234.316 134.888 233.476 134.696 232.436 134.696C231.076 134.696 229.732 135.04 228.404 135.728L227.924 134.408C229.428 133.624 230.988 133.232 232.604 133.232C233.564 133.232 234.428 133.376 235.196 133.664C235.98 133.936 236.588 134.328 237.02 134.84C237.468 135.352 237.692 135.944 237.692 136.616C237.692 137.256 237.468 137.824 237.02 138.32C236.588 138.816 235.996 139.184 235.244 139.424ZM246.264 133.28C247.912 133.28 249.176 133.696 250.056 134.528C250.936 135.344 251.376 136.56 251.376 138.176V146H249.744V144.032C249.36 144.688 248.792 145.2 248.04 145.568C247.304 145.936 246.424 146.12 245.4 146.12C243.992 146.12 242.872 145.784 242.04 145.112C241.208 144.44 240.792 143.552 240.792 142.448C240.792 141.376 241.176 140.512 241.944 139.856C242.728 139.2 243.968 138.872 245.664 138.872H249.672V138.104C249.672 137.016 249.368 136.192 248.76 135.632C248.152 135.056 247.264 134.768 246.096 134.768C245.296 134.768 244.528 134.904 243.792 135.176C243.056 135.432 242.424 135.792 241.896 136.256L241.128 134.984C241.768 134.44 242.536 134.024 243.432 133.736C244.328 133.432 245.272 133.28 246.264 133.28ZM245.664 144.776C246.624 144.776 247.448 144.56 248.136 144.128C248.824 143.68 249.336 143.04 249.672 142.208V140.144H245.712C243.552 140.144 242.472 140.896 242.472 142.4C242.472 143.136 242.752 143.72 243.312 144.152C243.872 144.568 244.656 144.776 245.664 144.776ZM255.912 133.376H257.616V143.408L266.04 133.376H267.552V146H265.848V135.968L257.448 146H255.912V133.376ZM261.648 131.552C260.56 131.552 259.696 131.28 259.056 130.736C258.416 130.192 258.088 129.424 258.072 128.432H259.296C259.312 129.056 259.536 129.56 259.968 129.944C260.4 130.312 260.96 130.496 261.648 130.496C262.336 130.496 262.896 130.312 263.328 129.944C263.776 129.56 264.008 129.056 264.024 128.432H265.248C265.232 129.424 264.896 130.192 264.24 130.736C263.6 131.28 262.736 131.552 261.648 131.552ZM272.436 133.376H274.14V138.968H282.084V133.376H283.788V146H282.084V140.432H274.14V146H272.436V133.376ZM299.671 140.216H289.111C289.207 141.528 289.711 142.592 290.623 143.408C291.535 144.208 292.687 144.608 294.079 144.608C294.863 144.608 295.583 144.472 296.239 144.2C296.895 143.912 297.463 143.496 297.943 142.952L298.903 144.056C298.343 144.728 297.639 145.24 296.791 145.592C295.959 145.944 295.039 146.12 294.031 146.12C292.735 146.12 291.583 145.848 290.575 145.304C289.583 144.744 288.807 143.976 288.247 143C287.687 142.024 287.407 140.92 287.407 139.688C287.407 138.456 287.671 137.352 288.199 136.376C288.743 135.4 289.479 134.64 290.407 134.096C291.351 133.552 292.407 133.28 293.575 133.28C294.743 133.28 295.791 133.552 296.719 134.096C297.647 134.64 298.375 135.4 298.903 136.376C299.431 137.336 299.695 138.44 299.695 139.688L299.671 140.216ZM293.575 134.744C292.359 134.744 291.335 135.136 290.503 135.92C289.687 136.688 289.223 137.696 289.111 138.944H298.063C297.951 137.696 297.479 136.688 296.647 135.92C295.831 135.136 294.807 134.744 293.575 134.744ZM309.971 133.28C311.155 133.28 312.227 133.552 313.187 134.096C314.147 134.624 314.899 135.376 315.443 136.352C315.987 137.328 316.259 138.44 316.259 139.688C316.259 140.952 315.987 142.072 315.443 143.048C314.899 144.024 314.147 144.784 313.187 145.328C312.243 145.856 311.171 146.12 309.971 146.12C308.947 146.12 308.019 145.912 307.187 145.496C306.371 145.064 305.699 144.44 305.171 143.624V150.656H303.467V133.376H305.099V135.872C305.611 135.04 306.283 134.4 307.115 133.952C307.963 133.504 308.915 133.28 309.971 133.28ZM309.851 144.608C310.731 144.608 311.531 144.408 312.251 144.008C312.971 143.592 313.531 143.008 313.931 142.256C314.347 141.504 314.555 140.648 314.555 139.688C314.555 138.728 314.347 137.88 313.931 137.144C313.531 136.392 312.971 135.808 312.251 135.392C311.531 134.976 310.731 134.768 309.851 134.768C308.955 134.768 308.147 134.976 307.427 135.392C306.723 135.808 306.163 136.392 305.747 137.144C305.347 137.88 305.147 138.728 305.147 139.688C305.147 140.648 305.347 141.504 305.747 142.256C306.163 143.008 306.723 143.592 307.427 144.008C308.147 144.408 308.955 144.608 309.851 144.608ZM95.801 170.384H92.921V176H91.217V163.376H92.921V168.92H95.825L100.265 163.376H102.113L97.145 169.496L102.473 176H100.457L95.801 170.384ZM109.925 176.12C108.709 176.12 107.613 175.848 106.637 175.304C105.661 174.744 104.893 173.976 104.333 173C103.773 172.024 103.493 170.92 103.493 169.688C103.493 168.456 103.773 167.352 104.333 166.376C104.893 165.4 105.661 164.64 106.637 164.096C107.613 163.552 108.709 163.28 109.925 163.28C111.141 163.28 112.237 163.552 113.213 164.096C114.189 164.64 114.949 165.4 115.493 166.376C116.053 167.352 116.333 168.456 116.333 169.688C116.333 170.92 116.053 172.024 115.493 173C114.949 173.976 114.189 174.744 113.213 175.304C112.237 175.848 111.141 176.12 109.925 176.12ZM109.925 174.608C110.821 174.608 111.621 174.408 112.325 174.008C113.045 173.592 113.605 173.008 114.005 172.256C114.405 171.504 114.605 170.648 114.605 169.688C114.605 168.728 114.405 167.872 114.005 167.12C113.605 166.368 113.045 165.792 112.325 165.392C111.621 164.976 110.821 164.768 109.925 164.768C109.029 164.768 108.221 164.976 107.501 165.392C106.797 165.792 106.237 166.368 105.821 167.12C105.421 167.872 105.221 168.728 105.221 169.688C105.221 170.648 105.421 171.504 105.821 172.256C106.237 173.008 106.797 173.592 107.501 174.008C108.221 174.408 109.029 174.608 109.925 174.608ZM119.975 163.376H121.679V168.968H129.623V163.376H131.327V176H129.623V170.432H121.679V176H119.975V163.376ZM145.05 164.888H140.274V176H138.57V164.888H133.794V163.376H145.05V164.888ZM154.018 163.28C155.202 163.28 156.274 163.552 157.234 164.096C158.194 164.624 158.946 165.376 159.49 166.352C160.034 167.328 160.306 168.44 160.306 169.688C160.306 170.952 160.034 172.072 159.49 173.048C158.946 174.024 158.194 174.784 157.234 175.328C156.29 175.856 155.218 176.12 154.018 176.12C152.994 176.12 152.066 175.912 151.234 175.496C150.418 175.064 149.746 174.44 149.218 173.624V180.656H147.514V163.376H149.146V165.872C149.658 165.04 150.33 164.4 151.162 163.952C152.01 163.504 152.962 163.28 154.018 163.28ZM153.898 174.608C154.778 174.608 155.578 174.408 156.298 174.008C157.018 173.592 157.578 173.008 157.978 172.256C158.394 171.504 158.602 170.648 158.602 169.688C158.602 168.728 158.394 167.88 157.978 167.144C157.578 166.392 157.018 165.808 156.298 165.392C155.578 164.976 154.778 164.768 153.898 164.768C153.002 164.768 152.194 164.976 151.474 165.392C150.77 165.808 150.21 166.392 149.794 167.144C149.394 167.88 149.194 168.728 149.194 169.688C149.194 170.648 149.394 171.504 149.794 172.256C150.21 173.008 150.77 173.592 151.474 174.008C152.194 174.408 153.002 174.608 153.898 174.608ZM169.175 176.12C167.959 176.12 166.863 175.848 165.887 175.304C164.911 174.744 164.143 173.976 163.583 173C163.023 172.024 162.743 170.92 162.743 169.688C162.743 168.456 163.023 167.352 163.583 166.376C164.143 165.4 164.911 164.64 165.887 164.096C166.863 163.552 167.959 163.28 169.175 163.28C170.391 163.28 171.487 163.552 172.463 164.096C173.439 164.64 174.199 165.4 174.743 166.376C175.303 167.352 175.583 168.456 175.583 169.688C175.583 170.92 175.303 172.024 174.743 173C174.199 173.976 173.439 174.744 172.463 175.304C171.487 175.848 170.391 176.12 169.175 176.12ZM169.175 174.608C170.071 174.608 170.871 174.408 171.575 174.008C172.295 173.592 172.855 173.008 173.255 172.256C173.655 171.504 173.855 170.648 173.855 169.688C173.855 168.728 173.655 167.872 173.255 167.12C172.855 166.368 172.295 165.792 171.575 165.392C170.871 164.976 170.071 164.768 169.175 164.768C168.279 164.768 167.471 164.976 166.751 165.392C166.047 165.792 165.487 166.368 165.071 167.12C164.671 167.872 164.471 168.728 164.471 169.688C164.471 170.648 164.671 171.504 165.071 172.256C165.487 173.008 166.047 173.592 166.751 174.008C167.471 174.408 168.279 174.608 169.175 174.608ZM189.474 163.376V176H187.77V164.888H181.722L181.554 168.008C181.426 170.632 181.122 172.648 180.642 174.056C180.162 175.464 179.306 176.168 178.074 176.168C177.738 176.168 177.33 176.104 176.85 175.976L176.97 174.512C177.258 174.576 177.458 174.608 177.57 174.608C178.226 174.608 178.722 174.304 179.058 173.696C179.394 173.088 179.618 172.336 179.73 171.44C179.842 170.544 179.938 169.36 180.018 167.888L180.234 163.376H189.474ZM194.319 163.376H196.023V173.408L204.447 163.376H205.959V176H204.255V165.968L195.855 176H194.319V163.376ZM217.346 163.28C218.53 163.28 219.602 163.552 220.562 164.096C221.522 164.624 222.274 165.376 222.818 166.352C223.362 167.328 223.634 168.44 223.634 169.688C223.634 170.952 223.362 172.072 222.818 173.048C222.274 174.024 221.522 174.784 220.562 175.328C219.618 175.856 218.546 176.12 217.346 176.12C216.322 176.12 215.394 175.912 214.562 175.496C213.746 175.064 213.074 174.44 212.546 173.624V180.656H210.842V163.376H212.474V165.872C212.986 165.04 213.658 164.4 214.49 163.952C215.338 163.504 216.29 163.28 217.346 163.28ZM217.226 174.608C218.106 174.608 218.906 174.408 219.626 174.008C220.346 173.592 220.906 173.008 221.306 172.256C221.722 171.504 221.93 170.648 221.93 169.688C221.93 168.728 221.722 167.88 221.306 167.144C220.906 166.392 220.346 165.808 219.626 165.392C218.906 164.976 218.106 164.768 217.226 164.768C216.33 164.768 215.522 164.976 214.802 165.392C214.098 165.808 213.538 166.392 213.122 167.144C212.722 167.88 212.522 168.728 212.522 169.688C212.522 170.648 212.722 171.504 213.122 172.256C213.538 173.008 214.098 173.592 214.802 174.008C215.522 174.408 216.33 174.608 217.226 174.608ZM237.672 163.376L231.36 177.512C230.848 178.696 230.256 179.536 229.584 180.032C228.912 180.528 228.104 180.776 227.16 180.776C226.552 180.776 225.984 180.68 225.456 180.488C224.928 180.296 224.472 180.008 224.088 179.624L224.88 178.352C225.52 178.992 226.288 179.312 227.184 179.312C227.76 179.312 228.248 179.152 228.648 178.832C229.064 178.512 229.448 177.968 229.8 177.2L230.352 175.976L224.712 163.376H226.488L231.24 174.104L235.992 163.376H237.672ZM251.015 170.216H240.455C240.551 171.528 241.055 172.592 241.967 173.408C242.879 174.208 244.031 174.608 245.423 174.608C246.207 174.608 246.927 174.472 247.583 174.2C248.239 173.912 248.807 173.496 249.287 172.952L250.247 174.056C249.687 174.728 248.983 175.24 248.135 175.592C247.303 175.944 246.383 176.12 245.375 176.12C244.079 176.12 242.927 175.848 241.919 175.304C240.927 174.744 240.151 173.976 239.591 173C239.031 172.024 238.751 170.92 238.751 169.688C238.751 168.456 239.015 167.352 239.543 166.376C240.087 165.4 240.823 164.64 241.751 164.096C242.695 163.552 243.751 163.28 244.919 163.28C246.087 163.28 247.135 163.552 248.063 164.096C248.991 164.64 249.719 165.4 250.247 166.376C250.775 167.336 251.039 168.44 251.039 169.688L251.015 170.216ZM244.919 164.744C243.703 164.744 242.679 165.136 241.847 165.92C241.031 166.688 240.567 167.696 240.455 168.944H249.407C249.295 167.696 248.823 166.688 247.991 165.92C247.175 165.136 246.151 164.744 244.919 164.744ZM263.128 164.888H258.352V176H256.648V164.888H251.872V163.376H263.128V164.888ZM283.201 163.376V176H281.497V164.888H273.577V176H271.873V163.376H283.201ZM294.549 163.28C295.733 163.28 296.805 163.552 297.765 164.096C298.725 164.624 299.477 165.376 300.021 166.352C300.565 167.328 300.837 168.44 300.837 169.688C300.837 170.952 300.565 172.072 300.021 173.048C299.477 174.024 298.725 174.784 297.765 175.328C296.821 175.856 295.749 176.12 294.549 176.12C293.525 176.12 292.597 175.912 291.765 175.496C290.949 175.064 290.277 174.44 289.749 173.624V180.656H288.045V163.376H289.677V165.872C290.189 165.04 290.861 164.4 291.693 163.952C292.541 163.504 293.493 163.28 294.549 163.28ZM294.429 174.608C295.309 174.608 296.109 174.408 296.829 174.008C297.549 173.592 298.109 173.008 298.509 172.256C298.925 171.504 299.133 170.648 299.133 169.688C299.133 168.728 298.925 167.88 298.509 167.144C298.109 166.392 297.549 165.808 296.829 165.392C296.109 164.976 295.309 164.768 294.429 164.768C293.533 164.768 292.725 164.976 292.005 165.392C291.301 165.808 290.741 166.392 290.325 167.144C289.925 167.88 289.725 168.728 289.725 169.688C289.725 170.648 289.925 171.504 290.325 172.256C290.741 173.008 291.301 173.592 292.005 174.008C292.725 174.408 293.533 174.608 294.429 174.608ZM309.706 176.12C308.49 176.12 307.394 175.848 306.418 175.304C305.442 174.744 304.674 173.976 304.114 173C303.554 172.024 303.274 170.92 303.274 169.688C303.274 168.456 303.554 167.352 304.114 166.376C304.674 165.4 305.442 164.64 306.418 164.096C307.394 163.552 308.49 163.28 309.706 163.28C310.922 163.28 312.018 163.552 312.994 164.096C313.97 164.64 314.73 165.4 315.274 166.376C315.834 167.352 316.114 168.456 316.114 169.688C316.114 170.92 315.834 172.024 315.274 173C314.73 173.976 313.97 174.744 312.994 175.304C312.018 175.848 310.922 176.12 309.706 176.12ZM309.706 174.608C310.602 174.608 311.402 174.408 312.106 174.008C312.826 173.592 313.386 173.008 313.786 172.256C314.186 171.504 314.386 170.648 314.386 169.688C314.386 168.728 314.186 167.872 313.786 167.12C313.386 166.368 312.826 165.792 312.106 165.392C311.402 164.976 310.602 164.768 309.706 164.768C308.81 164.768 308.002 164.976 307.282 165.392C306.578 165.792 306.018 166.368 305.602 167.12C305.202 167.872 305.002 168.728 305.002 169.688C305.002 170.648 305.202 171.504 305.602 172.256C306.018 173.008 306.578 173.592 307.282 174.008C308.002 174.408 308.81 174.608 309.706 174.608ZM330.796 170.216H320.236C320.332 171.528 320.836 172.592 321.748 173.408C322.66 174.208 323.812 174.608 325.204 174.608C325.988 174.608 326.708 174.472 327.364 174.2C328.02 173.912 328.588 173.496 329.068 172.952L330.028 174.056C329.468 174.728 328.764 175.24 327.916 175.592C327.084 175.944 326.164 176.12 325.156 176.12C323.86 176.12 322.708 175.848 321.7 175.304C320.708 174.744 319.932 173.976 319.372 173C318.812 172.024 318.532 170.92 318.532 169.688C318.532 168.456 318.796 167.352 319.324 166.376C319.868 165.4 320.604 164.64 321.532 164.096C322.476 163.552 323.532 163.28 324.7 163.28C325.868 163.28 326.916 163.552 327.844 164.096C328.772 164.64 329.5 165.4 330.028 166.376C330.556 167.336 330.82 168.44 330.82 169.688L330.796 170.216ZM324.7 164.744C323.484 164.744 322.46 165.136 321.628 165.92C320.812 166.688 320.348 167.696 320.236 168.944H329.188C329.076 167.696 328.604 166.688 327.772 165.92C326.956 165.136 325.932 164.744 324.7 164.744ZM339.176 170.384H336.296V176H334.592V163.376H336.296V168.92H339.2L343.64 163.376H345.488L340.52 169.496L345.848 176H343.832L339.176 170.384ZM357.159 164.888H352.383V176H350.679V164.888H345.903V163.376H357.159V164.888ZM358.665 176.12C358.313 176.12 358.009 175.992 357.753 175.736C357.513 175.48 357.393 175.168 357.393 174.8C357.393 174.432 357.513 174.128 357.753 173.888C358.009 173.632 358.313 173.504 358.665 173.504C359.017 173.504 359.321 173.632 359.577 173.888C359.833 174.128 359.961 174.432 359.961 174.8C359.961 175.168 359.833 175.48 359.577 175.736C359.321 175.992 359.017 176.12 358.665 176.12ZM139.788 188.2V205H138.084V191.56L131.484 202.864H130.644L124.044 191.632V205H122.34V188.2H123.804L131.1 200.656L138.324 188.2H139.788ZM150.345 196.84C151.929 196.856 153.137 197.208 153.969 197.896C154.801 198.584 155.217 199.576 155.217 200.872C155.217 202.216 154.769 203.248 153.873 203.968C152.977 204.688 151.697 205.04 150.033 205.024L145.041 205V192.376H146.745V196.792L150.345 196.84ZM157.329 192.376H159.033V205H157.329V192.376ZM149.937 203.728C151.105 203.744 151.985 203.512 152.577 203.032C153.185 202.536 153.489 201.816 153.489 200.872C153.489 199.944 153.193 199.256 152.601 198.808C152.009 198.36 151.121 198.128 149.937 198.112L146.745 198.064V203.68L149.937 203.728ZM179.094 193.888H171.87V205H170.166V192.376H179.094V193.888ZM185.901 192.28C187.549 192.28 188.813 192.696 189.693 193.528C190.573 194.344 191.013 195.56 191.013 197.176V205H189.381V203.032C188.997 203.688 188.429 204.2 187.677 204.568C186.941 204.936 186.061 205.12 185.037 205.12C183.629 205.12 182.509 204.784 181.677 204.112C180.845 203.44 180.429 202.552 180.429 201.448C180.429 200.376 180.813 199.512 181.581 198.856C182.365 198.2 183.605 197.872 185.301 197.872H189.309V197.104C189.309 196.016 189.005 195.192 188.397 194.632C187.789 194.056 186.901 193.768 185.733 193.768C184.933 193.768 184.165 193.904 183.429 194.176C182.693 194.432 182.061 194.792 181.533 195.256L180.765 193.984C181.405 193.44 182.173 193.024 183.069 192.736C183.965 192.432 184.909 192.28 185.901 192.28ZM185.301 203.776C186.261 203.776 187.085 203.56 187.773 203.128C188.461 202.68 188.973 202.04 189.309 201.208V199.144H185.349C183.189 199.144 182.109 199.896 182.109 201.4C182.109 202.136 182.389 202.72 182.949 203.152C183.509 203.568 184.293 203.776 185.301 203.776ZM202.053 192.28C203.237 192.28 204.309 192.552 205.269 193.096C206.229 193.624 206.981 194.376 207.525 195.352C208.069 196.328 208.341 197.44 208.341 198.688C208.341 199.952 208.069 201.072 207.525 202.048C206.981 203.024 206.229 203.784 205.269 204.328C204.325 204.856 203.253 205.12 202.053 205.12C201.029 205.12 200.101 204.912 199.269 204.496C198.453 204.064 197.781 203.44 197.253 202.624V209.656H195.549V192.376H197.181V194.872C197.693 194.04 198.365 193.4 199.197 192.952C200.045 192.504 200.997 192.28 202.053 192.28ZM201.933 203.608C202.813 203.608 203.613 203.408 204.333 203.008C205.053 202.592 205.613 202.008 206.013 201.256C206.429 200.504 206.637 199.648 206.637 198.688C206.637 197.728 206.429 196.88 206.013 196.144C205.613 195.392 205.053 194.808 204.333 194.392C203.613 193.976 202.813 193.768 201.933 193.768C201.037 193.768 200.229 193.976 199.509 194.392C198.805 194.808 198.245 195.392 197.829 196.144C197.429 196.88 197.229 197.728 197.229 198.688C197.229 199.648 197.429 200.504 197.829 201.256C198.245 202.008 198.805 202.592 199.509 203.008C200.229 203.408 201.037 203.608 201.933 203.608ZM216.276 192.28C217.924 192.28 219.188 192.696 220.068 193.528C220.948 194.344 221.388 195.56 221.388 197.176V205H219.756V203.032C219.372 203.688 218.804 204.2 218.052 204.568C217.316 204.936 216.436 205.12 215.412 205.12C214.004 205.12 212.884 204.784 212.052 204.112C211.22 203.44 210.804 202.552 210.804 201.448C210.804 200.376 211.188 199.512 211.956 198.856C212.74 198.2 213.98 197.872 215.676 197.872H219.684V197.104C219.684 196.016 219.38 195.192 218.772 194.632C218.164 194.056 217.276 193.768 216.108 193.768C215.308 193.768 214.54 193.904 213.804 194.176C213.068 194.432 212.436 194.792 211.908 195.256L211.14 193.984C211.78 193.44 212.548 193.024 213.444 192.736C214.34 192.432 215.284 192.28 216.276 192.28ZM215.676 203.776C216.636 203.776 217.46 203.56 218.148 203.128C218.836 202.68 219.348 202.04 219.684 201.208V199.144H215.724C213.564 199.144 212.484 199.896 212.484 201.4C212.484 202.136 212.764 202.72 213.324 203.152C213.884 203.568 214.668 203.776 215.676 203.776ZM225.924 192.376H227.628V197.968H235.572V192.376H237.276V205H235.572V199.432H227.628V205H225.924V192.376ZM250.999 193.888H246.223V205H244.519V193.888H239.743V192.376H250.999V193.888ZM253.463 192.376H255.167V202.408L263.591 192.376H265.103V205H263.399V194.968L254.999 205H253.463V192.376ZM276.491 192.28C277.675 192.28 278.747 192.552 279.707 193.096C280.667 193.624 281.419 194.376 281.963 195.352C282.507 196.328 282.779 197.44 282.779 198.688C282.779 199.952 282.507 201.072 281.963 202.048C281.419 203.024 280.667 203.784 279.707 204.328C278.763 204.856 277.691 205.12 276.491 205.12C275.467 205.12 274.539 204.912 273.707 204.496C272.891 204.064 272.219 203.44 271.691 202.624V209.656H269.987V192.376H271.619V194.872C272.131 194.04 272.803 193.4 273.635 192.952C274.483 192.504 275.435 192.28 276.491 192.28ZM276.371 203.608C277.251 203.608 278.051 203.408 278.771 203.008C279.491 202.592 280.051 202.008 280.451 201.256C280.867 200.504 281.075 199.648 281.075 198.688C281.075 197.728 280.867 196.88 280.451 196.144C280.051 195.392 279.491 194.808 278.771 194.392C278.051 193.976 277.251 193.768 276.371 193.768C275.475 193.768 274.667 193.976 273.947 194.392C273.243 194.808 272.683 195.392 272.267 196.144C271.867 196.88 271.667 197.728 271.667 198.688C271.667 199.648 271.867 200.504 272.267 201.256C272.683 202.008 273.243 202.592 273.947 203.008C274.667 203.408 275.475 203.608 276.371 203.608ZM296.816 192.376L290.504 206.512C289.992 207.696 289.4 208.536 288.728 209.032C288.056 209.528 287.248 209.776 286.304 209.776C285.696 209.776 285.128 209.68 284.6 209.488C284.072 209.296 283.616 209.008 283.232 208.624L284.024 207.352C284.664 207.992 285.432 208.312 286.328 208.312C286.904 208.312 287.392 208.152 287.792 207.832C288.208 207.512 288.592 206.968 288.944 206.2L289.496 204.976L283.856 192.376H285.632L290.384 203.104L295.136 192.376H296.816ZM310.159 199.216H299.599C299.695 200.528 300.199 201.592 301.111 202.408C302.023 203.208 303.175 203.608 304.567 203.608C305.351 203.608 306.071 203.472 306.727 203.2C307.383 202.912 307.951 202.496 308.431 201.952L309.391 203.056C308.831 203.728 308.127 204.24 307.279 204.592C306.447 204.944 305.527 205.12 304.519 205.12C303.223 205.12 302.071 204.848 301.063 204.304C300.071 203.744 299.295 202.976 298.735 202C298.175 201.024 297.895 199.92 297.895 198.688C297.895 197.456 298.159 196.352 298.687 195.376C299.231 194.4 299.967 193.64 300.895 193.096C301.839 192.552 302.895 192.28 304.063 192.28C305.231 192.28 306.279 192.552 307.207 193.096C308.135 193.64 308.863 194.4 309.391 195.376C309.919 196.336 310.183 197.44 310.183 198.688L310.159 199.216ZM304.063 193.744C302.847 193.744 301.823 194.136 300.991 194.92C300.175 195.688 299.711 196.696 299.599 197.944H308.551C308.439 196.696 307.967 195.688 307.135 194.92C306.319 194.136 305.295 193.744 304.063 193.744ZM328.067 192.376V205H326.507V195.016L321.395 203.464H320.627L315.515 194.992V205H313.955V192.376H315.683L321.035 201.472L326.483 192.376H328.067ZM101.483 221.28C102.667 221.28 103.739 221.552 104.699 222.096C105.659 222.624 106.411 223.376 106.955 224.352C107.499 225.328 107.771 226.44 107.771 227.688C107.771 228.952 107.499 230.072 106.955 231.048C106.411 232.024 105.659 232.784 104.699 233.328C103.755 233.856 102.683 234.12 101.483 234.12C100.459 234.12 99.5307 233.912 98.6987 233.496C97.8827 233.064 97.2107 232.44 96.6827 231.624V238.656H94.9787V221.376H96.6107V223.872C97.1227 223.04 97.7947 222.4 98.6267 221.952C99.4747 221.504 100.427 221.28 101.483 221.28ZM101.363 232.608C102.243 232.608 103.043 232.408 103.763 232.008C104.483 231.592 105.043 231.008 105.443 230.256C105.859 229.504 106.067 228.648 106.067 227.688C106.067 226.728 105.859 225.88 105.443 225.144C105.043 224.392 104.483 223.808 103.763 223.392C103.043 222.976 102.243 222.768 101.363 222.768C100.467 222.768 99.6587 222.976 98.9387 223.392C98.2347 223.808 97.6747 224.392 97.2587 225.144C96.8587 225.88 96.6587 226.728 96.6587 227.688C96.6587 228.648 96.8587 229.504 97.2587 230.256C97.6747 231.008 98.2347 231.592 98.9387 232.008C99.6587 232.408 100.467 232.608 101.363 232.608ZM122.472 228.216H111.912C112.008 229.528 112.512 230.592 113.424 231.408C114.336 232.208 115.488 232.608 116.88 232.608C117.664 232.608 118.384 232.472 119.04 232.2C119.696 231.912 120.264 231.496 120.744 230.952L121.704 232.056C121.144 232.728 120.44 233.24 119.592 233.592C118.76 233.944 117.84 234.12 116.832 234.12C115.536 234.12 114.384 233.848 113.376 233.304C112.384 232.744 111.608 231.976 111.048 231C110.488 230.024 110.208 228.92 110.208 227.688C110.208 226.456 110.472 225.352 111 224.376C111.544 223.4 112.28 222.64 113.208 222.096C114.152 221.552 115.208 221.28 116.376 221.28C117.544 221.28 118.592 221.552 119.52 222.096C120.448 222.64 121.176 223.4 121.704 224.376C122.232 225.336 122.496 226.44 122.496 227.688L122.472 228.216ZM116.376 222.744C115.16 222.744 114.136 223.136 113.304 223.92C112.488 224.688 112.024 225.696 111.912 226.944H120.864C120.752 225.696 120.28 224.688 119.448 223.92C118.632 223.136 117.608 222.744 116.376 222.744ZM130.26 221.28C131.908 221.28 133.172 221.696 134.052 222.528C134.932 223.344 135.372 224.56 135.372 226.176V234H133.74V232.032C133.356 232.688 132.788 233.2 132.036 233.568C131.3 233.936 130.42 234.12 129.396 234.12C127.988 234.12 126.868 233.784 126.036 233.112C125.204 232.44 124.788 231.552 124.788 230.448C124.788 229.376 125.172 228.512 125.94 227.856C126.724 227.2 127.964 226.872 129.66 226.872H133.668V226.104C133.668 225.016 133.364 224.192 132.756 223.632C132.148 223.056 131.26 222.768 130.092 222.768C129.292 222.768 128.524 222.904 127.788 223.176C127.052 223.432 126.42 223.792 125.892 224.256L125.124 222.984C125.764 222.44 126.532 222.024 127.428 221.736C128.324 221.432 129.268 221.28 130.26 221.28ZM129.66 232.776C130.62 232.776 131.444 232.56 132.132 232.128C132.82 231.68 133.332 231.04 133.668 230.208V228.144H129.708C127.548 228.144 126.468 228.896 126.468 230.4C126.468 231.136 126.748 231.72 127.308 232.152C127.868 232.568 128.652 232.776 129.66 232.776ZM150.228 221.376V234H148.524V222.888H142.476L142.308 226.008C142.18 228.632 141.876 230.648 141.396 232.056C140.916 233.464 140.06 234.168 138.828 234.168C138.492 234.168 138.084 234.104 137.604 233.976L137.724 232.512C138.012 232.576 138.212 232.608 138.324 232.608C138.98 232.608 139.476 232.304 139.812 231.696C140.148 231.088 140.372 230.336 140.484 229.44C140.596 228.544 140.692 227.36 140.772 225.888L140.988 221.376H150.228ZM155.072 221.376H156.776V231.408L165.2 221.376H166.712V234H165.008V223.968L156.608 234H155.072V221.376ZM177.482 227.424C178.378 227.632 179.066 227.992 179.546 228.504C180.042 229.016 180.29 229.64 180.29 230.376C180.29 231.112 180.034 231.768 179.522 232.344C179.026 232.92 178.346 233.368 177.482 233.688C176.618 233.992 175.666 234.144 174.626 234.144C173.714 234.144 172.818 234.016 171.938 233.76C171.058 233.488 170.29 233.096 169.634 232.584L170.21 231.312C170.786 231.744 171.458 232.08 172.226 232.32C172.994 232.56 173.77 232.68 174.554 232.68C175.722 232.68 176.674 232.464 177.41 232.032C178.162 231.584 178.538 230.984 178.538 230.232C178.538 229.56 178.234 229.04 177.626 228.672C177.018 228.288 176.186 228.096 175.13 228.096H172.97V226.848H175.034C175.978 226.848 176.738 226.672 177.314 226.32C177.89 225.952 178.178 225.464 178.178 224.856C178.178 224.184 177.85 223.656 177.194 223.272C176.554 222.888 175.714 222.696 174.674 222.696C173.314 222.696 171.97 223.04 170.642 223.728L170.162 222.408C171.666 221.624 173.226 221.232 174.842 221.232C175.802 221.232 176.666 221.376 177.434 221.664C178.218 221.936 178.826 222.328 179.258 222.84C179.706 223.352 179.93 223.944 179.93 224.616C179.93 225.256 179.706 225.824 179.258 226.32C178.826 226.816 178.234 227.184 177.482 227.424ZM188.502 221.28C190.15 221.28 191.414 221.696 192.294 222.528C193.174 223.344 193.614 224.56 193.614 226.176V234H191.982V232.032C191.598 232.688 191.03 233.2 190.278 233.568C189.542 233.936 188.662 234.12 187.638 234.12C186.23 234.12 185.11 233.784 184.278 233.112C183.446 232.44 183.03 231.552 183.03 230.448C183.03 229.376 183.414 228.512 184.182 227.856C184.966 227.2 186.206 226.872 187.902 226.872H191.91V226.104C191.91 225.016 191.606 224.192 190.998 223.632C190.39 223.056 189.502 222.768 188.334 222.768C187.534 222.768 186.766 222.904 186.03 223.176C185.294 223.432 184.662 223.792 184.134 224.256L183.366 222.984C184.006 222.44 184.774 222.024 185.67 221.736C186.566 221.432 187.51 221.28 188.502 221.28ZM187.902 232.776C188.862 232.776 189.686 232.56 190.374 232.128C191.062 231.68 191.574 231.04 191.91 230.208V228.144H187.95C185.79 228.144 184.71 228.896 184.71 230.4C184.71 231.136 184.99 231.72 185.55 232.152C186.11 232.568 186.894 232.776 187.902 232.776ZM211.303 232.512V237.168H209.695V234H198.151V221.376H199.855V232.512H207.559V221.376H209.263V232.512H211.303ZM214.557 221.376H216.261V231.408L224.685 221.376H226.197V234H224.493V223.968L216.093 234H214.557V221.376ZM241.928 221.28C243.112 221.28 244.176 221.552 245.12 222.096C246.08 222.64 246.832 223.4 247.376 224.376C247.92 225.352 248.192 226.456 248.192 227.688C248.192 228.92 247.92 230.024 247.376 231C246.832 231.976 246.08 232.744 245.12 233.304C244.176 233.848 243.112 234.12 241.928 234.12C240.808 234.12 239.792 233.88 238.88 233.4C237.968 232.904 237.224 232.224 236.648 231.36C236.088 230.496 235.76 229.504 235.664 228.384H232.784V234H231.08V221.376H232.784V226.824H235.688C235.816 225.736 236.16 224.776 236.72 223.944C237.296 223.096 238.032 222.44 238.928 221.976C239.824 221.512 240.824 221.28 241.928 221.28ZM241.928 232.632C242.792 232.632 243.568 232.424 244.256 232.008C244.96 231.592 245.512 231.008 245.912 230.256C246.312 229.504 246.512 228.648 246.512 227.688C246.512 226.728 246.312 225.872 245.912 225.12C245.512 224.368 244.96 223.792 244.256 223.392C243.568 222.976 242.792 222.768 241.928 222.768C241.064 222.768 240.28 222.976 239.576 223.392C238.888 223.792 238.344 224.368 237.944 225.12C237.544 225.872 237.344 226.728 237.344 227.688C237.344 228.648 237.544 229.504 237.944 230.256C238.344 231.008 238.888 231.592 239.576 232.008C240.28 232.424 241.064 232.632 241.928 232.632ZM269.455 221.376V234H267.751V222.888H259.831V234H258.127V221.376H269.455ZM280.803 221.28C281.987 221.28 283.059 221.552 284.019 222.096C284.979 222.624 285.731 223.376 286.275 224.352C286.819 225.328 287.091 226.44 287.091 227.688C287.091 228.952 286.819 230.072 286.275 231.048C285.731 232.024 284.979 232.784 284.019 233.328C283.075 233.856 282.003 234.12 280.803 234.12C279.779 234.12 278.851 233.912 278.019 233.496C277.203 233.064 276.531 232.44 276.003 231.624V238.656H274.299V221.376H275.931V223.872C276.443 223.04 277.115 222.4 277.947 221.952C278.795 221.504 279.747 221.28 280.803 221.28ZM280.683 232.608C281.563 232.608 282.363 232.408 283.083 232.008C283.803 231.592 284.363 231.008 284.763 230.256C285.179 229.504 285.387 228.648 285.387 227.688C285.387 226.728 285.179 225.88 284.763 225.144C284.363 224.392 283.803 223.808 283.083 223.392C282.363 222.976 281.563 222.768 280.683 222.768C279.787 222.768 278.979 222.976 278.259 223.392C277.555 223.808 276.995 224.392 276.579 225.144C276.179 225.88 275.979 226.728 275.979 227.688C275.979 228.648 276.179 229.504 276.579 230.256C276.995 231.008 277.555 231.592 278.259 232.008C278.979 232.408 279.787 232.608 280.683 232.608ZM295.96 234.12C294.744 234.12 293.648 233.848 292.672 233.304C291.696 232.744 290.928 231.976 290.368 231C289.808 230.024 289.528 228.92 289.528 227.688C289.528 226.456 289.808 225.352 290.368 224.376C290.928 223.4 291.696 222.64 292.672 222.096C293.648 221.552 294.744 221.28 295.96 221.28C297.176 221.28 298.272 221.552 299.248 222.096C300.224 222.64 300.984 223.4 301.528 224.376C302.088 225.352 302.368 226.456 302.368 227.688C302.368 228.92 302.088 230.024 301.528 231C300.984 231.976 300.224 232.744 299.248 233.304C298.272 233.848 297.176 234.12 295.96 234.12ZM295.96 232.608C296.856 232.608 297.656 232.408 298.36 232.008C299.08 231.592 299.64 231.008 300.04 230.256C300.44 229.504 300.64 228.648 300.64 227.688C300.64 226.728 300.44 225.872 300.04 225.12C299.64 224.368 299.08 223.792 298.36 223.392C297.656 222.976 296.856 222.768 295.96 222.768C295.064 222.768 294.256 222.976 293.536 223.392C292.832 223.792 292.272 224.368 291.856 225.12C291.456 225.872 291.256 226.728 291.256 227.688C291.256 228.648 291.456 229.504 291.856 230.256C292.272 231.008 292.832 231.592 293.536 232.008C294.256 232.408 295.064 232.608 295.96 232.608ZM317.05 228.216H306.49C306.586 229.528 307.09 230.592 308.002 231.408C308.914 232.208 310.066 232.608 311.458 232.608C312.242 232.608 312.962 232.472 313.618 232.2C314.274 231.912 314.842 231.496 315.322 230.952L316.282 232.056C315.722 232.728 315.018 233.24 314.17 233.592C313.338 233.944 312.418 234.12 311.41 234.12C310.114 234.12 308.962 233.848 307.954 233.304C306.962 232.744 306.186 231.976 305.626 231C305.066 230.024 304.786 228.92 304.786 227.688C304.786 226.456 305.05 225.352 305.578 224.376C306.122 223.4 306.858 222.64 307.786 222.096C308.73 221.552 309.786 221.28 310.954 221.28C312.122 221.28 313.17 221.552 314.098 222.096C315.026 222.64 315.754 223.4 316.282 224.376C316.81 225.336 317.074 226.44 317.074 227.688L317.05 228.216ZM310.954 222.744C309.738 222.744 308.714 223.136 307.882 223.92C307.066 224.688 306.602 225.696 306.49 226.944H315.442C315.33 225.696 314.858 224.688 314.026 223.92C313.21 223.136 312.186 222.744 310.954 222.744ZM325.43 228.384H322.55V234H320.846V221.376H322.55V226.92H325.454L329.894 221.376H331.742L326.774 227.496L332.102 234H330.086L325.43 228.384ZM343.413 222.888H338.637V234H336.933V222.888H332.157V221.376H343.413V222.888ZM350.221 221.28C351.869 221.28 353.133 221.696 354.013 222.528C354.893 223.344 355.333 224.56 355.333 226.176V234H353.701V232.032C353.317 232.688 352.749 233.2 351.997 233.568C351.261 233.936 350.381 234.12 349.357 234.12C347.949 234.12 346.829 233.784 345.997 233.112C345.165 232.44 344.749 231.552 344.749 230.448C344.749 229.376 345.133 228.512 345.901 227.856C346.685 227.2 347.925 226.872 349.621 226.872H353.629V226.104C353.629 225.016 353.325 224.192 352.717 223.632C352.109 223.056 351.221 222.768 350.053 222.768C349.253 222.768 348.485 222.904 347.749 223.176C347.013 223.432 346.381 223.792 345.853 224.256L345.085 222.984C345.725 222.44 346.493 222.024 347.389 221.736C348.285 221.432 349.229 221.28 350.221 221.28ZM349.621 232.776C350.581 232.776 351.405 232.56 352.093 232.128C352.781 231.68 353.293 231.04 353.629 230.208V228.144H349.669C347.509 228.144 346.429 228.896 346.429 230.4C346.429 231.136 346.709 231.72 347.269 232.152C347.829 232.568 348.613 232.776 349.621 232.776ZM96.1271 250.376H97.8311V260.408L106.255 250.376H107.767V263H106.063V252.968L97.6631 263H96.1271V250.376ZM126.763 250.376V263H125.203V253.016L120.091 261.464H119.323L114.211 252.992V263H112.651V250.376H114.379L119.731 259.472L125.179 250.376H126.763ZM142.652 257.216H132.092C132.188 258.528 132.692 259.592 133.604 260.408C134.516 261.208 135.668 261.608 137.06 261.608C137.844 261.608 138.564 261.472 139.22 261.2C139.876 260.912 140.444 260.496 140.924 259.952L141.884 261.056C141.324 261.728 140.62 262.24 139.772 262.592C138.94 262.944 138.02 263.12 137.012 263.12C135.716 263.12 134.564 262.848 133.556 262.304C132.564 261.744 131.788 260.976 131.228 260C130.668 259.024 130.388 257.92 130.388 256.688C130.388 255.456 130.652 254.352 131.18 253.376C131.724 252.4 132.46 251.64 133.388 251.096C134.332 250.552 135.388 250.28 136.556 250.28C137.724 250.28 138.772 250.552 139.7 251.096C140.628 251.64 141.356 252.4 141.884 253.376C142.412 254.336 142.676 255.44 142.676 256.688L142.652 257.216ZM136.556 251.744C135.34 251.744 134.316 252.136 133.484 252.92C132.668 253.688 132.204 254.696 132.092 255.944H141.044C140.932 254.696 140.46 253.688 139.628 252.92C138.812 252.136 137.788 251.744 136.556 251.744ZM157.487 257.216H146.927C147.023 258.528 147.527 259.592 148.439 260.408C149.351 261.208 150.503 261.608 151.895 261.608C152.679 261.608 153.399 261.472 154.055 261.2C154.711 260.912 155.279 260.496 155.759 259.952L156.719 261.056C156.159 261.728 155.455 262.24 154.607 262.592C153.775 262.944 152.855 263.12 151.847 263.12C150.551 263.12 149.399 262.848 148.391 262.304C147.399 261.744 146.623 260.976 146.063 260C145.503 259.024 145.223 257.92 145.223 256.688C145.223 255.456 145.487 254.352 146.015 253.376C146.559 252.4 147.295 251.64 148.223 251.096C149.167 250.552 150.223 250.28 151.391 250.28C152.559 250.28 153.607 250.552 154.535 251.096C155.463 251.64 156.191 252.4 156.719 253.376C157.247 254.336 157.511 255.44 157.511 256.688L157.487 257.216ZM151.391 251.744C150.175 251.744 149.151 252.136 148.319 252.92C147.503 253.688 147.039 254.696 146.927 255.944H155.879C155.767 254.696 155.295 253.688 154.463 252.92C153.647 252.136 152.623 251.744 151.391 251.744ZM161.283 250.376H162.987V255.968H170.931V250.376H172.635V263H170.931V257.432H162.987V263H161.283V250.376ZM182.687 263.12C181.471 263.12 180.375 262.848 179.399 262.304C178.423 261.744 177.655 260.976 177.095 260C176.535 259.024 176.255 257.92 176.255 256.688C176.255 255.456 176.535 254.352 177.095 253.376C177.655 252.4 178.423 251.64 179.399 251.096C180.375 250.552 181.471 250.28 182.687 250.28C183.903 250.28 184.999 250.552 185.975 251.096C186.951 251.64 187.711 252.4 188.255 253.376C188.815 254.352 189.095 255.456 189.095 256.688C189.095 257.92 188.815 259.024 188.255 260C187.711 260.976 186.951 261.744 185.975 262.304C184.999 262.848 183.903 263.12 182.687 263.12ZM182.687 261.608C183.583 261.608 184.383 261.408 185.087 261.008C185.807 260.592 186.367 260.008 186.767 259.256C187.167 258.504 187.367 257.648 187.367 256.688C187.367 255.728 187.167 254.872 186.767 254.12C186.367 253.368 185.807 252.792 185.087 252.392C184.383 251.976 183.583 251.768 182.687 251.768C181.791 251.768 180.983 251.976 180.263 252.392C179.559 252.792 178.999 253.368 178.583 254.12C178.183 254.872 177.983 255.728 177.983 256.688C177.983 257.648 178.183 258.504 178.583 259.256C178.999 260.008 179.559 260.592 180.263 261.008C180.983 261.408 181.791 261.608 182.687 261.608ZM207.058 256.472C208.77 256.872 209.626 257.904 209.626 259.568C209.626 260.672 209.218 261.52 208.402 262.112C207.586 262.704 206.37 263 204.754 263H199.018V250.376H204.586C206.026 250.376 207.154 250.656 207.97 251.216C208.786 251.776 209.194 252.576 209.194 253.616C209.194 254.304 209.002 254.896 208.618 255.392C208.25 255.872 207.73 256.232 207.058 256.472ZM200.674 255.992H204.466C205.442 255.992 206.186 255.808 206.698 255.44C207.226 255.072 207.49 254.536 207.49 253.832C207.49 253.128 207.226 252.6 206.698 252.248C206.186 251.896 205.442 251.72 204.466 251.72H200.674V255.992ZM204.682 261.656C205.77 261.656 206.586 261.48 207.13 261.128C207.674 260.776 207.946 260.224 207.946 259.472C207.946 258.72 207.698 258.168 207.202 257.816C206.706 257.448 205.922 257.264 204.85 257.264H200.674V261.656H204.682ZM228.781 251.888H224.005V263H222.301V251.888H217.525V250.376H228.781V251.888ZM235.866 263.12C234.65 263.12 233.554 262.848 232.578 262.304C231.602 261.744 230.834 260.976 230.274 260C229.714 259.024 229.434 257.92 229.434 256.688C229.434 255.456 229.714 254.352 230.274 253.376C230.834 252.4 231.602 251.64 232.578 251.096C233.554 250.552 234.65 250.28 235.866 250.28C237.082 250.28 238.178 250.552 239.154 251.096C240.13 251.64 240.89 252.4 241.434 253.376C241.994 254.352 242.274 255.456 242.274 256.688C242.274 257.92 241.994 259.024 241.434 260C240.89 260.976 240.13 261.744 239.154 262.304C238.178 262.848 237.082 263.12 235.866 263.12ZM235.866 261.608C236.762 261.608 237.562 261.408 238.266 261.008C238.986 260.592 239.546 260.008 239.946 259.256C240.346 258.504 240.546 257.648 240.546 256.688C240.546 255.728 240.346 254.872 239.946 254.12C239.546 253.368 238.986 252.792 238.266 252.392C237.562 251.976 236.762 251.768 235.866 251.768C234.97 251.768 234.162 251.976 233.442 252.392C232.738 252.792 232.178 253.368 231.762 254.12C231.362 254.872 231.162 255.728 231.162 256.688C231.162 257.648 231.362 258.504 231.762 259.256C232.178 260.008 232.738 260.592 233.442 261.008C234.162 261.408 234.97 261.608 235.866 261.608ZM260.028 250.376V263H258.468V253.016L253.356 261.464H252.588L247.476 252.992V263H245.916V250.376H247.644L252.996 259.472L258.444 250.376H260.028ZM279.198 256.472C280.91 256.872 281.766 257.904 281.766 259.568C281.766 260.672 281.358 261.52 280.542 262.112C279.726 262.704 278.51 263 276.894 263H271.158V250.376H276.726C278.166 250.376 279.294 250.656 280.11 251.216C280.926 251.776 281.334 252.576 281.334 253.616C281.334 254.304 281.142 254.896 280.758 255.392C280.39 255.872 279.87 256.232 279.198 256.472ZM272.814 255.992H276.606C277.582 255.992 278.326 255.808 278.838 255.44C279.366 255.072 279.63 254.536 279.63 253.832C279.63 253.128 279.366 252.6 278.838 252.248C278.326 251.896 277.582 251.72 276.606 251.72H272.814V255.992ZM276.822 261.656C277.91 261.656 278.726 261.48 279.27 261.128C279.814 260.776 280.086 260.224 280.086 259.472C280.086 258.72 279.838 258.168 279.342 257.816C278.846 257.448 278.062 257.264 276.99 257.264H272.814V261.656H276.822ZM285.76 250.376H287.464V260.408L295.888 250.376H297.4V263H295.696V252.968L287.296 263H285.76V250.376ZM314.595 261.512V266.048H312.987V263H301.683V266.048H300.075V261.512H300.795C301.643 261.464 302.219 260.84 302.523 259.64C302.827 258.44 303.035 256.76 303.147 254.6L303.315 250.376H312.627V261.512H314.595ZM304.707 254.696C304.627 256.488 304.475 257.968 304.251 259.136C304.027 260.288 303.627 261.08 303.051 261.512H310.923V251.888H304.851L304.707 254.696ZM328.956 257.216H318.396C318.492 258.528 318.996 259.592 319.908 260.408C320.82 261.208 321.972 261.608 323.364 261.608C324.148 261.608 324.868 261.472 325.524 261.2C326.18 260.912 326.748 260.496 327.228 259.952L328.188 261.056C327.628 261.728 326.924 262.24 326.076 262.592C325.244 262.944 324.324 263.12 323.316 263.12C322.02 263.12 320.868 262.848 319.86 262.304C318.868 261.744 318.092 260.976 317.532 260C316.972 259.024 316.692 257.92 316.692 256.688C316.692 255.456 316.956 254.352 317.484 253.376C318.028 252.4 318.764 251.64 319.692 251.096C320.636 250.552 321.692 250.28 322.86 250.28C324.028 250.28 325.076 250.552 326.004 251.096C326.932 251.64 327.66 252.4 328.188 253.376C328.716 254.336 328.98 255.44 328.98 256.688L328.956 257.216ZM322.86 251.744C321.644 251.744 320.62 252.136 319.788 252.92C318.972 253.688 318.508 254.696 318.396 255.944H327.348C327.236 254.696 326.764 253.688 325.932 252.92C325.116 252.136 324.092 251.744 322.86 251.744ZM332.896 260.504C333.264 260.504 333.568 260.632 333.808 260.888C334.048 261.128 334.168 261.432 334.168 261.8C334.168 261.992 334.136 262.2 334.072 262.424C334.024 262.648 333.944 262.904 333.832 263.192L332.824 266.504H331.672L332.488 263.024C332.232 262.944 332.024 262.8 331.864 262.592C331.704 262.368 331.624 262.104 331.624 261.8C331.624 261.432 331.744 261.128 331.984 260.888C332.224 260.632 332.528 260.504 332.896 260.504ZM352.159 256.472C353.871 256.872 354.727 257.904 354.727 259.568C354.727 260.672 354.319 261.52 353.503 262.112C352.687 262.704 351.471 263 349.855 263H344.119V250.376H349.687C351.127 250.376 352.255 250.656 353.071 251.216C353.887 251.776 354.295 252.576 354.295 253.616C354.295 254.304 354.103 254.896 353.719 255.392C353.351 255.872 352.831 256.232 352.159 256.472ZM345.775 255.992H349.567C350.543 255.992 351.287 255.808 351.799 255.44C352.327 255.072 352.591 254.536 352.591 253.832C352.591 253.128 352.327 252.6 351.799 252.248C351.287 251.896 350.543 251.72 349.567 251.72H345.775V255.992ZM349.783 261.656C350.871 261.656 351.687 261.48 352.231 261.128C352.775 260.776 353.047 260.224 353.047 259.472C353.047 258.72 352.799 258.168 352.303 257.816C351.807 257.448 351.023 257.264 349.951 257.264H345.775V261.656H349.783ZM132.598 287.384H129.718V293H128.014V280.376H129.718V285.92H132.622L137.062 280.376H138.91L133.942 286.496L139.27 293H137.254L132.598 287.384ZM146.722 293.12C145.506 293.12 144.41 292.848 143.434 292.304C142.458 291.744 141.69 290.976 141.13 290C140.57 289.024 140.29 287.92 140.29 286.688C140.29 285.456 140.57 284.352 141.13 283.376C141.69 282.4 142.458 281.64 143.434 281.096C144.41 280.552 145.506 280.28 146.722 280.28C147.938 280.28 149.034 280.552 150.01 281.096C150.986 281.64 151.746 282.4 152.29 283.376C152.85 284.352 153.13 285.456 153.13 286.688C153.13 287.92 152.85 289.024 152.29 290C151.746 290.976 150.986 291.744 150.01 292.304C149.034 292.848 147.938 293.12 146.722 293.12ZM146.722 291.608C147.618 291.608 148.418 291.408 149.122 291.008C149.842 290.592 150.402 290.008 150.802 289.256C151.202 288.504 151.402 287.648 151.402 286.688C151.402 285.728 151.202 284.872 150.802 284.12C150.402 283.368 149.842 282.792 149.122 282.392C148.418 281.976 147.618 281.768 146.722 281.768C145.826 281.768 145.018 281.976 144.298 282.392C143.594 282.792 143.034 283.368 142.618 284.12C142.218 284.872 142.018 285.728 142.018 286.688C142.018 287.648 142.218 288.504 142.618 289.256C143.034 290.008 143.594 290.592 144.298 291.008C145.018 291.408 145.826 291.608 146.722 291.608ZM165.183 281.888H160.407V293H158.703V281.888H153.927V280.376H165.183V281.888ZM172.269 293.12C171.053 293.12 169.957 292.848 168.981 292.304C168.005 291.744 167.237 290.976 166.677 290C166.117 289.024 165.837 287.92 165.837 286.688C165.837 285.456 166.117 284.352 166.677 283.376C167.237 282.4 168.005 281.64 168.981 281.096C169.957 280.552 171.053 280.28 172.269 280.28C173.485 280.28 174.581 280.552 175.557 281.096C176.533 281.64 177.293 282.4 177.837 283.376C178.397 284.352 178.677 285.456 178.677 286.688C178.677 287.92 178.397 289.024 177.837 290C177.293 290.976 176.533 291.744 175.557 292.304C174.581 292.848 173.485 293.12 172.269 293.12ZM172.269 291.608C173.165 291.608 173.965 291.408 174.669 291.008C175.389 290.592 175.949 290.008 176.349 289.256C176.749 288.504 176.949 287.648 176.949 286.688C176.949 285.728 176.749 284.872 176.349 284.12C175.949 283.368 175.389 282.792 174.669 282.392C173.965 281.976 173.165 281.768 172.269 281.768C171.373 281.768 170.565 281.976 169.845 282.392C169.141 282.792 168.581 283.368 168.165 284.12C167.765 284.872 167.565 285.728 167.565 286.688C167.565 287.648 167.765 288.504 168.165 289.256C168.581 290.008 169.141 290.592 169.845 291.008C170.565 291.408 171.373 291.608 172.269 291.608ZM188.823 280.28C190.007 280.28 191.079 280.552 192.039 281.096C192.999 281.624 193.751 282.376 194.295 283.352C194.839 284.328 195.111 285.44 195.111 286.688C195.111 287.952 194.839 289.072 194.295 290.048C193.751 291.024 192.999 291.784 192.039 292.328C191.095 292.856 190.023 293.12 188.823 293.12C187.799 293.12 186.871 292.912 186.039 292.496C185.223 292.064 184.551 291.44 184.023 290.624V297.656H182.319V280.376H183.951V282.872C184.463 282.04 185.135 281.4 185.967 280.952C186.815 280.504 187.767 280.28 188.823 280.28ZM188.703 291.608C189.583 291.608 190.383 291.408 191.103 291.008C191.823 290.592 192.383 290.008 192.783 289.256C193.199 288.504 193.407 287.648 193.407 286.688C193.407 285.728 193.199 284.88 192.783 284.144C192.383 283.392 191.823 282.808 191.103 282.392C190.383 281.976 189.583 281.768 188.703 281.768C187.807 281.768 186.999 281.976 186.279 282.392C185.575 282.808 185.015 283.392 184.599 284.144C184.199 284.88 183.999 285.728 183.999 286.688C183.999 287.648 184.199 288.504 184.599 289.256C185.015 290.008 185.575 290.592 186.279 291.008C186.999 291.408 187.807 291.608 188.703 291.608ZM203.98 293.12C202.764 293.12 201.668 292.848 200.692 292.304C199.716 291.744 198.948 290.976 198.388 290C197.828 289.024 197.548 287.92 197.548 286.688C197.548 285.456 197.828 284.352 198.388 283.376C198.948 282.4 199.716 281.64 200.692 281.096C201.668 280.552 202.764 280.28 203.98 280.28C205.196 280.28 206.292 280.552 207.268 281.096C208.244 281.64 209.004 282.4 209.548 283.376C210.108 284.352 210.388 285.456 210.388 286.688C210.388 287.92 210.108 289.024 209.548 290C209.004 290.976 208.244 291.744 207.268 292.304C206.292 292.848 205.196 293.12 203.98 293.12ZM203.98 291.608C204.876 291.608 205.676 291.408 206.38 291.008C207.1 290.592 207.66 290.008 208.06 289.256C208.46 288.504 208.66 287.648 208.66 286.688C208.66 285.728 208.46 284.872 208.06 284.12C207.66 283.368 207.1 282.792 206.38 282.392C205.676 281.976 204.876 281.768 203.98 281.768C203.084 281.768 202.276 281.976 201.556 282.392C200.852 282.792 200.292 283.368 199.876 284.12C199.476 284.872 199.276 285.728 199.276 286.688C199.276 287.648 199.476 288.504 199.876 289.256C200.292 290.008 200.852 290.592 201.556 291.008C202.276 291.408 203.084 291.608 203.98 291.608ZM228.141 280.376V293H226.581V283.016L221.469 291.464H220.701L215.589 282.992V293H214.029V280.376H215.757L221.109 289.472L226.557 280.376H228.141ZM244.48 293.12C243.264 293.12 242.168 292.848 241.192 292.304C240.216 291.744 239.448 290.976 238.888 290C238.328 289.024 238.048 287.92 238.048 286.688C238.048 285.456 238.328 284.352 238.888 283.376C239.448 282.4 240.216 281.64 241.192 281.096C242.168 280.552 243.264 280.28 244.48 280.28C245.696 280.28 246.792 280.552 247.768 281.096C248.744 281.64 249.504 282.4 250.048 283.376C250.608 284.352 250.888 285.456 250.888 286.688C250.888 287.92 250.608 289.024 250.048 290C249.504 290.976 248.744 291.744 247.768 292.304C246.792 292.848 245.696 293.12 244.48 293.12ZM244.48 291.608C245.376 291.608 246.176 291.408 246.88 291.008C247.6 290.592 248.16 290.008 248.56 289.256C248.96 288.504 249.16 287.648 249.16 286.688C249.16 285.728 248.96 284.872 248.56 284.12C248.16 283.368 247.6 282.792 246.88 282.392C246.176 281.976 245.376 281.768 244.48 281.768C243.584 281.768 242.776 281.976 242.056 282.392C241.352 282.792 240.792 283.368 240.376 284.12C239.976 284.872 239.776 285.728 239.776 286.688C239.776 287.648 239.976 288.504 240.376 289.256C240.792 290.008 241.352 290.592 242.056 291.008C242.776 291.408 243.584 291.608 244.48 291.608ZM254.529 280.376H256.233V285.968H264.177V280.376H265.881V293H264.177V287.432H256.233V293H254.529V280.376ZM283.126 280.688C284.294 280.688 285.334 280.952 286.246 281.48C287.174 281.992 287.894 282.72 288.406 283.664C288.918 284.592 289.174 285.656 289.174 286.856C289.174 288.088 288.902 289.184 288.358 290.144C287.83 291.088 287.086 291.824 286.126 292.352C285.166 292.88 284.062 293.144 282.814 293.144C280.718 293.144 279.094 292.408 277.942 290.936C276.79 289.464 276.214 287.432 276.214 284.84C276.214 282.136 276.726 280.064 277.75 278.624C278.79 277.184 280.406 276.208 282.598 275.696L288.262 274.4L288.55 275.96L283.222 277.184C281.414 277.584 280.086 278.296 279.238 279.32C278.39 280.328 277.926 281.824 277.846 283.808C278.358 282.832 279.07 282.072 279.982 281.528C280.894 280.968 281.942 280.688 283.126 280.688ZM282.862 291.728C283.742 291.728 284.526 291.528 285.214 291.128C285.918 290.712 286.462 290.136 286.846 289.4C287.246 288.664 287.446 287.832 287.446 286.904C287.446 285.976 287.254 285.16 286.87 284.456C286.486 283.752 285.942 283.208 285.238 282.824C284.55 282.424 283.758 282.224 282.862 282.224C281.966 282.224 281.166 282.424 280.462 282.824C279.774 283.208 279.23 283.752 278.83 284.456C278.446 285.16 278.254 285.976 278.254 286.904C278.254 287.832 278.446 288.664 278.83 289.4C279.23 290.136 279.782 290.712 280.486 291.128C281.19 291.528 281.982 291.728 282.862 291.728ZM298.13 284.84C299.714 284.856 300.922 285.208 301.754 285.896C302.586 286.584 303.002 287.576 303.002 288.872C303.002 290.216 302.554 291.248 301.658 291.968C300.762 292.688 299.482 293.04 297.818 293.024L292.826 293V280.376H294.53V284.792L298.13 284.84ZM305.114 280.376H306.818V293H305.114V280.376ZM297.722 291.728C298.89 291.744 299.77 291.512 300.362 291.032C300.97 290.536 301.274 289.816 301.274 288.872C301.274 287.944 300.978 287.256 300.386 286.808C299.794 286.36 298.906 286.128 297.722 286.112L294.53 286.064V291.68L297.722 291.728ZM321.99 280.376V293H320.286V281.888H314.238L314.07 285.008C313.942 287.632 313.638 289.648 313.158 291.056C312.678 292.464 311.822 293.168 310.59 293.168C310.254 293.168 309.846 293.104 309.366 292.976L309.486 291.512C309.774 291.576 309.974 291.608 310.086 291.608C310.742 291.608 311.238 291.304 311.574 290.696C311.91 290.088 312.134 289.336 312.246 288.44C312.358 287.544 312.454 286.36 312.534 284.888L312.75 280.376H321.99ZM133.013 322.12C131.765 322.12 130.645 321.848 129.653 321.304C128.677 320.76 127.909 320 127.349 319.024C126.789 318.032 126.509 316.92 126.509 315.688C126.509 314.456 126.789 313.352 127.349 312.376C127.909 311.4 128.677 310.64 129.653 310.096C130.645 309.552 131.765 309.28 133.013 309.28C134.101 309.28 135.069 309.496 135.917 309.928C136.781 310.344 137.461 310.96 137.957 311.776L136.685 312.64C136.269 312.016 135.741 311.552 135.101 311.248C134.461 310.928 133.765 310.768 133.013 310.768C132.101 310.768 131.277 310.976 130.541 311.392C129.821 311.792 129.253 312.368 128.837 313.12C128.437 313.872 128.237 314.728 128.237 315.688C128.237 316.664 128.437 317.528 128.837 318.28C129.253 319.016 129.821 319.592 130.541 320.008C131.277 320.408 132.101 320.608 133.013 320.608C133.765 320.608 134.461 320.456 135.101 320.152C135.741 319.848 136.269 319.384 136.685 318.76L137.957 319.624C137.461 320.44 136.781 321.064 135.917 321.496C135.053 321.912 134.085 322.12 133.013 322.12ZM152.584 309.376V322H150.88V310.888H142.96V322H141.256V309.376H152.584ZM163.932 309.28C165.116 309.28 166.188 309.552 167.148 310.096C168.108 310.624 168.86 311.376 169.404 312.352C169.948 313.328 170.22 314.44 170.22 315.688C170.22 316.952 169.948 318.072 169.404 319.048C168.86 320.024 168.108 320.784 167.148 321.328C166.204 321.856 165.132 322.12 163.932 322.12C162.908 322.12 161.98 321.912 161.148 321.496C160.332 321.064 159.66 320.44 159.132 319.624V326.656H157.428V309.376H159.06V311.872C159.572 311.04 160.244 310.4 161.076 309.952C161.924 309.504 162.876 309.28 163.932 309.28ZM163.812 320.608C164.692 320.608 165.492 320.408 166.212 320.008C166.932 319.592 167.492 319.008 167.892 318.256C168.308 317.504 168.516 316.648 168.516 315.688C168.516 314.728 168.308 313.88 167.892 313.144C167.492 312.392 166.932 311.808 166.212 311.392C165.492 310.976 164.692 310.768 163.812 310.768C162.916 310.768 162.108 310.976 161.388 311.392C160.684 311.808 160.124 312.392 159.708 313.144C159.308 313.88 159.108 314.728 159.108 315.688C159.108 316.648 159.308 317.504 159.708 318.256C160.124 319.008 160.684 319.592 161.388 320.008C162.108 320.408 162.916 320.608 163.812 320.608ZM179.089 322.12C177.873 322.12 176.777 321.848 175.801 321.304C174.825 320.744 174.057 319.976 173.497 319C172.937 318.024 172.657 316.92 172.657 315.688C172.657 314.456 172.937 313.352 173.497 312.376C174.057 311.4 174.825 310.64 175.801 310.096C176.777 309.552 177.873 309.28 179.089 309.28C180.305 309.28 181.401 309.552 182.377 310.096C183.353 310.64 184.113 311.4 184.657 312.376C185.217 313.352 185.497 314.456 185.497 315.688C185.497 316.92 185.217 318.024 184.657 319C184.113 319.976 183.353 320.744 182.377 321.304C181.401 321.848 180.305 322.12 179.089 322.12ZM179.089 320.608C179.985 320.608 180.785 320.408 181.489 320.008C182.209 319.592 182.769 319.008 183.169 318.256C183.569 317.504 183.769 316.648 183.769 315.688C183.769 314.728 183.569 313.872 183.169 313.12C182.769 312.368 182.209 311.792 181.489 311.392C180.785 310.976 179.985 310.768 179.089 310.768C178.193 310.768 177.385 310.976 176.665 311.392C175.961 311.792 175.401 312.368 174.985 313.12C174.585 313.872 174.385 314.728 174.385 315.688C174.385 316.648 174.585 317.504 174.985 318.256C175.401 319.008 175.961 319.592 176.665 320.008C177.385 320.408 178.193 320.608 179.089 320.608ZM200.179 316.216H189.619C189.715 317.528 190.219 318.592 191.131 319.408C192.043 320.208 193.195 320.608 194.587 320.608C195.371 320.608 196.091 320.472 196.747 320.2C197.403 319.912 197.971 319.496 198.451 318.952L199.411 320.056C198.851 320.728 198.147 321.24 197.299 321.592C196.467 321.944 195.547 322.12 194.539 322.12C193.243 322.12 192.091 321.848 191.083 321.304C190.091 320.744 189.315 319.976 188.755 319C188.195 318.024 187.915 316.92 187.915 315.688C187.915 314.456 188.179 313.352 188.707 312.376C189.251 311.4 189.987 310.64 190.915 310.096C191.859 309.552 192.915 309.28 194.083 309.28C195.251 309.28 196.299 309.552 197.227 310.096C198.155 310.64 198.883 311.4 199.411 312.376C199.939 313.336 200.203 314.44 200.203 315.688L200.179 316.216ZM194.083 310.744C192.867 310.744 191.843 311.136 191.011 311.92C190.195 312.688 189.731 313.696 189.619 314.944H198.571C198.459 313.696 197.987 312.688 197.155 311.92C196.339 311.136 195.315 310.744 194.083 310.744ZM208.559 316.384H205.679V322H203.975V309.376H205.679V314.92H208.583L213.023 309.376H214.871L209.903 315.496L215.231 322H213.215L208.559 316.384ZM226.542 310.888H221.766V322H220.062V310.888H215.286V309.376H226.542V310.888ZM229.006 309.376H230.71V319.408L239.134 309.376H240.646V322H238.942V311.968L230.542 322H229.006V309.376ZM252.033 309.28C253.217 309.28 254.289 309.552 255.249 310.096C256.209 310.624 256.961 311.376 257.505 312.352C258.049 313.328 258.321 314.44 258.321 315.688C258.321 316.952 258.049 318.072 257.505 319.048C256.961 320.024 256.209 320.784 255.249 321.328C254.305 321.856 253.233 322.12 252.033 322.12C251.009 322.12 250.081 321.912 249.249 321.496C248.433 321.064 247.761 320.44 247.233 319.624V326.656H245.529V309.376H247.161V311.872C247.673 311.04 248.345 310.4 249.177 309.952C250.025 309.504 250.977 309.28 252.033 309.28ZM251.913 320.608C252.793 320.608 253.593 320.408 254.313 320.008C255.033 319.592 255.593 319.008 255.993 318.256C256.409 317.504 256.617 316.648 256.617 315.688C256.617 314.728 256.409 313.88 255.993 313.144C255.593 312.392 255.033 311.808 254.313 311.392C253.593 310.976 252.793 310.768 251.913 310.768C251.017 310.768 250.209 310.976 249.489 311.392C248.785 311.808 248.225 312.392 247.809 313.144C247.409 313.88 247.209 314.728 247.209 315.688C247.209 316.648 247.409 317.504 247.809 318.256C248.225 319.008 248.785 319.592 249.489 320.008C250.209 320.408 251.017 320.608 251.913 320.608ZM267.191 322.12C265.975 322.12 264.879 321.848 263.903 321.304C262.927 320.744 262.159 319.976 261.599 319C261.039 318.024 260.759 316.92 260.759 315.688C260.759 314.456 261.039 313.352 261.599 312.376C262.159 311.4 262.927 310.64 263.903 310.096C264.879 309.552 265.975 309.28 267.191 309.28C268.407 309.28 269.503 309.552 270.479 310.096C271.455 310.64 272.215 311.4 272.759 312.376C273.319 313.352 273.599 314.456 273.599 315.688C273.599 316.92 273.319 318.024 272.759 319C272.215 319.976 271.455 320.744 270.479 321.304C269.503 321.848 268.407 322.12 267.191 322.12ZM267.191 320.608C268.087 320.608 268.887 320.408 269.591 320.008C270.311 319.592 270.871 319.008 271.271 318.256C271.671 317.504 271.871 316.648 271.871 315.688C271.871 314.728 271.671 313.872 271.271 313.12C270.871 312.368 270.311 311.792 269.591 311.392C268.887 310.976 268.087 310.768 267.191 310.768C266.295 310.768 265.487 310.976 264.767 311.392C264.063 311.792 263.503 312.368 263.087 313.12C262.687 313.872 262.487 314.728 262.487 315.688C262.487 316.648 262.687 317.504 263.087 318.256C263.503 319.008 264.063 319.592 264.767 320.008C265.487 320.408 266.295 320.608 267.191 320.608ZM285.28 315.472C286.992 315.872 287.848 316.904 287.848 318.568C287.848 319.672 287.44 320.52 286.624 321.112C285.808 321.704 284.592 322 282.976 322H277.24V309.376H282.808C284.248 309.376 285.376 309.656 286.192 310.216C287.008 310.776 287.416 311.576 287.416 312.616C287.416 313.304 287.224 313.896 286.84 314.392C286.472 314.872 285.952 315.232 285.28 315.472ZM278.896 314.992H282.688C283.664 314.992 284.408 314.808 284.92 314.44C285.448 314.072 285.712 313.536 285.712 312.832C285.712 312.128 285.448 311.6 284.92 311.248C284.408 310.896 283.664 310.72 282.688 310.72H278.896V314.992ZM282.904 320.656C283.992 320.656 284.808 320.48 285.352 320.128C285.896 319.776 286.168 319.224 286.168 318.472C286.168 317.72 285.92 317.168 285.424 316.816C284.928 316.448 284.144 316.264 283.072 316.264H278.896V320.656H282.904ZM296.186 309.28C297.834 309.28 299.098 309.696 299.978 310.528C300.858 311.344 301.298 312.56 301.298 314.176V322H299.666V320.032C299.282 320.688 298.714 321.2 297.962 321.568C297.226 321.936 296.346 322.12 295.322 322.12C293.914 322.12 292.794 321.784 291.962 321.112C291.13 320.44 290.714 319.552 290.714 318.448C290.714 317.376 291.098 316.512 291.866 315.856C292.65 315.2 293.89 314.872 295.586 314.872H299.594V314.104C299.594 313.016 299.29 312.192 298.682 311.632C298.074 311.056 297.186 310.768 296.018 310.768C295.218 310.768 294.45 310.904 293.714 311.176C292.978 311.432 292.346 311.792 291.818 312.256L291.05 310.984C291.69 310.44 292.458 310.024 293.354 309.736C294.25 309.432 295.194 309.28 296.186 309.28ZM295.586 320.776C296.546 320.776 297.37 320.56 298.058 320.128C298.746 319.68 299.258 319.04 299.594 318.208V316.144H295.634C293.474 316.144 292.394 316.896 292.394 318.4C292.394 319.136 292.674 319.72 293.234 320.152C293.794 320.568 294.578 320.776 295.586 320.776ZM305.834 309.376H307.538V314.968H315.482V309.376H317.186V322H315.482V316.432H307.538V322H305.834V309.376ZM322.149 322.12C321.797 322.12 321.493 321.992 321.237 321.736C320.997 321.48 320.877 321.168 320.877 320.8C320.877 320.432 320.997 320.128 321.237 319.888C321.493 319.632 321.797 319.504 322.149 319.504C322.501 319.504 322.805 319.632 323.061 319.888C323.317 320.128 323.445 320.432 323.445 320.8C323.445 321.168 323.317 321.48 323.061 321.736C322.805 321.992 322.501 322.12 322.149 322.12Z" fill="black"/>
</svg>
