<svg width="450" height="450" viewBox="0 0 450 450" fill="none" xmlns="http://www.w3.org/2000/svg">
<rect width="450" height="450" fill="white"/>
<path d="M152.175 108.336C153.343 108.576 154.231 109.048 154.839 109.752C155.447 110.44 155.751 111.344 155.751 112.464C155.751 113.92 155.231 115.04 154.191 115.824C153.167 116.608 151.655 117 149.655 117H142.215V100.2H149.199C150.991 100.2 152.391 100.568 153.399 101.304C154.407 102.04 154.911 103.104 154.911 104.496C154.911 105.44 154.671 106.24 154.191 106.896C153.711 107.536 153.039 108.016 152.175 108.336ZM143.967 107.808H149.103C150.399 107.808 151.391 107.544 152.079 107.016C152.783 106.488 153.135 105.72 153.135 104.712C153.135 103.704 152.783 102.936 152.079 102.408C151.391 101.88 150.399 101.616 149.103 101.616H143.967V107.808ZM149.655 115.584C152.551 115.584 153.999 114.504 153.999 112.344C153.999 110.232 152.551 109.176 149.655 109.176H143.967V115.584H149.655ZM165.087 108.84C166.671 108.856 167.879 109.208 168.711 109.896C169.543 110.584 169.959 111.576 169.959 112.872C169.959 114.216 169.511 115.248 168.615 115.968C167.719 116.688 166.439 117.04 164.775 117.024L159.783 117V104.376H161.487V108.792L165.087 108.84ZM172.071 104.376H173.775V117H172.071V104.376ZM164.679 115.728C165.847 115.744 166.727 115.512 167.319 115.032C167.927 114.536 168.231 113.816 168.231 112.872C168.231 111.944 167.935 111.256 167.343 110.808C166.751 110.36 165.863 110.128 164.679 110.112L161.487 110.064V115.68L164.679 115.728ZM196.236 104.376V117H194.532V105.888H186.612V117H184.908V104.376H196.236ZM206.288 117.12C205.072 117.12 203.976 116.848 203 116.304C202.024 115.744 201.256 114.976 200.696 114C200.136 113.024 199.856 111.92 199.856 110.688C199.856 109.456 200.136 108.352 200.696 107.376C201.256 106.4 202.024 105.64 203 105.096C203.976 104.552 205.072 104.28 206.288 104.28C207.504 104.28 208.6 104.552 209.576 105.096C210.552 105.64 211.312 106.4 211.856 107.376C212.416 108.352 212.696 109.456 212.696 110.688C212.696 111.92 212.416 113.024 211.856 114C211.312 114.976 210.552 115.744 209.576 116.304C208.6 116.848 207.504 117.12 206.288 117.12ZM206.288 115.608C207.184 115.608 207.984 115.408 208.688 115.008C209.408 114.592 209.968 114.008 210.368 113.256C210.768 112.504 210.968 111.648 210.968 110.688C210.968 109.728 210.768 108.872 210.368 108.12C209.968 107.368 209.408 106.792 208.688 106.392C207.984 105.976 207.184 105.768 206.288 105.768C205.392 105.768 204.584 105.976 203.864 106.392C203.16 106.792 202.6 107.368 202.184 108.12C201.784 108.872 201.584 109.728 201.584 110.688C201.584 111.648 201.784 112.504 202.184 113.256C202.6 114.008 203.16 114.592 203.864 115.008C204.584 115.408 205.392 115.608 206.288 115.608ZM226.588 104.376V117H224.884V105.888H218.836L218.668 109.008C218.54 111.632 218.236 113.648 217.756 115.056C217.276 116.464 216.42 117.168 215.188 117.168C214.852 117.168 214.444 117.104 213.964 116.976L214.084 115.512C214.372 115.576 214.572 115.608 214.684 115.608C215.34 115.608 215.836 115.304 216.172 114.696C216.508 114.088 216.732 113.336 216.844 112.44C216.956 111.544 217.052 110.36 217.132 108.888L217.348 104.376H226.588ZM242.16 104.376L235.848 118.512C235.336 119.696 234.744 120.536 234.072 121.032C233.4 121.528 232.592 121.776 231.648 121.776C231.04 121.776 230.472 121.68 229.944 121.488C229.416 121.296 228.96 121.008 228.576 120.624L229.368 119.352C230.008 119.992 230.776 120.312 231.672 120.312C232.248 120.312 232.736 120.152 233.136 119.832C233.552 119.512 233.936 118.968 234.288 118.2L234.84 116.976L229.2 104.376H230.976L235.728 115.104L240.48 104.376H242.16ZM254.343 104.376V117H252.639V111.744C251.183 112.384 249.751 112.704 248.343 112.704C246.823 112.704 245.639 112.36 244.791 111.672C243.943 110.968 243.519 109.92 243.519 108.528V104.376H245.223V108.432C245.223 109.376 245.527 110.096 246.135 110.592C246.743 111.072 247.583 111.312 248.655 111.312C249.839 111.312 251.167 111 252.639 110.376V104.376H254.343ZM263.526 104.28C265.174 104.28 266.438 104.696 267.318 105.528C268.198 106.344 268.638 107.56 268.638 109.176V117H267.006V115.032C266.622 115.688 266.054 116.2 265.302 116.568C264.566 116.936 263.686 117.12 262.662 117.12C261.254 117.12 260.134 116.784 259.302 116.112C258.47 115.44 258.054 114.552 258.054 113.448C258.054 112.376 258.438 111.512 259.206 110.856C259.99 110.2 261.23 109.872 262.926 109.872H266.934V109.104C266.934 108.016 266.63 107.192 266.022 106.632C265.414 106.056 264.526 105.768 263.358 105.768C262.558 105.768 261.79 105.904 261.054 106.176C260.318 106.432 259.686 106.792 259.158 107.256L258.39 105.984C259.03 105.44 259.798 105.024 260.694 104.736C261.59 104.432 262.534 104.28 263.526 104.28ZM262.926 115.776C263.886 115.776 264.71 115.56 265.398 115.128C266.086 114.68 266.598 114.04 266.934 113.208V111.144H262.974C260.814 111.144 259.734 111.896 259.734 113.4C259.734 114.136 260.014 114.72 260.574 115.152C261.134 115.568 261.918 115.776 262.926 115.776ZM284.214 111.216H273.654C273.75 112.528 274.254 113.592 275.166 114.408C276.078 115.208 277.23 115.608 278.622 115.608C279.406 115.608 280.126 115.472 280.782 115.2C281.438 114.912 282.006 114.496 282.486 113.952L283.446 115.056C282.886 115.728 282.182 116.24 281.334 116.592C280.502 116.944 279.582 117.12 278.574 117.12C277.278 117.12 276.126 116.848 275.118 116.304C274.126 115.744 273.35 114.976 272.79 114C272.23 113.024 271.95 111.92 271.95 110.688C271.95 109.456 272.214 108.352 272.742 107.376C273.286 106.4 274.022 105.64 274.95 105.096C275.894 104.552 276.95 104.28 278.118 104.28C279.286 104.28 280.334 104.552 281.262 105.096C282.19 105.64 282.918 106.4 283.446 107.376C283.974 108.336 284.238 109.44 284.238 110.688L284.214 111.216ZM278.118 105.744C276.902 105.744 275.878 106.136 275.046 106.92C274.23 107.688 273.766 108.696 273.654 109.944H282.606C282.494 108.696 282.022 107.688 281.19 106.92C280.374 106.136 279.35 105.744 278.118 105.744ZM296.327 105.888H291.551V117H289.847V105.888H285.071V104.376H296.327V105.888ZM309.245 111.216H298.685C298.781 112.528 299.285 113.592 300.197 114.408C301.109 115.208 302.261 115.608 303.653 115.608C304.437 115.608 305.157 115.472 305.813 115.2C306.469 114.912 307.037 114.496 307.517 113.952L308.477 115.056C307.917 115.728 307.213 116.24 306.365 116.592C305.533 116.944 304.613 117.12 303.605 117.12C302.309 117.12 301.157 116.848 300.149 116.304C299.157 115.744 298.381 114.976 297.821 114C297.261 113.024 296.981 111.92 296.981 110.688C296.981 109.456 297.245 108.352 297.773 107.376C298.317 106.4 299.053 105.64 299.981 105.096C300.925 104.552 301.981 104.28 303.149 104.28C304.317 104.28 305.365 104.552 306.293 105.096C307.221 105.64 307.949 106.4 308.477 107.376C309.005 108.336 309.269 109.44 309.269 110.688L309.245 111.216ZM303.149 105.744C301.933 105.744 300.909 106.136 300.077 106.92C299.261 107.688 298.797 108.696 298.685 109.944H307.637C307.525 108.696 307.053 107.688 306.221 106.92C305.405 106.136 304.381 105.744 303.149 105.744ZM96.1057 140.384H93.2257V146H91.5217V133.376H93.2257V138.92H96.1297L100.57 133.376H102.418L97.4497 139.496L102.778 146H100.762L96.1057 140.384ZM110.23 146.12C109.014 146.12 107.918 145.848 106.942 145.304C105.966 144.744 105.198 143.976 104.638 143C104.078 142.024 103.798 140.92 103.798 139.688C103.798 138.456 104.078 137.352 104.638 136.376C105.198 135.4 105.966 134.64 106.942 134.096C107.918 133.552 109.014 133.28 110.23 133.28C111.446 133.28 112.542 133.552 113.518 134.096C114.494 134.64 115.254 135.4 115.798 136.376C116.358 137.352 116.638 138.456 116.638 139.688C116.638 140.92 116.358 142.024 115.798 143C115.254 143.976 114.494 144.744 113.518 145.304C112.542 145.848 111.446 146.12 110.23 146.12ZM110.23 144.608C111.126 144.608 111.926 144.408 112.63 144.008C113.35 143.592 113.91 143.008 114.31 142.256C114.71 141.504 114.91 140.648 114.91 139.688C114.91 138.728 114.71 137.872 114.31 137.12C113.91 136.368 113.35 135.792 112.63 135.392C111.926 134.976 111.126 134.768 110.23 134.768C109.334 134.768 108.526 134.976 107.806 135.392C107.102 135.792 106.542 136.368 106.126 137.12C105.726 137.872 105.526 138.728 105.526 139.688C105.526 140.648 105.726 141.504 106.126 142.256C106.542 143.008 107.102 143.592 107.806 144.008C108.526 144.408 109.334 144.608 110.23 144.608ZM134.391 133.376V146H132.831V136.016L127.719 144.464H126.951L121.839 135.992V146H120.279V133.376H122.007L127.359 142.472L132.807 133.376H134.391ZM150.568 133.376V146H148.864V134.888H140.944V146H139.24V133.376H150.568ZM165.732 133.376V146H164.028V134.888H157.98L157.812 138.008C157.684 140.632 157.38 142.648 156.9 144.056C156.42 145.464 155.564 146.168 154.332 146.168C153.996 146.168 153.588 146.104 153.108 145.976L153.228 144.512C153.516 144.576 153.716 144.608 153.828 144.608C154.484 144.608 154.98 144.304 155.316 143.696C155.652 143.088 155.876 142.336 155.988 141.44C156.1 140.544 156.196 139.36 156.276 137.888L156.492 133.376H165.732ZM181.616 140.216H171.056C171.152 141.528 171.656 142.592 172.568 143.408C173.48 144.208 174.632 144.608 176.024 144.608C176.808 144.608 177.528 144.472 178.184 144.2C178.84 143.912 179.408 143.496 179.888 142.952L180.848 144.056C180.288 144.728 179.584 145.24 178.736 145.592C177.904 145.944 176.984 146.12 175.976 146.12C174.68 146.12 173.528 145.848 172.52 145.304C171.528 144.744 170.752 143.976 170.192 143C169.632 142.024 169.352 140.92 169.352 139.688C169.352 138.456 169.616 137.352 170.144 136.376C170.688 135.4 171.424 134.64 172.352 134.096C173.296 133.552 174.352 133.28 175.52 133.28C176.688 133.28 177.736 133.552 178.664 134.096C179.592 134.64 180.32 135.4 180.848 136.376C181.376 137.336 181.64 138.44 181.64 139.688L181.616 140.216ZM175.52 134.744C174.304 134.744 173.28 135.136 172.448 135.92C171.632 136.688 171.168 137.696 171.056 138.944H180.008C179.896 137.696 179.424 136.688 178.592 135.92C177.776 135.136 176.752 134.744 175.52 134.744ZM189.996 140.384H187.116V146H185.412V133.376H187.116V138.92H190.02L194.46 133.376H196.308L191.34 139.496L196.668 146H194.652L189.996 140.384ZM204.192 146.12C202.944 146.12 201.824 145.848 200.832 145.304C199.856 144.76 199.088 144 198.528 143.024C197.968 142.032 197.688 140.92 197.688 139.688C197.688 138.456 197.968 137.352 198.528 136.376C199.088 135.4 199.856 134.64 200.832 134.096C201.824 133.552 202.944 133.28 204.192 133.28C205.28 133.28 206.248 133.496 207.096 133.928C207.96 134.344 208.64 134.96 209.136 135.776L207.864 136.64C207.448 136.016 206.92 135.552 206.28 135.248C205.64 134.928 204.944 134.768 204.192 134.768C203.28 134.768 202.456 134.976 201.72 135.392C201 135.792 200.432 136.368 200.016 137.12C199.616 137.872 199.416 138.728 199.416 139.688C199.416 140.664 199.616 141.528 200.016 142.28C200.432 143.016 201 143.592 201.72 144.008C202.456 144.408 203.28 144.608 204.192 144.608C204.944 144.608 205.64 144.456 206.28 144.152C206.92 143.848 207.448 143.384 207.864 142.76L209.136 143.624C208.64 144.44 207.96 145.064 207.096 145.496C206.232 145.912 205.264 146.12 204.192 146.12ZM212.436 133.376H214.14V138.968H222.084V133.376H223.788V146H222.084V140.432H214.14V146H212.436V133.376ZM233.935 137.84C235.519 137.856 236.727 138.208 237.559 138.896C238.391 139.584 238.807 140.576 238.807 141.872C238.807 143.216 238.359 144.248 237.463 144.968C236.567 145.688 235.287 146.04 233.623 146.024L228.631 146V133.376H230.335V137.792L233.935 137.84ZM240.919 133.376H242.623V146H240.919V133.376ZM233.527 144.728C234.695 144.744 235.575 144.512 236.167 144.032C236.775 143.536 237.079 142.816 237.079 141.872C237.079 140.944 236.783 140.256 236.191 139.808C235.599 139.36 234.711 139.128 233.527 139.112L230.335 139.064V144.68L233.527 144.728ZM247.475 133.376H249.179V143.408L257.603 133.376H259.115V146H257.411V135.968L249.011 146H247.475V133.376ZM253.211 131.552C252.123 131.552 251.259 131.28 250.619 130.736C249.979 130.192 249.651 129.424 249.635 128.432H250.859C250.875 129.056 251.099 129.56 251.531 129.944C251.963 130.312 252.523 130.496 253.211 130.496C253.899 130.496 254.459 130.312 254.891 129.944C255.339 129.56 255.571 129.056 255.587 128.432H256.811C256.795 129.424 256.459 130.192 255.803 130.736C255.163 131.28 254.299 131.552 253.211 131.552ZM276.783 133.28C277.967 133.28 279.039 133.552 279.999 134.096C280.959 134.624 281.711 135.376 282.255 136.352C282.799 137.328 283.071 138.44 283.071 139.688C283.071 140.952 282.799 142.072 282.255 143.048C281.711 144.024 280.959 144.784 279.999 145.328C279.055 145.856 277.983 146.12 276.783 146.12C275.759 146.12 274.831 145.912 273.999 145.496C273.183 145.064 272.511 144.44 271.983 143.624V150.656H270.279V133.376H271.911V135.872C272.423 135.04 273.095 134.4 273.927 133.952C274.775 133.504 275.727 133.28 276.783 133.28ZM276.663 144.608C277.543 144.608 278.343 144.408 279.063 144.008C279.783 143.592 280.343 143.008 280.743 142.256C281.159 141.504 281.367 140.648 281.367 139.688C281.367 138.728 281.159 137.88 280.743 137.144C280.343 136.392 279.783 135.808 279.063 135.392C278.343 134.976 277.543 134.768 276.663 134.768C275.767 134.768 274.959 134.976 274.239 135.392C273.535 135.808 272.975 136.392 272.559 137.144C272.159 137.88 271.959 138.728 271.959 139.688C271.959 140.648 272.159 141.504 272.559 142.256C272.975 143.008 273.535 143.592 274.239 144.008C274.959 144.408 275.767 144.608 276.663 144.608ZM297.773 140.216H287.213C287.309 141.528 287.813 142.592 288.725 143.408C289.637 144.208 290.789 144.608 292.181 144.608C292.965 144.608 293.685 144.472 294.341 144.2C294.997 143.912 295.565 143.496 296.045 142.952L297.005 144.056C296.445 144.728 295.741 145.24 294.893 145.592C294.061 145.944 293.141 146.12 292.133 146.12C290.837 146.12 289.685 145.848 288.677 145.304C287.685 144.744 286.909 143.976 286.349 143C285.789 142.024 285.509 140.92 285.509 139.688C285.509 138.456 285.773 137.352 286.301 136.376C286.845 135.4 287.581 134.64 288.509 134.096C289.453 133.552 290.509 133.28 291.677 133.28C292.845 133.28 293.893 133.552 294.821 134.096C295.749 134.64 296.477 135.4 297.005 136.376C297.533 137.336 297.797 138.44 297.797 139.688L297.773 140.216ZM291.677 134.744C290.461 134.744 289.437 135.136 288.605 135.92C287.789 136.688 287.325 137.696 287.213 138.944H296.165C296.053 137.696 295.581 136.688 294.749 135.92C293.933 135.136 292.909 134.744 291.677 134.744ZM315.681 133.376V146H314.121V136.016L309.009 144.464H308.241L303.129 135.992V146H301.569V133.376H303.297L308.649 142.472L314.097 133.376H315.681ZM325.737 146.12C324.521 146.12 323.425 145.848 322.449 145.304C321.473 144.744 320.705 143.976 320.145 143C319.585 142.024 319.305 140.92 319.305 139.688C319.305 138.456 319.585 137.352 320.145 136.376C320.705 135.4 321.473 134.64 322.449 134.096C323.425 133.552 324.521 133.28 325.737 133.28C326.953 133.28 328.049 133.552 329.025 134.096C330.001 134.64 330.761 135.4 331.305 136.376C331.865 137.352 332.145 138.456 332.145 139.688C332.145 140.92 331.865 142.024 331.305 143C330.761 143.976 330.001 144.744 329.025 145.304C328.049 145.848 326.953 146.12 325.737 146.12ZM325.737 144.608C326.633 144.608 327.433 144.408 328.137 144.008C328.857 143.592 329.417 143.008 329.817 142.256C330.217 141.504 330.417 140.648 330.417 139.688C330.417 138.728 330.217 137.872 329.817 137.12C329.417 136.368 328.857 135.792 328.137 135.392C327.433 134.976 326.633 134.768 325.737 134.768C324.841 134.768 324.033 134.976 323.313 135.392C322.609 135.792 322.049 136.368 321.633 137.12C321.233 137.872 321.033 138.728 321.033 139.688C321.033 140.648 321.233 141.504 321.633 142.256C322.049 143.008 322.609 143.592 323.313 144.008C324.033 144.408 324.841 144.608 325.737 144.608ZM335.787 133.376H337.491V138.968H345.435V133.376H347.139V146H345.435V140.432H337.491V146H335.787V133.376ZM360.863 134.888H356.087V146H354.383V134.888H349.607V133.376H360.863V134.888ZM85.3478 170.384H82.4678V176H80.7638V163.376H82.4678V168.92H85.3718L89.8118 163.376H91.6598L86.6918 169.496L92.0198 176H90.0038L85.3478 170.384ZM102.749 169.472C104.461 169.872 105.317 170.904 105.317 172.568C105.317 173.672 104.909 174.52 104.093 175.112C103.277 175.704 102.061 176 100.445 176H94.7092V163.376H100.277C101.717 163.376 102.845 163.656 103.661 164.216C104.477 164.776 104.885 165.576 104.885 166.616C104.885 167.304 104.693 167.896 104.309 168.392C103.941 168.872 103.421 169.232 102.749 169.472ZM96.3652 168.992H100.157C101.133 168.992 101.877 168.808 102.389 168.44C102.917 168.072 103.181 167.536 103.181 166.832C103.181 166.128 102.917 165.6 102.389 165.248C101.877 164.896 101.133 164.72 100.157 164.72H96.3652V168.992ZM100.373 174.656C101.461 174.656 102.277 174.48 102.821 174.128C103.365 173.776 103.637 173.224 103.637 172.472C103.637 171.72 103.389 171.168 102.893 170.816C102.397 170.448 101.613 170.264 100.541 170.264H96.3652V174.656H100.373ZM113.655 163.28C115.303 163.28 116.567 163.696 117.447 164.528C118.327 165.344 118.767 166.56 118.767 168.176V176H117.135V174.032C116.751 174.688 116.183 175.2 115.431 175.568C114.695 175.936 113.815 176.12 112.791 176.12C111.383 176.12 110.263 175.784 109.431 175.112C108.599 174.44 108.183 173.552 108.183 172.448C108.183 171.376 108.567 170.512 109.335 169.856C110.119 169.2 111.359 168.872 113.055 168.872H117.063V168.104C117.063 167.016 116.759 166.192 116.151 165.632C115.543 165.056 114.655 164.768 113.487 164.768C112.687 164.768 111.919 164.904 111.183 165.176C110.447 165.432 109.815 165.792 109.287 166.256L108.519 164.984C109.159 164.44 109.927 164.024 110.823 163.736C111.719 163.432 112.663 163.28 113.655 163.28ZM113.055 174.776C114.015 174.776 114.839 174.56 115.527 174.128C116.215 173.68 116.727 173.04 117.063 172.208V170.144H113.103C110.943 170.144 109.863 170.896 109.863 172.4C109.863 173.136 110.143 173.72 110.703 174.152C111.263 174.568 112.047 174.776 113.055 174.776ZM129.807 163.28C130.991 163.28 132.063 163.552 133.023 164.096C133.983 164.624 134.735 165.376 135.279 166.352C135.823 167.328 136.095 168.44 136.095 169.688C136.095 170.952 135.823 172.072 135.279 173.048C134.735 174.024 133.983 174.784 133.023 175.328C132.079 175.856 131.007 176.12 129.807 176.12C128.783 176.12 127.855 175.912 127.023 175.496C126.207 175.064 125.535 174.44 125.007 173.624V180.656H123.303V163.376H124.935V165.872C125.447 165.04 126.119 164.4 126.951 163.952C127.799 163.504 128.751 163.28 129.807 163.28ZM129.687 174.608C130.567 174.608 131.367 174.408 132.087 174.008C132.807 173.592 133.367 173.008 133.767 172.256C134.183 171.504 134.391 170.648 134.391 169.688C134.391 168.728 134.183 167.88 133.767 167.144C133.367 166.392 132.807 165.808 132.087 165.392C131.367 164.976 130.567 164.768 129.687 164.768C128.791 164.768 127.983 164.976 127.263 165.392C126.559 165.808 125.999 166.392 125.583 167.144C125.183 167.88 124.983 168.728 124.983 169.688C124.983 170.648 125.183 171.504 125.583 172.256C125.999 173.008 126.559 173.592 127.263 174.008C127.983 174.408 128.791 174.608 129.687 174.608ZM148.167 164.888H143.391V176H141.687V164.888H136.911V163.376H148.167V164.888ZM150.631 163.376H152.335V173.408L160.759 163.376H162.271V176H160.567V165.968L152.167 176H150.631V163.376ZM173.658 163.28C174.842 163.28 175.914 163.552 176.874 164.096C177.834 164.624 178.586 165.376 179.13 166.352C179.674 167.328 179.946 168.44 179.946 169.688C179.946 170.952 179.674 172.072 179.13 173.048C178.586 174.024 177.834 174.784 176.874 175.328C175.93 175.856 174.858 176.12 173.658 176.12C172.634 176.12 171.706 175.912 170.874 175.496C170.058 175.064 169.386 174.44 168.858 173.624V180.656H167.154V163.376H168.786V165.872C169.298 165.04 169.97 164.4 170.802 163.952C171.65 163.504 172.602 163.28 173.658 163.28ZM173.538 174.608C174.418 174.608 175.218 174.408 175.938 174.008C176.658 173.592 177.218 173.008 177.618 172.256C178.034 171.504 178.242 170.648 178.242 169.688C178.242 168.728 178.034 167.88 177.618 167.144C177.218 166.392 176.658 165.808 175.938 165.392C175.218 164.976 174.418 164.768 173.538 164.768C172.642 164.768 171.834 164.976 171.114 165.392C170.41 165.808 169.85 166.392 169.434 167.144C169.034 167.88 168.834 168.728 168.834 169.688C168.834 170.648 169.034 171.504 169.434 172.256C169.85 173.008 170.41 173.592 171.114 174.008C171.834 174.408 172.642 174.608 173.538 174.608ZM188.912 167.84C190.496 167.856 191.704 168.208 192.536 168.896C193.368 169.584 193.784 170.576 193.784 171.872C193.784 173.216 193.336 174.248 192.44 174.968C191.544 175.688 190.264 176.04 188.6 176.024L183.608 176V163.376H185.312V167.792L188.912 167.84ZM195.896 163.376H197.6V176H195.896V163.376ZM188.504 174.728C189.672 174.744 190.552 174.512 191.144 174.032C191.752 173.536 192.056 172.816 192.056 171.872C192.056 170.944 191.76 170.256 191.168 169.808C190.576 169.36 189.688 169.128 188.504 169.112L185.312 169.064V174.68L188.504 174.728ZM202.571 176.12C202.219 176.12 201.915 175.992 201.659 175.736C201.419 175.48 201.299 175.168 201.299 174.8C201.299 174.432 201.419 174.128 201.659 173.888C201.915 173.632 202.219 173.504 202.571 173.504C202.923 173.504 203.227 173.632 203.483 173.888C203.739 174.128 203.867 174.432 203.867 174.8C203.867 175.168 203.739 175.48 203.483 175.736C203.227 175.992 202.923 176.12 202.571 176.12ZM231.675 159.2V176H229.971V162.56L223.371 173.864H222.531L215.931 162.632V176H214.227V159.2H215.691L222.987 171.656L230.211 159.2H231.675ZM242.232 167.84C243.816 167.856 245.024 168.208 245.856 168.896C246.688 169.584 247.104 170.576 247.104 171.872C247.104 173.216 246.656 174.248 245.76 174.968C244.864 175.688 243.584 176.04 241.92 176.024L236.928 176V163.376H238.632V167.792L242.232 167.84ZM249.216 163.376H250.92V176H249.216V163.376ZM241.824 174.728C242.992 174.744 243.872 174.512 244.464 174.032C245.072 173.536 245.376 172.816 245.376 171.872C245.376 170.944 245.08 170.256 244.488 169.808C243.896 169.36 243.008 169.128 241.824 169.112L238.632 169.064V174.68L241.824 174.728ZM267.333 176.12C266.085 176.12 264.965 175.848 263.973 175.304C262.997 174.76 262.229 174 261.669 173.024C261.109 172.032 260.829 170.92 260.829 169.688C260.829 168.456 261.109 167.352 261.669 166.376C262.229 165.4 262.997 164.64 263.973 164.096C264.965 163.552 266.085 163.28 267.333 163.28C268.421 163.28 269.389 163.496 270.237 163.928C271.101 164.344 271.781 164.96 272.277 165.776L271.005 166.64C270.589 166.016 270.061 165.552 269.421 165.248C268.781 164.928 268.085 164.768 267.333 164.768C266.421 164.768 265.597 164.976 264.861 165.392C264.141 165.792 263.573 166.368 263.157 167.12C262.757 167.872 262.557 168.728 262.557 169.688C262.557 170.664 262.757 171.528 263.157 172.28C263.573 173.016 264.141 173.592 264.861 174.008C265.597 174.408 266.421 174.608 267.333 174.608C268.085 174.608 268.781 174.456 269.421 174.152C270.061 173.848 270.589 173.384 271.005 172.76L272.277 173.624C271.781 174.44 271.101 175.064 270.237 175.496C269.373 175.912 268.405 176.12 267.333 176.12ZM279.92 163.28C281.568 163.28 282.832 163.696 283.712 164.528C284.592 165.344 285.032 166.56 285.032 168.176V176H283.4V174.032C283.016 174.688 282.448 175.2 281.696 175.568C280.96 175.936 280.08 176.12 279.056 176.12C277.648 176.12 276.528 175.784 275.696 175.112C274.864 174.44 274.448 173.552 274.448 172.448C274.448 171.376 274.832 170.512 275.6 169.856C276.384 169.2 277.624 168.872 279.32 168.872H283.328V168.104C283.328 167.016 283.024 166.192 282.416 165.632C281.808 165.056 280.92 164.768 279.752 164.768C278.952 164.768 278.184 164.904 277.448 165.176C276.712 165.432 276.08 165.792 275.552 166.256L274.784 164.984C275.424 164.44 276.192 164.024 277.088 163.736C277.984 163.432 278.928 163.28 279.92 163.28ZM279.32 174.776C280.28 174.776 281.104 174.56 281.792 174.128C282.48 173.68 282.992 173.04 283.328 172.208V170.144H279.368C277.208 170.144 276.128 170.896 276.128 172.4C276.128 173.136 276.408 173.72 276.968 174.152C277.528 174.568 278.312 174.776 279.32 174.776ZM303.681 163.376V176H302.121V166.016L297.009 174.464H296.241L291.129 165.992V176H289.569V163.376H291.297L296.649 172.472L302.097 163.376H303.681ZM308.529 163.376H310.233V173.408L318.657 163.376H320.169V176H318.465V165.968L310.065 176H308.529V163.376ZM339.374 169.472C341.086 169.872 341.942 170.904 341.942 172.568C341.942 173.672 341.534 174.52 340.718 175.112C339.902 175.704 338.686 176 337.07 176H331.334V163.376H336.902C338.342 163.376 339.47 163.656 340.286 164.216C341.102 164.776 341.51 165.576 341.51 166.616C341.51 167.304 341.318 167.896 340.934 168.392C340.566 168.872 340.046 169.232 339.374 169.472ZM332.99 168.992H336.782C337.758 168.992 338.502 168.808 339.014 168.44C339.542 168.072 339.806 167.536 339.806 166.832C339.806 166.128 339.542 165.6 339.014 165.248C338.502 164.896 337.758 164.72 336.782 164.72H332.99V168.992ZM336.998 174.656C338.086 174.656 338.902 174.48 339.446 174.128C339.99 173.776 340.262 173.224 340.262 172.472C340.262 171.72 340.014 171.168 339.518 170.816C339.022 170.448 338.238 170.264 337.166 170.264H332.99V174.656H336.998ZM351.216 176.12C349.968 176.12 348.848 175.848 347.856 175.304C346.88 174.76 346.112 174 345.552 173.024C344.992 172.032 344.712 170.92 344.712 169.688C344.712 168.456 344.992 167.352 345.552 166.376C346.112 165.4 346.88 164.64 347.856 164.096C348.848 163.552 349.968 163.28 351.216 163.28C352.304 163.28 353.272 163.496 354.12 163.928C354.984 164.344 355.664 164.96 356.16 165.776L354.888 166.64C354.472 166.016 353.944 165.552 353.304 165.248C352.664 164.928 351.968 164.768 351.216 164.768C350.304 164.768 349.48 164.976 348.744 165.392C348.024 165.792 347.456 166.368 347.04 167.12C346.64 167.872 346.44 168.728 346.44 169.688C346.44 170.664 346.64 171.528 347.04 172.28C347.456 173.016 348.024 173.592 348.744 174.008C349.48 174.408 350.304 174.608 351.216 174.608C351.968 174.608 352.664 174.456 353.304 174.152C353.944 173.848 354.472 173.384 354.888 172.76L356.16 173.624C355.664 174.44 354.984 175.064 354.12 175.496C353.256 175.912 352.288 176.12 351.216 176.12ZM370.288 170.216H359.728C359.824 171.528 360.328 172.592 361.24 173.408C362.152 174.208 363.304 174.608 364.696 174.608C365.48 174.608 366.2 174.472 366.856 174.2C367.512 173.912 368.08 173.496 368.56 172.952L369.52 174.056C368.96 174.728 368.256 175.24 367.408 175.592C366.576 175.944 365.656 176.12 364.648 176.12C363.352 176.12 362.2 175.848 361.192 175.304C360.2 174.744 359.424 173.976 358.864 173C358.304 172.024 358.024 170.92 358.024 169.688C358.024 168.456 358.288 167.352 358.816 166.376C359.36 165.4 360.096 164.64 361.024 164.096C361.968 163.552 363.024 163.28 364.192 163.28C365.36 163.28 366.408 163.552 367.336 164.096C368.264 164.64 368.992 165.4 369.52 166.376C370.048 167.336 370.312 168.44 370.312 169.688L370.288 170.216ZM364.192 164.744C362.976 164.744 361.952 165.136 361.12 165.92C360.304 166.688 359.84 167.696 359.728 168.944H368.68C368.568 167.696 368.096 166.688 367.264 165.92C366.448 165.136 365.424 164.744 364.192 164.744ZM362.056 160.856C361.768 160.856 361.52 160.76 361.312 160.568C361.12 160.376 361.024 160.128 361.024 159.824C361.024 159.536 361.12 159.296 361.312 159.104C361.52 158.896 361.768 158.792 362.056 158.792C362.328 158.792 362.568 158.896 362.776 159.104C362.984 159.296 363.088 159.536 363.088 159.824C363.088 160.112 362.984 160.36 362.776 160.568C362.584 160.76 362.344 160.856 362.056 160.856ZM366.328 160.856C366.04 160.856 365.792 160.76 365.584 160.568C365.392 160.36 365.296 160.112 365.296 159.824C365.296 159.536 365.4 159.296 365.608 159.104C365.816 158.896 366.056 158.792 366.328 158.792C366.616 158.792 366.856 158.896 367.048 159.104C367.256 159.296 367.36 159.536 367.36 159.824C367.36 160.128 367.256 160.376 367.048 160.568C366.856 160.76 366.616 160.856 366.328 160.856ZM104.337 205.12C103.089 205.12 101.969 204.848 100.977 204.304C100.001 203.76 99.2328 203 98.6728 202.024C98.1128 201.032 97.8328 199.92 97.8328 198.688C97.8328 197.456 98.1128 196.352 98.6728 195.376C99.2328 194.4 100.001 193.64 100.977 193.096C101.969 192.552 103.089 192.28 104.337 192.28C105.425 192.28 106.393 192.496 107.241 192.928C108.105 193.344 108.785 193.96 109.281 194.776L108.009 195.64C107.593 195.016 107.065 194.552 106.425 194.248C105.785 193.928 105.089 193.768 104.337 193.768C103.425 193.768 102.601 193.976 101.865 194.392C101.145 194.792 100.577 195.368 100.161 196.12C99.7608 196.872 99.5608 197.728 99.5608 198.688C99.5608 199.664 99.7608 200.528 100.161 201.28C100.577 202.016 101.145 202.592 101.865 203.008C102.601 203.408 103.425 203.608 104.337 203.608C105.089 203.608 105.785 203.456 106.425 203.152C107.065 202.848 107.593 202.384 108.009 201.76L109.281 202.624C108.785 203.44 108.105 204.064 107.241 204.496C106.377 204.912 105.409 205.12 104.337 205.12ZM117.577 205.12C116.361 205.12 115.265 204.848 114.289 204.304C113.313 203.744 112.545 202.976 111.985 202C111.425 201.024 111.145 199.92 111.145 198.688C111.145 197.456 111.425 196.352 111.985 195.376C112.545 194.4 113.313 193.64 114.289 193.096C115.265 192.552 116.361 192.28 117.577 192.28C118.793 192.28 119.889 192.552 120.865 193.096C121.841 193.64 122.601 194.4 123.145 195.376C123.705 196.352 123.985 197.456 123.985 198.688C123.985 199.92 123.705 201.024 123.145 202C122.601 202.976 121.841 203.744 120.865 204.304C119.889 204.848 118.793 205.12 117.577 205.12ZM117.577 203.608C118.473 203.608 119.273 203.408 119.977 203.008C120.697 202.592 121.257 202.008 121.657 201.256C122.057 200.504 122.257 199.648 122.257 198.688C122.257 197.728 122.057 196.872 121.657 196.12C121.257 195.368 120.697 194.792 119.977 194.392C119.273 193.976 118.473 193.768 117.577 193.768C116.681 193.768 115.873 193.976 115.153 194.392C114.449 194.792 113.889 195.368 113.473 196.12C113.073 196.872 112.873 197.728 112.873 198.688C112.873 199.648 113.073 200.504 113.473 201.256C113.889 202.008 114.449 202.592 115.153 203.008C115.873 203.408 116.681 203.608 117.577 203.608ZM136.555 193.888H129.331V205H127.627V192.376H136.555V193.888ZM148.564 192.376V205H146.86V193.888H140.812L140.644 197.008C140.516 199.632 140.212 201.648 139.732 203.056C139.252 204.464 138.396 205.168 137.164 205.168C136.828 205.168 136.42 205.104 135.94 204.976L136.06 203.512C136.348 203.576 136.548 203.608 136.66 203.608C137.316 203.608 137.812 203.304 138.148 202.696C138.484 202.088 138.708 201.336 138.82 200.44C138.932 199.544 139.028 198.36 139.108 196.888L139.324 192.376H148.564ZM157.752 192.28C159.4 192.28 160.664 192.696 161.544 193.528C162.424 194.344 162.864 195.56 162.864 197.176V205H161.232V203.032C160.848 203.688 160.28 204.2 159.528 204.568C158.792 204.936 157.912 205.12 156.888 205.12C155.48 205.12 154.36 204.784 153.528 204.112C152.696 203.44 152.28 202.552 152.28 201.448C152.28 200.376 152.664 199.512 153.432 198.856C154.216 198.2 155.456 197.872 157.152 197.872H161.16V197.104C161.16 196.016 160.856 195.192 160.248 194.632C159.64 194.056 158.752 193.768 157.584 193.768C156.784 193.768 156.016 193.904 155.28 194.176C154.544 194.432 153.912 194.792 153.384 195.256L152.616 193.984C153.256 193.44 154.024 193.024 154.92 192.736C155.816 192.432 156.76 192.28 157.752 192.28ZM157.152 203.776C158.112 203.776 158.936 203.56 159.624 203.128C160.312 202.68 160.824 202.04 161.16 201.208V199.144H157.2C155.04 199.144 153.96 199.896 153.96 201.4C153.96 202.136 154.24 202.72 154.8 203.152C155.36 203.568 156.144 203.776 157.152 203.776ZM172.681 205.12C171.433 205.12 170.313 204.848 169.321 204.304C168.345 203.76 167.577 203 167.017 202.024C166.457 201.032 166.177 199.92 166.177 198.688C166.177 197.456 166.457 196.352 167.017 195.376C167.577 194.4 168.345 193.64 169.321 193.096C170.313 192.552 171.433 192.28 172.681 192.28C173.769 192.28 174.737 192.496 175.585 192.928C176.449 193.344 177.129 193.96 177.625 194.776L176.353 195.64C175.937 195.016 175.409 194.552 174.769 194.248C174.129 193.928 173.433 193.768 172.681 193.768C171.769 193.768 170.945 193.976 170.209 194.392C169.489 194.792 168.921 195.368 168.505 196.12C168.105 196.872 167.905 197.728 167.905 198.688C167.905 199.664 168.105 200.528 168.505 201.28C168.921 202.016 169.489 202.592 170.209 203.008C170.945 203.408 171.769 203.608 172.681 203.608C173.433 203.608 174.129 203.456 174.769 203.152C175.409 202.848 175.937 202.384 176.353 201.76L177.625 202.624C177.129 203.44 176.449 204.064 175.585 204.496C174.721 204.912 173.753 205.12 172.681 205.12ZM185.921 205.12C184.705 205.12 183.609 204.848 182.633 204.304C181.657 203.744 180.889 202.976 180.329 202C179.769 201.024 179.489 199.92 179.489 198.688C179.489 197.456 179.769 196.352 180.329 195.376C180.889 194.4 181.657 193.64 182.633 193.096C183.609 192.552 184.705 192.28 185.921 192.28C187.137 192.28 188.233 192.552 189.209 193.096C190.185 193.64 190.945 194.4 191.489 195.376C192.049 196.352 192.329 197.456 192.329 198.688C192.329 199.92 192.049 201.024 191.489 202C190.945 202.976 190.185 203.744 189.209 204.304C188.233 204.848 187.137 205.12 185.921 205.12ZM185.921 203.608C186.817 203.608 187.617 203.408 188.321 203.008C189.041 202.592 189.601 202.008 190.001 201.256C190.401 200.504 190.601 199.648 190.601 198.688C190.601 197.728 190.401 196.872 190.001 196.12C189.601 195.368 189.041 194.792 188.321 194.392C187.617 193.976 186.817 193.768 185.921 193.768C185.025 193.768 184.217 193.976 183.497 194.392C182.793 194.792 182.233 195.368 181.817 196.12C181.417 196.872 181.217 197.728 181.217 198.688C181.217 199.648 181.417 200.504 181.817 201.256C182.233 202.008 182.793 202.592 183.497 203.008C184.217 203.408 185.025 203.608 185.921 203.608ZM204.011 198.472C205.723 198.872 206.579 199.904 206.579 201.568C206.579 202.672 206.171 203.52 205.355 204.112C204.539 204.704 203.323 205 201.707 205H195.971V192.376H201.539C202.979 192.376 204.107 192.656 204.923 193.216C205.739 193.776 206.147 194.576 206.147 195.616C206.147 196.304 205.955 196.896 205.571 197.392C205.203 197.872 204.683 198.232 204.011 198.472ZM197.627 197.992H201.419C202.395 197.992 203.139 197.808 203.651 197.44C204.179 197.072 204.443 196.536 204.443 195.832C204.443 195.128 204.179 194.6 203.651 194.248C203.139 193.896 202.395 193.72 201.419 193.72H197.627V197.992ZM201.635 203.656C202.723 203.656 203.539 203.48 204.083 203.128C204.627 202.776 204.899 202.224 204.899 201.472C204.899 200.72 204.651 200.168 204.155 199.816C203.659 199.448 202.875 199.264 201.803 199.264H197.627V203.656H201.635ZM215.876 196.84C217.46 196.856 218.668 197.208 219.5 197.896C220.332 198.584 220.748 199.576 220.748 200.872C220.748 202.216 220.3 203.248 219.404 203.968C218.508 204.688 217.228 205.04 215.564 205.024L210.572 205V192.376H212.276V196.792L215.876 196.84ZM222.86 192.376H224.564V205H222.86V192.376ZM215.468 203.728C216.636 203.744 217.516 203.512 218.108 203.032C218.716 202.536 219.02 201.816 219.02 200.872C219.02 199.944 218.724 199.256 218.132 198.808C217.54 198.36 216.652 198.128 215.468 198.112L212.276 198.064V203.68L215.468 203.728ZM237.456 198.472C239.168 198.872 240.024 199.904 240.024 201.568C240.024 202.672 239.616 203.52 238.8 204.112C237.984 204.704 236.768 205 235.152 205H229.416V192.376H234.984C236.424 192.376 237.552 192.656 238.368 193.216C239.184 193.776 239.592 194.576 239.592 195.616C239.592 196.304 239.4 196.896 239.016 197.392C238.648 197.872 238.128 198.232 237.456 198.472ZM231.072 197.992H234.864C235.84 197.992 236.584 197.808 237.096 197.44C237.624 197.072 237.888 196.536 237.888 195.832C237.888 195.128 237.624 194.6 237.096 194.248C236.584 193.896 235.84 193.72 234.864 193.72H231.072V197.992ZM235.08 203.656C236.168 203.656 236.984 203.48 237.528 203.128C238.072 202.776 238.344 202.224 238.344 201.472C238.344 200.72 238.096 200.168 237.6 199.816C237.104 199.448 236.32 199.264 235.248 199.264H231.072V203.656H235.08ZM248.362 192.28C250.01 192.28 251.274 192.696 252.154 193.528C253.034 194.344 253.474 195.56 253.474 197.176V205H251.842V203.032C251.458 203.688 250.89 204.2 250.138 204.568C249.402 204.936 248.522 205.12 247.498 205.12C246.09 205.12 244.97 204.784 244.138 204.112C243.306 203.44 242.89 202.552 242.89 201.448C242.89 200.376 243.274 199.512 244.042 198.856C244.826 198.2 246.066 197.872 247.762 197.872H251.77V197.104C251.77 196.016 251.466 195.192 250.858 194.632C250.25 194.056 249.362 193.768 248.194 193.768C247.394 193.768 246.626 193.904 245.89 194.176C245.154 194.432 244.522 194.792 243.994 195.256L243.226 193.984C243.866 193.44 244.634 193.024 245.53 192.736C246.426 192.432 247.37 192.28 248.362 192.28ZM247.762 203.776C248.722 203.776 249.546 203.56 250.234 203.128C250.922 202.68 251.434 202.04 251.77 201.208V199.144H247.81C245.65 199.144 244.57 199.896 244.57 201.4C244.57 202.136 244.85 202.72 245.41 203.152C245.97 203.568 246.754 203.776 247.762 203.776ZM269.05 199.216H258.49C258.586 200.528 259.09 201.592 260.002 202.408C260.914 203.208 262.066 203.608 263.458 203.608C264.242 203.608 264.962 203.472 265.618 203.2C266.274 202.912 266.842 202.496 267.322 201.952L268.282 203.056C267.722 203.728 267.018 204.24 266.17 204.592C265.338 204.944 264.418 205.12 263.41 205.12C262.114 205.12 260.962 204.848 259.954 204.304C258.962 203.744 258.186 202.976 257.626 202C257.066 201.024 256.786 199.92 256.786 198.688C256.786 197.456 257.05 196.352 257.578 195.376C258.122 194.4 258.858 193.64 259.786 193.096C260.73 192.552 261.786 192.28 262.954 192.28C264.122 192.28 265.17 192.552 266.098 193.096C267.026 193.64 267.754 194.4 268.282 195.376C268.81 196.336 269.074 197.44 269.074 198.688L269.05 199.216ZM262.954 193.744C261.738 193.744 260.714 194.136 259.882 194.92C259.066 195.688 258.602 196.696 258.49 197.944H267.442C267.33 196.696 266.858 195.688 266.026 194.92C265.21 194.136 264.186 193.744 262.954 193.744ZM286.958 192.376V205H285.398V195.016L280.286 203.464H279.518L274.406 194.992V205H272.846V192.376H274.574L279.926 201.472L285.374 192.376H286.958ZM303.368 205.12C302.12 205.12 301 204.848 300.008 204.304C299.032 203.76 298.264 203 297.704 202.024C297.144 201.032 296.864 199.92 296.864 198.688C296.864 197.456 297.144 196.352 297.704 195.376C298.264 194.4 299.032 193.64 300.008 193.096C301 192.552 302.12 192.28 303.368 192.28C304.456 192.28 305.424 192.496 306.272 192.928C307.136 193.344 307.816 193.96 308.312 194.776L307.04 195.64C306.624 195.016 306.096 194.552 305.456 194.248C304.816 193.928 304.12 193.768 303.368 193.768C302.456 193.768 301.632 193.976 300.896 194.392C300.176 194.792 299.608 195.368 299.192 196.12C298.792 196.872 298.592 197.728 298.592 198.688C298.592 199.664 298.792 200.528 299.192 201.28C299.608 202.016 300.176 202.592 300.896 203.008C301.632 203.408 302.456 203.608 303.368 203.608C304.12 203.608 304.816 203.456 305.456 203.152C306.096 202.848 306.624 202.384 307.04 201.76L308.312 202.624C307.816 203.44 307.136 204.064 306.272 204.496C305.408 204.912 304.44 205.12 303.368 205.12ZM331.501 188.2L323.869 202.336C323.325 203.344 322.685 204.096 321.949 204.592C321.229 205.072 320.437 205.312 319.573 205.312C318.933 205.312 318.245 205.16 317.509 204.856L318.013 203.416C318.589 203.64 319.117 203.752 319.597 203.752C320.701 203.752 321.605 203.152 322.309 201.952L322.789 201.136L315.973 188.2H317.869L323.725 199.576L329.725 188.2H331.501ZM339.83 197.296H335.99V205H334.262V188.2H335.99V195.736H339.83L345.518 188.2H347.438L341.198 196.36L347.798 205H345.758L339.83 197.296ZM350.825 205.12C350.473 205.12 350.169 204.992 349.913 204.736C349.673 204.48 349.553 204.168 349.553 203.8C349.553 203.432 349.673 203.128 349.913 202.888C350.169 202.632 350.473 202.504 350.825 202.504C351.177 202.504 351.481 202.632 351.737 202.888C351.993 203.128 352.121 203.432 352.121 203.8C352.121 204.168 351.993 204.48 351.737 204.736C351.481 204.992 351.177 205.12 350.825 205.12ZM90.9171 225.216C92.0211 225.488 92.8851 225.984 93.5091 226.704C94.1491 227.424 94.4691 228.288 94.4691 229.296C94.4691 230.272 94.1651 231.128 93.5571 231.864C92.9491 232.6 92.1411 233.168 91.1331 233.568C90.1251 233.952 89.0291 234.144 87.8451 234.144C86.7251 234.144 85.6211 233.968 84.5331 233.616C83.4611 233.248 82.4931 232.704 81.6291 231.984L82.2771 230.712C83.0131 231.336 83.8531 231.816 84.7971 232.152C85.7411 232.472 86.6931 232.632 87.6531 232.632C88.5651 232.632 89.4051 232.488 90.1731 232.2C90.9411 231.912 91.5491 231.504 91.9971 230.976C92.4611 230.432 92.6931 229.792 92.6931 229.056C92.6931 228.08 92.3091 227.328 91.5411 226.8C90.7731 226.272 89.6931 226.008 88.3011 226.008H84.7011V224.568H88.2051C89.3891 224.568 90.3091 224.32 90.9651 223.824C91.6371 223.312 91.9731 222.608 91.9731 221.712C91.9731 220.72 91.5491 219.944 90.7011 219.384C89.8531 218.808 88.7891 218.52 87.5091 218.52C86.7091 218.52 85.9011 218.64 85.0851 218.88C84.2691 219.104 83.4931 219.448 82.7571 219.912L82.1571 218.448C83.8211 217.456 85.6211 216.96 87.5571 216.96C88.6931 216.96 89.7331 217.144 90.6771 217.512C91.6211 217.88 92.3651 218.408 92.9091 219.096C93.4691 219.784 93.7491 220.592 93.7491 221.52C93.7491 222.416 93.5011 223.192 93.0051 223.848C92.5091 224.488 91.8131 224.944 90.9171 225.216ZM102.815 221.28C104.463 221.28 105.727 221.696 106.607 222.528C107.487 223.344 107.927 224.56 107.927 226.176V234H106.295V232.032C105.911 232.688 105.343 233.2 104.591 233.568C103.855 233.936 102.975 234.12 101.951 234.12C100.543 234.12 99.4229 233.784 98.5909 233.112C97.7589 232.44 97.3429 231.552 97.3429 230.448C97.3429 229.376 97.7269 228.512 98.4949 227.856C99.2789 227.2 100.519 226.872 102.215 226.872H106.223V226.104C106.223 225.016 105.919 224.192 105.311 223.632C104.703 223.056 103.815 222.768 102.647 222.768C101.847 222.768 101.079 222.904 100.343 223.176C99.6069 223.432 98.9749 223.792 98.4469 224.256L97.6789 222.984C98.3189 222.44 99.0869 222.024 99.9829 221.736C100.879 221.432 101.823 221.28 102.815 221.28ZM102.215 232.776C103.175 232.776 103.999 232.56 104.687 232.128C105.375 231.68 105.887 231.04 106.223 230.208V228.144H102.263C100.103 228.144 99.0229 228.896 99.0229 230.4C99.0229 231.136 99.3029 231.72 99.8629 232.152C100.423 232.568 101.207 232.776 102.215 232.776ZM117.047 228.384H114.167V234H112.463V221.376H114.167V226.92H117.071L121.511 221.376H123.359L118.391 227.496L123.719 234H121.703L117.047 228.384ZM136.41 221.376L130.098 235.512C129.586 236.696 128.994 237.536 128.322 238.032C127.65 238.528 126.842 238.776 125.898 238.776C125.29 238.776 124.722 238.68 124.194 238.488C123.666 238.296 123.21 238.008 122.826 237.624L123.618 236.352C124.258 236.992 125.026 237.312 125.922 237.312C126.498 237.312 126.986 237.152 127.386 236.832C127.802 236.512 128.186 235.968 128.538 235.2L129.09 233.976L123.45 221.376H125.226L129.978 232.104L134.73 221.376H136.41ZM150.393 221.376V234H148.689V222.888H140.769V234H139.065V221.376H150.393ZM159.581 221.28C161.229 221.28 162.493 221.696 163.373 222.528C164.253 223.344 164.693 224.56 164.693 226.176V234H163.061V232.032C162.677 232.688 162.109 233.2 161.357 233.568C160.621 233.936 159.741 234.12 158.717 234.12C157.309 234.12 156.189 233.784 155.357 233.112C154.525 232.44 154.109 231.552 154.109 230.448C154.109 229.376 154.493 228.512 155.261 227.856C156.045 227.2 157.285 226.872 158.98 226.872H162.989V226.104C162.989 225.016 162.685 224.192 162.077 223.632C161.469 223.056 160.581 222.768 159.413 222.768C158.613 222.768 157.845 222.904 157.109 223.176C156.373 223.432 155.741 223.792 155.213 224.256L154.445 222.984C155.085 222.44 155.853 222.024 156.749 221.736C157.645 221.432 158.589 221.28 159.581 221.28ZM158.98 232.776C159.941 232.776 160.765 232.56 161.453 232.128C162.141 231.68 162.653 231.04 162.989 230.208V228.144H159.029C156.869 228.144 155.789 228.896 155.789 230.4C155.789 231.136 156.069 231.72 156.629 232.152C157.189 232.568 157.973 232.776 158.98 232.776ZM180.269 228.216H169.709C169.805 229.528 170.309 230.592 171.221 231.408C172.133 232.208 173.285 232.608 174.677 232.608C175.461 232.608 176.181 232.472 176.837 232.2C177.493 231.912 178.061 231.496 178.541 230.952L179.501 232.056C178.941 232.728 178.237 233.24 177.389 233.592C176.557 233.944 175.637 234.12 174.629 234.12C173.333 234.12 172.181 233.848 171.173 233.304C170.181 232.744 169.405 231.976 168.845 231C168.285 230.024 168.005 228.92 168.005 227.688C168.005 226.456 168.269 225.352 168.797 224.376C169.341 223.4 170.077 222.64 171.005 222.096C171.949 221.552 173.005 221.28 174.173 221.28C175.341 221.28 176.389 221.552 177.317 222.096C178.245 222.64 178.973 223.4 179.501 224.376C180.029 225.336 180.293 226.44 180.293 227.688L180.269 228.216ZM174.173 222.744C172.957 222.744 171.933 223.136 171.101 223.92C170.285 224.688 169.821 225.696 169.709 226.944H178.661C178.549 225.696 178.077 224.688 177.245 223.92C176.429 223.136 175.405 222.744 174.173 222.744ZM198.177 221.376V234H196.617V224.016L191.505 232.464H190.737L185.625 223.992V234H184.065V221.376H185.793L191.145 230.472L196.593 221.376H198.177ZM223.419 221.376V234H221.859V224.016L216.747 232.464H215.979L210.867 223.992V234H209.307V221.376H211.035L216.387 230.472L221.835 221.376H223.419ZM232.612 221.28C234.26 221.28 235.524 221.696 236.404 222.528C237.284 223.344 237.724 224.56 237.724 226.176V234H236.092V232.032C235.708 232.688 235.14 233.2 234.388 233.568C233.652 233.936 232.772 234.12 231.748 234.12C230.34 234.12 229.22 233.784 228.388 233.112C227.556 232.44 227.14 231.552 227.14 230.448C227.14 229.376 227.524 228.512 228.292 227.856C229.076 227.2 230.316 226.872 232.012 226.872H236.02V226.104C236.02 225.016 235.716 224.192 235.108 223.632C234.5 223.056 233.612 222.768 232.444 222.768C231.644 222.768 230.876 222.904 230.14 223.176C229.404 223.432 228.772 223.792 228.244 224.256L227.476 222.984C228.116 222.44 228.884 222.024 229.78 221.736C230.676 221.432 231.62 221.28 232.612 221.28ZM232.012 232.776C232.972 232.776 233.796 232.56 234.484 232.128C235.172 231.68 235.684 231.04 236.02 230.208V228.144H232.06C229.9 228.144 228.82 228.896 228.82 230.4C228.82 231.136 229.1 231.72 229.66 232.152C230.22 232.568 231.004 232.776 232.012 232.776ZM251.14 222.888H246.364V234H244.66V222.888H239.884V221.376H251.14V222.888ZM264.058 228.216H253.498C253.594 229.528 254.098 230.592 255.01 231.408C255.922 232.208 257.074 232.608 258.466 232.608C259.25 232.608 259.97 232.472 260.626 232.2C261.282 231.912 261.85 231.496 262.33 230.952L263.29 232.056C262.73 232.728 262.026 233.24 261.178 233.592C260.346 233.944 259.426 234.12 258.418 234.12C257.122 234.12 255.97 233.848 254.962 233.304C253.97 232.744 253.194 231.976 252.634 231C252.074 230.024 251.794 228.92 251.794 227.688C251.794 226.456 252.058 225.352 252.586 224.376C253.13 223.4 253.866 222.64 254.794 222.096C255.738 221.552 256.794 221.28 257.962 221.28C259.13 221.28 260.178 221.552 261.106 222.096C262.034 222.64 262.762 223.4 263.29 224.376C263.818 225.336 264.082 226.44 264.082 227.688L264.058 228.216ZM257.962 222.744C256.746 222.744 255.722 223.136 254.89 223.92C254.074 224.688 253.61 225.696 253.498 226.944H262.45C262.338 225.696 261.866 224.688 261.034 223.92C260.218 223.136 259.194 222.744 257.962 222.744ZM274.358 221.28C275.542 221.28 276.614 221.552 277.574 222.096C278.534 222.624 279.286 223.376 279.83 224.352C280.374 225.328 280.646 226.44 280.646 227.688C280.646 228.952 280.374 230.072 279.83 231.048C279.286 232.024 278.534 232.784 277.574 233.328C276.63 233.856 275.558 234.12 274.358 234.12C273.334 234.12 272.406 233.912 271.574 233.496C270.758 233.064 270.086 232.44 269.558 231.624V238.656H267.854V221.376H269.486V223.872C269.998 223.04 270.67 222.4 271.502 221.952C272.35 221.504 273.302 221.28 274.358 221.28ZM274.238 232.608C275.118 232.608 275.918 232.408 276.638 232.008C277.358 231.592 277.918 231.008 278.318 230.256C278.734 229.504 278.942 228.648 278.942 227.688C278.942 226.728 278.734 225.88 278.318 225.144C277.918 224.392 277.358 223.808 276.638 223.392C275.918 222.976 275.118 222.768 274.238 222.768C273.342 222.768 272.534 222.976 271.814 223.392C271.11 223.808 270.55 224.392 270.134 225.144C269.734 225.88 269.534 226.728 269.534 227.688C269.534 228.648 269.734 229.504 270.134 230.256C270.55 231.008 271.11 231.592 271.814 232.008C272.534 232.408 273.342 232.608 274.238 232.608ZM284.307 221.376H286.011V231.408L294.435 221.376H295.947V234H294.243V223.968L285.843 234H284.307V221.376ZM305.174 221.28C306.822 221.28 308.086 221.696 308.966 222.528C309.846 223.344 310.286 224.56 310.286 226.176V234H308.654V232.032C308.27 232.688 307.702 233.2 306.95 233.568C306.214 233.936 305.334 234.12 304.31 234.12C302.902 234.12 301.782 233.784 300.95 233.112C300.118 232.44 299.702 231.552 299.702 230.448C299.702 229.376 300.086 228.512 300.854 227.856C301.638 227.2 302.878 226.872 304.574 226.872H308.582V226.104C308.582 225.016 308.278 224.192 307.67 223.632C307.062 223.056 306.174 222.768 305.006 222.768C304.206 222.768 303.438 222.904 302.702 223.176C301.966 223.432 301.334 223.792 300.806 224.256L300.038 222.984C300.678 222.44 301.446 222.024 302.342 221.736C303.238 221.432 304.182 221.28 305.174 221.28ZM304.574 232.776C305.534 232.776 306.358 232.56 307.046 232.128C307.734 231.68 308.246 231.04 308.582 230.208V228.144H304.622C302.462 228.144 301.382 228.896 301.382 230.4C301.382 231.136 301.662 231.72 302.222 232.152C302.782 232.568 303.566 232.776 304.574 232.776ZM325.142 221.376V234H323.438V222.888H317.39L317.222 226.008C317.094 228.632 316.79 230.648 316.31 232.056C315.83 233.464 314.974 234.168 313.742 234.168C313.406 234.168 312.998 234.104 312.518 233.976L312.638 232.512C312.926 232.576 313.126 232.608 313.238 232.608C313.894 232.608 314.39 232.304 314.726 231.696C315.062 231.088 315.286 230.336 315.398 229.44C315.51 228.544 315.606 227.36 315.686 225.888L315.902 221.376H325.142ZM335.291 225.84C336.875 225.856 338.083 226.208 338.915 226.896C339.747 227.584 340.163 228.576 340.163 229.872C340.163 231.216 339.715 232.248 338.819 232.968C337.923 233.688 336.643 234.04 334.979 234.024L329.987 234V221.376H331.691V225.792L335.291 225.84ZM342.275 221.376H343.979V234H342.275V221.376ZM334.883 232.728C336.051 232.744 336.931 232.512 337.523 232.032C338.131 231.536 338.435 230.816 338.435 229.872C338.435 228.944 338.139 228.256 337.547 227.808C336.955 227.36 336.067 227.128 334.883 227.112L331.691 227.064V232.68L334.883 232.728ZM355.112 221.376H356.816V231.408L365.24 221.376H366.752V234H365.048V223.968L356.648 234H355.112V221.376ZM95.8532 261.512V266.048H94.2452V263H82.9412V266.048H81.3332V261.512H82.0532C82.9012 261.464 83.4772 260.84 83.7812 259.64C84.0852 258.44 84.2932 256.76 84.4052 254.6L84.5732 250.376H93.8852V261.512H95.8532ZM85.9652 254.696C85.8852 256.488 85.7332 257.968 85.5092 259.136C85.2852 260.288 84.8852 261.08 84.3092 261.512H92.1812V251.888H86.1092L85.9652 254.696ZM104.382 263.12C103.166 263.12 102.07 262.848 101.094 262.304C100.118 261.744 99.35 260.976 98.79 260C98.23 259.024 97.95 257.92 97.95 256.688C97.95 255.456 98.23 254.352 98.79 253.376C99.35 252.4 100.118 251.64 101.094 251.096C102.07 250.552 103.166 250.28 104.382 250.28C105.598 250.28 106.694 250.552 107.67 251.096C108.646 251.64 109.406 252.4 109.95 253.376C110.51 254.352 110.79 255.456 110.79 256.688C110.79 257.92 110.51 259.024 109.95 260C109.406 260.976 108.646 261.744 107.67 262.304C106.694 262.848 105.598 263.12 104.382 263.12ZM104.382 261.608C105.278 261.608 106.078 261.408 106.782 261.008C107.502 260.592 108.062 260.008 108.462 259.256C108.862 258.504 109.062 257.648 109.062 256.688C109.062 255.728 108.862 254.872 108.462 254.12C108.062 253.368 107.502 252.792 106.782 252.392C106.078 251.976 105.278 251.768 104.382 251.768C103.486 251.768 102.678 251.976 101.958 252.392C101.254 252.792 100.694 253.368 100.278 254.12C99.878 254.872 99.678 255.728 99.678 256.688C99.678 257.648 99.878 258.504 100.278 259.256C100.694 260.008 101.254 260.592 101.958 261.008C102.678 261.408 103.486 261.608 104.382 261.608ZM119.712 263.12C118.464 263.12 117.344 262.848 116.352 262.304C115.376 261.76 114.608 261 114.048 260.024C113.488 259.032 113.208 257.92 113.208 256.688C113.208 255.456 113.488 254.352 114.048 253.376C114.608 252.4 115.376 251.64 116.352 251.096C117.344 250.552 118.464 250.28 119.712 250.28C120.8 250.28 121.768 250.496 122.616 250.928C123.48 251.344 124.16 251.96 124.656 252.776L123.384 253.64C122.968 253.016 122.44 252.552 121.8 252.248C121.16 251.928 120.464 251.768 119.712 251.768C118.8 251.768 117.976 251.976 117.24 252.392C116.52 252.792 115.952 253.368 115.536 254.12C115.136 254.872 114.936 255.728 114.936 256.688C114.936 257.664 115.136 258.528 115.536 259.28C115.952 260.016 116.52 260.592 117.24 261.008C117.976 261.408 118.8 261.608 119.712 261.608C120.464 261.608 121.16 261.456 121.8 261.152C122.44 260.848 122.968 260.384 123.384 259.76L124.656 260.624C124.16 261.44 123.48 262.064 122.616 262.496C121.752 262.912 120.784 263.12 119.712 263.12ZM136.601 251.888H131.825V263H130.121V251.888H125.345V250.376H136.601V251.888ZM143.409 250.28C145.057 250.28 146.321 250.696 147.201 251.528C148.081 252.344 148.521 253.56 148.521 255.176V263H146.889V261.032C146.505 261.688 145.937 262.2 145.185 262.568C144.449 262.936 143.569 263.12 142.545 263.12C141.137 263.12 140.017 262.784 139.185 262.112C138.353 261.44 137.937 260.552 137.937 259.448C137.937 258.376 138.321 257.512 139.089 256.856C139.873 256.2 141.113 255.872 142.809 255.872H146.817V255.104C146.817 254.016 146.513 253.192 145.905 252.632C145.297 252.056 144.409 251.768 143.241 251.768C142.441 251.768 141.673 251.904 140.937 252.176C140.201 252.432 139.569 252.792 139.041 253.256L138.273 251.984C138.913 251.44 139.681 251.024 140.577 250.736C141.473 250.432 142.417 250.28 143.409 250.28ZM142.809 261.776C143.769 261.776 144.593 261.56 145.281 261.128C145.969 260.68 146.481 260.04 146.817 259.208V257.144H142.857C140.697 257.144 139.617 257.896 139.617 259.4C139.617 260.136 139.897 260.72 140.457 261.152C141.017 261.568 141.801 261.776 142.809 261.776ZM161.097 256.472C162.809 256.872 163.665 257.904 163.665 259.568C163.665 260.672 163.257 261.52 162.441 262.112C161.625 262.704 160.409 263 158.793 263H153.057V250.376H158.625C160.065 250.376 161.193 250.656 162.009 251.216C162.825 251.776 163.233 252.576 163.233 253.616C163.233 254.304 163.041 254.896 162.657 255.392C162.289 255.872 161.769 256.232 161.097 256.472ZM154.713 255.992H158.505C159.481 255.992 160.225 255.808 160.737 255.44C161.265 255.072 161.529 254.536 161.529 253.832C161.529 253.128 161.265 252.6 160.737 252.248C160.225 251.896 159.481 251.72 158.505 251.72H154.713V255.992ZM158.721 261.656C159.809 261.656 160.625 261.48 161.169 261.128C161.713 260.776 161.985 260.224 161.985 259.472C161.985 258.72 161.737 258.168 161.241 257.816C160.745 257.448 159.961 257.264 158.889 257.264H154.713V261.656H158.721ZM177.978 250.376V263H176.274V251.888H170.226L170.058 255.008C169.93 257.632 169.626 259.648 169.146 261.056C168.666 262.464 167.81 263.168 166.578 263.168C166.242 263.168 165.834 263.104 165.354 262.976L165.474 261.512C165.762 261.576 165.962 261.608 166.074 261.608C166.73 261.608 167.226 261.304 167.562 260.696C167.898 260.088 168.122 259.336 168.234 258.44C168.346 257.544 168.442 256.36 168.522 254.888L168.738 250.376H177.978ZM192.518 250.376V263H190.958V258.824H186.998H186.518L183.59 263H181.742L184.886 258.584C183.91 258.312 183.158 257.848 182.63 257.192C182.102 256.536 181.838 255.704 181.838 254.696C181.838 253.288 182.318 252.216 183.278 251.48C184.238 250.744 185.55 250.376 187.214 250.376H192.518ZM183.566 254.744C183.566 256.616 184.758 257.552 187.142 257.552H190.958V251.888H187.262C184.798 251.888 183.566 252.84 183.566 254.744ZM208.417 257.216H197.857C197.953 258.528 198.457 259.592 199.369 260.408C200.281 261.208 201.433 261.608 202.825 261.608C203.609 261.608 204.329 261.472 204.985 261.2C205.641 260.912 206.209 260.496 206.689 259.952L207.649 261.056C207.089 261.728 206.385 262.24 205.537 262.592C204.705 262.944 203.785 263.12 202.777 263.12C201.481 263.12 200.329 262.848 199.321 262.304C198.329 261.744 197.553 260.976 196.993 260C196.433 259.024 196.153 257.92 196.153 256.688C196.153 255.456 196.417 254.352 196.945 253.376C197.489 252.4 198.225 251.64 199.153 251.096C200.097 250.552 201.153 250.28 202.321 250.28C203.489 250.28 204.537 250.552 205.465 251.096C206.393 251.64 207.121 252.4 207.649 253.376C208.177 254.336 208.441 255.44 208.441 256.688L208.417 257.216ZM202.321 251.744C201.105 251.744 200.081 252.136 199.249 252.92C198.433 253.688 197.969 254.696 197.857 255.944H206.809C206.697 254.696 206.225 253.688 205.393 252.92C204.577 252.136 203.553 251.744 202.321 251.744ZM226.325 250.376V263H224.765V253.016L219.653 261.464H218.885L213.773 252.992V263H212.213V250.376H213.941L219.293 259.472L224.741 250.376H226.325ZM237.455 250.376H239.159V260.408L247.583 250.376H249.095V263H247.391V252.968L238.991 263H237.455V250.376ZM261.875 263L257.867 257.72L253.835 263H251.915L256.907 256.52L252.155 250.376H254.075L257.867 255.32L261.659 250.376H263.531L258.779 256.52L263.819 263H261.875ZM266.732 263.12C266.38 263.12 266.076 262.992 265.82 262.736C265.58 262.48 265.46 262.168 265.46 261.8C265.46 261.432 265.58 261.128 265.82 260.888C266.076 260.632 266.38 260.504 266.732 260.504C267.084 260.504 267.388 260.632 267.644 260.888C267.9 261.128 268.028 261.432 268.028 261.8C268.028 262.168 267.9 262.48 267.644 262.736C267.388 262.992 267.084 263.12 266.732 263.12ZM284.675 246.2C286.819 246.2 288.499 246.712 289.715 247.736C290.931 248.76 291.539 250.168 291.539 251.96C291.539 253.752 290.931 255.16 289.715 256.184C288.499 257.192 286.819 257.696 284.675 257.696H280.163V263H278.387V246.2H284.675ZM284.627 256.136C286.291 256.136 287.563 255.776 288.443 255.056C289.323 254.32 289.763 253.288 289.763 251.96C289.763 250.6 289.323 249.56 288.443 248.84C287.563 248.104 286.291 247.736 284.627 247.736H280.163V256.136H284.627ZM305.753 257.216H295.193C295.289 258.528 295.793 259.592 296.705 260.408C297.617 261.208 298.769 261.608 300.161 261.608C300.945 261.608 301.665 261.472 302.321 261.2C302.977 260.912 303.545 260.496 304.025 259.952L304.985 261.056C304.425 261.728 303.721 262.24 302.873 262.592C302.041 262.944 301.121 263.12 300.113 263.12C298.817 263.12 297.665 262.848 296.657 262.304C295.665 261.744 294.889 260.976 294.329 260C293.769 259.024 293.489 257.92 293.489 256.688C293.489 255.456 293.753 254.352 294.281 253.376C294.825 252.4 295.561 251.64 296.489 251.096C297.433 250.552 298.489 250.28 299.657 250.28C300.825 250.28 301.873 250.552 302.801 251.096C303.729 251.64 304.457 252.4 304.985 253.376C305.513 254.336 305.777 255.44 305.777 256.688L305.753 257.216ZM299.657 251.744C298.441 251.744 297.417 252.136 296.585 252.92C295.769 253.688 295.305 254.696 295.193 255.944H304.145C304.033 254.696 303.561 253.688 302.729 252.92C301.913 252.136 300.889 251.744 299.657 251.744ZM323.661 250.376V263H322.101V253.016L316.989 261.464H316.221L311.109 252.992V263H309.549V250.376H311.277L316.629 259.472L322.077 250.376H323.661ZM333.718 263.12C332.502 263.12 331.406 262.848 330.43 262.304C329.454 261.744 328.686 260.976 328.126 260C327.566 259.024 327.286 257.92 327.286 256.688C327.286 255.456 327.566 254.352 328.126 253.376C328.686 252.4 329.454 251.64 330.43 251.096C331.406 250.552 332.502 250.28 333.718 250.28C334.934 250.28 336.03 250.552 337.006 251.096C337.982 251.64 338.742 252.4 339.286 253.376C339.846 254.352 340.126 255.456 340.126 256.688C340.126 257.92 339.846 259.024 339.286 260C338.742 260.976 337.982 261.744 337.006 262.304C336.03 262.848 334.934 263.12 333.718 263.12ZM333.718 261.608C334.614 261.608 335.414 261.408 336.118 261.008C336.838 260.592 337.398 260.008 337.798 259.256C338.198 258.504 338.398 257.648 338.398 256.688C338.398 255.728 338.198 254.872 337.798 254.12C337.398 253.368 336.838 252.792 336.118 252.392C335.414 251.976 334.614 251.768 333.718 251.768C332.822 251.768 332.014 251.976 331.294 252.392C330.59 252.792 330.03 253.368 329.614 254.12C329.214 254.872 329.014 255.728 329.014 256.688C329.014 257.648 329.214 258.504 329.614 259.256C330.03 260.008 330.59 260.592 331.294 261.008C332.014 261.408 332.822 261.608 333.718 261.608ZM343.768 250.376H345.472V255.968H353.416V250.376H355.12V263H353.416V257.432H345.472V263H343.768V250.376ZM368.843 251.888H364.067V263H362.363V251.888H357.587V250.376H368.843V251.888ZM93.0176 280.376V293H91.3136V281.888H83.3936V293H81.6896V280.376H93.0176ZM104.366 280.28C105.55 280.28 106.622 280.552 107.582 281.096C108.542 281.624 109.294 282.376 109.838 283.352C110.382 284.328 110.654 285.44 110.654 286.688C110.654 287.952 110.382 289.072 109.838 290.048C109.294 291.024 108.542 291.784 107.582 292.328C106.638 292.856 105.566 293.12 104.366 293.12C103.342 293.12 102.414 292.912 101.582 292.496C100.766 292.064 100.094 291.44 99.5655 290.624V297.656H97.8615V280.376H99.4935V282.872C100.006 282.04 100.678 281.4 101.51 280.952C102.358 280.504 103.31 280.28 104.366 280.28ZM104.246 291.608C105.126 291.608 105.926 291.408 106.646 291.008C107.366 290.592 107.926 290.008 108.326 289.256C108.742 288.504 108.95 287.648 108.95 286.688C108.95 285.728 108.742 284.88 108.326 284.144C107.926 283.392 107.366 282.808 106.646 282.392C105.926 281.976 105.126 281.768 104.246 281.768C103.35 281.768 102.542 281.976 101.822 282.392C101.118 282.808 100.558 283.392 100.142 284.144C99.7415 284.88 99.5415 285.728 99.5415 286.688C99.5415 287.648 99.7415 288.504 100.142 289.256C100.558 290.008 101.118 290.592 101.822 291.008C102.542 291.408 103.35 291.608 104.246 291.608ZM119.523 293.12C118.307 293.12 117.211 292.848 116.235 292.304C115.259 291.744 114.491 290.976 113.931 290C113.371 289.024 113.091 287.92 113.091 286.688C113.091 285.456 113.371 284.352 113.931 283.376C114.491 282.4 115.259 281.64 116.235 281.096C117.211 280.552 118.307 280.28 119.523 280.28C120.739 280.28 121.835 280.552 122.811 281.096C123.787 281.64 124.547 282.4 125.091 283.376C125.651 284.352 125.931 285.456 125.931 286.688C125.931 287.92 125.651 289.024 125.091 290C124.547 290.976 123.787 291.744 122.811 292.304C121.835 292.848 120.739 293.12 119.523 293.12ZM119.523 291.608C120.419 291.608 121.219 291.408 121.923 291.008C122.643 290.592 123.203 290.008 123.603 289.256C124.003 288.504 124.203 287.648 124.203 286.688C124.203 285.728 124.003 284.872 123.603 284.12C123.203 283.368 122.643 282.792 121.923 282.392C121.219 281.976 120.419 281.768 119.523 281.768C118.627 281.768 117.819 281.976 117.099 282.392C116.395 282.792 115.835 283.368 115.419 284.12C115.019 284.872 114.819 285.728 114.819 286.688C114.819 287.648 115.019 288.504 115.419 289.256C115.835 290.008 116.395 290.592 117.099 291.008C117.819 291.408 118.627 291.608 119.523 291.608ZM134.852 293.12C133.604 293.12 132.484 292.848 131.492 292.304C130.516 291.76 129.748 291 129.188 290.024C128.628 289.032 128.348 287.92 128.348 286.688C128.348 285.456 128.628 284.352 129.188 283.376C129.748 282.4 130.516 281.64 131.492 281.096C132.484 280.552 133.604 280.28 134.852 280.28C135.94 280.28 136.908 280.496 137.756 280.928C138.62 281.344 139.3 281.96 139.796 282.776L138.524 283.64C138.108 283.016 137.58 282.552 136.94 282.248C136.3 281.928 135.604 281.768 134.852 281.768C133.94 281.768 133.116 281.976 132.38 282.392C131.66 282.792 131.092 283.368 130.676 284.12C130.276 284.872 130.076 285.728 130.076 286.688C130.076 287.664 130.276 288.528 130.676 289.28C131.092 290.016 131.66 290.592 132.38 291.008C133.116 291.408 133.94 291.608 134.852 291.608C135.604 291.608 136.3 291.456 136.94 291.152C137.58 290.848 138.108 290.384 138.524 289.76L139.796 290.624C139.3 291.44 138.62 292.064 137.756 292.496C136.892 292.912 135.924 293.12 134.852 293.12ZM152.994 280.376V293H151.29V281.888H145.242L145.074 285.008C144.946 287.632 144.642 289.648 144.162 291.056C143.682 292.464 142.826 293.168 141.594 293.168C141.258 293.168 140.85 293.104 140.37 292.976L140.49 291.512C140.778 291.576 140.978 291.608 141.09 291.608C141.746 291.608 142.242 291.304 142.578 290.696C142.914 290.088 143.138 289.336 143.25 288.44C143.362 287.544 143.458 286.36 143.538 284.888L143.754 280.376H152.994ZM168.566 280.376L162.254 294.512C161.742 295.696 161.15 296.536 160.478 297.032C159.806 297.528 158.998 297.776 158.054 297.776C157.446 297.776 156.878 297.68 156.35 297.488C155.822 297.296 155.366 297.008 154.982 296.624L155.774 295.352C156.414 295.992 157.182 296.312 158.078 296.312C158.654 296.312 159.142 296.152 159.542 295.832C159.958 295.512 160.342 294.968 160.694 294.2L161.246 292.976L155.606 280.376H157.382L162.134 291.104L166.886 280.376H168.566ZM181.558 287.384H178.822V293H177.118V287.384H174.382L170.518 293H168.478L173.014 286.496L168.838 280.376H170.686L174.382 285.92H177.118V280.376H178.822V285.92H181.558L185.278 280.376H187.126L182.95 286.52L187.486 293H185.446L181.558 287.384ZM190.322 280.376H192.026V290.408L200.45 280.376H201.962V293H200.258V282.968L191.858 293H190.322V280.376ZM215.726 281.888H210.95V293H209.246V281.888H204.47V280.376H215.726V281.888ZM232.511 286.472C234.223 286.872 235.079 287.904 235.079 289.568C235.079 290.672 234.671 291.52 233.855 292.112C233.039 292.704 231.823 293 230.207 293H224.471V280.376H230.039C231.479 280.376 232.607 280.656 233.423 281.216C234.239 281.776 234.647 282.576 234.647 283.616C234.647 284.304 234.455 284.896 234.071 285.392C233.703 285.872 233.183 286.232 232.511 286.472ZM226.127 285.992H229.919C230.895 285.992 231.639 285.808 232.151 285.44C232.679 285.072 232.943 284.536 232.943 283.832C232.943 283.128 232.679 282.6 232.151 282.248C231.639 281.896 230.895 281.72 229.919 281.72H226.127V285.992ZM230.135 291.656C231.223 291.656 232.039 291.48 232.583 291.128C233.127 290.776 233.399 290.224 233.399 289.472C233.399 288.72 233.151 288.168 232.655 287.816C232.159 287.448 231.375 287.264 230.303 287.264H226.127V291.656H230.135ZM243.416 280.28C245.064 280.28 246.328 280.696 247.208 281.528C248.088 282.344 248.528 283.56 248.528 285.176V293H246.896V291.032C246.512 291.688 245.944 292.2 245.192 292.568C244.456 292.936 243.576 293.12 242.552 293.12C241.144 293.12 240.024 292.784 239.192 292.112C238.36 291.44 237.944 290.552 237.944 289.448C237.944 288.376 238.328 287.512 239.096 286.856C239.88 286.2 241.12 285.872 242.816 285.872H246.824V285.104C246.824 284.016 246.52 283.192 245.912 282.632C245.304 282.056 244.416 281.768 243.248 281.768C242.448 281.768 241.68 281.904 240.944 282.176C240.208 282.432 239.576 282.792 239.048 283.256L238.28 281.984C238.92 281.44 239.688 281.024 240.584 280.736C241.48 280.432 242.424 280.28 243.416 280.28ZM242.816 291.776C243.776 291.776 244.6 291.56 245.288 291.128C245.976 290.68 246.488 290.04 246.824 289.208V287.144H242.864C240.704 287.144 239.624 287.896 239.624 289.4C239.624 290.136 239.904 290.72 240.464 291.152C241.024 291.568 241.808 291.776 242.816 291.776ZM267.177 280.376V293H265.617V283.016L260.505 291.464H259.737L254.625 282.992V293H253.065V280.376H254.793L260.145 289.472L265.593 280.376H267.177ZM290.619 291.512V296.048H289.011V293H277.707V296.048H276.099V291.512H276.819C277.667 291.464 278.243 290.84 278.547 289.64C278.851 288.44 279.059 286.76 279.171 284.6L279.339 280.376H288.651V291.512H290.619ZM280.731 284.696C280.651 286.488 280.499 287.968 280.275 289.136C280.051 290.288 279.651 291.08 279.075 291.512H286.947V281.888H280.875L280.731 284.696ZM299.148 293.12C297.932 293.12 296.836 292.848 295.86 292.304C294.884 291.744 294.116 290.976 293.556 290C292.996 289.024 292.716 287.92 292.716 286.688C292.716 285.456 292.996 284.352 293.556 283.376C294.116 282.4 294.884 281.64 295.86 281.096C296.836 280.552 297.932 280.28 299.148 280.28C300.364 280.28 301.46 280.552 302.436 281.096C303.412 281.64 304.172 282.4 304.716 283.376C305.276 284.352 305.556 285.456 305.556 286.688C305.556 287.92 305.276 289.024 304.716 290C304.172 290.976 303.412 291.744 302.436 292.304C301.46 292.848 300.364 293.12 299.148 293.12ZM299.148 291.608C300.044 291.608 300.844 291.408 301.548 291.008C302.268 290.592 302.828 290.008 303.228 289.256C303.628 288.504 303.828 287.648 303.828 286.688C303.828 285.728 303.628 284.872 303.228 284.12C302.828 283.368 302.268 282.792 301.548 282.392C300.844 281.976 300.044 281.768 299.148 281.768C298.252 281.768 297.444 281.976 296.724 282.392C296.02 282.792 295.46 283.368 295.044 284.12C294.644 284.872 294.444 285.728 294.444 286.688C294.444 287.648 294.644 288.504 295.044 289.256C295.46 290.008 296.02 290.592 296.724 291.008C297.444 291.408 298.252 291.608 299.148 291.608ZM319.447 280.376V293H317.743V281.888H311.695L311.527 285.008C311.399 287.632 311.095 289.648 310.615 291.056C310.135 292.464 309.279 293.168 308.047 293.168C307.711 293.168 307.303 293.104 306.823 292.976L306.943 291.512C307.231 291.576 307.431 291.608 307.543 291.608C308.199 291.608 308.695 291.304 309.031 290.696C309.367 290.088 309.591 289.336 309.703 288.44C309.815 287.544 309.911 286.36 309.991 284.888L310.207 280.376H319.447ZM333.219 281.888H325.995V293H324.291V280.376H333.219V281.888ZM340.304 293.12C339.088 293.12 337.992 292.848 337.016 292.304C336.04 291.744 335.272 290.976 334.712 290C334.152 289.024 333.872 287.92 333.872 286.688C333.872 285.456 334.152 284.352 334.712 283.376C335.272 282.4 336.04 281.64 337.016 281.096C337.992 280.552 339.088 280.28 340.304 280.28C341.52 280.28 342.616 280.552 343.592 281.096C344.568 281.64 345.328 282.4 345.872 283.376C346.432 284.352 346.712 285.456 346.712 286.688C346.712 287.92 346.432 289.024 345.872 290C345.328 290.976 344.568 291.744 343.592 292.304C342.616 292.848 341.52 293.12 340.304 293.12ZM340.304 291.608C341.2 291.608 342 291.408 342.704 291.008C343.424 290.592 343.984 290.008 344.384 289.256C344.784 288.504 344.984 287.648 344.984 286.688C344.984 285.728 344.784 284.872 344.384 284.12C343.984 283.368 343.424 282.792 342.704 282.392C342 281.976 341.2 281.768 340.304 281.768C339.408 281.768 338.6 281.976 337.88 282.392C337.176 282.792 336.616 283.368 336.2 284.12C335.8 284.872 335.6 285.728 335.6 286.688C335.6 287.648 335.8 288.504 336.2 289.256C336.616 290.008 337.176 290.592 337.88 291.008C338.6 291.408 339.408 291.608 340.304 291.608ZM356.635 280.376H358.339V290.408L366.763 280.376H368.275V293H366.571V282.968L358.171 293H356.635V280.376ZM106.389 309.376V322H104.685V310.888H96.7647V322H95.0607V309.376H106.389ZM116.441 322.12C115.225 322.12 114.129 321.848 113.153 321.304C112.177 320.744 111.409 319.976 110.849 319C110.289 318.024 110.009 316.92 110.009 315.688C110.009 314.456 110.289 313.352 110.849 312.376C111.409 311.4 112.177 310.64 113.153 310.096C114.129 309.552 115.225 309.28 116.441 309.28C117.657 309.28 118.753 309.552 119.729 310.096C120.705 310.64 121.465 311.4 122.009 312.376C122.569 313.352 122.849 314.456 122.849 315.688C122.849 316.92 122.569 318.024 122.009 319C121.465 319.976 120.705 320.744 119.729 321.304C118.753 321.848 117.657 322.12 116.441 322.12ZM116.441 320.608C117.337 320.608 118.137 320.408 118.841 320.008C119.561 319.592 120.121 319.008 120.521 318.256C120.921 317.504 121.121 316.648 121.121 315.688C121.121 314.728 120.921 313.872 120.521 313.12C120.121 312.368 119.561 311.792 118.841 311.392C118.137 310.976 117.337 310.768 116.441 310.768C115.545 310.768 114.737 310.976 114.017 311.392C113.313 311.792 112.753 312.368 112.337 313.12C111.937 313.872 111.737 314.728 111.737 315.688C111.737 316.648 111.937 317.504 112.337 318.256C112.753 319.008 113.313 319.592 114.017 320.008C114.737 320.408 115.545 320.608 116.441 320.608ZM138.732 320.512V325.048H137.124V322H125.82V325.048H124.212V320.512H124.932C125.78 320.464 126.356 319.84 126.66 318.64C126.964 317.44 127.172 315.76 127.284 313.6L127.452 309.376H136.764V320.512H138.732ZM128.844 313.696C128.764 315.488 128.612 316.968 128.388 318.136C128.164 319.288 127.764 320.08 127.188 320.512H135.06V310.888H128.988L128.844 313.696ZM149.949 322L145.941 316.72L141.909 322H139.989L144.981 315.52L140.229 309.376H142.149L145.941 314.32L149.733 309.376H151.605L146.853 315.52L151.893 322H149.949ZM159.448 322.12C158.232 322.12 157.136 321.848 156.16 321.304C155.184 320.744 154.416 319.976 153.856 319C153.296 318.024 153.016 316.92 153.016 315.688C153.016 314.456 153.296 313.352 153.856 312.376C154.416 311.4 155.184 310.64 156.16 310.096C157.136 309.552 158.232 309.28 159.448 309.28C160.664 309.28 161.76 309.552 162.736 310.096C163.712 310.64 164.472 311.4 165.016 312.376C165.576 313.352 165.856 314.456 165.856 315.688C165.856 316.92 165.576 318.024 165.016 319C164.472 319.976 163.712 320.744 162.736 321.304C161.76 321.848 160.664 322.12 159.448 322.12ZM159.448 320.608C160.344 320.608 161.144 320.408 161.848 320.008C162.568 319.592 163.128 319.008 163.528 318.256C163.928 317.504 164.128 316.648 164.128 315.688C164.128 314.728 163.928 313.872 163.528 313.12C163.128 312.368 162.568 311.792 161.848 311.392C161.144 310.976 160.344 310.768 159.448 310.768C158.552 310.768 157.744 310.976 157.024 311.392C156.32 311.792 155.76 312.368 155.344 313.12C154.944 313.872 154.744 314.728 154.744 315.688C154.744 316.648 154.944 317.504 155.344 318.256C155.76 319.008 156.32 319.592 157.024 320.008C157.744 320.408 158.552 320.608 159.448 320.608ZM181.74 320.512V325.048H180.132V322H168.828V325.048H167.22V320.512H167.94C168.788 320.464 169.364 319.84 169.668 318.64C169.972 317.44 170.18 315.76 170.292 313.6L170.46 309.376H179.772V320.512H181.74ZM171.852 313.696C171.772 315.488 171.62 316.968 171.396 318.136C171.172 319.288 170.772 320.08 170.196 320.512H178.068V310.888H171.996L171.852 313.696ZM185.061 309.376H186.765V319.408L195.189 309.376H196.701V322H194.997V311.968L186.597 322H185.061V309.376ZM210.464 310.888H205.688V322H203.984V310.888H199.208V309.376H210.464V310.888ZM231.521 320.512V325.048H229.913V322H218.609V325.048H217.001V320.512H217.721C218.569 320.464 219.145 319.84 219.449 318.64C219.753 317.44 219.961 315.76 220.073 313.6L220.241 309.376H229.553V320.512H231.521ZM221.633 313.696C221.553 315.488 221.401 316.968 221.177 318.136C220.953 319.288 220.553 320.08 219.977 320.512H227.849V310.888H221.777L221.633 313.696ZM245.162 309.376V322H243.458V310.888H237.41L237.242 314.008C237.114 316.632 236.81 318.648 236.33 320.056C235.85 321.464 234.994 322.168 233.762 322.168C233.426 322.168 233.018 322.104 232.538 321.976L232.658 320.512C232.946 320.576 233.146 320.608 233.258 320.608C233.914 320.608 234.41 320.304 234.746 319.696C235.082 319.088 235.306 318.336 235.418 317.44C235.53 316.544 235.626 315.36 235.706 313.888L235.922 309.376H245.162ZM259.702 309.376V322H258.142V317.824H254.182H253.702L250.774 322H248.926L252.07 317.584C251.094 317.312 250.342 316.848 249.814 316.192C249.286 315.536 249.022 314.704 249.022 313.696C249.022 312.288 249.502 311.216 250.462 310.48C251.422 309.744 252.734 309.376 254.398 309.376H259.702ZM250.75 313.744C250.75 315.616 251.942 316.552 254.326 316.552H258.142V310.888H254.446C251.982 310.888 250.75 311.84 250.75 313.744ZM279.722 310.888H274.946V322H273.242V310.888H268.466V309.376H279.722V310.888ZM292.64 316.216H282.08C282.176 317.528 282.68 318.592 283.592 319.408C284.504 320.208 285.656 320.608 287.048 320.608C287.832 320.608 288.552 320.472 289.208 320.2C289.864 319.912 290.432 319.496 290.912 318.952L291.872 320.056C291.312 320.728 290.608 321.24 289.76 321.592C288.928 321.944 288.008 322.12 287 322.12C285.704 322.12 284.552 321.848 283.544 321.304C282.552 320.744 281.776 319.976 281.216 319C280.656 318.024 280.376 316.92 280.376 315.688C280.376 314.456 280.64 313.352 281.168 312.376C281.712 311.4 282.448 310.64 283.376 310.096C284.32 309.552 285.376 309.28 286.544 309.28C287.712 309.28 288.76 309.552 289.688 310.096C290.616 310.64 291.344 311.4 291.872 312.376C292.4 313.336 292.664 314.44 292.664 315.688L292.64 316.216ZM286.544 310.744C285.328 310.744 284.304 311.136 283.472 311.92C282.656 312.688 282.192 313.696 282.08 314.944H291.032C290.92 313.696 290.448 312.688 289.616 311.92C288.8 311.136 287.776 310.744 286.544 310.744ZM303.98 322L299.972 316.72L295.94 322H294.02L299.012 315.52L294.26 309.376H296.18L299.972 314.32L303.764 309.376H305.636L300.884 315.52L305.924 322H303.98ZM308.861 319.504C309.229 319.504 309.533 319.632 309.773 319.888C310.013 320.128 310.133 320.432 310.133 320.8C310.133 320.992 310.101 321.2 310.037 321.424C309.989 321.648 309.909 321.904 309.797 322.192L308.789 325.504H307.637L308.453 322.024C308.197 321.944 307.989 321.8 307.829 321.592C307.669 321.368 307.589 321.104 307.589 320.8C307.589 320.432 307.709 320.128 307.949 319.888C308.189 319.632 308.493 319.504 308.861 319.504ZM324.668 316.384H321.788V322H320.084V309.376H321.788V314.92H324.692L329.132 309.376H330.98L326.012 315.496L331.34 322H329.324L324.668 316.384ZM342.652 310.888H337.876V322H336.172V310.888H331.396V309.376H342.652V310.888ZM349.737 322.12C348.521 322.12 347.425 321.848 346.449 321.304C345.473 320.744 344.705 319.976 344.145 319C343.585 318.024 343.305 316.92 343.305 315.688C343.305 314.456 343.585 313.352 344.145 312.376C344.705 311.4 345.473 310.64 346.449 310.096C347.425 309.552 348.521 309.28 349.737 309.28C350.953 309.28 352.049 309.552 353.025 310.096C354.001 310.64 354.761 311.4 355.305 312.376C355.865 313.352 356.145 314.456 356.145 315.688C356.145 316.92 355.865 318.024 355.305 319C354.761 319.976 354.001 320.744 353.025 321.304C352.049 321.848 350.953 322.12 349.737 322.12ZM349.737 320.608C350.633 320.608 351.433 320.408 352.137 320.008C352.857 319.592 353.417 319.008 353.817 318.256C354.217 317.504 354.417 316.648 354.417 315.688C354.417 314.728 354.217 313.872 353.817 313.12C353.417 312.368 352.857 311.792 352.137 311.392C351.433 310.976 350.633 310.768 349.737 310.768C348.841 310.768 348.033 310.976 347.313 311.392C346.609 311.792 346.049 312.368 345.633 313.12C345.233 313.872 345.033 314.728 345.033 315.688C345.033 316.648 345.233 317.504 345.633 318.256C346.049 319.008 346.609 319.592 347.313 320.008C348.033 320.408 348.841 320.608 349.737 320.608ZM80.8786 351L76.8706 345.72L72.8386 351H70.9186L75.9106 344.52L71.1586 338.376H73.0786L76.8706 343.32L80.6626 338.376H82.5346L77.7826 344.52L82.8226 351H80.8786ZM90.3781 351.12C89.1621 351.12 88.0661 350.848 87.0901 350.304C86.1141 349.744 85.3461 348.976 84.7861 348C84.2261 347.024 83.9461 345.92 83.9461 344.688C83.9461 343.456 84.2261 342.352 84.7861 341.376C85.3461 340.4 86.1141 339.64 87.0901 339.096C88.0661 338.552 89.1621 338.28 90.3781 338.28C91.5941 338.28 92.6901 338.552 93.6661 339.096C94.6421 339.64 95.4021 340.4 95.9461 341.376C96.5061 342.352 96.7861 343.456 96.7861 344.688C96.7861 345.92 96.5061 347.024 95.9461 348C95.4021 348.976 94.6421 349.744 93.6661 350.304C92.6901 350.848 91.5941 351.12 90.3781 351.12ZM90.3781 349.608C91.2741 349.608 92.0741 349.408 92.7781 349.008C93.4981 348.592 94.0581 348.008 94.4581 347.256C94.8581 346.504 95.0581 345.648 95.0581 344.688C95.0581 343.728 94.8581 342.872 94.4581 342.12C94.0581 341.368 93.4981 340.792 92.7781 340.392C92.0741 339.976 91.2741 339.768 90.3781 339.768C89.4821 339.768 88.6741 339.976 87.9541 340.392C87.2501 340.792 86.6901 341.368 86.2741 342.12C85.8741 342.872 85.6741 343.728 85.6741 344.688C85.6741 345.648 85.8741 346.504 86.2741 347.256C86.6901 348.008 87.2501 348.592 87.9541 349.008C88.6741 349.408 89.4821 349.608 90.3781 349.608ZM109.956 338.376V351H108.252V345.744C106.796 346.384 105.364 346.704 103.956 346.704C102.436 346.704 101.252 346.36 100.404 345.672C99.5559 344.968 99.1319 343.92 99.1319 342.528V338.376H100.836V342.432C100.836 343.376 101.14 344.096 101.748 344.592C102.356 345.072 103.196 345.312 104.268 345.312C105.452 345.312 106.78 345 108.252 344.376V338.376H109.956ZM125.835 345.216H115.275C115.371 346.528 115.875 347.592 116.787 348.408C117.699 349.208 118.851 349.608 120.243 349.608C121.027 349.608 121.747 349.472 122.403 349.2C123.059 348.912 123.627 348.496 124.107 347.952L125.067 349.056C124.507 349.728 123.803 350.24 122.955 350.592C122.123 350.944 121.203 351.12 120.195 351.12C118.899 351.12 117.747 350.848 116.739 350.304C115.747 349.744 114.971 348.976 114.411 348C113.851 347.024 113.571 345.92 113.571 344.688C113.571 343.456 113.835 342.352 114.363 341.376C114.907 340.4 115.643 339.64 116.571 339.096C117.515 338.552 118.571 338.28 119.739 338.28C120.907 338.28 121.955 338.552 122.883 339.096C123.811 339.64 124.539 340.4 125.067 341.376C125.595 342.336 125.859 343.44 125.859 344.688L125.835 345.216ZM119.739 339.744C118.523 339.744 117.499 340.136 116.667 340.92C115.851 341.688 115.387 342.696 115.275 343.944H124.227C124.115 342.696 123.643 341.688 122.811 340.92C121.995 340.136 120.971 339.744 119.739 339.744ZM137.949 339.888H133.173V351H131.469V339.888H126.693V338.376H137.949V339.888ZM157.758 345.384H155.022V351H153.318V345.384H150.582L146.718 351H144.678L149.214 344.496L145.038 338.376H146.886L150.582 343.92H153.318V338.376H155.022V343.92H157.758L161.478 338.376H163.326L159.15 344.52L163.686 351H161.646L157.758 345.384ZM166.522 338.376H168.226V348.408L176.65 338.376H178.162V351H176.458V340.968L168.058 351H166.522V338.376ZM191.925 339.888H187.149V351H185.445V339.888H180.669V338.376H191.925V339.888ZM199.813 342.84C201.397 342.856 202.597 343.208 203.413 343.896C204.245 344.584 204.661 345.576 204.661 346.872C204.661 348.216 204.213 349.248 203.317 349.968C202.437 350.688 201.157 351.04 199.477 351.024L194.389 351V338.376H196.093V342.792L199.813 342.84ZM199.381 349.728C200.549 349.744 201.429 349.512 202.021 349.032C202.629 348.536 202.933 347.816 202.933 346.872C202.933 345.944 202.637 345.256 202.045 344.808C201.453 344.36 200.565 344.128 199.381 344.112L196.093 344.064V349.68L199.381 349.728ZM219.474 351.12C218.226 351.12 217.106 350.848 216.114 350.304C215.138 349.76 214.37 349 213.81 348.024C213.25 347.032 212.97 345.92 212.97 344.688C212.97 343.456 213.25 342.352 213.81 341.376C214.37 340.4 215.138 339.64 216.114 339.096C217.106 338.552 218.226 338.28 219.474 338.28C220.562 338.28 221.53 338.496 222.378 338.928C223.242 339.344 223.922 339.96 224.418 340.776L223.146 341.64C222.73 341.016 222.202 340.552 221.562 340.248C220.922 339.928 220.226 339.768 219.474 339.768C218.562 339.768 217.738 339.976 217.002 340.392C216.282 340.792 215.714 341.368 215.298 342.12C214.898 342.872 214.698 343.728 214.698 344.688C214.698 345.664 214.898 346.528 215.298 347.28C215.714 348.016 216.282 348.592 217.002 349.008C217.738 349.408 218.562 349.608 219.474 349.608C220.226 349.608 220.922 349.456 221.562 349.152C222.202 348.848 222.73 348.384 223.146 347.76L224.418 348.624C223.922 349.44 223.242 350.064 222.378 350.496C221.514 350.912 220.546 351.12 219.474 351.12ZM238.582 345.384H235.702V351H233.998V338.376H235.702V343.92H238.606L243.046 338.376H244.894L239.926 344.496L245.254 351H243.238L238.582 345.384ZM252.706 351.12C251.49 351.12 250.394 350.848 249.418 350.304C248.442 349.744 247.674 348.976 247.114 348C246.554 347.024 246.274 345.92 246.274 344.688C246.274 343.456 246.554 342.352 247.114 341.376C247.674 340.4 248.442 339.64 249.418 339.096C250.394 338.552 251.49 338.28 252.706 338.28C253.922 338.28 255.018 338.552 255.994 339.096C256.97 339.64 257.73 340.4 258.274 341.376C258.834 342.352 259.114 343.456 259.114 344.688C259.114 345.92 258.834 347.024 258.274 348C257.73 348.976 256.97 349.744 255.994 350.304C255.018 350.848 253.922 351.12 252.706 351.12ZM252.706 349.608C253.602 349.608 254.402 349.408 255.106 349.008C255.826 348.592 256.386 348.008 256.786 347.256C257.186 346.504 257.386 345.648 257.386 344.688C257.386 343.728 257.186 342.872 256.786 342.12C256.386 341.368 255.826 340.792 255.106 340.392C254.402 339.976 253.602 339.768 252.706 339.768C251.81 339.768 251.002 339.976 250.282 340.392C249.578 340.792 249.018 341.368 248.602 342.12C248.202 342.872 248.002 343.728 248.002 344.688C248.002 345.648 248.202 346.504 248.602 347.256C249.018 348.008 249.578 348.592 250.282 349.008C251.002 349.408 251.81 349.608 252.706 349.608ZM276.868 338.376V351H275.308V341.016L270.196 349.464H269.428L264.316 340.992V351H262.756V338.376H264.484L269.836 347.472L275.284 338.376H276.868ZM296.957 344.664C296.957 346.632 296.309 348.176 295.013 349.296C293.717 350.416 291.885 351.024 289.517 351.12V355.656H287.861V351.144C285.509 351.048 283.685 350.44 282.389 349.32C281.109 348.184 280.469 346.632 280.469 344.664C280.469 342.712 281.109 341.184 282.389 340.08C283.685 338.976 285.509 338.376 287.861 338.28V333.192H289.517V338.28C291.885 338.392 293.717 339 295.013 340.104C296.309 341.208 296.957 342.728 296.957 344.664ZM282.149 344.664C282.149 346.168 282.629 347.344 283.589 348.192C284.565 349.04 285.989 349.52 287.861 349.632V339.792C286.005 339.888 284.589 340.36 283.613 341.208C282.637 342.04 282.149 343.192 282.149 344.664ZM289.517 349.632C291.389 349.536 292.813 349.064 293.789 348.216C294.781 347.368 295.277 346.184 295.277 344.664C295.277 343.176 294.781 342.016 293.789 341.184C292.813 340.352 291.389 339.888 289.517 339.792V349.632ZM305.769 351.12C304.553 351.12 303.457 350.848 302.481 350.304C301.505 349.744 300.737 348.976 300.177 348C299.617 347.024 299.337 345.92 299.337 344.688C299.337 343.456 299.617 342.352 300.177 341.376C300.737 340.4 301.505 339.64 302.481 339.096C303.457 338.552 304.553 338.28 305.769 338.28C306.985 338.28 308.081 338.552 309.057 339.096C310.033 339.64 310.793 340.4 311.337 341.376C311.897 342.352 312.177 343.456 312.177 344.688C312.177 345.92 311.897 347.024 311.337 348C310.793 348.976 310.033 349.744 309.057 350.304C308.081 350.848 306.985 351.12 305.769 351.12ZM305.769 349.608C306.665 349.608 307.465 349.408 308.169 349.008C308.889 348.592 309.449 348.008 309.849 347.256C310.249 346.504 310.449 345.648 310.449 344.688C310.449 343.728 310.249 342.872 309.849 342.12C309.449 341.368 308.889 340.792 308.169 340.392C307.465 339.976 306.665 339.768 305.769 339.768C304.873 339.768 304.065 339.976 303.345 340.392C302.641 340.792 302.081 341.368 301.665 342.12C301.265 342.872 301.065 343.728 301.065 344.688C301.065 345.648 301.265 346.504 301.665 347.256C302.081 348.008 302.641 348.592 303.345 349.008C304.065 349.408 304.873 349.608 305.769 349.608ZM322.323 338.28C323.507 338.28 324.579 338.552 325.539 339.096C326.499 339.624 327.251 340.376 327.795 341.352C328.339 342.328 328.611 343.44 328.611 344.688C328.611 345.952 328.339 347.072 327.795 348.048C327.251 349.024 326.499 349.784 325.539 350.328C324.595 350.856 323.523 351.12 322.323 351.12C321.299 351.12 320.371 350.912 319.539 350.496C318.723 350.064 318.051 349.44 317.523 348.624V355.656H315.819V338.376H317.451V340.872C317.963 340.04 318.635 339.4 319.467 338.952C320.315 338.504 321.267 338.28 322.323 338.28ZM322.203 349.608C323.083 349.608 323.883 349.408 324.603 349.008C325.323 348.592 325.883 348.008 326.283 347.256C326.699 346.504 326.907 345.648 326.907 344.688C326.907 343.728 326.699 342.88 326.283 342.144C325.883 341.392 325.323 340.808 324.603 340.392C323.883 339.976 323.083 339.768 322.203 339.768C321.307 339.768 320.499 339.976 319.779 340.392C319.075 340.808 318.515 341.392 318.099 342.144C317.699 342.88 317.499 343.728 317.499 344.688C317.499 345.648 317.699 346.504 318.099 347.256C318.515 348.008 319.075 348.592 319.779 349.008C320.499 349.408 321.307 349.608 322.203 349.608ZM340.683 339.888H335.907V351H334.203V339.888H329.427V338.376H340.683V339.888ZM347.769 351.12C346.553 351.12 345.457 350.848 344.481 350.304C343.505 349.744 342.737 348.976 342.177 348C341.617 347.024 341.337 345.92 341.337 344.688C341.337 343.456 341.617 342.352 342.177 341.376C342.737 340.4 343.505 339.64 344.481 339.096C345.457 338.552 346.553 338.28 347.769 338.28C348.985 338.28 350.081 338.552 351.057 339.096C352.033 339.64 352.793 340.4 353.337 341.376C353.897 342.352 354.177 343.456 354.177 344.688C354.177 345.92 353.897 347.024 353.337 348C352.793 348.976 352.033 349.744 351.057 350.304C350.081 350.848 348.985 351.12 347.769 351.12ZM347.769 349.608C348.665 349.608 349.465 349.408 350.169 349.008C350.889 348.592 351.449 348.008 351.849 347.256C352.249 346.504 352.449 345.648 352.449 344.688C352.449 343.728 352.249 342.872 351.849 342.12C351.449 341.368 350.889 340.792 350.169 340.392C349.465 339.976 348.665 339.768 347.769 339.768C346.873 339.768 346.065 339.976 345.345 340.392C344.641 340.792 344.081 341.368 343.665 342.12C343.265 342.872 343.065 343.728 343.065 344.688C343.065 345.648 343.265 346.504 343.665 347.256C344.081 348.008 344.641 348.592 345.345 349.008C346.065 349.408 346.873 349.608 347.769 349.608ZM371.931 338.376V351H370.371V341.016L365.259 349.464H364.491L359.379 340.992V351H357.819V338.376H359.547L364.899 347.472L370.347 338.376H371.931ZM376.899 351.12C376.547 351.12 376.243 350.992 375.987 350.736C375.747 350.48 375.627 350.168 375.627 349.8C375.627 349.432 375.747 349.128 375.987 348.888C376.243 348.632 376.547 348.504 376.899 348.504C377.251 348.504 377.555 348.632 377.811 348.888C378.067 349.128 378.195 349.432 378.195 349.8C378.195 350.168 378.067 350.48 377.811 350.736C377.555 350.992 377.251 351.12 376.899 351.12Z" fill="black"/>
</svg>
