<svg width="128" height="128" viewBox="0 0 128 128" fill="none" xmlns="http://www.w3.org/2000/svg">
<path d="M48.94 49.6592H2V115.439H48.94V49.6592Z" stroke="black" stroke-width="4" stroke-linecap="round" stroke-linejoin="round"/>
<path d="M35.24 68.94C38.1119 68.94 40.44 66.6119 40.44 63.74C40.44 60.8682 38.1119 58.54 35.24 58.54C32.3682 58.54 30.04 60.8682 30.04 63.74C30.04 66.6119 32.3682 68.94 35.24 68.94Z" stroke="black" stroke-width="4" stroke-linecap="round" stroke-linejoin="round"/>
<path d="M35.24 87.7193C38.1119 87.7193 40.44 85.3912 40.44 82.5193C40.44 79.6475 38.1119 77.3193 35.24 77.3193C32.3682 77.3193 30.04 79.6475 30.04 82.5193C30.04 85.3912 32.3682 87.7193 35.24 87.7193Z" stroke="black" stroke-width="4" stroke-linecap="round" stroke-linejoin="round"/>
<path d="M122.16 60.4196C123.265 59.567 124.084 58.3989 124.509 57.0701C124.934 55.7414 124.945 54.3148 124.54 52.9796C122.54 46.8396 117.32 41.4596 111.1 41.4596H79.6604L83.4204 34.5796C85.0193 31.6611 85.8584 28.3874 85.8604 25.0596V18.2596C85.8551 16.2262 85.0437 14.2779 83.604 12.842C82.1642 11.406 80.2138 10.5996 78.1804 10.5996V10.5996C76.1505 10.6049 74.2052 11.4136 72.7698 12.849C71.3344 14.2844 70.5257 16.2297 70.5204 18.2596V18.2596C70.5227 23.1939 68.6826 27.9512 65.3604 31.5996L48.9404 49.5996V115.44H111.58C113.38 115.442 115.163 115.09 116.826 114.402C118.49 113.715 120.001 112.706 121.274 111.433C122.546 110.16 123.555 108.649 124.243 106.985C124.931 105.322 125.283 103.539 125.28 101.74V101.74C125.279 99.7138 124.473 97.7714 123.04 96.3396C124.528 94.6958 125.348 92.5562 125.34 90.3396V83.0796C125.337 81.9534 125.069 80.8437 124.558 79.8399C124.047 78.836 123.308 77.966 122.4 77.2996V77.2996C123.273 76.919 124.015 76.2927 124.537 75.4971C125.059 74.7015 125.338 73.7712 125.34 72.8196V65.8396C125.337 64.7356 125.041 63.6523 124.482 62.7001C123.924 61.7479 123.123 60.961 122.16 60.4196Z" stroke="black" stroke-width="4" stroke-linecap="round" stroke-linejoin="round"/>
</svg>
