<svg width="128" height="128" viewBox="0 0 128 128" fill="none" xmlns="http://www.w3.org/2000/svg">
<path d="M103.98 59.4717H101.12V62.3314H103.98V59.4717Z" fill="black"/>
<path d="M26.6732 59.4717H23.8135V62.3314H26.6732V59.4717Z" fill="black"/>
<path d="M114.099 81.4965C114.099 78.2265 113.119 75.0365 111.191 72.0073C111.285 71.396 111.333 70.774 111.333 70.142C111.333 52.457 102.065 36.0865 87.1456 27.4188C81.4259 24.0958 75.2321 22.079 68.7164 21.4153C67.9931 19.7095 66.3019 18.5098 64.3356 18.5098H63.4576C60.8356 18.5098 58.7024 20.643 58.7024 23.265V56.951H57.4781V63.99H53.6176C51.1976 63.99 49.2289 65.9588 49.2289 68.3788V72.239H42.1899V73.8263C38.3236 73.0218 34.8704 72.0085 31.8991 70.823C45.2959 65.6965 54.3496 52.779 54.3496 38.1435C54.3496 33.895 53.6009 29.7648 52.1246 25.8413C53.3286 25.496 54.5544 25.1998 55.8014 24.958L55.2304 22.013C35.5394 25.831 20.6089 42.003 17.3386 61.9095L17.2056 62.0428L17.2859 62.2363C16.8794 64.8163 16.6664 67.4573 16.6664 70.1423C16.6664 70.7748 16.7181 71.396 16.8101 72.0073C14.8814 75.0368 13.9014 78.227 13.9014 81.4965C13.9014 89.1475 19.2344 96.268 28.9179 101.547C38.3136 106.669 50.7734 109.49 64.0019 109.49C77.2289 109.49 89.6879 106.669 99.0834 101.547C108.767 96.268 114.099 89.1475 114.099 81.4965ZM78.5649 85.0768H85.6034V83.8688C95.6959 81.879 103.086 78.6265 107.298 74.4128C103.657 81.593 90.9766 85.7433 78.5646 87.381V85.0768H78.5649ZM74.1759 63.9903H70.3154V56.9513H69.0914V24.4788C71.3916 24.7495 73.6479 25.2013 75.8524 25.833C74.3729 29.7605 73.6226 33.8935 73.6226 38.1438C73.6226 52.7948 82.6919 65.7198 96.1089 70.8355C95.9216 70.91 95.7324 70.984 95.5411 71.057L96.6114 73.8595C101.852 71.8578 105.727 69.3963 108.189 66.5128C108.199 66.6455 108.213 66.7778 108.222 66.9108L108.216 66.9095C107.097 73.0685 98.8889 78.0905 85.6039 80.8083V76.9303C88.3211 76.3933 90.8849 75.7525 93.2396 75.0215L92.3499 72.1563C90.2644 72.804 88.0004 73.377 85.6039 73.8683V72.2393H78.5654V68.379C78.5649 65.959 76.5961 63.9903 74.1759 63.9903ZM78.5649 75.2393H82.6034V82.0768H78.5649V75.2393ZM107.607 61.8968C106.454 64.5283 103.893 66.9365 100.098 68.9888C86.2471 65.1775 76.6226 52.5763 76.6226 38.1438C76.6226 34.2115 77.3254 30.39 78.7091 26.763C81.0894 27.6318 83.4031 28.714 85.6391 30.013C97.2844 36.7785 105.255 48.5593 107.607 61.8968ZM61.7024 23.2653C61.7024 22.2973 62.4899 21.51 63.4576 21.51H64.3356C65.3036 21.51 66.0909 22.2975 66.0909 23.2653V56.9513H61.7021V23.2653H61.7024ZM60.4781 59.9513H67.3154V63.9903H60.4781V59.9513ZM52.2291 68.379C52.2291 67.6133 52.8521 66.9903 53.6179 66.9903H57.4784H70.3156H74.1761C74.9419 66.9903 75.5651 67.6133 75.5651 68.379V72.2393V85.0768V88.937C75.5651 89.7028 74.9421 90.3258 74.1761 90.3258H53.6179C52.8521 90.3258 52.2291 89.703 52.2291 88.937V85.0768V72.2393V68.379ZM45.1901 75.2393H49.2291V82.0768H45.1901V75.2393ZM42.1901 80.754C29.2464 78.0665 21.1471 73.1533 19.8686 67.1363C19.8426 67.0213 19.8206 66.9043 19.8021 66.7875L19.7856 66.7903C19.7929 66.6853 19.8011 66.5805 19.8091 66.4755C23.8104 71.137 31.5396 74.7578 42.1901 76.89V80.754ZM49.2674 26.7693C50.6486 30.393 51.3501 34.2123 51.3501 38.1438C51.3501 52.5578 41.7469 65.15 27.9219 68.9778C24.5276 67.142 22.0906 65.0185 20.7934 62.697L20.8361 62.6543L20.3909 61.8508C23.2399 45.6838 34.2761 32.2258 49.2674 26.7693ZM97.6474 98.913C88.6849 103.799 76.7359 106.49 64.0019 106.49C51.2666 106.49 39.3166 103.799 30.3536 98.913C21.6786 94.184 16.9011 87.9988 16.9011 81.4965C16.9011 79.6123 17.3056 77.7475 18.1031 75.9258C19.1481 77.915 20.7571 79.7613 22.9324 81.4458C23.0671 81.5505 23.2044 81.6553 23.3441 81.7603L23.4324 81.8243C23.4886 81.8648 23.5441 81.9048 23.6169 81.9585L23.8916 82.1543C24.0671 82.2768 24.2451 82.3975 24.4434 82.5313C25.7261 83.384 27.1766 84.1928 28.7546 84.936L30.0324 82.2218C28.5869 81.541 27.2651 80.8048 26.1031 80.0323C25.9379 79.9205 25.7724 79.8085 25.6286 79.7085L25.3899 79.5385C25.3224 79.4885 25.2549 79.4398 25.1864 79.3903L25.1329 79.3515C25.0111 79.2603 24.8914 79.169 24.7714 79.0755C22.8791 77.6103 21.5091 76.0255 20.6671 74.3363C24.8369 78.5523 32.1794 81.8145 42.1896 83.8163V85.0765H49.2286V87.3505C43.7969 86.6103 38.2799 85.3418 33.8639 83.803L32.8769 86.636C37.6544 88.3008 43.6529 89.6613 49.4894 90.4125C50.0974 92.1078 51.7156 93.3255 53.6174 93.3255H74.1756C76.0664 93.3255 77.6774 92.1215 78.2931 90.4413C94.8714 88.3855 106.075 83.1365 109.888 75.9048C110.692 77.7333 111.099 79.605 111.099 81.4965C111.099 87.9988 106.322 94.184 97.6474 98.913Z" fill="black"/>
<path d="M63.8974 88.5388C69.3456 88.5388 73.7779 84.1066 73.7779 78.6583C73.7779 73.2101 69.3456 68.7778 63.8974 68.7778C58.4491 68.7778 54.0166 73.2101 54.0166 78.6583C54.0166 84.1066 58.4491 88.5388 63.8974 88.5388ZM63.8974 71.7776C67.6914 71.7776 70.7779 74.8643 70.7779 78.6581C70.7779 82.4523 67.6911 85.5386 63.8974 85.5386C60.1034 85.5386 57.0166 82.4521 57.0166 78.6581C57.0166 74.8643 60.1034 71.7776 63.8974 71.7776Z" fill="black"/>
<path d="M63.8973 82.7115C66.1323 82.7115 67.9508 80.8932 67.9508 78.658C67.9508 76.4227 66.1325 74.6045 63.8973 74.6045C61.662 74.6045 59.8438 76.4227 59.8438 78.658C59.8438 80.8932 61.6623 82.7115 63.8973 82.7115ZM63.8973 77.6045C64.4783 77.6045 64.9508 78.0772 64.9508 78.658C64.9508 79.2387 64.4783 79.7115 63.8973 79.7115C63.3163 79.7115 62.8438 79.2387 62.8438 78.658C62.8438 78.0772 63.3163 77.6045 63.8973 77.6045Z" fill="black"/>
</svg>
