<svg width="128" height="128" viewBox="0 0 128 128" fill="none" xmlns="http://www.w3.org/2000/svg">
<path d="M82.0476 48.7677L43.3916 79.4877C42.6236 80.1277 42.3676 81.4077 43.1356 82.1757C43.5196 82.6877 44.0316 82.9437 44.6716 82.9437C45.0556 82.9437 45.5676 82.8157 45.8236 82.5597L84.4796 51.8397C85.2476 51.1997 85.5036 49.9197 84.7356 49.1517C84.0956 48.2557 82.9436 48.1277 82.0476 48.7677Z" fill="black"/>
<path d="M53.7596 62.4638C54.2716 62.4638 54.7836 62.4638 55.2956 62.3358C60.5436 61.5678 64.2556 56.5758 63.3596 51.1998C62.9756 48.6398 61.5676 46.3358 59.5196 44.7998C57.4716 43.2638 54.9116 42.6238 52.3516 43.0078C49.7916 43.3918 47.4876 44.7998 45.9516 46.8478C44.4156 48.8958 43.7756 51.4558 44.1596 54.0158C44.9276 59.0078 49.1516 62.4638 53.7596 62.4638ZM52.8636 46.9758C53.1196 46.9758 53.5036 46.8478 53.7596 46.8478C56.5756 46.8478 59.1356 48.8958 59.5196 51.8398C60.0316 55.0398 57.8556 57.9838 54.6556 58.4958C51.4556 59.0078 48.5116 56.8318 47.9996 53.6318C47.4876 50.4318 49.7916 47.4878 52.8636 46.9758Z" fill="black"/>
<path d="M74.2397 68.8638C68.8637 68.8638 64.5117 73.2158 64.5117 78.5918C64.5117 83.9678 68.8637 88.3198 74.2397 88.3198C79.6157 88.3198 83.9677 83.9678 83.9677 78.5918C83.8397 73.2158 79.4877 68.8638 74.2397 68.8638ZM74.2397 84.3518C71.0397 84.3518 68.3517 81.6638 68.3517 78.4638C68.3517 75.2638 71.0397 72.5758 74.2397 72.5758C77.4397 72.5758 80.1277 75.2638 80.1277 78.4638C79.9997 81.7918 77.4397 84.3518 74.2397 84.3518Z" fill="black"/>
<path d="M122.112 64.3838C122.112 64.2558 122.24 63.9998 122.24 63.8718C122.24 58.3678 116.48 55.5518 111.488 53.1198C107.904 51.3278 104.064 49.4078 103.04 47.1038C102.016 44.6718 103.424 40.7038 104.832 36.9918C106.752 31.7438 108.672 26.3678 105.088 22.7838C101.504 19.1998 96.3838 20.4798 91.2638 21.6318C87.6798 22.3998 83.9678 23.2958 81.5358 22.2718C79.1038 21.2478 77.0558 18.0478 75.1358 14.9758C72.3198 10.6238 69.2478 5.63184 63.8718 5.63184C58.4958 5.63184 55.4238 10.6238 52.7358 15.1038C50.8158 18.3038 48.8958 21.5038 46.4638 22.5278C44.0318 23.5518 40.1918 22.6558 36.6078 21.7598C31.4878 20.4798 26.2398 19.1998 22.7838 22.6558C19.1998 26.2398 20.9918 31.6158 22.6558 36.8638C23.9358 40.7038 25.0878 44.5438 24.0638 47.1038C23.0398 49.5358 19.4558 51.3278 15.9998 53.1198C11.1358 55.6798 5.63184 58.4958 5.63184 63.8718C5.63184 63.9998 5.63184 64.2558 5.75984 64.3838C5.75984 64.5118 5.63184 64.7678 5.63184 64.8958C5.63184 70.2718 11.1358 73.2158 15.9998 75.6478C19.4558 77.4398 23.0398 79.2318 24.0638 81.6638C25.0878 84.0958 23.8078 88.0638 22.6558 91.9038C20.9918 97.1518 19.1998 102.528 22.7838 106.112C26.3678 109.696 31.6158 108.288 36.6078 107.008C40.1918 106.112 44.0318 105.216 46.4638 106.24C48.8958 107.264 50.8158 110.464 52.7358 113.664C55.4238 118.144 58.4958 123.136 63.8718 123.136C69.2478 123.136 72.4478 118.144 75.1358 113.792C77.0558 110.72 79.1038 107.52 81.5358 106.496C84.0958 105.472 87.6798 106.24 91.2638 107.136C96.2558 108.288 101.504 109.568 105.088 105.984C108.672 102.4 106.752 97.0238 104.832 91.7758C103.424 87.9358 102.016 84.0958 103.04 81.6638C104.064 79.2318 107.776 77.4398 111.488 75.6478C116.48 73.0878 122.24 70.2718 122.24 64.8958C122.24 64.6398 122.112 64.5118 122.112 64.3838ZM109.696 72.1918C105.472 74.3678 100.992 76.5438 99.4558 80.2558C97.7918 84.0958 99.5838 88.7038 101.12 93.1838C102.656 97.4078 104.192 101.504 102.272 103.296C100.224 105.344 96.2558 104.448 92.0318 103.424C87.8078 102.4 83.5838 101.504 79.8718 103.04C76.2878 104.576 73.9838 108.16 71.8078 111.744C69.3758 115.584 67.0718 119.296 63.7438 119.296C60.5438 119.296 58.2398 115.584 55.8078 111.616C53.6318 107.904 51.3278 104.192 47.7438 102.656C44.0318 101.12 39.6798 102.144 35.4558 103.296C31.2318 104.32 27.2638 105.344 25.2158 103.424C23.2958 101.504 24.5758 97.4078 25.9838 93.1838C27.3918 88.7038 28.9278 84.0958 27.2638 80.3838C25.7278 76.6718 21.5038 74.4958 17.4078 72.4478C13.1838 70.2718 9.21584 68.2238 9.21584 65.0238C9.21584 64.8958 9.21584 64.6398 9.08784 64.5118C9.08784 64.3838 9.21584 64.1278 9.21584 63.9998C9.21584 60.9278 13.1838 58.8798 17.4078 56.5758C21.5038 54.5278 25.7278 52.3518 27.2638 48.6398C28.7998 44.7998 27.3918 40.1918 25.9838 35.8398C24.5758 31.4878 23.2958 27.3918 25.2158 25.5998C27.2638 23.5518 31.2318 24.5758 35.4558 25.7278C39.6798 26.7518 44.0318 27.9038 47.7438 26.3678C51.3278 24.8318 53.6318 21.1198 55.8078 17.4078C58.2398 13.4398 60.4158 9.72784 63.7438 9.72784C67.0718 9.72784 69.3758 13.4398 71.8078 17.2798C74.1118 20.8638 76.4158 24.4478 79.8718 25.9838C83.5838 27.5198 87.8078 26.4958 92.0318 25.5998C96.2558 24.5758 100.224 23.6798 102.272 25.7278C104.192 27.5198 102.656 31.6158 101.12 35.8398C99.4558 40.3198 97.7918 44.9278 99.4558 48.7678C100.992 52.4798 105.472 54.6558 109.696 56.8318C114.176 59.0078 118.272 61.1838 118.272 64.2558C118.272 64.3838 118.272 64.6398 118.4 64.7678C118.4 64.8958 118.272 65.1518 118.272 65.2798C118.4 67.8398 114.176 70.0158 109.696 72.1918Z" fill="black"/>
</svg>
