<svg width="128" height="128" viewBox="0 0 128 128" fill="none" xmlns="http://www.w3.org/2000/svg">
<path d="M88 86C89.1046 86 90 85.1046 90 84C90 82.8954 89.1046 82 88 82C86.8954 82 86 82.8954 86 84C86 85.1046 86.8954 86 88 86Z" fill="#1A1A1A"/>
<path d="M50 74C50 75.2 49.2 76 48 76H30C28.8 76 28 75.2 28 74C28 72.8 28.8 72 30 72H48C49.2 72 50 72.8 50 74Z" fill="#1A1A1A"/>
<path d="M112 48H118L85 24L76.2 30L50 48H56H112Z" stroke="#1A1A1A" stroke-width="4" stroke-miterlimit="10" stroke-linecap="round" stroke-linejoin="round"/>
<path d="M56 82V66V56V54V48" stroke="#1A1A1A" stroke-width="4" stroke-miterlimit="10" stroke-linecap="round" stroke-linejoin="round"/>
<path d="M112 48V56V82" stroke="#1A1A1A" stroke-width="4" stroke-miterlimit="10" stroke-linecap="round" stroke-linejoin="round"/>
<path d="M96 100H108" stroke="#1A1A1A" stroke-width="4" stroke-miterlimit="10" stroke-linecap="round" stroke-linejoin="round"/>
<path d="M60 100H72" stroke="#1A1A1A" stroke-width="4" stroke-miterlimit="10" stroke-linecap="round" stroke-linejoin="round"/>
<path d="M116 100V108H52V100" stroke="#1A1A1A" stroke-width="4" stroke-miterlimit="10" stroke-linecap="round" stroke-linejoin="round"/>
<path d="M60 100H52V82H56H60V100Z" stroke="#1A1A1A" stroke-width="4" stroke-miterlimit="10" stroke-linecap="round" stroke-linejoin="round"/>
<path d="M116 100H108V82H112H116V100Z" stroke="#1A1A1A" stroke-width="4" stroke-miterlimit="10" stroke-linecap="round" stroke-linejoin="round"/>
<path d="M96 66H72V100H96V66Z" stroke="#1A1A1A" stroke-width="4" stroke-miterlimit="10" stroke-linecap="round" stroke-linejoin="round"/>
<path d="M56 56H112" stroke="#1A1A1A" stroke-width="4" stroke-miterlimit="10" stroke-linecap="round" stroke-linejoin="round"/>
<path d="M76.2 30H24L8 54H14H56" stroke="#1A1A1A" stroke-width="4" stroke-miterlimit="10" stroke-linecap="round" stroke-linejoin="round"/>
<path d="M14 54V108H22H52" stroke="#1A1A1A" stroke-width="4" stroke-miterlimit="10" stroke-linecap="round" stroke-linejoin="round"/>
<path d="M56 66H22V108" stroke="#1A1A1A" stroke-width="4" stroke-miterlimit="10" stroke-linecap="round" stroke-linejoin="round"/>
</svg>
