<svg width="128" height="128" viewBox="0 0 128 128" fill="none" xmlns="http://www.w3.org/2000/svg">
<path d="M64.0374 114.131H64.0333C36.3923 114.131 13.9043 91.6431 13.9023 64.0011C13.9023 36.3601 36.3893 13.8721 64.0313 13.8721C91.6723 13.8721 114.159 36.3601 114.159 64.0011C114.159 91.6431 91.6754 114.131 64.0374 114.131ZM64.0313 17.8721C38.5953 17.8721 17.9023 38.5661 17.9023 64.0011C17.9043 89.4371 38.5983 110.131 64.0333 110.131H64.0374C89.4694 110.131 110.159 89.4381 110.159 64.0011C110.159 38.5661 89.4663 17.8721 64.0313 17.8721Z" fill="black"/>
<path d="M64.0362 99.5H64.0332C44.4592 99.5 28.5332 83.574 28.5312 64C28.5312 44.426 44.4562 28.501 64.0312 28.501C83.6062 28.501 99.5312 44.426 99.5312 64C99.5312 83.574 83.6082 99.5 64.0362 99.5ZM64.0312 32.501C46.6622 32.501 32.5312 46.631 32.5312 64C32.5332 81.37 46.6652 95.5 64.0332 95.5H64.0362C81.4022 95.5 95.5312 81.369 95.5312 64C95.5312 46.631 81.4002 32.501 64.0312 32.501Z" fill="black"/>
<path d="M64.0314 70.2341C62.3674 70.2341 60.8024 69.5881 59.6254 68.4141C57.1924 65.9761 57.1934 62.0201 59.6234 59.5921C60.8014 58.4141 62.3664 57.7661 64.0314 57.7661C65.6964 57.7661 67.2614 58.4141 68.4394 59.5931C70.8694 62.0291 70.8674 65.9851 68.4374 68.4121C67.2604 69.5881 65.6954 70.2341 64.0314 70.2341ZM64.0314 61.7661C63.4344 61.7661 62.8744 61.9981 62.4514 62.4211C61.5804 63.2921 61.5814 64.7111 62.4534 65.5851C63.2904 66.4211 64.7664 66.4261 65.6104 65.5821C66.4814 64.7121 66.4804 63.2931 65.6094 62.4191C65.1884 61.9991 64.6284 61.7661 64.0314 61.7661Z" fill="black"/>
<path d="M67.0251 63.0068C66.5131 63.0068 66.0021 62.8118 65.6111 62.4208C64.8301 61.6398 64.8301 60.3738 65.6111 59.5928L79.4141 45.7899C80.1951 45.0089 81.4611 45.0089 82.2421 45.7899C83.0231 46.5709 83.0231 47.8369 82.2421 48.6179L68.4391 62.4208C68.0491 62.8118 67.5371 63.0068 67.0251 63.0068Z" fill="black"/>
<path d="M61.0163 62.9862C60.5043 62.9862 59.9933 62.7912 59.6023 62.4002L49.3524 52.1492C48.5714 51.3682 48.5714 50.1022 49.3524 49.3202C50.1333 48.5402 51.3993 48.5392 52.1803 49.3202L62.4303 59.5722C63.2113 60.3532 63.2113 61.6192 62.4303 62.4002C62.0393 62.7922 61.5273 62.9862 61.0163 62.9862Z" fill="black"/>
</svg>
