<svg width="128" height="128" viewBox="0 0 128 128" fill="none" xmlns="http://www.w3.org/2000/svg">
<path d="M90.1348 75.0865C88.3127 75.0865 87.1541 75.8654 86.5002 76.5192L79.1973 83.8269C79.1397 83.8846 78.8272 84.0385 78.106 84.0385C74.082 84.0385 65.5387 79.5625 56.9906 71.0096C45.5002 59.524 42.9666 50.0096 44.1733 48.8029L51.481 41.5C56.2983 36.6827 47.7743 26.7212 42.2647 21.2115C39.7647 18.7115 31.1829 10.5625 25.6156 10.5625C23.7935 10.5625 22.6348 11.3413 21.981 11.9952L7.36562 26.6106C2.981 30.9952 4.5435 39.5096 12.0195 51.9135C18.4714 62.625 28.6733 75.1731 40.7502 87.25C58.582 105.082 82.2118 123.077 94.8031 123.077H94.8079C98.231 123.077 100.279 121.75 101.39 120.635L116.005 106.019C120.822 101.207 112.298 91.2452 106.789 85.7356C104.289 83.2356 95.707 75.0865 90.1348 75.0865ZM96.1685 115.413C96.0627 115.519 95.6589 115.692 94.8031 115.692C87.4522 115.692 67.8368 103.894 45.9714 82.0288C34.3079 70.3654 24.4954 58.3173 18.3416 48.1058C11.4666 36.6875 12.0531 32.3654 12.5868 31.8317L26.255 18.1635C28.0772 18.9087 32.1589 21.5481 37.0435 26.4327C41.9329 31.3221 44.5675 35.4038 45.3127 37.2212L38.9522 43.5817C32.1397 50.4038 40.8224 65.2885 51.7695 76.2308C61.1349 85.601 71.2262 91.4231 78.106 91.4231C81.356 91.4231 83.332 90.1346 84.4185 89.0481L90.7791 82.6875C92.5964 83.4327 96.6781 86.0673 101.568 90.9567C106.452 95.8461 109.092 99.9231 109.837 101.745L96.1685 115.413Z" fill="#1D1D1B"/>
<path d="M110.605 17.394C102.567 9.35074 91.8648 4.92285 80.4754 4.92285C80.4706 4.92285 80.4657 4.92285 80.4657 4.92285C78.4273 4.92285 76.7734 6.5767 76.7734 8.61516C76.7734 10.6536 78.4273 12.3075 80.4657 12.3075C80.4706 12.3075 80.4706 12.3075 80.4754 12.3075C89.8936 12.3075 98.7398 15.9661 105.384 22.6152C112.033 29.2642 115.692 38.1103 115.692 47.5334C115.692 49.5719 117.346 51.2257 119.384 51.2257C121.422 51.2257 123.076 49.5719 123.076 47.5334C123.081 36.1392 118.648 25.4373 110.605 17.394Z" fill="#1D1D1B"/>
<path d="M75.5956 26.9085C75.6004 26.9085 75.6004 26.9085 75.6052 26.9085C82.4226 26.9085 88.8216 29.5576 93.6341 34.3653C98.4418 39.1778 101.091 45.5816 101.091 52.4037C101.091 54.4422 102.745 56.096 104.783 56.096C106.822 56.096 108.475 54.4422 108.475 52.4037C108.48 43.6105 105.062 35.3508 98.8552 29.1441C92.6485 22.9422 84.3937 19.5239 75.6052 19.5239C75.6004 19.5239 75.5956 19.5239 75.5956 19.5239C73.5572 19.5239 71.9033 21.1778 71.9033 23.2162C71.9033 25.2547 73.5572 26.9085 75.5956 26.9085Z" fill="#1D1D1B"/>
<path d="M70.7255 41.5096C70.7303 41.5096 70.7303 41.5096 70.7351 41.5096C74.9467 41.5096 78.9082 43.149 81.8794 46.1202C84.8553 49.0962 86.4899 53.0577 86.4899 57.274C86.4899 59.3125 88.1438 60.9663 90.1822 60.9663C92.2207 60.9663 93.8745 59.3125 93.8745 57.274C93.8794 51.0865 91.4707 45.2692 87.1005 40.899C82.7351 36.5288 76.9226 34.125 70.7351 34.125C70.7303 34.125 70.7255 34.125 70.7255 34.125C68.687 34.125 67.0332 35.7788 67.0332 37.8173C67.0332 39.8558 68.687 41.5096 70.7255 41.5096Z" fill="#1D1D1B"/>
</svg>
