<svg width="83" height="96" viewBox="0 0 83 96" fill="none" xmlns="http://www.w3.org/2000/svg">
<g clip-path="url(#clip0)">
<path d="M8.73682 30.5453V65.4544C8.73682 66.2377 9.15619 66.9598 9.83766 67.3482L40.4166 84.8028C40.753 84.9948 41.1265 85.0908 41.5 85.0908C41.8735 85.0908 42.247 84.9948 42.5833 84.8028L73.1623 67.3482C73.8438 66.9598 74.2631 66.2377 74.2631 65.4544V30.5453C74.2631 29.762 73.8438 29.0398 73.1623 28.6515L42.5833 11.1969C41.9106 10.8129 41.0872 10.8129 40.4166 11.1969L9.83766 28.6515C9.15619 29.0398 8.73682 29.762 8.73682 30.5453ZM13.1052 31.8108L41.5 15.6042L69.8947 31.8108V64.1889L41.5 80.3955L13.1052 64.1889V31.8108Z" fill="#E52B2B"/>
<path d="M19.933 14.1513C20.5184 15.2029 21.8464 15.5825 22.9035 14.9978L41.4999 4.67782L60.0984 14.9978C60.4326 15.1833 60.7974 15.2727 61.1556 15.2727C61.9244 15.2727 62.6671 14.8669 63.0668 14.1513C63.6543 13.0975 63.2743 11.7687 62.2171 11.184L42.5592 0.274909C41.8974 -0.0916364 41.098 -0.0916364 40.4362 0.274909L20.7783 11.184C19.7277 11.7687 19.3454 13.0975 19.933 14.1513Z" fill="#E52B2B"/>
<path d="M60.0986 81.002L41.5001 91.322L22.9037 81.002C21.8465 80.4172 20.5185 80.7969 19.9332 81.8485C19.3456 82.9023 19.7279 84.2311 20.7806 84.8158L40.4385 95.7249C40.7705 95.9082 41.1353 95.9998 41.5001 95.9998C41.8648 95.9998 42.2296 95.9082 42.5616 95.7249L62.2195 84.8158C63.2745 84.2311 63.6545 82.9023 63.0691 81.8485C62.4794 80.7969 61.1514 80.4172 60.0986 81.002Z" fill="#E52B2B"/>
<path d="M78.6316 34.9091V58.9091C78.6316 60.1135 79.6079 61.0909 80.8158 61.0909C82.0237 61.0909 83 60.1135 83 58.9091V34.9091C83 33.7047 82.0237 32.7273 80.8158 32.7273C79.6079 32.7273 78.6316 33.7047 78.6316 34.9091Z" fill="#E52B2B"/>
<path d="M0 34.9091V58.9091C0 60.1135 0.978526 61.0909 2.18421 61.0909C3.3899 61.0909 4.36842 60.1135 4.36842 58.9091V34.9091C4.36842 33.7047 3.3899 32.7273 2.18421 32.7273C0.978526 32.7273 0 33.7047 0 34.9091Z" fill="#E52B2B"/>
<path d="M62.8573 49.3681C63.5039 48.5695 63.5039 47.4285 62.8573 46.6299C62.4729 46.1521 53.2665 34.9092 41.5001 34.9092C29.7338 34.9092 20.5273 46.1521 20.1407 46.6321C19.4964 47.4306 19.4964 48.5717 20.1407 49.3703C20.5273 49.8481 29.7338 61.091 41.5001 61.091C53.2665 61.091 62.4729 49.8481 62.8573 49.3681ZM24.7822 48.0001C27.436 45.2379 34.0389 39.2728 41.5001 39.2728C48.9636 39.2728 55.5621 45.2379 58.2181 48.0001C55.5621 50.7623 48.9636 56.7274 41.5001 56.7274C34.0367 56.7274 27.436 50.7623 24.7822 48.0001Z" fill="#E52B2B"/>
<path d="M41.5 52.3638C43.9126 52.3638 45.8684 50.4101 45.8684 48.0001C45.8684 45.5901 43.9126 43.6365 41.5 43.6365C39.0874 43.6365 37.1316 45.5901 37.1316 48.0001C37.1316 50.4101 39.0874 52.3638 41.5 52.3638Z" fill="#E52B2B"/>
</g>
<defs>
<clipPath id="clip0">
<rect width="83" height="96" fill="white"/>
</clipPath>
</defs>
</svg>
