<svg width="96" height="96" viewBox="0 0 96 96" fill="none" xmlns="http://www.w3.org/2000/svg">
<path d="M79.4908 38.1599V15.1025H75.6767V11.8764C75.6767 9.242 73.5343 7.09888 70.9008 7.09888H21.2868C18.6525 7.09888 16.5092 9.24219 16.5092 11.8764V12.9294V18.1709V20.5794C16.5092 23.2137 18.6525 25.3569 21.2868 25.3569H28.5647C28.9813 27.3318 30.737 28.8189 32.8342 28.8189C34.9314 28.8189 36.6872 27.3318 37.1038 25.3569H70.9008C73.5343 25.3569 75.6767 23.2136 75.6767 20.5794V17.3525H77.2408V36.2748L46.638 41.7217V48.3303H41.3685V82.5069C41.3685 86.0328 44.237 88.9014 47.763 88.9014C51.2889 88.9014 54.1575 86.0328 54.1575 82.5069V48.3305H48.888V43.6068L79.4908 38.1599ZM73.4267 15.9189L66.2387 23.1069H58.8943L67.5002 14.501L65.9094 12.9101L55.7122 23.1071H48.3452L49.5532 21.899L47.9621 20.3081L45.1631 23.1071H37.887L51.6453 9.34888H58.9213L49.5558 18.7145L51.1466 20.3054L62.1033 9.34869H69.4704L67.6423 11.1768L69.2332 12.7678L72.255 9.74619C72.9581 10.1954 73.4265 10.9813 73.4265 11.8762V15.9189H73.4267ZM37.1981 13.3865L41.2346 9.34888H48.4637L37.1981 20.6143V13.3865ZM37.1981 10.2039V9.34869H38.0531L37.1981 10.2039ZM18.7828 20.9053C18.9482 20.9362 19.1182 20.9542 19.2924 20.9542C20.8271 20.9542 22.0755 19.7056 22.0755 18.1709V17.7457C22.0755 17.2908 22.4456 16.9207 22.9005 16.9207C23.3553 16.9207 23.7255 17.2908 23.7255 17.7457V19.5326C23.7255 21.461 25.2945 23.03 27.2229 23.03C27.3731 23.03 27.5165 23.0579 27.6498 23.1069H21.2868C20.0038 23.1069 18.9435 22.1452 18.7828 20.9053ZM32.8342 26.5691C31.6687 26.5691 30.7205 25.6209 30.7205 24.4552V24.2776C30.7205 22.349 29.1515 20.7802 27.2231 20.7802C26.5352 20.7802 25.9757 20.2207 25.9757 19.5328V17.7459C25.9757 16.0503 24.5962 14.6709 22.9007 14.6709C21.2051 14.6709 19.8257 16.0503 19.8257 17.7459V18.1711C19.8257 18.4651 19.5866 18.7044 19.2926 18.7044C18.9986 18.7044 18.7593 18.4653 18.7593 18.1711V12.9294V11.8764C18.7593 10.4825 19.8933 9.34888 21.287 9.34888H34.9483V24.4552C34.9481 25.6209 33.9999 26.5691 32.8342 26.5691ZM70.901 23.1069H69.4209L73.4267 19.1009V20.5792C73.4267 21.9731 72.2936 23.1069 70.901 23.1069ZM47.763 86.6516C45.4777 86.6516 43.6185 84.7925 43.6185 82.507V54.0149H51.9073V82.507C51.9075 84.7925 50.0482 86.6516 47.763 86.6516ZM51.9075 51.7649H43.6187V50.5805H51.9075V51.7649Z" fill="#E52B2B"/>
<path d="M48.888 56.2573H46.638V59.0983H48.888V56.2573Z" fill="#E52B2B"/>
<path d="M48.888 60.9629H46.638V82.3606H48.888V60.9629Z" fill="#E52B2B"/>
</svg>
