<svg width="96" height="96" viewBox="0 0 96 96" fill="none" xmlns="http://www.w3.org/2000/svg">
<g clip-path="url(#clip0)">
<path d="M40.5 27H37.5V36H40.5V27Z" fill="#E52B2B"/>
<path d="M40.5 21H37.5V24H40.5V21Z" fill="#E52B2B"/>
<path d="M46.5 27H43.5V36H46.5V27Z" fill="#E52B2B"/>
<path d="M46.5 21H43.5V24H46.5V21Z" fill="#E52B2B"/>
<path d="M58.5 27H55.5V36H58.5V27Z" fill="#E52B2B"/>
<path d="M58.5 21H55.5V24H58.5V21Z" fill="#E52B2B"/>
<path d="M52.5 27H49.5V36H52.5V27Z" fill="#E52B2B"/>
<path d="M52.5 21H49.5V24H52.5V21Z" fill="#E52B2B"/>
<path d="M25.5 64.5H19.5V67.5H25.5V64.5Z" fill="#E52B2B"/>
<path d="M16.5 64.5H13.5V67.5H16.5V64.5Z" fill="#E52B2B"/>
<path d="M25.5 58.5H19.5V61.5H25.5V58.5Z" fill="#E52B2B"/>
<path d="M16.5 58.5H13.5V61.5H16.5V58.5Z" fill="#E52B2B"/>
<path d="M25.5 46.5H19.5V49.5H25.5V46.5Z" fill="#E52B2B"/>
<path d="M16.5 46.5H13.5V49.5H16.5V46.5Z" fill="#E52B2B"/>
<path d="M25.5 52.5H19.5V55.5H25.5V52.5Z" fill="#E52B2B"/>
<path d="M16.5 52.5H13.5V55.5H16.5V52.5Z" fill="#E52B2B"/>
<path d="M58.5 78H55.5V88.5H58.5V78Z" fill="#E52B2B"/>
<path d="M58.5 91.5H55.5V94.5H58.5V91.5Z" fill="#E52B2B"/>
<path d="M52.5 78H49.5V88.5H52.5V78Z" fill="#E52B2B"/>
<path d="M52.5 91.5H49.5V94.5H52.5V91.5Z" fill="#E52B2B"/>
<path d="M40.5 78H37.5V88.5H40.5V78Z" fill="#E52B2B"/>
<path d="M40.5 91.5H37.5V94.5H40.5V91.5Z" fill="#E52B2B"/>
<path d="M46.5 78H43.5V88.5H46.5V78Z" fill="#E52B2B"/>
<path d="M46.5 91.5H43.5V94.5H46.5V91.5Z" fill="#E52B2B"/>
<path d="M76.5 46.5H70.5V49.5H76.5V46.5Z" fill="#E52B2B"/>
<path d="M82.5 46.5H79.5V49.5H82.5V46.5Z" fill="#E52B2B"/>
<path d="M76.5 52.5H70.5V55.5H76.5V52.5Z" fill="#E52B2B"/>
<path d="M82.5 52.5H79.5V55.5H82.5V52.5Z" fill="#E52B2B"/>
<path d="M76.5 64.5H70.5V67.5H76.5V64.5Z" fill="#E52B2B"/>
<path d="M82.5 64.5H79.5V67.5H82.5V64.5Z" fill="#E52B2B"/>
<path d="M76.5 58.5H70.5V61.5H76.5V58.5Z" fill="#E52B2B"/>
<path d="M82.5 58.5H79.5V61.5H82.5V58.5Z" fill="#E52B2B"/>
<path d="M91.812 23.1614L54.3525 3.09442C50.4585 1.00792 45.54 1.00792 41.646 3.09442L4.188 23.1614C2.5305 24.0494 1.5 25.7699 1.5 27.6524V27.9059C1.5 30.7154 3.7845 32.9999 6.594 32.9999C7.434 32.9999 8.268 32.7884 9.009 32.3909L45.891 12.5309C47.1825 11.8349 48.8175 11.8349 50.109 12.5309L86.991 32.3894C87.732 32.7884 88.566 32.9984 89.406 32.9984C92.2155 32.9999 94.5 30.7154 94.5 27.9059V27.6524C94.5 25.7699 93.4695 24.0494 91.812 23.1614ZM91.5 27.9059C91.5 29.0609 90.561 29.9999 89.406 29.9999C89.061 29.9999 88.719 29.9129 88.413 29.7494L51.531 9.89092C50.4495 9.30742 49.2285 8.99992 48 8.99992C46.7715 8.99992 45.5505 9.30742 44.469 9.89092L7.587 29.7494C7.281 29.9129 6.939 29.9999 6.594 29.9999C5.439 29.9999 4.5 29.0609 4.5 27.9059V27.6524C4.5 26.8784 4.923 26.1719 5.6055 25.8074L43.0635 5.73892C46.0905 4.11892 49.9095 4.11892 52.9365 5.73892L90.3945 25.8059C91.077 26.1719 91.5 26.8784 91.5 27.6524V27.9059Z" fill="#E52B2B"/>
<path d="M10.5 36H7.5V84H34.5V81H10.5V36Z" fill="#E52B2B"/>
<path d="M85.5 81H61.5V84H88.5V36H85.5V81Z" fill="#E52B2B"/>
<path d="M67.5 39H36.9735L28.5 45.78V75H67.5V39ZM64.5 72H31.5V47.22L38.0265 42H64.5V72Z" fill="#E52B2B"/>
<path d="M55.5 51H52.5V63H55.5V51Z" fill="#E52B2B"/>
<path d="M43.5 60H46.5V63H49.5V51H40.5V63H43.5V60ZM46.5 54V57H43.5V54H46.5Z" fill="#E52B2B"/>
<path d="M61.5 55.5H58.5V58.5H61.5V55.5Z" fill="#E52B2B"/>
<path d="M37.5 55.5H34.5V58.5H37.5V55.5Z" fill="#E52B2B"/>
</g>
<defs>
<clipPath id="clip0">
<rect width="96" height="96" fill="white"/>
</clipPath>
</defs>
</svg>
