<svg width="96" height="96" viewBox="0 0 96 96" fill="none" xmlns="http://www.w3.org/2000/svg">
<path d="M49.1169 30.2444C49.1169 29.8 48.9369 29.365 48.6238 29.0519C48.3088 28.7369 47.8738 28.5569 47.4294 28.5569C46.9851 28.5569 46.5503 28.7369 46.2369 29.0519C45.9219 29.365 45.7419 29.8 45.7419 30.2444C45.7419 30.6888 45.9219 31.1238 46.2369 31.4388C46.5503 31.7519 46.9851 31.9319 47.4294 31.9319C47.8738 31.9319 48.3088 31.7519 48.6238 31.4388C48.9369 31.1238 49.1169 30.6888 49.1169 30.2444Z" fill="#E52B2B"/>
<path d="M77.9316 60.9025H69.3809L60.7244 33.2052C60.9366 32.2514 61.0521 31.2615 61.0521 30.2447C61.0521 23.305 55.8347 17.5649 49.1174 16.7307V8.03442C49.1174 7.10236 48.3619 6.34692 47.4299 6.34692C46.4978 6.34692 45.7424 7.10236 45.7424 8.03442V16.7307C39.025 17.5649 33.8076 23.305 33.8076 30.2447C33.8076 31.2617 33.9231 32.2517 34.1355 33.2059L30.8406 43.747C30.5625 44.6365 31.0581 45.583 31.9476 45.8611C32.1152 45.9134 32.2847 45.9383 32.4516 45.9383C33.1699 45.9383 33.8359 45.4759 34.0617 44.7541L36.1932 37.9347C38.1149 40.7339 41.0539 42.7801 44.4726 43.5402L36.597 61.9276C36.5955 61.9311 36.594 61.9345 36.5925 61.9381L28.8642 79.9821H25.5994C25.5904 79.9821 25.5812 79.9821 25.5722 79.9821H23.0515L28.3281 63.0996C28.3298 63.0946 28.3315 63.0895 28.3328 63.0844L31.4241 53.1936C31.7022 52.3041 31.2066 51.3574 30.3171 51.0796C29.4274 50.8021 28.4809 51.2972 28.203 52.1866L25.4789 60.9025H18.0685C17.1364 60.9025 16.381 61.6579 16.381 62.59C16.381 63.522 17.1364 64.2775 18.0685 64.2775H24.424L19.1455 81.1662C18.9854 81.6784 19.0785 82.2366 19.3965 82.6692C19.7144 83.1017 20.2193 83.3571 20.7561 83.3571H23.2729L21.9724 87.4551C21.6904 88.3433 22.182 89.2921 23.0704 89.5739C23.2401 89.6279 23.412 89.6534 23.5812 89.6534C24.2969 89.6534 24.9612 89.1946 25.1892 88.4761L26.8135 83.3571H29.977C30.6522 83.3571 31.2623 82.9547 31.5282 82.3341L39.262 64.2775H45.5447V68.0386C45.5447 68.9706 46.3002 69.7261 47.2322 69.7261C48.1643 69.7261 48.9197 68.9706 48.9197 68.0386V64.2775H55.5972L63.3312 82.3341C63.5971 82.9547 64.2074 83.3571 64.8824 83.3571H68.0783L69.8612 88.5167C70.1026 89.2152 70.7566 89.6536 71.4563 89.6536C71.6391 89.6536 71.8251 89.6236 72.0074 89.5606C72.8882 89.2561 73.3555 88.2953 73.0512 87.4144L71.6491 83.3571H74.1031C74.6399 83.3571 75.1448 83.1017 75.4626 82.6692C75.7806 82.2366 75.8738 81.6786 75.7137 81.1662L70.4354 64.2775H77.9312C78.8633 64.2775 79.6187 63.522 79.6187 62.59C79.6187 61.6579 78.8635 60.9025 77.9316 60.9025ZM37.1826 30.2449C37.1826 24.5944 41.7795 19.9977 47.4299 19.9977C53.0802 19.9977 57.6771 24.5946 57.6771 30.2449C57.6771 35.8952 53.0802 40.4922 47.4299 40.4922C41.7795 40.4922 37.1826 35.8952 37.1826 30.2449ZM48.9199 60.9025V56.6123C48.9199 55.6802 48.1645 54.9248 47.2324 54.9248C46.3004 54.9248 45.5449 55.6802 45.5449 56.6123V60.9025H40.7078L47.4299 45.2084L54.1519 60.9025H48.9199ZM65.9957 79.9821L50.3869 43.5402C53.8058 42.7801 56.7449 40.7339 58.6666 37.9347L71.8081 79.9823H65.9957V79.9821Z" fill="#E52B2B"/>
</svg>
