<svg width="76" height="80" viewBox="0 0 76 80" fill="none" xmlns="http://www.w3.org/2000/svg">
<g clip-path="url(#clip0)">
<path d="M58.6233 58.631H16.9541V21.1694H32.1849V17.1694H12.9541V62.831H62.6079V48.4156H58.6233V58.0233V58.631ZM27.8541 36.3925V33.9925H24.731V52.5002H27.6156V44.5694C27.6156 42.1694 27.8541 40.4848 28.3387 39.5233C28.8156 38.5617 29.5387 37.8387 30.2618 37.1233C31.2233 36.6464 32.1849 36.4002 33.1464 36.4002C34.1079 36.4002 34.831 36.6387 35.5464 37.1233C36.2695 37.6002 36.5079 38.3233 36.7464 39.0464C36.9849 39.7694 36.9849 41.2079 36.9849 43.131V52.5079H39.8695V45.3002C39.8695 42.9002 40.1079 41.2156 40.3464 40.254C40.5849 39.054 41.3079 38.331 42.2695 37.6079C43.231 36.8848 44.1926 36.6464 45.1541 36.6464C46.1156 36.6464 47.0772 36.8848 47.5541 37.3694C48.2772 37.8464 48.5156 38.5694 48.7541 39.2925C48.9926 40.0156 48.9926 41.2156 48.9926 42.9002V52.9925H52.1156V42.8848C52.1156 39.5233 51.3926 37.1156 50.1926 35.9156C48.9926 34.7156 47.5464 33.9925 45.8695 33.9925C44.1849 33.9925 42.9849 34.4694 41.7849 35.1925C40.5849 35.9156 39.8618 36.8771 39.3849 37.8387C39.1464 36.8771 38.4233 36.154 37.4618 35.4387C36.2618 34.7156 35.0618 34.2387 33.6156 34.2387C30.9772 33.5079 29.0541 34.4694 27.8541 36.3925ZM61.2618 37.8387L65.3464 33.5156C66.5464 32.3156 67.2695 31.1156 67.9926 30.154C68.4695 29.1925 68.9541 28.231 68.9541 27.031C68.9541 25.5925 68.4772 24.3848 67.2695 23.1848C66.0695 21.9848 64.6233 21.9848 62.9464 21.9848C61.2618 21.9848 60.0618 22.4617 58.8618 23.6694C57.6618 24.8694 57.1772 26.3156 56.9387 28.2387H59.1003C59.1003 26.8002 59.5772 25.8387 60.3003 25.1156C61.0233 24.3925 61.7387 24.154 62.7003 24.154C63.6618 24.154 64.6233 24.3925 65.3464 25.1156C66.0695 25.8387 66.3079 26.554 66.3079 27.5156C66.3079 28.4771 66.0695 29.2002 65.5849 29.9156C65.1079 30.6387 64.3849 31.6002 63.1849 32.8002L56.2156 40.254H68.7156V38.0771H61.2618V37.8387Z" fill="#E52B2B"/>
</g>
<defs>
<clipPath id="clip0">
<rect width="74.5038" height="80" fill="white" transform="translate(0.954102)"/>
</clipPath>
</defs>
</svg>
