<svg width="76" height="80" viewBox="0 0 76 80" fill="none" xmlns="http://www.w3.org/2000/svg">
<g clip-path="url(#clip0)">
<path d="M71.6123 13.6121C72.2144 13.6121 72.7024 13.124 72.7024 12.522V9.09012C72.7024 8.48812 72.2145 8 71.6123 8H22.2815C21.6795 8 21.1914 8.48812 21.1914 9.09012V58.4207C21.1914 59.0227 21.6795 59.5108 22.2815 59.5108H71.6121C72.2142 59.5108 72.7022 59.0227 72.7022 58.4207V16.1556C72.7022 15.5536 72.2143 15.0655 71.6121 15.0655C71.0099 15.0655 70.5219 15.5536 70.5219 16.1556V34.8326H66.1927C65.5906 34.8326 65.1026 35.3207 65.1026 35.9227C65.1026 36.5247 65.5904 37.0128 66.1927 37.0128H70.5219V57.3307H39.3765V52.056C39.3765 51.454 38.8884 50.9659 38.2864 50.9659C37.6844 50.9659 37.1962 51.454 37.1962 52.056V57.3307H23.3717V10.1802H37.1964V44.2074C37.1964 44.8094 37.6845 45.2976 38.2865 45.2976C38.8885 45.2976 39.3766 44.8094 39.3766 44.2074V37.0128H58.7802C59.3823 37.0128 59.8703 36.5247 59.8703 35.9227C59.8703 35.3207 59.3825 34.8326 58.7802 34.8326H39.3765V10.1802H70.5222V12.522C70.5222 13.124 71.01 13.6121 71.6123 13.6121Z" fill="#E52B2B"/>
<path d="M17.9129 14.2914L14.3158 8.514C14.1168 8.19437 13.7668 8 13.3905 8C13.014 8 12.6641 8.19437 12.4651 8.514L8.86784 14.2914C8.65859 14.6275 8.64797 15.0506 8.84022 15.3967C9.03247 15.7429 9.39734 15.9576 9.79321 15.9576H12.3003V20.5161C12.3003 21.1181 12.7885 21.6062 13.3905 21.6062C13.9925 21.6062 14.4806 21.1181 14.4806 20.5161V15.9576H16.9877C17.3836 15.9576 17.7484 15.743 17.9407 15.3967C18.1329 15.0505 18.1223 14.6274 17.9129 14.2914ZM11.7561 13.7774L13.3903 11.1526L15.0246 13.7774H11.7561Z" fill="#E52B2B"/>
<path d="M17.9396 52.1143C17.7474 51.7682 17.3825 51.5536 16.9866 51.5536H14.4795V23.4231C14.4795 22.8211 13.9914 22.333 13.3894 22.333C12.7874 22.333 12.2992 22.8211 12.2992 23.4231V51.5535H9.79224C9.39636 51.5535 9.03149 51.7681 8.83924 52.1143C8.64699 52.4606 8.65762 52.8837 8.86686 53.2197L12.464 58.9971C12.663 59.3167 13.0129 59.5111 13.3894 59.5111C13.766 59.5111 14.1159 59.3167 14.3147 58.9971L17.9118 53.2197C18.1214 52.8834 18.132 52.4604 17.9396 52.1143ZM13.3895 56.3586L11.7551 53.7338H15.0236L13.3895 56.3586Z" fill="#E52B2B"/>
<path d="M72.1884 66.3873L66.4111 62.7902C66.0749 62.5809 65.6518 62.5704 65.3057 62.7625C64.9596 62.9548 64.7449 63.3197 64.7449 63.7155V66.2226H29.149V63.7155C29.149 63.3197 28.9344 62.9548 28.5883 62.7625C28.2421 62.5704 27.8191 62.5809 27.4828 62.7902L21.7054 66.3873C21.3858 66.5863 21.1914 66.9361 21.1914 67.3126C21.1914 67.6891 21.3858 68.039 21.7054 68.238L27.4828 71.8351C27.6588 71.9448 27.8588 71.9998 28.0589 71.9998C28.241 71.9998 28.4233 71.9543 28.5881 71.8628C28.9344 71.6705 29.149 71.3056 29.149 70.9098V68.4026H64.7448V70.9098C64.7448 71.3056 64.9597 71.6705 65.3056 71.8628C65.4706 71.9544 65.6528 71.9998 65.8349 71.9998C66.0351 71.9998 66.2351 71.9446 66.4111 71.8351L72.1884 68.238C72.508 68.039 72.7024 67.6891 72.7024 67.3126C72.7024 66.936 72.508 66.5863 72.1884 66.3873ZM26.9688 68.9469L24.344 67.3126L26.9688 65.6784V68.9469ZM66.9251 68.9469V65.6784L69.5501 67.3126L66.9251 68.9469Z" fill="#E52B2B"/>
</g>
<defs>
<clipPath id="clip0">
<rect width="64" height="64" fill="white" transform="translate(8.70215 8)"/>
</clipPath>
</defs>
</svg>
