<svg width="190" height="190" viewBox="0 0 190 190" fill="none" xmlns="http://www.w3.org/2000/svg">
<circle cx="95" cy="95" r="95" fill="#F8C63E"/>
<path d="M147.8 42.2002H42.2V147.8H147.8V42.2002ZM143.4 143.4H46.6V46.6002H143.4V143.4Z" fill="black"/>
<path d="M87.7554 59.1557L84.6446 56.0449L66.4 74.2895L59.1554 67.0449L56.0446 70.1557L66.4 80.5111L87.7554 59.1557Z" fill="black"/>
<path d="M134.6 66.4004H95V70.8004H134.6V66.4004Z" fill="black"/>
<path d="M87.7554 85.5556L84.6446 82.4448L66.4 100.689L59.1554 93.4448L56.0446 96.5556L66.4 106.911L87.7554 85.5556Z" fill="black"/>
<path d="M134.6 92.8003H95V97.2003H134.6V92.8003Z" fill="black"/>
<path d="M87.7554 111.956L84.6446 108.845L66.4 127.089L59.1554 119.845L56.0446 122.956L66.4 133.311L87.7554 111.956Z" fill="black"/>
<path d="M134.6 119.2H95V123.6H134.6V119.2Z" fill="black"/>
</svg>
