<svg width="190" height="190" viewBox="0 0 190 190" fill="none" xmlns="http://www.w3.org/2000/svg">
<circle cx="95" cy="95" r="95" fill="#F8C63E"/>
<path d="M106.822 43.8001L101.702 33.5601H88.2979L83.1779 43.8001H74.52V48.9201H51.48V156.44H138.52V48.9201H115.48V43.8001H106.822ZM86.3421 48.9201L91.4621 38.6801H98.5379L103.658 48.9201H110.36V59.1601V64.2801H79.64V59.1601V48.9201H86.3421ZM115.48 69.4001V64.2801H123.16V141.08H66.84V64.2801H74.52V69.4001H115.48ZM133.4 54.0401V151.32H56.6V54.0401H74.52V59.1601H61.72V146.2H128.28V59.1601H115.48V54.0401H133.4Z" fill="black"/>
<path d="M97.5599 46.3599H92.4399V51.4799H97.5599V46.3599Z" fill="black"/>
<path d="M112.92 79.6401H77.08V84.7601H112.92V79.6401Z" fill="black"/>
<path d="M112.92 95H77.08V100.12H112.92V95Z" fill="black"/>
<path d="M112.92 110.36H77.08V115.48H112.92V110.36Z" fill="black"/>
<path d="M112.92 125.72H77.08V130.84H112.92V125.72Z" fill="black"/>
</svg>
