<svg width="190" height="190" viewBox="0 0 190 190" fill="none" xmlns="http://www.w3.org/2000/svg">
<circle cx="95" cy="95" r="95" fill="#F8C63E"/>
<path d="M43.8 48.9201V156.44H130.84V141.08H146.2V33.5601H59.16V48.9201H43.8ZM125.72 151.32H48.92V54.0401H59.16H107.8V71.9601H125.72V141.08V151.32ZM112.92 57.6599L122.1 66.8401H112.92V57.6599ZM64.28 38.6801H141.08V135.96H130.84V68.3402L111.42 48.9201H64.28V38.6801Z" fill="black"/>
<path d="M115.48 82.2002H59.16V87.3202H115.48V82.2002Z" fill="black"/>
<path d="M115.48 97.5601H59.16V102.68H115.48V97.5601Z" fill="black"/>
<path d="M115.48 112.92H59.16V118.04H115.48V112.92Z" fill="black"/>
<path d="M82.2 133.4H59.16V138.52H82.2V133.4Z" fill="black"/>
<path d="M115.48 133.4H92.44V138.52H115.48V133.4Z" fill="black"/>
<path d="M97.56 66.8398H77.08V71.9598H97.56V66.8398Z" fill="black"/>
</svg>
