<svg width="190" height="190" viewBox="0 0 190 190" fill="none" xmlns="http://www.w3.org/2000/svg">
<circle cx="95" cy="95" r="95" fill="#F8C63E"/>
<path d="M136.988 81.8801V51.1368H131.902V46.8353C131.902 43.3228 129.046 40.4653 125.534 40.4653H59.3825C55.87 40.4653 53.0122 43.3231 53.0122 46.8353V48.2393V55.2281V58.4393C53.0122 61.9518 55.87 64.8093 59.3825 64.8093H69.0862C69.6417 67.4426 71.9827 69.4253 74.779 69.4253C77.5752 69.4253 79.9162 67.4426 80.4717 64.8093H125.534C129.046 64.8093 131.902 61.9516 131.902 58.4393V54.1368H133.988V79.3666L93.184 86.6291V95.4406H86.158V141.009C86.158 145.711 89.9827 149.535 94.684 149.535C99.3852 149.535 103.21 145.711 103.21 141.009V95.4408H96.184V89.1426L136.988 81.8801ZM128.902 52.2253L119.318 61.8093H109.526L121 50.3348L118.879 48.2136L105.283 61.8096H95.4602L97.071 60.1988L94.9495 58.0776L91.2175 61.8096H81.516L99.8605 43.4653H109.562L97.0745 55.9528L99.1955 58.0741L113.804 43.4651H123.627L121.19 45.9026L123.311 48.0238L127.34 43.9951C128.277 44.5941 128.902 45.6418 128.902 46.8351V52.2253H128.902ZM80.5975 48.8488L85.9795 43.4653H95.6182L80.5975 58.4858V48.8488ZM80.5975 44.6053V43.4651H81.7375L80.5975 44.6053ZM56.0437 58.8738C56.2642 58.9151 56.491 58.9391 56.7232 58.9391C58.7695 58.9391 60.434 57.2743 60.434 55.2281V54.6611C60.434 54.0546 60.9275 53.5611 61.534 53.5611C62.1405 53.5611 62.634 54.0546 62.634 54.6611V57.0436C62.634 59.6148 64.726 61.7068 67.2972 61.7068C67.4975 61.7068 67.6887 61.7441 67.8665 61.8093H59.3825C57.6717 61.8093 56.258 60.5271 56.0437 58.8738ZM74.779 66.4256C73.225 66.4256 71.9607 65.1613 71.9607 63.6071V63.3703C71.9607 60.7988 69.8687 58.7071 67.2975 58.7071C66.3802 58.7071 65.6342 57.9611 65.6342 57.0438V54.6613C65.6342 52.4006 63.795 50.5613 61.5342 50.5613C59.2735 50.5613 57.4342 52.4006 57.4342 54.6613V55.2283C57.4342 55.6203 57.1155 55.9393 56.7235 55.9393C56.3315 55.9393 56.0125 55.6206 56.0125 55.2283V48.2393V46.8353C56.0125 44.9768 57.5245 43.4653 59.3827 43.4653H77.5977V63.6071C77.5975 65.1613 76.3332 66.4256 74.779 66.4256ZM125.535 61.8093H123.561L128.902 56.4681V58.4391C128.902 60.2976 127.391 61.8093 125.535 61.8093ZM94.684 146.536C91.637 146.536 89.158 144.057 89.158 141.01V103.02H100.21V141.01C100.21 144.057 97.731 146.536 94.684 146.536ZM100.21 100.02H89.1582V98.4408H100.21V100.02Z" fill="black"/>
<path d="M96.1838 106.01H93.1838V109.798H96.1838V106.01Z" fill="black"/>
<path d="M96.1838 112.284H93.1838V140.814H96.1838V112.284Z" fill="black"/>
</svg>
