<svg width="190" height="190" viewBox="0 0 190 190" fill="none" xmlns="http://www.w3.org/2000/svg">
<circle cx="95" cy="95" r="95" fill="#F8C63E"/>
<path d="M103.22 122.385H66.5592V47.5249H65.0592H57.7005H46.4692V142.475H48.7295H66.5592H103.22V122.385ZM100.219 125.385V128.109H66.5592V125.385H100.219ZM66.5592 131.109H100.219V133.751H66.5592V131.109ZM57.7007 50.5249H63.5595V64.7654H60.6117V67.7654H63.5595V70.5122H57.7007V73.5122H57.7902V73.6017H63.5592V76.6712H60.6115V79.6712H63.5592V82.7404H57.7005V85.7404H63.5592V88.1202H60.6115V91.1202H63.5592V93.4999H57.7005V96.4999H63.5592V99.2467H60.6115V102.247H63.5592V104.993H57.7005V107.993H63.5592V110.74H60.6115V113.74H63.5592V116.487H57.7005V119.487H63.5592V123.267L49.4692 137.475V50.5249H57.7007ZM51.711 139.475L63.5595 127.528V139.475H51.711ZM66.5592 139.475V136.751H100.219V139.475H66.5592Z" fill="black"/>
<path d="M56.5145 61.4631C58.8657 61.4631 60.779 59.5501 60.779 57.1986C60.779 54.8471 58.866 52.9341 56.5145 52.9341C54.163 52.9341 52.25 54.8471 52.25 57.1986C52.25 59.5498 54.163 61.4631 56.5145 61.4631ZM56.5145 55.9341C57.2117 55.9341 57.779 56.5013 57.779 57.1986C57.779 57.8956 57.2117 58.4631 56.5145 58.4631C55.8172 58.4631 55.25 57.8956 55.25 57.1986C55.25 56.5013 55.8172 55.9341 56.5145 55.9341Z" fill="black"/>
<path d="M131.452 59.4048L84.1312 106.726L96.2095 118.804L143.53 71.483L131.452 59.4048ZM88.374 106.726L91.5197 103.58L93.651 105.711L95.772 103.59L93.641 101.459L95.4397 99.66L99.6677 103.888L101.789 101.767L97.5607 97.5388L99.4095 95.6903L101.518 97.799L103.639 95.678L101.53 93.5693L103.419 91.6803L107.562 95.823L109.683 93.7018L105.541 89.5593L107.223 87.8768L109.307 89.961L111.429 87.8398L109.344 85.7553L111.027 84.0728L115.17 88.2155L117.291 86.0943L113.148 81.9515L115.091 80.009L117.175 82.0935L119.296 79.9723L117.212 77.888L119.154 75.9455L123.297 80.0883L125.418 77.967L121.275 73.8245L123.218 71.8818L125.303 73.9663L127.424 71.845L125.339 69.7605L127.282 67.818L131.424 71.9608L133.545 69.8393L129.403 65.6968L131.452 63.648L139.287 71.4838L96.2097 114.562L88.374 106.726Z" fill="black"/>
<path d="M84.4877 59.6704V81.8437L106.661 59.6704H84.4877ZM87.4877 62.6704H99.4182L87.4877 74.6009V62.6704Z" fill="black"/>
<path d="M81.5027 50.2988H76.9519H75.4519V103.547L128.7 50.2988H81.5027ZM78.4519 90.9891H80.6739V87.9891H78.4519V85.6048H82.4497V82.6048H78.4519V80.2206H80.6739V77.2206H78.4519V74.8361H82.4497V71.8361H78.4519V69.4518H80.6739V66.4518H78.4519V64.0676H82.4497V61.0676H78.4519V58.6833H80.6739V55.6833H78.4519V53.2991H81.5027H121.457L78.4519 96.3041V90.9891Z" fill="black"/>
</svg>
