<svg width="166" height="32" viewBox="0 0 166 32" fill="none" xmlns="http://www.w3.org/2000/svg">
<g clip-path="url(#clip0)">
<path d="M42.5 6V31.7H36.4V6H26.2V0.399998H52.7V6H42.5ZM73 31.7C70.3 23.6 66.7 15.9 64.1 7.8C61.7 15.9 58 23.7 55.4 31.7H49L61.1 0.299998H67.5L79.6 31.7H73ZM81.3 31.8L79.6 26.8C84.6 25.8 85.1 20.5 85.1 16.2L85 0.499998H106.8V31.5H100.8V5.9H90.9V16.7C90.9 23.6 89.3 31.1 81.3 31.8ZM160.4 0.299998H166.5V31.8H160.4V0.299998ZM141.2 31.7V0.299998H147.3V31.7C145.3 31.7 143.2 31.7 141.2 31.7ZM18.9 15.9C15.6 19.3 9 19.3 5.6 15.9C9 12.5 15.6 12.5 18.9 15.9ZM70.7 26.2C67.4 29.6 60.8 29.6 57.4 26.2C60.8 22.9 67.4 22.9 70.7 26.2ZM160.3 15.9C157.1 19.1 150.8 19.1 147.6 15.9C150.7 12.7 157.1 12.7 160.3 15.9ZM132.6 16.2C132.6 23.2 128.3 27.2 124 27.2C119.8 27.1 115.7 23.1 115.7 16.2C115.7 8.9 120 5 124.3 5.1C128.4 5.1 132.6 9.1 132.6 16.2ZM138.9 16.3C138.8 -5.4 109.4 -5.4 109.3 16.3C109.4 37.3 138.8 37.3 138.9 16.3ZM0 30.2C0.4 28.5 0.9 26.8 1.3 25C3.8 26 6.8 26.7 9.5 26.5C15.8 26 19.2 22.9 19.2 15.9C19.2 9.5 16.2 5.7 10.1 5.4C7 5.3 4.4 5.9 1.7 6.9C1.3 5.2 0.9 3.5 0.5 1.9C3.6 0.699998 6.7 -0.100002 10 -1.73505e-06C31.1 0.399998 31 32 9.2 32C5.9 32 3.1 31.4 0 30.2Z" fill="#E52B2B"/>
</g>
<defs>
<clipPath id="clip0">
<rect width="166" height="32" fill="white"/>
</clipPath>
</defs>
</svg>
