<svg width="161" height="86" viewBox="0 0 161 86" fill="none" xmlns="http://www.w3.org/2000/svg">
<g clip-path="url(#clip0)">
<path d="M9.43715 66.5592C8.71704 67.34 7.27684 67.8865 5.83663 67.8865C2.38771 67.8865 0 65.5052 0 61.8747C0 58.5175 2.04661 55.8629 5.76083 55.8629C7.23894 55.8629 8.45174 56.3314 9.20975 57.034L8.33804 58.5565C7.65584 58.0881 6.93573 57.7758 5.79873 57.7758C3.71422 57.7758 2.12241 59.3373 2.12241 61.8747C2.12241 64.295 3.71422 65.9737 6.02613 65.9737C6.97363 65.9737 7.92114 65.6614 8.71704 65.0368L9.43715 66.5592ZM11.787 56.0581H18.3058V57.9709H13.7578V60.8597H17.8131V62.7726H13.7578V65.7785H18.4574V67.6523H11.787V56.0581ZM23.4223 62.6555V65.7394C23.6876 65.7785 24.1803 65.8175 24.7109 65.8175C26.0374 65.8175 26.7575 65.232 26.7575 64.1389C26.7575 63.163 26.0374 62.6555 24.7867 62.6555H23.4223ZM23.4223 57.9709V60.8988H24.7488C25.6584 60.8988 26.4164 60.4303 26.4164 59.3373C26.4164 58.4004 25.6963 57.8929 24.6351 57.8929C24.2182 57.8929 23.7634 57.9319 23.4223 57.9709ZM21.4515 56.0971C22.0958 56.0581 23.5739 56.0191 24.7109 56.0191C27.4018 56.0191 28.4251 57.2683 28.4251 58.9078C28.4251 60.2351 27.7808 61.094 26.7954 61.5624V61.6015C27.8945 61.8747 28.7662 62.7726 28.7662 64.295C28.7662 66.6763 26.947 67.7694 24.5593 67.7694C23.536 67.7694 22.0579 67.7304 21.4136 67.6913V56.0971H21.4515ZM31.7604 56.0581H38.3171V57.9709H33.7691V60.8597H37.8244V62.7726H33.7691V65.7785H38.4687V67.6523H31.7604V56.0581ZM43.3957 57.9709V61.5234C43.8505 61.5624 44.3432 61.6015 44.798 61.6015C45.9729 61.6015 46.8825 61.0159 46.8825 59.7276C46.8825 58.5175 46.1624 57.9319 44.798 57.9319C44.419 57.9319 43.9642 57.9319 43.3957 57.9709ZM41.4249 67.6523V56.0191C42.0692 56.0191 43.8505 55.98 44.6464 55.98C47.9816 55.98 49.0049 57.8148 49.0049 59.7276C49.0049 61.7186 47.5647 63.5143 44.8738 63.5143C44.5327 63.5143 43.8884 63.5143 43.3957 63.4753V67.6913L41.4249 67.6523ZM58.8211 62.6945H53.6667V67.6523H51.6959V56.0581H53.6667V60.7817H58.8211V56.0581H60.7919V67.6523H58.8211V62.6945ZM66.7801 62.7726H70.0774L68.4477 58.6346L66.7801 62.7726ZM67.6139 56.0191H69.3573L74.1328 67.6913H72.0104L70.8354 64.7245H66.0221L64.8472 67.6913H62.8385L67.6139 56.0191ZM81.3338 61.7576V57.9709C81.0685 57.9709 80.4242 57.9319 80.0831 57.9319C78.7945 57.9319 77.9228 58.7517 77.9228 59.9228C77.9228 60.9768 78.6808 61.6015 79.5146 61.7966H81.3338V61.7576ZM81.3338 63.6704H79.7041L77.1648 67.6913H74.9287L77.8091 63.241C76.7479 62.6945 75.8383 61.6405 75.8383 60.0009C75.8383 57.8538 77.2027 55.98 80.5 55.98C81.2201 55.98 82.6603 56.0191 83.3046 56.0191V67.6523H81.3338V63.6704ZM90.5815 56.0581H92.5902V61.5624L97.0245 56.0581H99.4122L94.7884 61.4453L99.7154 67.6523H97.1761L92.5902 61.6795V67.6523H90.5815V56.0581ZM106.234 65.9346C108.622 65.9346 110.024 64.1389 110.024 61.8357C110.024 59.4153 108.357 57.7367 106.234 57.7367C104.074 57.7367 102.444 59.4153 102.444 61.8357C102.444 64.1779 104.112 65.9346 106.234 65.9346ZM106.234 55.8629C109.569 55.8629 112.109 58.2442 112.109 61.8747C112.109 65.3491 109.569 67.8865 106.234 67.8865C102.899 67.8865 100.36 65.5052 100.36 61.8747C100.36 58.4784 102.747 55.8629 106.234 55.8629ZM116.77 57.9709V61.5234C117.225 61.5624 117.718 61.6015 118.173 61.6015C119.348 61.6015 120.257 61.0159 120.257 59.7276C120.257 58.5175 119.537 57.9319 118.173 57.9319C117.794 57.9319 117.301 57.9319 116.77 57.9709ZM114.8 67.6523V56.0191C115.444 56.0191 117.225 55.98 118.021 55.98C121.356 55.98 122.38 57.8148 122.38 59.7276C122.38 61.7186 120.939 63.5143 118.249 63.5143C117.907 63.5143 117.263 63.5143 116.77 63.4753V67.6913L114.8 67.6523ZM129.998 65.9346C132.385 65.9346 133.788 64.1389 133.788 61.8357C133.788 59.4153 132.12 57.7367 129.998 57.7367C127.837 57.7367 126.208 59.4153 126.208 61.8357C126.208 64.1779 127.875 65.9346 129.998 65.9346ZM129.998 55.8629C133.333 55.8629 135.872 58.2442 135.872 61.8747C135.872 65.3491 133.333 67.8865 129.998 67.8865C126.662 67.8865 124.123 65.5052 124.123 61.8747C124.123 58.4784 126.511 55.8629 129.998 55.8629ZM145.688 62.6945H140.534V67.6523H138.563V56.0581H140.534V60.7817H145.688V56.0581H147.659V67.6523H145.688V62.6945ZM153.647 62.7726H156.945L155.315 58.6346L153.647 62.7726ZM154.481 56.0191H156.225L161 67.6913H158.878L157.703 64.7245H152.889L151.714 67.6913H149.706L154.481 56.0191ZM35.8157 82.1743L38.734 85.8829H37.7486L34.9061 82.1743L37.6349 78.778H38.6203L35.8157 82.1743ZM33.8828 78.778H34.7166V85.8829H33.8828V78.778ZM30.0169 78.778H31.0024L33.7312 82.1743L30.8887 85.8829H29.9032L32.8216 82.1743L30.0169 78.778ZM40.2121 85.8829V78.778H41.0459V84.4385L45.2528 78.778H45.9729V85.8829H45.1391V80.1834L40.9322 85.8829H40.2121ZM52.5297 79.5588H50.0282L49.9145 80.8861C49.4976 85.4144 48.588 86 47.4889 85.8438V84.985C47.9816 85.0241 48.8154 84.7898 49.1186 80.1443L49.2323 78.739H53.3635V85.8829H52.5297V79.5588ZM58.6695 85.1802C60.2613 85.1802 61.3225 83.931 61.3225 82.3305C61.3225 80.6909 60.1855 79.4807 58.6695 79.4807C57.1535 79.4807 56.0165 80.6518 56.0165 82.3305C56.0165 83.931 57.1914 85.1802 58.6695 85.1802ZM58.6695 78.6609C60.6782 78.6609 62.1942 80.1443 62.1942 82.3305C62.1942 84.4385 60.6782 86 58.6695 86C56.6608 86 55.1448 84.5166 55.1448 82.3305C55.1448 80.2615 56.6229 78.6609 58.6695 78.6609ZM65.8705 77.1384C66.0221 77.5679 66.3632 77.8021 66.9317 77.8021C67.4623 77.8021 67.8413 77.6069 67.955 77.1384H68.7509C68.6751 77.9192 67.8792 78.4267 66.9317 78.4267C65.9084 78.4267 65.1883 77.8802 65.0746 77.1384H65.8705ZM63.9755 85.8829V78.778H64.8093V84.4775L69.0162 78.778H69.7742V85.8829H68.9404V80.1834L64.6956 85.8829H63.9755ZM76.4826 82.0962L79.7041 85.8829H78.6429L75.4972 82.1743L78.5292 78.778H79.5525L76.4826 82.0962ZM74.5118 78.778H75.3456V85.8829H74.5118V78.778ZM83.7594 85.1802C85.3512 85.1802 86.4124 83.931 86.4124 82.3305C86.4124 80.6909 85.2754 79.4807 83.7594 79.4807C82.2434 79.4807 81.1064 80.6518 81.1064 82.3305C81.1064 83.931 82.2813 85.1802 83.7594 85.1802ZM83.7594 78.6609C85.7681 78.6609 87.2841 80.1443 87.2841 82.3305C87.2841 84.4385 85.7681 86 83.7594 86C81.7507 86 80.2347 84.5166 80.2347 82.3305C80.2347 80.2615 81.7128 78.6609 83.7594 78.6609ZM89.0275 78.778H89.8992L92.4765 82.4085L94.9779 78.778H95.7738V85.8829H94.94V80.1053L92.4765 83.6577H92.3628L89.8992 80.1443V85.8829H89.0275V78.778ZM102.672 79.5588H98.9195V85.8829H98.0857V78.778H103.505V85.8829H102.672V79.5588ZM110.062 79.5588H107.561L107.447 80.8861C107.03 85.4144 106.121 86 105.021 85.8438V84.985C105.514 85.0241 106.348 84.7898 106.651 80.1443L106.765 78.739H110.896V85.8829H110.062V79.5588ZM113.246 78.778H117.112V79.5588H114.08V81.862H116.846V82.6818H114.08V85.0631H117.225V85.8829H113.246V78.778ZM121.129 82.0962L124.351 85.8829H123.289L120.144 82.1743L123.176 78.778H124.199L121.129 82.0962ZM119.158 78.778H119.992V85.8829H119.158V78.778ZM130.566 85.1802C130.111 85.6877 129.24 85.961 128.368 85.961C126.283 85.961 124.881 84.5166 124.881 82.2914C124.881 80.2615 126.17 78.6219 128.33 78.6219C129.202 78.6219 129.922 78.8951 130.415 79.3246L130.036 79.9882C129.581 79.6369 129.05 79.4417 128.33 79.4417C126.814 79.4417 125.753 80.6128 125.753 82.2914C125.753 84.0091 126.852 85.1412 128.444 85.1412C129.088 85.1412 129.732 84.9069 130.225 84.5166L130.566 85.1802Z" fill="#E52B2B"/>
<path d="M80.3861 22.9932L66.8936 34.5093L51.2787 23.5788L52.3778 26.8189L67.6516 37.4762L80.424 26.5847L93.1963 37.4762L108.47 26.7798L109.531 23.5397L93.8785 34.4703L80.3861 22.9932ZM80.3861 0L63.8237 14.1707L44.9873 1.01498L45.6316 2.96686L64.468 16.1226L80.3482 2.53745L96.2284 16.1226L115.065 2.92783L115.709 0.975942L96.8727 14.1316L80.3861 0ZM80.3861 28.7708L67.6516 39.6232L52.8326 29.2392L54.0076 32.7916L68.3717 42.8243L80.3482 32.5965L92.3246 42.8243L106.727 32.7526L107.902 29.2002L93.0447 39.5842L80.3861 28.7708ZM80.3861 11.5161L65.3397 24.3595L48.133 12.2969L49.0047 14.8734L66.0598 26.7798L80.3861 14.522L94.7123 26.7798L111.767 14.8343L112.639 12.2578L95.3946 24.2814L80.3861 11.5161ZM80.3861 17.2547L66.1356 29.4344L49.7248 17.9573L50.7102 20.8852L66.8557 32.167L80.3861 20.5729L93.9164 32.167L110.1 20.8461L111.085 17.9183L94.6365 29.3954L80.3861 17.2547ZM96.1905 19.2456L114.231 6.6364L113.473 8.90059L95.5083 21.4707L80.3861 8.54925L65.2639 21.4707L47.2992 8.90059L46.5412 6.6364L64.5438 19.2456L80.3482 5.73854L96.1905 19.2456Z" fill="#E52B2B"/>
</g>
<defs>
<clipPath id="clip0">
<rect width="161" height="86" fill="white"/>
</clipPath>
</defs>
</svg>
