<svg width="240" height="125" viewBox="0 0 240 125" fill="none" xmlns="http://www.w3.org/2000/svg">
<g clip-path="url(#clip0)">
<path d="M14.3528 96.8445C13.2825 97.9752 11.1419 98.7668 9.0013 98.7668C3.87509 98.7668 0.326172 95.318 0.326172 90.06C0.326172 85.1978 3.3681 81.3533 8.88864 81.3533C11.0856 81.3533 12.8882 82.0317 14.0148 83.0494L12.7192 85.2543C11.7052 84.5759 10.6349 84.1236 8.94497 84.1236C5.84671 84.1236 3.48076 86.3851 3.48076 90.06C3.48076 93.5653 5.84671 95.9964 9.28296 95.9964C10.6913 95.9964 12.0996 95.5441 13.2825 94.6395L14.3528 96.8445ZM17.8454 81.636H27.5345V84.4063H20.7747V88.59H26.8022V91.3604H20.7747V95.7137H27.7599V98.4275H17.8454V81.636ZM35.1393 91.1908V95.6572C35.5337 95.7137 36.266 95.7703 37.0546 95.7703C39.0263 95.7703 40.0966 94.9222 40.0966 93.3392C40.0966 91.9257 39.0263 91.1908 37.1673 91.1908H35.1393ZM35.1393 84.4063V88.6466H37.111C38.4629 88.6466 39.5896 87.9681 39.5896 86.3851C39.5896 85.0282 38.5193 84.2932 36.942 84.2932C36.3223 84.2932 35.6463 84.3497 35.1393 84.4063ZM32.2101 81.6925C33.1677 81.636 35.3647 81.5794 37.0546 81.5794C41.0542 81.5794 42.5752 83.3886 42.5752 85.7632C42.5752 87.6854 41.6175 88.9293 40.1529 89.6077V89.6643C41.7865 90.06 43.0822 91.3604 43.0822 93.5653C43.0822 97.0141 40.3782 98.5972 36.8293 98.5972C35.3083 98.5972 33.1114 98.5406 32.1538 98.4841V81.6925H32.2101ZM47.5324 81.636H57.2778V84.4063H50.518V88.59H56.5455V91.3604H50.518V95.7137H57.5032V98.4275H47.5324V81.636ZM64.8263 84.4063V89.5512C65.5023 89.6077 66.2346 89.6643 66.9106 89.6643C68.6569 89.6643 70.0089 88.8162 70.0089 86.9505C70.0089 85.1978 68.9385 84.3497 66.9106 84.3497C66.3473 84.3497 65.6713 84.3497 64.8263 84.4063ZM61.897 98.4275V81.5794C62.8547 81.5794 65.5023 81.5229 66.6853 81.5229C71.6425 81.5229 73.1634 84.1801 73.1634 86.9505C73.1634 89.8339 71.0228 92.4346 67.0233 92.4346C66.5163 92.4346 65.5586 92.4346 64.8263 92.378V98.4841L61.897 98.4275ZM87.7534 91.2473H80.0923V98.4275H77.163V81.636H80.0923V88.477H87.7534V81.636H90.6827V98.4275H87.7534V91.2473ZM99.5832 91.3604H104.484L102.062 85.3674L99.5832 91.3604ZM100.822 81.5794H103.414L110.512 98.4841H107.357L105.611 94.1872H98.4565L96.7102 98.4841H93.7246L100.822 81.5794ZM121.215 89.8904V84.4063C120.82 84.4063 119.863 84.3497 119.356 84.3497C117.44 84.3497 116.145 85.537 116.145 87.2331C116.145 88.7597 117.271 89.6643 118.511 89.9469H121.215V89.8904ZM121.215 92.6607H118.792L115.018 98.4841H111.695L115.976 92.0388C114.398 91.2473 113.047 89.7208 113.047 87.3462C113.047 84.2367 115.074 81.5229 119.975 81.5229C121.046 81.5229 123.186 81.5794 124.144 81.5794V98.4275H121.215V92.6607ZM134.96 81.636H137.945V89.6077L144.536 81.636H148.085L141.213 89.4381L148.536 98.4275H144.761L137.945 89.7773V98.4275H134.96V81.636ZM158.225 95.9399C161.774 95.9399 163.858 93.3392 163.858 90.0035C163.858 86.4982 161.379 84.0671 158.225 84.0671C155.014 84.0671 152.592 86.4982 152.592 90.0035C152.592 93.3957 155.07 95.9399 158.225 95.9399ZM158.225 81.3533C163.182 81.3533 166.956 84.802 166.956 90.06C166.956 95.0918 163.182 98.7668 158.225 98.7668C153.268 98.7668 149.493 95.318 149.493 90.06C149.493 85.1413 153.042 81.3533 158.225 81.3533ZM173.885 84.4063V89.5512C174.561 89.6077 175.293 89.6643 175.969 89.6643C177.716 89.6643 179.068 88.8162 179.068 86.9505C179.068 85.1978 177.997 84.3497 175.969 84.3497C175.406 84.3497 174.674 84.3497 173.885 84.4063ZM170.956 98.4275V81.5794C171.913 81.5794 174.561 81.5229 175.744 81.5229C180.701 81.5229 182.222 84.1801 182.222 86.9505C182.222 89.8339 180.082 92.4346 176.082 92.4346C175.575 92.4346 174.617 92.4346 173.885 92.378V98.4841L170.956 98.4275ZM193.545 95.9399C197.094 95.9399 199.178 93.3392 199.178 90.0035C199.178 86.4982 196.7 84.0671 193.545 84.0671C190.334 84.0671 187.912 86.4982 187.912 90.0035C187.912 93.3957 190.39 95.9399 193.545 95.9399ZM193.545 81.3533C198.502 81.3533 202.276 84.802 202.276 90.06C202.276 95.0918 198.502 98.7668 193.545 98.7668C188.588 98.7668 184.813 95.318 184.813 90.06C184.813 85.1413 188.362 81.3533 193.545 81.3533ZM216.866 91.2473H209.205V98.4275H206.276V81.636H209.205V88.477H216.866V81.636H219.796V98.4275H216.866V91.2473ZM228.696 91.3604H233.597L231.175 85.3674L228.696 91.3604ZM229.935 81.5794H232.527L239.624 98.4841H236.47L234.724 94.1872H227.569L225.823 98.4841H222.838L229.935 81.5794ZM53.5599 119.459L57.8975 124.83H56.4328L52.2079 119.459L56.2638 114.541H57.7285L53.5599 119.459ZM50.687 114.541H51.9263V124.83H50.687V114.541ZM44.9411 114.541H46.4057L50.4617 119.459L46.2368 124.83H44.7721L49.1097 119.459L44.9411 114.541ZM60.0944 124.83V114.541H61.3337V122.739L67.5866 114.541H68.6569V124.83H67.4176V116.576L61.1647 124.83H60.0944ZM78.4023 115.671H74.6844L74.5154 117.594C73.8958 124.152 72.5438 125 70.9102 124.774V123.53C71.6425 123.587 72.8818 123.247 73.3324 116.519L73.5014 114.484H79.6416V124.83H78.4023V115.671ZM87.5281 123.813C89.8941 123.813 91.4713 122.004 91.4713 119.686C91.4713 117.311 89.7814 115.558 87.5281 115.558C85.2748 115.558 83.5849 117.254 83.5849 119.686C83.5849 122.004 85.3312 123.813 87.5281 123.813ZM87.5281 114.371C90.5137 114.371 92.767 116.519 92.767 119.686C92.767 122.739 90.5137 125 87.5281 125C84.5425 125 82.2892 122.852 82.2892 119.686C82.2892 116.689 84.4862 114.371 87.5281 114.371ZM98.2312 112.166C98.4565 112.788 98.9635 113.127 99.8085 113.127C100.597 113.127 101.16 112.845 101.329 112.166H102.512C102.4 113.297 101.217 114.032 99.8085 114.032C98.2875 114.032 97.2172 113.24 97.0482 112.166H98.2312ZM95.4146 124.83V114.541H96.6539V122.795L102.907 114.541H104.033V124.83H102.794V116.576L96.4849 124.83H95.4146ZM114.004 119.346L118.792 124.83H117.215L112.54 119.459L117.046 114.541H118.567L114.004 119.346ZM111.075 114.541H112.314V124.83H111.075V114.541ZM124.82 123.813C127.186 123.813 128.763 122.004 128.763 119.686C128.763 117.311 127.073 115.558 124.82 115.558C122.567 115.558 120.877 117.254 120.877 119.686C120.877 122.004 122.623 123.813 124.82 123.813ZM124.82 114.371C127.805 114.371 130.059 116.519 130.059 119.686C130.059 122.739 127.805 125 124.82 125C121.834 125 119.581 122.852 119.581 119.686C119.581 116.689 121.778 114.371 124.82 114.371ZM132.65 114.541H133.946L137.776 119.799L141.494 114.541H142.677V124.83H141.438V116.463L137.776 121.608H137.607L133.946 116.519V124.83H132.65V114.541ZM152.93 115.671H147.353V124.83H146.113V114.541H154.169V124.83H152.93V115.671ZM163.914 115.671H160.196L160.027 117.594C159.408 124.152 158.056 125 156.422 124.774V123.53C157.154 123.587 158.394 123.247 158.844 116.519L159.013 114.484H165.154V124.83H163.914V115.671ZM168.646 114.541H174.392V115.671H169.885V119.007H173.998V120.194H169.885V123.643H174.561V124.83H168.646V114.541ZM180.363 119.346L185.151 124.83H183.574L178.899 119.459L183.405 114.541H184.926L180.363 119.346ZM177.434 114.541H178.673V124.83H177.434V114.541ZM194.39 123.813C193.714 124.548 192.418 124.944 191.123 124.944C188.024 124.944 185.94 122.852 185.94 119.629C185.94 116.689 187.855 114.315 191.066 114.315C192.362 114.315 193.432 114.71 194.165 115.332L193.601 116.293C192.925 115.784 192.137 115.502 191.066 115.502C188.813 115.502 187.236 117.198 187.236 119.629C187.236 122.117 188.869 123.756 191.235 123.756C192.193 123.756 193.151 123.417 193.883 122.852L194.39 123.813Z" fill="#E52B2B"/>
<path d="M119.806 33.7489L99.7523 50.4274L76.5435 34.597L78.1771 39.2896L100.879 54.7242L119.863 38.9504L138.847 54.7242L161.548 39.233L163.126 34.5404L139.861 50.3709L119.806 33.7489ZM119.806 0.448486L95.1894 20.9715L67.1924 1.91845L68.15 4.74532L96.147 23.7984L119.75 4.12341L143.353 23.7984L171.35 4.68878L172.308 1.86192L144.311 20.915L119.806 0.448486ZM119.806 42.1164L100.879 57.8338L78.8531 42.7949L80.5994 47.9398L101.949 62.4698L119.75 47.6571L137.551 62.4698L158.957 47.8832L160.703 42.7383L138.621 57.7773L119.806 42.1164ZM119.806 17.127L97.4427 35.7277L71.8679 18.2577L73.1636 21.9892L98.513 39.233L119.806 21.4803L141.1 39.233L166.449 21.9326L167.745 18.2012L142.114 35.6147L119.806 17.127ZM119.806 25.438L98.6256 43.0776L74.2339 26.4556L75.6985 30.6959L99.6959 47.0352L119.806 30.2436L139.917 47.0352L163.971 30.6394L165.435 26.3991L140.987 43.021L119.806 25.438ZM143.297 28.3213L170.111 10.0598L168.984 13.339L142.283 31.544L119.806 12.8301L97.33 31.544L70.6286 13.339L69.502 10.0598L96.2597 28.3213L119.75 8.75946L143.297 28.3213Z" fill="#E52B2B"/>
</g>
<defs>
<clipPath id="clip0">
<rect width="239.298" height="124.552" fill="white" transform="translate(0.326172 0.448486)"/>
</clipPath>
</defs>
</svg>
