<svg width="116" height="125" viewBox="0 0 116 125" fill="none" xmlns="http://www.w3.org/2000/svg">
<g clip-path="url(#clip0)">
<path fill-rule="evenodd" clip-rule="evenodd" d="M113.502 118.175C112.103 118.175 111.004 119.182 111.004 120.764C111.004 122.298 112.103 123.353 113.652 123.353C114.302 123.353 114.951 123.161 115.451 122.778L115.951 123.736C115.451 124.216 114.502 124.551 113.502 124.551C111.154 124.551 109.554 123.065 109.554 120.764C109.554 118.655 110.954 116.977 113.452 116.977C114.452 116.977 115.301 117.264 115.801 117.744L115.201 118.703C114.801 118.415 114.302 118.175 113.502 118.175ZM110.154 102.115C109.854 102.115 109.005 102.115 108.455 102.067V107.005H105.007V92.5267C105.857 92.5267 108.455 92.4787 109.604 92.4787C114.202 92.4787 115.701 94.7799 115.701 97.2729C115.751 99.8137 113.652 102.115 110.154 102.115ZM109.954 95.547C109.504 95.547 109.155 95.547 108.455 95.5949V98.9029C108.955 98.9508 109.554 98.9987 110.054 98.9987C110.954 98.9987 112.103 98.6152 112.103 97.2249C112.053 95.9305 111.203 95.547 109.954 95.547ZM108.705 117.121L105.557 120.524L108.905 124.456H107.206L104.058 120.668V124.456H102.708V117.121H104.058V120.62L107.056 117.121H108.705ZM92.5642 107.197C87.9669 107.197 84.5188 104.32 84.5188 99.7179C84.5188 95.499 87.717 92.239 92.5642 92.239C97.1616 92.239 100.61 95.1155 100.61 99.7179C100.56 104.081 97.1616 107.197 92.5642 107.197ZM92.5642 95.3073C90.0657 95.3073 88.2167 97.0331 88.2167 99.7179C88.2167 102.211 90.1656 104.128 92.5642 104.128C95.4126 104.128 96.9117 102.163 96.9117 99.7179C96.9117 97.0811 94.9628 95.3073 92.5642 95.3073ZM76.9232 106.957H73.4752V92.4787H82.1202V95.5949H76.9232V106.957ZM75.9238 117.121V124.456H74.5746V119.134L72.1759 122.394H71.976L69.5275 119.182V124.456H68.1782V117.121H69.5275L72.126 120.524L74.6245 117.121H75.9238ZM64.9801 103.937H58.9835L57.7342 106.957H54.2362L60.5326 92.4787H63.6308L69.9272 106.957H66.2293L64.9801 103.937ZM61.9818 96.6976L60.2828 100.821H63.6808L61.9818 96.6976ZM57.2345 117.121L54.0863 120.524L57.4344 124.456H55.7354L52.5872 120.668V124.456H51.238V117.121H52.5872V120.62L55.5855 117.121H57.2345ZM45.7411 105.183V107.149H42.2931V105.183C38.2454 105.135 35.597 103.122 35.597 99.5261C35.597 95.9305 38.3454 93.9649 42.2931 93.869V92.3349H45.7411V93.869C49.6889 93.9649 52.4873 95.9784 52.4873 99.5261C52.5372 103.122 49.7888 105.135 45.7411 105.183ZM42.2931 96.8893C40.0944 96.9373 39.2449 98.0879 39.2449 99.5261C39.2449 101.204 40.1943 102.115 42.2931 102.163V96.8893ZM45.7411 96.8893V102.163C47.9898 102.115 48.8393 101.252 48.8393 99.5261C48.8393 98.1358 48.0898 96.9373 45.7411 96.8893ZM33.0984 124.551C30.8497 124.551 29.1007 123.065 29.1007 120.764C29.1007 118.655 30.7497 116.977 33.0984 116.977C35.3471 116.977 37.0961 118.463 37.0961 120.764C37.0961 122.969 35.3971 124.551 33.0984 124.551ZM33.0984 118.175C31.6492 118.175 30.5499 119.23 30.5499 120.764C30.5499 122.25 31.6992 123.353 33.0984 123.353C34.6975 123.353 35.6469 122.202 35.6469 120.764C35.6969 119.23 34.5476 118.175 33.0984 118.175ZM27.9014 97.944L21.2052 106.957H18.207V92.4787H21.655V101.492L28.3511 92.4787H31.3494V106.957H27.9014V97.944ZM18.5068 124.456H17.1576V119.23L13.1599 124.456H11.9605V117.121H13.3098V122.346L17.3075 117.121H18.5068V124.456ZM9.2621 95.5949H3.96514V106.957H0.517124V92.4787H12.7101V106.957H9.2621V95.5949ZM1.71643 117.121L4.51483 120.62V117.121H5.86405V120.62L8.61247 117.121H10.1616L7.26325 120.62L10.2615 124.456H8.71241L5.81408 120.668V124.456H4.51483V120.668L1.61649 124.456H0.0673828L3.06566 120.62L0.167325 117.121H1.71643ZM22.1047 118.559L22.2047 117.073H27.0519V124.408H25.7026V118.271H23.4539L23.304 119.661C22.8543 123.928 21.8549 124.599 20.3557 124.408L20.4057 123.113C21.0053 123.209 21.7549 122.969 22.1047 118.559ZM42.5929 116.833C41.2937 116.833 40.4941 116.21 40.3942 115.347H41.6435C41.7434 115.778 42.0433 115.97 42.5929 115.97C43.0926 115.97 43.4424 115.826 43.4924 115.347H44.7417C44.6917 116.21 43.7922 116.833 42.5929 116.833ZM40.5441 122.298L44.5418 117.073H45.7411V124.408H44.3919V119.182L40.3942 124.408H39.1949V117.073H40.5441V122.298ZM62.1317 116.977C64.3804 116.977 66.1294 118.463 66.1294 120.764C66.1294 122.969 64.4304 124.551 62.1317 124.551C59.833 124.551 58.134 123.065 58.134 120.764C58.134 118.655 59.7831 116.977 62.1317 116.977ZM62.1317 123.353C63.7308 123.353 64.6802 122.202 64.6802 120.764C64.6802 119.23 63.5309 118.175 62.1317 118.175C60.6825 118.175 59.5832 119.23 59.5832 120.764C59.5832 122.25 60.6825 123.353 62.1317 123.353ZM84.7187 124.456H83.3695V118.319H79.9714V124.456H78.6222V117.121H84.7187V124.456ZM88.2667 118.559L88.3666 117.073H93.1639V124.408H91.8146V118.271H89.5659L89.416 119.661C88.9663 123.928 87.9669 124.599 86.4677 124.408L86.5177 123.113C87.1673 123.209 87.9669 122.969 88.2667 118.559ZM100.31 118.319H97.2115V120.141H99.96V121.339H97.2115V123.257H100.41V124.456H95.8623V117.121H100.31V118.319Z" fill="#E52B2B"/>
<path fill-rule="evenodd" clip-rule="evenodd" d="M91.065 33.6548C94.2632 23.5392 96.8117 11.6497 92.3143 8.48562C89.5159 6.52002 85.2683 5.51325 79.6716 5.51325C71.0765 5.51325 61.432 7.81444 54.7859 9.78003C42.5429 13.3756 28.0013 19.6559 25.053 24.8815C23.0041 28.4771 24.8531 35.0931 30.4998 44.6334C35.2471 52.7355 41.5435 60.3581 45.2913 63.762C53.2867 71.0011 60.0328 74.6926 65.2798 74.6926C66.679 74.6926 67.9783 74.4049 69.1276 73.8776C69.4274 73.7338 69.7273 73.542 70.0271 73.3502C69.0776 74.3091 68.2281 75.0282 67.5285 75.4117C66.5791 75.8911 65.4797 76.1308 64.2804 76.1308C60.6825 76.1308 54.1862 74.0214 43.6423 64.0017C39.9444 60.502 33.0983 52.0163 27.7014 43.1951C21.6049 33.1754 19.0564 25.5527 20.8054 22.3886C23.254 17.8342 37.8456 10.7389 54.0363 6.23237C60.9323 4.31472 71.1265 2.01354 80.4211 2.01354C86.9174 2.01354 91.7646 3.11619 94.8128 5.32149C98.061 7.71855 96.5119 18.7451 91.065 33.6548ZM88.6164 13.2318C86.4177 11.7456 83.1695 10.9786 78.922 10.9786C71.4263 10.9786 62.4814 13.2797 56.285 15.2453C45.6911 18.5533 33.7979 23.9227 31.1494 28.3813C29.2505 31.5454 30.5998 37.2025 35.0972 45.1607C38.6451 51.489 44.142 58.4405 48.4895 62.132C55.5854 68.1726 61.582 71.2887 66.3292 71.2887C67.5785 71.2887 68.7778 71.049 69.8272 70.6176C70.3769 70.3779 70.9766 69.9943 71.5762 69.5629C70.127 71.1929 69.0776 71.912 68.378 72.2476C67.4786 72.679 66.4791 72.8708 65.3798 72.8708C62.1316 72.8708 56.235 71.049 46.7405 62.4676C43.0926 59.1596 36.9461 51.7287 32.2988 43.8184C27.0518 35.0451 25.1029 28.6689 26.752 25.7924C29.0007 21.8133 41.3436 15.6768 55.4355 11.5539C61.9318 9.63621 71.3763 7.38296 79.7215 7.38296C84.8686 7.38296 88.7163 8.24591 91.2149 10.0197C94.4131 12.273 92.764 23.7789 87.0673 39.5037C90.4154 28.6689 93.0139 16.2521 88.6164 13.2318ZM84.5188 41.5651C84.2689 42.3322 84.019 43.0993 83.7192 43.8663C83.8691 43.3869 83.9691 42.9075 84.119 42.4281C87.9168 28.4292 88.1167 20.1833 84.8686 18.0259C83.2695 16.9712 80.9708 16.4439 77.9725 16.4439C71.6262 16.4439 63.4309 18.793 57.6842 20.7107C49.7887 23.3954 39.7445 27.9019 37.2459 31.833C35.4969 34.6136 36.2965 39.216 39.6446 45.5922C42.4929 51.0575 47.2902 57.0022 51.5377 60.4061C57.6342 65.2961 62.9312 67.789 67.1787 67.789C68.3281 67.789 69.3775 67.5973 70.3269 67.2617C71.1764 66.9261 72.0759 66.3987 72.9254 65.6317C71.5262 67.3576 70.127 68.5082 69.0277 69.0355C68.2281 69.3711 67.2787 69.5629 66.2792 69.5629C63.3309 69.5629 58.084 68.0287 49.6388 60.8375C45.4412 57.2899 40.0943 50.4822 36.6463 44.3457C32.5986 37.1545 31.1994 31.7851 32.6986 29.1963C34.6974 25.7924 44.8915 20.6148 56.8347 16.8274C62.8812 14.9098 71.6761 12.6565 78.922 12.6565C82.8197 12.6565 85.7181 13.3277 87.567 14.6221C90.5153 16.6356 89.4159 26.7033 84.5188 41.5651ZM81.1207 47.0784C81.4705 45.6881 81.8203 44.2019 82.1201 42.7637C84.3688 31.2577 84.0191 24.546 81.1707 22.7721C80.1213 22.101 78.6721 21.8133 76.7732 21.8133C71.7261 21.8133 64.3803 24.2104 59.0834 26.2239C51.038 29.2442 45.1414 32.648 43.3424 35.2848C41.3436 38.2092 42.6928 42.7637 44.1919 46.0716C46.2907 50.626 50.3884 55.6119 54.6359 58.7761C59.5831 62.4675 64.2304 64.3852 68.0282 64.3852C69.0277 64.3852 70.0271 64.2414 70.8766 63.9537C72.0259 63.5702 73.1253 62.899 74.1747 61.8923C74.0748 61.9881 74.0248 62.132 73.9249 62.2278C72.5257 64.0496 70.9765 65.344 69.6773 65.8714C68.9277 66.159 68.0282 66.3029 67.1288 66.3029C63.3309 66.3029 58.2339 63.8578 52.5372 59.3034C48.3895 55.9955 43.7922 50.2425 41.0438 44.969C38.0455 39.264 37.196 34.9013 38.5952 32.648C40.4441 29.7716 48.2896 25.5527 58.1839 22.1968C63.8307 20.2792 71.8261 17.978 77.9226 17.978C80.571 17.978 82.6199 18.4095 83.9191 19.2724C85.1184 20.0874 87.4171 23.9227 82.5699 42.0445C82.1701 43.7225 81.6704 45.4484 81.1207 47.0784ZM80.0213 43.0993C80.4711 38.0654 80.7709 29.388 77.4228 27.4704C76.8732 27.1348 76.0736 26.991 75.1741 26.991C72.2758 26.991 67.3286 28.5251 60.4826 31.6413C57.2844 33.0795 51.5877 35.9081 49.4389 38.7366C47.9398 40.7022 47.7399 43.4348 48.7893 46.5031C50.0386 50.1466 53.5865 54.2696 57.8341 57.0981C61.5819 59.5911 65.5297 60.9814 68.9277 60.9814C69.8772 60.9814 70.7267 60.8855 71.5262 60.6458C72.9254 60.2622 74.1747 59.4952 75.1741 58.4405C74.8743 58.9678 74.5245 59.4472 74.2247 59.8308C73.0753 61.269 71.7261 62.2758 70.4768 62.6593C69.7273 62.899 68.9277 62.9949 68.0782 62.9949C64.5802 62.9949 60.2827 61.1731 55.5354 57.6734C51.4878 54.7011 47.4901 49.811 45.4912 45.4963C44.142 42.524 42.8427 38.4489 44.4918 36.0039C46.0909 33.6069 51.8875 30.3469 59.5831 27.4224C66.9788 24.5939 72.9254 23.1077 76.7232 23.1077C78.3223 23.1077 79.5216 23.3474 80.3212 23.8748C82.5699 25.2651 82.6698 32.0727 80.621 42.524C80.1713 44.7772 79.6216 47.0304 78.9719 49.1878C79.4717 47.3181 79.8215 45.2566 80.0213 43.0993ZM74.7244 55.0366C73.725 55.9955 71.926 56.5228 69.6773 56.5228C66.9289 56.5228 63.7807 55.7558 61.482 54.5093C56.8347 51.9684 54.536 48.7084 54.4361 46.7907C54.2861 44.5854 57.5843 40.9419 62.4315 38.0175C67.3786 34.9972 71.3763 33.1275 72.9254 33.1275C73.0753 33.1275 73.1753 33.1754 73.2253 33.1754C74.8243 33.8945 76.5733 37.3463 76.8732 43.5307C77.173 49.3796 75.6239 54.2216 74.7244 55.0366ZM77.9226 43.4348C77.6227 37.6339 75.9237 33.2713 73.625 32.2166C73.4251 32.1207 73.1753 32.0728 72.8755 32.0728C70.3769 32.0728 64.3304 35.5725 61.8318 37.1066C56.4849 40.3666 53.1868 44.154 53.3367 46.8387C53.5366 49.6193 56.5848 53.0231 60.9323 55.4202C63.3809 56.7146 66.679 57.5296 69.6273 57.5296C71.4263 57.5296 73.9249 57.2419 75.424 55.7558C75.474 55.7078 75.5239 55.6599 75.5239 55.6119C75.1242 56.379 74.7744 57.0022 74.4246 57.4337C73.5251 58.4405 72.4257 59.1596 71.1764 59.4952C70.4768 59.687 69.7273 59.7828 68.8778 59.7828C65.7296 59.7828 62.0317 58.4884 58.4837 56.1393C54.4361 53.4546 51.088 49.5234 49.9386 46.1675C49.389 44.6334 48.7393 41.709 50.4384 39.5037C51.8875 37.6339 55.7353 35.1889 60.9823 32.7919C67.5285 29.8195 72.4257 28.2854 75.1242 28.2854C75.8238 28.2854 76.3734 28.3813 76.7732 28.621C78.7721 29.7716 79.5216 35.141 78.7721 43.0993C78.5222 45.6881 78.0725 48.181 77.5228 50.3384C77.8726 48.2769 78.0725 45.9278 77.9226 43.4348ZM96.0621 3.73942C92.6141 1.24647 87.3671 0 80.4211 0C70.8766 0 60.4826 2.34913 53.4366 4.31472C38.6951 8.38973 22.0547 15.6289 18.9065 21.4298C16.208 26.4157 21.2052 36.5792 25.9025 44.2019C31.3993 53.1669 38.3953 61.8443 42.1931 65.4399C51.038 73.8776 58.4837 78.1444 64.3304 78.1444C65.9295 78.1444 67.3786 77.8088 68.6279 77.1855C74.5245 74.1173 84.069 56.8584 90.4154 41.3734C94.3631 31.6892 102.858 8.62944 96.0621 3.73942Z" fill="#E52B2B"/>
</g>
<defs>
<clipPath id="clip0">
<rect width="115.933" height="124.552" fill="white" transform="translate(0.0673828)"/>
</clipPath>
</defs>
</svg>
