<svg width="78" height="86" viewBox="0 0 78 86" fill="none" xmlns="http://www.w3.org/2000/svg">
<path fill-rule="evenodd" clip-rule="evenodd" d="M76.319 81.5974C75.3776 81.5974 74.6379 82.2925 74.6379 83.3849C74.6379 84.4442 75.3776 85.1724 76.4198 85.1724C76.8569 85.1724 77.294 85.04 77.6302 84.7752L77.9664 85.4372C77.6302 85.7683 76.9914 86 76.319 86C74.7388 86 73.6629 84.9738 73.6629 83.3849C73.6629 81.9284 74.6043 80.7698 76.2854 80.7698C76.9578 80.7698 77.5293 80.9684 77.8655 81.2994L77.4621 81.9615C77.1931 81.7629 76.8569 81.5974 76.319 81.5974ZM74.0664 70.5081C73.8647 70.5081 73.2931 70.5081 72.9233 70.475V73.8845H70.6035V63.8876C71.175 63.8876 72.9233 63.8545 73.6966 63.8545C76.7897 63.8545 77.7983 65.4434 77.7983 67.1647C77.8319 68.9191 76.4198 70.5081 74.0664 70.5081ZM73.9319 65.973C73.6293 65.973 73.394 65.973 72.9233 66.0061V68.2902C73.2595 68.3233 73.6629 68.3564 73.9992 68.3564C74.6043 68.3564 75.3776 68.0916 75.3776 67.1316C75.344 66.2379 74.7724 65.973 73.9319 65.973ZM73.0914 80.8691L70.9733 83.2194L73.2259 85.9338H72.0828L69.9647 83.3187V85.9338H69.0569V80.8691H69.9647V83.2856L71.9819 80.8691H73.0914ZM62.2319 74.0169C59.1388 74.0169 56.819 72.0308 56.819 68.8529C56.819 65.9399 58.9707 63.689 62.2319 63.689C65.325 63.689 67.6448 65.6751 67.6448 68.8529C67.6112 71.8653 65.325 74.0169 62.2319 74.0169ZM62.2319 65.8075C60.5509 65.8075 59.3069 66.9992 59.3069 68.8529C59.3069 70.5743 60.6181 71.8984 62.2319 71.8984C64.1483 71.8984 65.1569 70.5412 65.1569 68.8529C65.1569 67.0323 63.8457 65.8075 62.2319 65.8075ZM51.7086 73.8514H49.3888V63.8545H55.2052V66.0061H51.7086V73.8514ZM51.0362 80.8691V85.9338H50.1285V82.2594L48.5147 84.5104H48.3802L46.7328 82.2925V85.9338H45.825V80.8691H46.7328L48.481 83.2194L50.1621 80.8691H51.0362ZM43.6733 71.766H39.6388L38.7983 73.8514H36.4448L40.681 63.8545H42.7655L47.0017 73.8514H44.5138L43.6733 71.766ZM41.656 66.7675L40.5129 69.6143H42.7991L41.656 66.7675ZM38.4621 80.8691L36.344 83.2194L38.5966 85.9338H37.4535L35.3354 83.3187V85.9338H34.4276V80.8691H35.3354V83.2856L37.3526 80.8691H38.4621ZM30.7293 72.6266V73.9838H28.4095V72.6266C25.6862 72.5935 23.9043 71.2032 23.9043 68.7205C23.9043 66.2379 25.7535 64.8807 28.4095 64.8144V63.7552H30.7293V64.8144C33.3853 64.8807 35.2681 66.271 35.2681 68.7205C35.3017 71.2032 33.4526 72.5935 30.7293 72.6266ZM28.4095 66.8999C26.9302 66.933 26.3586 67.7275 26.3586 68.7205C26.3586 69.8791 26.9974 70.5081 28.4095 70.5412V66.8999ZM30.7293 66.8999V70.5412C32.2422 70.5081 32.8138 69.9122 32.8138 68.7205C32.8138 67.7606 32.3095 66.933 30.7293 66.8999ZM22.2233 86C20.7103 86 19.5336 84.9738 19.5336 83.3849C19.5336 81.9284 20.6431 80.7698 22.2233 80.7698C23.7362 80.7698 24.9129 81.796 24.9129 83.3849C24.9129 84.9076 23.7698 86 22.2233 86ZM22.2233 81.5974C21.2483 81.5974 20.5086 82.3256 20.5086 83.3849C20.5086 84.4111 21.2819 85.1724 22.2233 85.1724C23.2991 85.1724 23.9379 84.378 23.9379 83.3849C23.9716 82.3256 23.1983 81.5974 22.2233 81.5974ZM18.7267 67.6282L14.2216 73.8514H12.2043V63.8545H14.5241V70.0777L19.0293 63.8545H21.0466V73.8514H18.7267V67.6282ZM12.406 85.9338H11.4983V82.3256L8.80862 85.9338H8.00173V80.8691H8.90948V84.4773L11.5991 80.8691H12.406V85.9338ZM6.18621 66.0061H2.62241V73.8514H0.302586V63.8545H8.50604V73.8514H6.18621V66.0061ZM1.10948 80.8691L2.99224 83.2856V80.8691H3.9V83.2856L5.74914 80.8691H6.79138L4.84138 83.2856L6.85862 85.9338H5.81638L3.86638 83.3187V85.9338H2.99224V83.3187L1.04224 85.9338H0L2.01724 83.2856L0.0672414 80.8691H1.10948ZM14.8267 81.8622L14.894 80.836H18.1552V85.9007H17.2474V81.6636H15.7345L15.6336 82.6235C15.331 85.5697 14.6586 86.0331 13.65 85.9007L13.6836 85.0069C14.0871 85.0731 14.5914 84.9076 14.8267 81.8622ZM28.6112 80.6705C27.7371 80.6705 27.1991 80.2402 27.1319 79.6443H27.9724C28.0397 79.9422 28.2414 80.0747 28.6112 80.0747C28.9474 80.0747 29.1828 79.9753 29.2164 79.6443H30.0569C30.0233 80.2402 29.4181 80.6705 28.6112 80.6705ZM27.2328 84.4442L29.9224 80.836H30.7293V85.9007H29.8216V82.2925L27.1319 85.9007H26.325V80.836H27.2328V84.4442ZM41.7569 80.7698C43.2698 80.7698 44.4466 81.796 44.4466 83.3849C44.4466 84.9076 43.3035 86 41.7569 86C40.2104 86 39.0672 84.9738 39.0672 83.3849C39.0672 81.9284 40.1767 80.7698 41.7569 80.7698ZM41.7569 85.1724C42.8328 85.1724 43.4716 84.378 43.4716 83.3849C43.4716 82.3256 42.6983 81.5974 41.7569 81.5974C40.7819 81.5974 40.0422 82.3256 40.0422 83.3849C40.0422 84.4111 40.7819 85.1724 41.7569 85.1724ZM56.9535 85.9338H56.0457V81.6967H53.7595V85.9338H52.8517V80.8691H56.9535V85.9338ZM59.3405 81.8622L59.4078 80.836H62.6354V85.9007H61.7276V81.6636H60.2147L60.1138 82.6235C59.8112 85.5697 59.1388 86.0331 58.1302 85.9007L58.1638 85.0069C58.6009 85.0731 59.1388 84.9076 59.3405 81.8622ZM67.4431 81.6967H65.3586V82.9546H67.2078V83.7821H65.3586V85.1062H67.5104V85.9338H64.4509V80.8691H67.4431V81.6967Z" fill="#E52B2B"/>
<path fill-rule="evenodd" clip-rule="evenodd" d="M61.2237 23.2379C63.3754 16.2533 65.09 8.04388 62.0642 5.85912C60.1814 4.50192 57.3237 3.80677 53.5581 3.80677C47.7754 3.80677 41.2866 5.39569 36.815 6.75289C28.578 9.23557 18.7944 13.572 16.8107 17.1801C15.4323 19.6628 16.6763 24.2309 20.4754 30.8183C23.6694 36.4126 27.9056 41.6759 30.4271 44.0262C35.8064 49.0246 40.3452 51.5735 43.8754 51.5735C44.8168 51.5735 45.6909 51.3749 46.4642 51.0108C46.6659 50.9115 46.8676 50.7791 47.0694 50.6467C46.4306 51.3087 45.859 51.8052 45.3883 52.0701C44.7495 52.4011 44.0099 52.5666 43.203 52.5666C40.7823 52.5666 36.4116 51.1101 29.3176 44.1917C26.8297 41.7752 22.2237 35.9161 18.5926 29.8253C14.4909 22.9069 12.7763 17.6436 13.953 15.4588C15.6004 12.3141 25.4176 7.41493 36.3107 4.30331C40.9504 2.97921 47.809 1.3903 54.0625 1.3903C58.4331 1.3903 61.6944 2.15166 63.7452 3.67437C65.9306 5.32948 64.8883 12.943 61.2237 23.2379ZM59.5762 9.13626C58.0969 8.11009 55.9116 7.58045 53.0538 7.58045C48.0107 7.58045 41.9926 9.16936 37.8237 10.5266C30.6961 12.8106 22.6944 16.5181 20.9125 19.5966C19.6349 21.7814 20.5426 25.6875 23.5685 31.1824C25.9556 35.552 29.6538 40.3518 32.5788 42.9007C37.353 47.0716 41.3875 49.2232 44.5814 49.2232C45.4219 49.2232 46.2288 49.0577 46.9349 48.7598C47.3047 48.5943 47.7081 48.3295 48.1116 48.0316C47.1366 49.157 46.4306 49.6536 45.9599 49.8853C45.3547 50.1832 44.6823 50.3156 43.9426 50.3156C41.7573 50.3156 37.79 49.0577 31.4021 43.1324C28.9478 40.8483 24.8125 35.7175 21.6857 30.2556C18.1556 24.1978 16.8444 19.7952 17.9538 17.8091C19.4668 15.0616 27.7711 10.8245 37.2521 7.97768C41.6228 6.65358 47.9771 5.09777 53.5918 5.09777C57.0547 5.09777 59.6435 5.69361 61.3245 6.9184C63.4762 8.47421 62.3668 16.4188 58.534 27.2764C60.7866 19.7952 62.5349 11.2217 59.5762 9.13626ZM56.8194 28.6998C56.6512 29.2294 56.4831 29.759 56.2814 30.2887C56.3823 29.9577 56.4495 29.6266 56.5504 29.2956C59.1056 19.6297 59.24 13.9361 57.0547 12.4465C55.9788 11.7182 54.4323 11.3541 52.415 11.3541C48.1452 11.3541 42.6314 12.9761 38.765 14.3002C33.453 16.154 26.6952 19.2656 25.0142 21.98C23.8375 23.8999 24.3754 27.0778 26.628 31.4804C28.5444 35.254 31.7719 39.3587 34.6297 41.709C38.7314 45.0855 42.2952 46.8068 45.153 46.8068C45.9263 46.8068 46.6323 46.6744 47.2711 46.4426C47.8426 46.2109 48.4478 45.8468 49.0194 45.3172C48.078 46.5089 47.1366 47.3033 46.3969 47.6674C45.859 47.8992 45.2202 48.0316 44.5478 48.0316C42.5642 48.0316 39.034 46.9723 33.3521 42.0069C30.528 39.5574 26.9306 34.8568 24.6107 30.6197C21.8875 25.6544 20.9461 21.9469 21.9547 20.1594C23.2995 17.8091 30.1581 14.234 38.1935 11.6189C42.2616 10.2948 48.1788 8.73903 53.0538 8.73903C55.6763 8.73903 57.6263 9.20246 58.8702 10.0962C60.8538 11.4865 60.1142 18.438 56.8194 28.6998ZM54.5331 32.5065C54.7685 31.5466 55.0038 30.5204 55.2056 29.5273C56.7185 21.5828 56.4831 16.9484 54.5668 15.7236C53.8607 15.2602 52.8857 15.0616 51.6081 15.0616C48.2125 15.0616 43.2702 16.7167 39.7064 18.107C34.2935 20.1925 30.3263 22.5427 29.1159 24.3634C27.7711 26.3826 28.6788 29.5273 29.6875 31.8114C31.0995 34.9561 33.8564 38.3988 36.7142 40.5835C40.0426 43.1324 43.1694 44.4565 45.7245 44.4565C46.3969 44.4565 47.0694 44.3572 47.6409 44.1586C48.4142 43.8938 49.1538 43.4303 49.8599 42.7352C49.7926 42.8014 49.759 42.9007 49.6918 42.9669C48.7504 44.2248 47.7081 45.1186 46.834 45.4827C46.3297 45.6813 45.7245 45.7806 45.1194 45.7806C42.5642 45.7806 39.1349 44.0924 35.3021 40.9477C32.5116 38.6636 29.4185 34.6913 27.5694 31.05C25.5521 27.1109 24.9806 24.0985 25.9219 22.5427C27.1659 20.5566 32.4444 17.6436 39.1013 15.3264C42.9004 14.0023 48.2797 12.4134 52.3814 12.4134C54.1633 12.4134 55.5418 12.7113 56.4159 13.3072C57.2228 13.8699 58.7694 16.5181 55.5081 29.0308C55.2392 30.1894 54.903 31.3811 54.5331 32.5065ZM53.7935 29.759C54.0961 26.2833 54.2978 20.2918 52.0452 18.9677C51.6754 18.736 51.1375 18.6366 50.5323 18.6366C48.5823 18.6366 45.2538 19.6959 40.6478 21.8476C38.4961 22.8406 34.6633 24.7937 33.2176 26.7467C32.209 28.1039 32.0745 29.9908 32.7806 32.1093C33.6211 34.6251 36.0082 37.4719 38.8659 39.4249C41.3875 41.1463 44.0435 42.1062 46.3297 42.1062C46.9685 42.1062 47.54 42.04 48.078 41.8745C49.0194 41.6097 49.8599 41.0801 50.5323 40.3518C50.3306 40.7159 50.0952 41.047 49.8935 41.3118C49.1202 42.3049 48.2125 43 47.3719 43.2648C46.8676 43.4303 46.3297 43.4965 45.7582 43.4965C43.4047 43.4965 40.5133 42.2386 37.3194 39.8222C34.5961 37.7698 31.9064 34.3934 30.5616 31.4142C29.6538 29.3618 28.7797 26.5481 29.8892 24.8599C30.965 23.2048 34.865 20.9538 40.0426 18.9346C45.0185 16.9815 49.0194 15.9554 51.5745 15.9554C52.6504 15.9554 53.4573 16.1209 53.9952 16.485C55.5081 17.445 55.5754 22.1455 54.1969 29.3618C53.8944 30.9176 53.5245 32.4734 53.0875 33.963C53.4237 32.6721 53.659 31.2487 53.7935 29.759ZM50.2297 38.0015C49.5573 38.6636 48.3469 39.0277 46.834 39.0277C44.9849 39.0277 42.8668 38.4981 41.3202 37.6374C38.1935 35.883 36.6469 33.632 36.5797 32.3079C36.4788 30.7852 38.6978 28.2694 41.959 26.2502C45.2875 24.1647 47.9771 22.8737 49.0194 22.8737C49.1202 22.8737 49.1875 22.9069 49.2211 22.9069C50.2969 23.4034 51.4737 25.7868 51.6754 30.057C51.8771 34.0955 50.8349 37.4388 50.2297 38.0015ZM52.3814 29.9908C52.1797 25.9854 51.0366 22.9731 49.49 22.2448C49.3556 22.1786 49.1875 22.1455 48.9857 22.1455C47.3047 22.1455 43.2366 24.562 41.5556 25.6212C37.9581 27.8722 35.7392 30.4873 35.84 32.341C35.9745 34.261 38.0254 36.6112 40.9504 38.2664C42.5978 39.1601 44.8168 39.7229 46.8004 39.7229C48.0107 39.7229 49.6918 39.5243 50.7004 38.4981C50.734 38.465 50.7676 38.4319 50.7676 38.3988C50.4987 38.9284 50.2633 39.3587 50.028 39.6567C49.4228 40.3518 48.6832 40.8483 47.8426 41.0801C47.3719 41.2125 46.8676 41.2787 46.2961 41.2787C44.178 41.2787 41.69 40.3849 39.303 38.7629C36.5797 36.9092 34.3271 34.1948 33.5538 31.8776C33.184 30.8183 32.7469 28.7991 33.89 27.2764C34.865 25.9854 37.4538 24.2972 40.984 22.642C45.3883 20.5897 48.6831 19.5304 50.4987 19.5304C50.9694 19.5304 51.3392 19.5966 51.6081 19.7621C52.953 20.5566 53.4573 24.264 52.953 29.759C52.7849 31.5466 52.4823 33.2679 52.1125 34.7575C52.3478 33.3341 52.4823 31.7121 52.3814 29.9908ZM64.5857 2.58199C62.2659 0.860662 58.7357 0 54.0625 0C47.6409 0 40.6478 1.62202 35.9073 2.97921C25.9892 5.79292 14.7935 10.7914 12.6754 14.7968C10.8599 18.2394 14.2219 25.2571 17.3823 30.5204C21.0806 36.7105 25.7875 42.7021 28.3426 45.1848C34.2935 51.0108 39.303 53.9569 43.2366 53.9569C44.3125 53.9569 45.2875 53.7252 46.128 53.2948C50.0952 51.1763 56.5168 39.2594 60.7866 28.5674C63.4426 21.8807 69.1581 5.95843 64.5857 2.58199Z" fill="#E52B2B"/>
</svg>
