<svg width="243" height="125" viewBox="0 0 243 125" fill="none" xmlns="http://www.w3.org/2000/svg">
<g clip-path="url(#clip0)">
<path d="M63.7109 76.1141C60.7798 75.0756 55.0721 79.0814 51.6012 83.0131C51.6783 82.8647 51.6783 82.6421 51.7554 82.4938C52.8353 79.1556 54.995 71.2181 52.3725 71.2923C50.5213 71.2923 46.3562 74.6305 43.7337 77.0043C42.4996 78.117 41.1884 79.304 40.0314 80.4167C40.4942 79.5265 40.8027 78.8589 40.8798 78.6363C41.574 77.301 45.1221 70.2538 42.8853 70.3279C40.5713 70.4021 37.1004 74.9272 34.6322 80.1941C32.1639 85.4611 30.6984 92.5825 32.7039 92.5825C34.4008 92.36 39.7229 85.5352 41.7283 83.0872C43.2709 81.2327 45.7391 78.488 46.8961 78.3396C47.3589 78.2654 46.9733 79.9716 46.6647 80.7134C46.6647 80.7876 46.5876 80.7876 46.5876 80.8618C46.5876 80.936 46.5105 81.0101 46.5105 81.0843C46.3562 81.5294 46.2019 81.9745 46.0477 82.2712C45.1221 84.5709 42.5767 93.1018 44.9678 93.1018C45.5077 93.1018 46.0477 92.8793 46.5105 92.5083C48.0531 91.9149 50.9841 87.464 52.9895 85.3127C56.5376 81.5294 57.6174 80.7876 58.6202 81.0101C59.7 81.2327 58.7744 85.3127 58.3888 87.9832C58.0802 90.3571 57.5403 93.3243 58.8516 93.3243C60.0857 93.3243 61.9368 90.8763 63.4023 86.9447C64.7136 83.8291 66.1791 77.0043 63.7109 76.1141ZM88.7016 73.5919C87.0047 72.405 82.3768 72.9985 79.4457 76.1141C80.2942 72.9985 80.4485 70.4021 78.8287 70.4021C76.0519 70.4021 70.5756 83.8291 68.8016 87.9091C67.0275 92.0633 60.4713 106.529 63.7109 106.529C65.4849 106.529 69.3415 98.9622 72.3496 92.8051C72.6581 92.9534 73.1981 93.176 73.5837 93.2502C77.1318 93.6953 82.9167 92.0633 87.3903 85.4611C90.707 80.4909 91.6326 75.7432 88.7016 73.5919ZM82.9938 83.6065C81.0655 86.4996 78.5202 88.6509 75.8206 89.912C74.9721 90.2829 74.2008 90.2087 73.5837 90.2087C74.2008 88.7992 75.8977 85.3127 76.2062 84.5709C78.443 79.749 81.6054 77.8945 82.9938 78.4138C84.1508 78.8589 84.6136 81.2327 82.9938 83.6065ZM114.541 72.0341C112.767 71.9599 109.373 75.2981 106.596 77.8203C103.511 80.6392 101.197 82.8647 99.8857 82.7905C99.2686 82.7163 100.04 80.7134 101.428 77.4494C103.279 73.221 102.971 70.3279 101.737 70.4021C99.1144 70.5505 95.7206 77.0785 94.2551 80.0458C92.481 83.9032 91.0927 89.4669 92.8667 89.8378C95.4892 90.3571 98.1116 88.28 100.117 86.7222C102.123 85.1643 106.056 81.5294 106.673 81.9003C107.059 82.1971 106.288 83.9774 105.825 85.9061C104.976 89.1702 106.133 91.0247 107.599 91.0989C109.45 91.1731 111.224 85.6094 112.535 82.4938C113.847 79.304 116.546 72.1083 114.541 72.0341ZM171.773 72.9243C169.999 72.8501 167.453 75.0756 164.291 77.7461C161.128 80.4909 158.274 82.8647 157.58 82.7163C156.963 82.568 157.735 80.6392 159.123 77.3752C160.974 73.1468 160.666 70.2538 159.431 70.3279C156.809 70.4763 153.338 77.0043 151.95 79.9716C150.176 83.8291 148.787 89.3927 150.561 89.7636C153.184 90.2829 155.961 88.2058 157.966 86.648C160.049 85.016 164.368 81.752 164.908 81.8261C165.371 81.9003 164.599 83.5323 164.368 85.0901C163.828 88.2058 164.522 89.7636 165.911 89.7636C167.762 89.8378 168.919 85.7578 170.23 82.3454C171.464 79.2298 173.855 73.0727 171.773 72.9243ZM122.562 70.4021C121.791 70.4763 121.097 71.9599 121.714 73.8145C122.871 77.0785 123.257 79.2298 123.257 79.8232C123.257 80.565 121.328 84.0516 118.86 87.8349C115.698 92.7309 111.455 97.7753 112.227 98.2945C113.615 99.2589 118.32 94.5854 121.791 90.4313C124.722 86.8705 128.887 81.0843 128.887 79.8974C128.964 77.8203 125.262 70.1796 122.562 70.4021ZM136.446 70.4021C134.518 70.4021 131.973 76.1883 130.43 79.8232C129.119 82.8647 126.342 90.2829 128.81 90.3571C131.587 90.5054 133.824 85.3127 135.443 81.0843C137.295 76.1883 139.146 70.4021 136.446 70.4021ZM150.176 70.4021C148.556 70.0312 144.314 72.405 142 74.1112C140.38 75.2981 137.14 78.7105 136.909 79.6749C136.678 80.7134 137.603 86.3512 138.297 89.1702C138.914 91.6923 140.457 98.5171 142.694 98.2945C144.005 98.1462 142.925 90.9505 142.694 88.28C142.462 85.6094 142 80.8618 142.154 80.12C142.385 79.3781 145.393 76.485 147.707 74.2596C149.944 72.2567 151.024 70.6247 150.176 70.4021Z" fill="#E52B2B"/>
<path d="M30.2357 102.82C25.145 98.5912 20.7485 89.8377 23.0624 79.8973C26.3019 65.8769 37.0233 59.8682 40.3399 57.7169C41.0341 57.2718 41.8054 56.8267 42.5768 56.53C42.5768 56.6042 42.4996 56.6042 42.4996 56.6784C41.8054 58.6071 42.1911 60.5358 44.0423 60.0907C46.4333 59.4973 48.2074 55.7882 47.8217 54.3045C47.6674 53.6369 47.2047 53.266 46.6647 53.1918C45.3535 52.7467 42.114 52.9693 38.026 54.7496C32.0097 57.4202 20.1314 64.3191 16.6605 78.5621C14.038 89.0217 18.6659 100.075 26.1477 104.748C28.8473 106.38 31.2384 106.974 32.0868 106.232C32.6267 105.787 32.164 104.377 30.2357 102.82ZM1.92829 122.107H0L1.6969 114.466H7.25039L6.86473 116.098H3.31667L1.92829 122.107ZM10.1814 114.763C11.107 114.392 12.6496 114.169 13.8066 114.169C16.4291 114.169 17.4318 115.06 16.7376 118.249C16.0434 121.365 14.5008 122.329 12.3411 122.329C11.4155 122.329 10.8756 122.107 10.4899 121.884L9.79574 125H7.86744L10.1814 114.763ZM10.9527 120.03C10.8756 120.475 11.4926 120.772 12.3411 120.772C13.7295 120.772 14.2694 120.252 14.7322 118.324C15.195 116.247 14.8093 115.801 13.4209 115.801C12.881 115.801 12.264 115.876 11.8012 116.024L10.9527 120.03ZM20.2857 114.466H22.2911C22.5996 116.172 22.831 118.324 22.9853 120.327C24.1423 118.398 25.2992 116.395 26.2248 114.466H28.2302C26.8419 117.063 25.145 119.807 23.4481 122.478C22.9081 123.368 22.214 124.332 21.674 125.074H19.5143C20.1314 124.332 20.7485 123.368 21.3655 122.552C21.1341 119.733 20.7485 116.766 20.2857 114.466ZM31.5469 122.107H29.6186L31.3155 114.466H38.3345L36.6376 122.107H34.7093L36.0205 116.098H32.8581L31.5469 122.107ZM42.6539 122.107H40.7256L42.4225 114.466H49.4415L47.7446 122.107H45.8163L47.1275 116.098H43.9651L42.6539 122.107ZM54.8407 122.329C53.1438 122.329 52.1411 121.81 52.1411 120.03C52.1411 119.511 52.2182 118.991 52.3725 118.324C53.0667 115.134 54.455 114.244 57.0775 114.244C58.2345 114.244 59.7 114.466 60.4713 114.837L59.3915 119.807C59.3144 120.03 59.3144 120.252 59.3144 120.401C59.3144 120.772 59.4686 121.143 59.7771 121.513L58.0802 122.404C57.6946 122.255 57.3089 121.81 57.2318 121.439C56.6919 121.959 55.8434 122.329 54.8407 122.329ZM58.3116 116.024C57.926 115.876 57.3089 115.801 56.8461 115.801C55.4578 115.801 54.9178 116.172 54.455 118.324C54.3008 118.843 54.3008 119.288 54.3008 119.585C54.3008 120.475 54.7636 120.697 55.7663 120.697C56.6147 120.697 57.4632 120.327 57.5403 119.807L58.3116 116.024ZM74.2779 122.107C73.5066 119.362 72.7353 118.769 71.7326 118.546L70.9613 122.107H69.033L70.7299 114.392H72.6581L71.8097 118.101C72.581 117.433 74.0465 116.024 75.7434 114.392H78.0574C76.0519 116.395 74.7407 117.582 74.2779 117.879C75.0492 118.175 75.6663 118.695 76.5919 122.033L74.2779 122.107ZM80.1399 118.249C80.8341 115.134 82.2996 114.244 84.845 114.244C87.3903 114.244 88.4702 115.134 87.776 118.249C87.0818 121.439 85.6163 122.329 83.0709 122.329C80.5256 122.329 79.4457 121.365 80.1399 118.249ZM82.1454 118.249C81.6826 120.401 81.9911 120.772 83.3795 120.772C84.7678 120.772 85.3078 120.401 85.7706 118.249C86.2333 116.024 85.9248 115.727 84.5364 115.727C83.1481 115.727 82.6082 116.098 82.1454 118.249ZM99.3458 114.466H102.045L100.348 122.181H98.4202L99.6543 116.617C98.5744 118.175 97.2632 120.252 96.3376 121.736H94.8721C94.6407 120.252 94.2551 118.101 93.8694 116.617L92.6353 122.181H90.707L92.4039 114.466H95.2578C95.6434 115.95 96.0291 117.433 96.3376 119.065C97.2632 117.359 98.2659 115.876 99.3458 114.466ZM106.365 122.107H104.436L106.133 114.466H113.152L111.455 122.107H109.527L110.838 116.098H107.676L106.365 122.107ZM118.552 122.329C116.855 122.329 115.852 121.81 115.852 120.03C115.852 119.511 115.929 118.991 116.083 118.324C116.778 115.134 118.166 114.244 120.788 114.244C121.945 114.244 123.411 114.466 124.182 114.837L123.102 119.807C123.025 120.03 123.025 120.252 123.025 120.401C123.025 120.772 123.179 121.143 123.488 121.513L121.791 122.404C121.405 122.255 121.02 121.81 120.943 121.439C120.403 121.959 119.554 122.329 118.552 122.329ZM122.022 116.024C121.56 115.876 121.02 115.801 120.557 115.801C119.169 115.801 118.629 116.172 118.166 118.324C118.012 118.843 118.012 119.288 118.012 119.585C118.012 120.475 118.474 120.697 119.477 120.697C120.326 120.697 121.174 120.327 121.251 119.807L122.022 116.024ZM129.35 118.843L128.579 122.107H126.65L128.347 114.466H130.276L129.659 117.285H132.821L133.438 114.466H135.366L133.669 122.107H131.741L132.435 118.843H129.35ZM144.005 117.433C142.694 119.065 141.151 120.772 139.686 122.107H137.757L139.454 114.392H141.383L140.303 119.288C141.691 117.953 143.311 116.024 144.622 114.392H146.55L144.854 122.107H142.925L144.005 117.433ZM155.189 117.433C153.878 119.065 152.335 120.772 150.87 122.107H148.941L150.638 114.392H152.567L151.487 119.288C152.875 117.953 154.495 116.024 155.806 114.392H157.735L156.038 122.107H154.109L155.189 117.433ZM153.878 111.573C153.724 112.315 154.032 112.463 154.726 112.463C155.266 112.463 155.806 112.315 155.96 111.573H157.195C156.886 112.983 155.96 113.65 154.418 113.65C152.952 113.65 152.181 112.983 152.567 111.573H153.878Z" fill="#E52B2B"/>
<path d="M206.559 48.8143C211.804 48.8143 215.275 46.8856 215.507 39.9125C215.892 29.0819 214.427 20.7735 210.647 12.3168C209.259 9.20114 206.791 5.41786 205.171 3.56331C203.166 1.18949 201.469 0.0767605 200.543 0.596034C199.695 1.11531 200.62 2.96986 201.392 6.0855C202.78 11.8717 203.706 18.3997 203.397 26.0404C202.934 37.0194 200.312 42.8056 197.381 47.3307C196.995 47.9983 196.995 48.8143 197.998 48.8143H206.559ZM219.749 56.2325C219.518 56.3809 219.363 56.5292 218.978 56.9001C217.898 57.9387 216.509 59.0514 213.656 60.1641C213.116 60.3867 212.576 60.5351 211.959 60.7576C207.485 76.41 195.992 95.4748 183.034 105.193C180.566 107.047 179.332 106.973 178.561 106.305C177.712 105.489 179.1 103.486 180.412 101.409C185.888 92.8784 193.37 77.9678 194.99 70.0303C195.915 65.5794 195.992 61.9445 193.756 60.0158C191.904 58.3838 189.899 58.0129 185.58 58.0129C182.032 58.0129 177.558 58.3096 168.996 59.7932C167.839 60.0158 167.685 59.3481 168.919 58.9772C175.013 57.1969 178.175 56.7518 178.406 55.7132C178.561 55.0456 176.709 54.4521 171.31 53.7103C169.536 53.4878 169.613 53.0427 171.079 53.0427C171.079 53.0427 205.094 53.0427 214.041 53.1169C214.89 53.1169 215.815 53.191 216.818 53.562C217.898 53.9329 219.44 55.2681 219.903 55.7874C220.057 55.8616 220.057 56.0841 219.749 56.2325ZM166.065 30.6397C168.611 30.6397 170.23 29.7495 170.385 26.4114C170.539 21.2186 169.845 17.287 168.071 13.2811C167.376 11.7975 166.219 10.0171 165.448 9.12696C164.445 8.01423 163.674 7.42077 163.211 7.7175C162.826 7.94005 163.211 8.83023 163.597 10.3139C164.291 13.0586 164.677 16.1742 164.523 19.8092C164.291 25.0761 163.057 27.8208 161.669 29.9721C161.437 30.2688 161.514 30.6397 161.977 30.6397C162.517 30.5655 164.908 30.6397 166.065 30.6397ZM172.39 34.1263C172.313 34.2005 172.159 34.2746 172.004 34.423C171.542 34.9423 170.847 35.4616 169.459 35.9808C169.228 36.055 168.919 36.2034 168.688 36.2776C166.528 43.7699 161.052 52.8943 154.881 57.4936C153.724 58.3838 153.107 58.3838 152.721 58.0129C152.336 57.642 152.953 56.6776 153.57 55.7132C156.192 51.6332 159.74 44.5118 160.512 40.7285C160.975 38.5772 160.975 36.871 159.895 35.9808C159.046 35.239 158.044 35.0165 155.961 35.0165C154.264 35.0165 152.104 35.1648 148.016 35.8325C147.476 35.9066 147.399 35.6099 148.016 35.4616C150.947 34.6456 152.413 34.423 152.567 33.9037C152.644 33.607 151.796 33.3103 149.173 32.9394C148.325 32.791 148.402 32.6426 149.096 32.6426H169.613C169.999 32.6426 170.462 32.7168 170.925 32.8652C171.464 33.0877 172.159 33.6812 172.39 33.9037C172.544 33.9779 172.467 34.0521 172.39 34.1263ZM236.487 73.5169C238.723 73.5169 240.189 72.7009 240.343 69.6594C240.497 64.986 239.88 61.4252 238.261 57.8645C237.644 56.5292 236.641 54.8972 235.947 54.0812C235.098 53.0427 234.327 52.5976 233.941 52.8201C233.556 53.0427 233.941 53.8587 234.327 55.194C234.944 57.642 235.33 60.4609 235.175 63.7249C234.944 68.3983 233.864 70.9205 232.63 72.8493C232.476 73.146 232.476 73.4427 232.861 73.4427C233.401 73.5169 235.484 73.5169 236.487 73.5169ZM242.194 76.7067L241.886 77.0034C241.423 77.4485 240.806 77.8936 239.649 78.4129L238.955 78.6355C237.026 85.3118 232.09 93.546 226.537 97.7002C225.457 98.5162 224.917 98.442 224.608 98.2195C224.223 97.8486 224.84 97.0326 225.38 96.1424C227.694 92.5075 230.933 86.1278 231.627 82.6413C232.013 80.7125 232.013 79.1547 231.087 78.3387C230.316 77.6711 229.468 77.4485 227.616 77.4485C226.074 77.4485 224.145 77.5969 220.52 78.1904C219.98 78.2645 219.98 77.9678 220.52 77.8195C223.143 77.0776 224.454 76.8551 224.608 76.41C224.685 76.1133 223.914 75.8907 221.6 75.5198C220.829 75.4456 220.906 75.2231 221.523 75.2231H239.957C240.343 75.2231 240.729 75.2973 241.192 75.4456C241.654 75.594 242.349 76.1874 242.503 76.41C242.271 76.5584 242.271 76.6325 242.194 76.7067Z" fill="#E52B2B"/>
</g>
<defs>
<clipPath id="clip0">
<rect width="242.271" height="124.552" fill="white" transform="translate(0 0.448486)"/>
</clipPath>
</defs>
</svg>
