<svg width="163" height="86" viewBox="0 0 163 86" fill="none" xmlns="http://www.w3.org/2000/svg">
<g clip-path="url(#clip0)">
<path d="M42.8642 52.2453C40.8922 51.5283 37.052 54.2942 34.7168 57.0089C34.7687 56.9065 34.7687 56.7528 34.8206 56.6503C35.5471 54.3454 37.0001 48.8648 35.2357 48.916C33.9903 48.916 31.188 51.2209 29.4236 52.86C28.5933 53.6283 27.7111 54.4478 26.9326 55.2162C27.244 54.6015 27.4516 54.1405 27.5035 53.9869C27.9705 53.0649 30.3577 48.1989 28.8527 48.2501C27.2959 48.3013 24.9607 51.4258 23.3 55.0625C21.6394 58.6992 20.6534 63.6164 22.0027 63.6164C23.1444 63.4627 26.7251 58.7504 28.0743 57.0601C29.1122 55.7796 30.7728 53.8844 31.5512 53.782C31.8626 53.7308 31.6031 54.9088 31.3956 55.421C31.3956 55.4723 31.3437 55.4723 31.3437 55.5235C31.3437 55.5747 31.2918 55.6259 31.2918 55.6771C31.188 55.9845 31.0842 56.2918 30.9804 56.4967C30.3577 58.0845 28.6452 63.9749 30.2539 63.9749C30.6171 63.9749 30.9804 63.8213 31.2918 63.5652C32.3297 63.1554 34.3016 60.0822 35.6509 58.5967C38.038 55.9845 38.7645 55.4723 39.4392 55.6259C40.1657 55.7796 39.543 58.5967 39.2835 60.4407C39.0759 62.0798 38.7127 64.1286 39.5949 64.1286C40.4252 64.1286 41.6706 62.4383 42.6566 59.7236C43.5388 57.5723 44.5248 52.86 42.8642 52.2453ZM59.678 50.5038C58.5363 49.6843 55.4226 50.0941 53.4506 52.2453C54.0215 50.0941 54.1253 48.3013 53.0355 48.3013C51.1673 48.3013 47.4828 57.5723 46.2892 60.3895C45.0957 63.2579 40.6846 73.2459 42.8642 73.2459C44.0578 73.2459 46.6525 68.0214 48.6764 63.7701C48.8839 63.8725 49.2472 64.0262 49.5067 64.0774C51.8938 64.3847 55.7859 63.2578 58.7958 58.6992C61.0272 55.2674 61.6499 51.9892 59.678 50.5038ZM55.8378 57.4187C54.5404 59.4163 52.8279 60.9017 51.0116 61.7724C50.4408 62.0285 49.9218 61.9773 49.5067 61.9773C49.9218 61.0041 51.0635 58.5967 51.2711 58.0845C52.776 54.7552 54.9037 53.4746 55.8378 53.8332C56.6162 54.1405 56.9276 55.7796 55.8378 57.4187ZM77.0626 49.4282C75.869 49.377 73.5856 51.6819 71.7174 53.4234C69.6417 55.3698 68.0848 56.9065 67.2026 56.8552C66.7875 56.804 67.3064 55.421 68.2405 53.1673C69.486 50.2477 69.2784 48.2501 68.4481 48.3013C66.6837 48.4038 64.4003 52.9112 63.4143 54.9601C62.2208 57.6235 61.2867 61.4651 62.4803 61.7212C64.2447 62.0798 66.0091 60.6456 67.3583 59.5699C68.7076 58.4943 71.3542 55.9845 71.7693 56.2406C72.0288 56.4455 71.5099 57.6748 71.1985 59.0065C70.6277 61.2602 71.4061 62.5408 72.3921 62.592C73.6375 62.6432 74.8311 58.8016 75.7133 56.6503C76.5955 54.4478 78.4118 49.4794 77.0626 49.4282ZM115.568 50.0428C114.375 49.9916 112.662 51.5282 110.534 53.3722C108.407 55.2674 106.487 56.9065 106.02 56.804C105.604 56.7016 106.123 55.3698 107.057 53.1161C108.303 50.1965 108.095 48.1989 107.265 48.2501C105.501 48.3526 103.165 52.86 102.231 54.9088C101.038 57.5723 100.104 61.4139 101.297 61.67C103.062 62.0285 104.93 60.5944 106.279 59.5187C107.68 58.3919 110.586 56.1381 110.95 56.1894C111.261 56.2406 110.742 57.3674 110.586 58.4431C110.223 60.5944 110.69 61.67 111.624 61.67C112.87 61.7212 113.648 58.9041 114.53 56.5479C115.361 54.3966 116.969 50.1453 115.568 50.0428ZM82.4596 48.3013C81.9406 48.3526 81.4736 49.377 81.8887 50.6575C82.6671 52.9112 82.9266 54.3966 82.9266 54.8064C82.9266 55.3186 81.6293 57.726 79.9686 60.3383C77.841 63.7188 74.9868 67.2019 75.5057 67.5604C76.4398 68.2263 79.6054 64.9994 81.9406 62.131C83.9126 59.6724 86.7149 55.6771 86.7149 54.8576C86.7668 53.4234 84.2759 48.1477 82.4596 48.3013ZM91.8005 48.3013C90.5032 48.3013 88.7907 52.2966 87.7528 54.8064C86.8706 56.9065 85.0024 62.0285 86.663 62.0798C88.5312 62.1822 90.0361 58.5967 91.1259 55.6771C92.3714 52.2966 93.6168 48.3013 91.8005 48.3013ZM101.038 48.3013C99.948 48.0452 97.0938 49.6843 95.5369 50.8624C94.4472 51.6819 92.2676 54.0381 92.1119 54.704C91.9562 55.421 92.579 59.3138 93.046 61.2602C93.4612 63.0017 94.499 67.7141 96.004 67.5604C96.8862 67.458 96.1597 62.4895 96.004 60.6456C95.8483 58.8016 95.5369 55.5235 95.6407 55.0113C95.7964 54.4991 97.8203 52.5014 99.3771 50.9648C100.882 49.5819 101.609 48.455 101.038 48.3013Z" fill="#E52B2B"/>
<path d="M20.3426 70.6849C16.9175 67.7653 13.9596 61.7213 15.5164 54.8576C17.696 45.1769 24.9093 41.028 27.1407 39.5426C27.6078 39.2353 28.1267 38.9279 28.6457 38.723C28.6457 38.7743 28.5938 38.7743 28.5938 38.8255C28.1267 40.1572 28.3862 41.489 29.6316 41.1817C31.2404 40.7719 32.4339 38.2108 32.1745 37.1864C32.0707 36.7254 31.7593 36.4693 31.3961 36.4181C30.5138 36.1108 28.3343 36.2644 25.5839 37.4937C21.5361 39.3377 13.5444 44.1012 11.2092 53.9357C9.44476 61.1578 12.5584 68.7898 17.5922 72.0167C19.4085 73.1435 21.0172 73.5533 21.588 73.0411C21.9513 72.7338 21.6399 71.7606 20.3426 70.6849ZM1.29736 84.0024H0L1.14167 78.7266H4.87806L4.61859 79.8535H2.23146L1.29736 84.0024ZM6.85005 78.9315C7.47278 78.6754 8.51066 78.5217 9.28908 78.5217C11.0535 78.5217 11.7281 79.1364 11.2611 81.3389C10.794 83.4902 9.75613 84.1561 8.30309 84.1561C7.68036 84.1561 7.3171 84.0024 7.05763 83.8487L6.59058 86H5.29322L6.85005 78.9315ZM7.36899 82.5682C7.3171 82.8755 7.73225 83.0804 8.30309 83.0804C9.23719 83.0804 9.60045 82.7219 9.91181 81.3901C10.2232 79.9559 9.96371 79.6486 9.02961 79.6486C8.66635 79.6486 8.25119 79.6998 7.93983 79.8023L7.36899 82.5682ZM13.6482 78.7266H14.9975C15.205 79.9047 15.3607 81.3901 15.4645 82.7731C16.2429 81.4413 17.0213 80.0584 17.6441 78.7266H18.9933C18.0592 80.5194 16.9175 82.4145 15.7759 84.2585C15.4126 84.8731 14.9456 85.539 14.5823 86.0512H13.1293C13.5444 85.539 13.9596 84.8731 14.3747 84.3097C14.219 82.3633 13.9596 80.3145 13.6482 78.7266ZM21.2248 84.0024H19.9274L21.0691 78.7266H25.7915L24.6498 84.0024H23.3524L24.2346 79.8535H22.107L21.2248 84.0024ZM28.6975 84.0024H27.4002L28.5419 78.7266H33.2642L32.1226 84.0024H30.8252L31.7074 79.8535H29.5798L28.6975 84.0024ZM36.8968 84.1561C35.7552 84.1561 35.0805 83.7975 35.0805 82.5682C35.0805 82.2097 35.1324 81.8511 35.2362 81.3901C35.7033 79.1876 36.6374 78.573 38.4018 78.573C39.1802 78.573 40.1662 78.7266 40.6851 78.9827L39.9586 82.4145C39.9067 82.5682 39.9067 82.7219 39.9067 82.8243C39.9067 83.0804 40.0105 83.3365 40.2181 83.5926L39.0764 84.2073C38.8169 84.1048 38.5575 83.7975 38.5056 83.5414C38.1423 83.8999 37.5715 84.1561 36.8968 84.1561ZM39.2321 79.8023C38.9726 79.6998 38.5575 79.6486 38.2461 79.6486C37.312 79.6486 36.9487 79.9047 36.6374 81.3901C36.5336 81.7487 36.5336 82.056 36.5336 82.2609C36.5336 82.8755 36.845 83.0292 37.5196 83.0292C38.0904 83.0292 38.6613 82.7731 38.7131 82.4145L39.2321 79.8023ZM49.9742 84.0024C49.4553 82.1072 48.9363 81.6974 48.2617 81.5438L47.7428 84.0024H46.4454L47.5871 78.6754H48.8844L48.3136 81.2365C48.8325 80.7755 49.8185 79.8023 50.9602 78.6754H52.517C51.1678 80.0584 50.2856 80.8779 49.9742 81.0828C50.4932 81.2877 50.9083 81.6462 51.531 83.9512L49.9742 84.0024ZM53.9182 81.3389C54.3852 79.1876 55.3712 78.573 57.0837 78.573C58.7962 78.573 59.5228 79.1876 59.0557 81.3389C58.5887 83.5414 57.6027 84.1561 55.8902 84.1561C54.1777 84.1561 53.4511 83.4902 53.9182 81.3389ZM55.2674 81.3389C54.9561 82.8243 55.1636 83.0804 56.0977 83.0804C57.0318 83.0804 57.3951 82.8243 57.7065 81.3389C58.0178 79.8023 57.8102 79.5974 56.8762 79.5974C55.9421 79.5974 55.5788 79.8535 55.2674 81.3389ZM66.8399 78.7266H68.6562L67.5145 84.0536H66.2171L67.0474 80.212C66.3209 81.2877 65.4387 82.7219 64.816 83.7463H63.83C63.6743 82.7219 63.4148 81.2365 63.1554 80.212L62.3251 84.0536H61.0277L62.1694 78.7266H64.0895C64.3489 79.751 64.6084 80.7755 64.816 81.9023C65.4387 80.7242 66.1133 79.6998 66.8399 78.7266ZM71.5622 84.0024H70.2649L71.4066 78.7266H76.1289L74.9873 84.0024H73.6899L74.5721 79.8535H72.4445L71.5622 84.0024ZM79.7615 84.1561C78.6199 84.1561 77.9452 83.7975 77.9452 82.5682C77.9452 82.2097 77.9971 81.8511 78.1009 81.3901C78.568 79.1876 79.5021 78.573 81.2665 78.573C82.0449 78.573 83.0309 78.7266 83.5498 78.9827L82.8233 82.4145C82.7714 82.5682 82.7714 82.7219 82.7714 82.8243C82.7714 83.0804 82.8752 83.3365 83.0828 83.5926L81.9411 84.2073C81.6816 84.1048 81.4222 83.7975 81.3703 83.5414C81.007 83.8999 80.4362 84.1561 79.7615 84.1561ZM82.0968 79.8023C81.7854 79.6998 81.4222 79.6486 81.1108 79.6486C80.1767 79.6486 79.8134 79.9047 79.5021 81.3901C79.3983 81.7487 79.3983 82.056 79.3983 82.2609C79.3983 82.8755 79.7096 83.0292 80.3843 83.0292C80.9551 83.0292 81.5259 82.7731 81.5778 82.4145L82.0968 79.8023ZM87.0267 81.7487L86.5078 84.0024H85.2104L86.3521 78.7266H87.6495L87.2343 80.673H89.362L89.7771 78.7266H91.0745L89.9328 84.0024H88.6355L89.1025 81.7487H87.0267ZM96.8867 80.7755C96.0045 81.9023 94.9666 83.0804 93.9806 84.0024H92.6832L93.8249 78.6754H95.1223L94.3957 82.056C95.3298 81.134 96.4196 79.8023 97.3018 78.6754H98.5992L97.4575 84.0024H96.1601L96.8867 80.7755ZM104.411 80.7755C103.529 81.9023 102.491 83.0804 101.505 84.0024H100.208L101.35 78.6754H102.647L101.92 82.056C102.854 81.134 103.944 79.8023 104.826 78.6754H106.124L104.982 84.0024H103.685L104.411 80.7755ZM103.529 76.729C103.425 77.2412 103.633 77.3437 104.1 77.3437C104.463 77.3437 104.826 77.2412 104.93 76.729H105.761C105.553 77.7022 104.93 78.1632 103.892 78.1632C102.906 78.1632 102.387 77.7022 102.647 76.729H103.529Z" fill="#E52B2B"/>
<path d="M138.973 33.3961C142.502 33.3961 144.837 32.0644 144.993 27.2496C145.252 19.7713 144.266 14.0346 141.723 8.1954C140.789 6.04412 139.129 3.43185 138.039 2.15133C136.69 0.512259 135.548 -0.256055 134.925 0.102492C134.354 0.461038 134.977 1.74156 135.496 3.89284C136.43 7.88808 137.053 12.3955 136.845 17.6713C136.534 25.252 134.77 29.2472 132.798 32.3717C132.538 32.8327 132.538 33.3961 133.213 33.3961H138.973ZM147.847 38.5182C147.691 38.6207 147.587 38.7231 147.328 38.9792C146.601 39.6963 145.667 40.4646 143.747 41.2329C143.384 41.3866 143.021 41.489 142.606 41.6427C139.596 52.4503 131.863 65.6141 123.145 72.324C121.485 73.6046 120.654 73.5533 120.135 73.0924C119.564 72.5289 120.499 71.146 121.381 69.7118C125.065 63.8214 130.099 53.526 131.189 48.0453C131.812 44.9721 131.863 42.4622 130.359 41.1305C129.113 40.0036 127.764 39.7475 124.858 39.7475C122.471 39.7475 119.461 39.9524 113.7 40.9768C112.922 41.1305 112.818 40.6695 113.649 40.4134C117.748 39.1841 119.876 38.8768 120.032 38.1597C120.135 37.6987 118.89 37.2889 115.257 36.7767C114.064 36.623 114.116 36.3157 115.102 36.3157C115.102 36.3157 137.987 36.3157 144.007 36.3669C144.578 36.3669 145.2 36.4182 145.875 36.6743C146.601 36.9304 147.639 37.8523 147.951 38.2109C148.054 38.2621 148.054 38.4158 147.847 38.5182ZM111.728 20.847C113.441 20.847 114.531 20.2323 114.635 17.9274C114.738 14.3419 114.271 11.6272 113.078 8.86128C112.611 7.83686 111.832 6.60755 111.313 5.9929C110.639 5.22459 110.12 4.81482 109.808 5.0197C109.549 5.17337 109.808 5.78802 110.068 6.81244C110.535 8.70761 110.794 10.8589 110.691 13.3687C110.535 17.0054 109.705 18.9006 108.77 20.386C108.615 20.5909 108.667 20.847 108.978 20.847C109.341 20.7958 110.95 20.847 111.728 20.847ZM115.984 23.2544C115.932 23.3056 115.828 23.3568 115.724 23.4592C115.413 23.8178 114.946 24.1763 114.012 24.5349C113.856 24.5861 113.649 24.6886 113.493 24.7398C112.04 29.9131 108.355 36.2133 104.204 39.389C103.425 40.0036 103.01 40.0036 102.751 39.7475C102.491 39.4914 102.906 38.8255 103.322 38.1597C105.086 35.3425 107.473 30.4253 107.992 27.813C108.303 26.3276 108.303 25.1495 107.577 24.5349C107.006 24.0227 106.331 23.869 104.93 23.869C103.789 23.869 102.336 23.9715 99.5852 24.4324C99.2219 24.4837 99.17 24.2788 99.5852 24.1763C101.557 23.6129 102.543 23.4592 102.647 23.1007C102.699 22.8958 102.128 22.6909 100.364 22.4348C99.7928 22.3324 99.8447 22.2299 100.312 22.2299H114.116C114.375 22.2299 114.686 22.2812 114.998 22.3836C115.361 22.5373 115.828 22.947 115.984 23.1007C116.088 23.1519 116.036 23.2031 115.984 23.2544ZM159.108 50.4527C160.613 50.4527 161.599 49.8893 161.703 47.7892C161.806 44.5623 161.391 42.1037 160.302 39.6451C159.886 38.7231 159.212 37.5962 158.745 37.0328C158.174 36.3157 157.655 36.0084 157.395 36.162C157.136 36.3157 157.395 36.8791 157.655 37.8011C158.07 39.4914 158.33 41.4378 158.226 43.6915C158.07 46.9184 157.344 48.66 156.513 49.9917C156.409 50.1966 156.409 50.4015 156.669 50.4015C157.032 50.4527 158.433 50.4527 159.108 50.4527ZM162.948 52.6552L162.741 52.8601C162.429 53.1674 162.014 53.4747 161.236 53.8333L160.769 53.9869C159.471 58.5968 156.15 64.2824 152.414 67.1507C151.687 67.7142 151.324 67.6629 151.116 67.5093C150.857 67.2532 151.272 66.6897 151.635 66.0751C153.192 63.5653 155.372 59.1603 155.839 56.7529C156.098 55.4211 156.098 54.3455 155.475 53.7821C154.956 53.3211 154.386 53.1674 153.14 53.1674C152.102 53.1674 150.805 53.2698 148.366 53.6796C148.003 53.7308 148.003 53.526 148.366 53.4235C150.13 52.9113 151.012 52.7576 151.116 52.4503C151.168 52.2454 150.649 52.0918 149.092 51.8357C148.573 51.7844 148.625 51.6308 149.04 51.6308H161.443C161.703 51.6308 161.962 51.682 162.274 51.7844C162.585 51.8869 163.052 52.2966 163.156 52.4503C163 52.5528 163 52.604 162.948 52.6552Z" fill="#E52B2B"/>
</g>
<defs>
<clipPath id="clip0">
<rect width="163" height="86" fill="white"/>
</clipPath>
</defs>
</svg>
