<svg width="202" height="67" viewBox="0 0 202 67" fill="none" xmlns="http://www.w3.org/2000/svg">
<path d="M129.545 58.1296C129.545 58.1296 129.734 58.0352 130.114 57.8465C131.821 55.7704 135.614 51.1465 136.752 50.2972C138.364 49.0704 141.968 47.5606 143.675 46.7113C144.813 46.2394 145.762 45.862 146.805 45.4845C146.046 45.2958 145.287 45.0127 144.718 44.4465C144.339 44.1634 144.054 43.7859 143.77 43.4084C142.158 45.107 140.83 45.862 139.502 45.5789L138.459 46.8056L139.313 45.5789C138.838 45.4845 138.364 45.2958 137.89 44.9183C137.511 44.6352 137.131 44.2577 136.847 43.6915V43.8803C136.847 44.3521 136.562 44.7296 136.183 45.0127C135.993 46.6169 135.804 48.3155 135.33 49.4479C134.571 51.1465 128.976 58.7901 128.976 58.7901L129.26 58.8845C129.26 58.8845 129.45 58.6014 129.829 58.2239C129.639 58.3183 129.545 58.3183 129.545 58.3183V58.1296Z" fill="#E52B2B"/>
<path d="M142.632 26.4225C142.822 26.2337 143.011 26.045 143.201 26.045C145.572 25.1957 147.279 24.9126 148.607 25.5732C149.081 25.8563 149.555 26.2337 149.84 26.7056C149.934 26.045 150.503 25.4788 151.167 25.4788H156.383C156.763 25.4788 157.142 25.6676 157.426 25.9506C157.426 25.9506 157.426 25.9506 157.521 25.9506C158.28 25.3845 158.944 24.7239 159.797 24.0633C159.987 23.8746 160.271 23.7802 160.461 23.5915C159.702 22.7422 159.133 21.7985 158.754 20.5718C158.659 20.2887 158.659 19.9112 158.849 19.6281C159.133 18.9676 159.987 18.6845 160.651 18.9676C162.358 19.7225 163.97 17.9295 164.918 16.7971C165.108 16.6084 165.298 16.3253 165.487 16.1366C166.151 15.476 166.815 14.9098 167.479 14.5323C168.238 14.1549 169.091 13.8718 169.85 13.8718C170.703 13.7774 171.557 13.8718 172.41 14.2492C172.885 14.438 173.264 14.7211 173.738 15.0985C176.014 13.8718 178.48 12.7394 181.515 11.607L183.317 10.8521L185.877 9.71966L183.411 11.0408L181.704 11.8901C179.239 13.0225 177.247 14.1549 175.35 15.2873H175.825C176.204 15.2873 176.583 15.3816 176.868 15.7591C177.342 16.3253 177.342 17.1746 176.773 17.6464L175.54 18.7788C175.825 20.5718 175.256 22.176 174.307 23.4028C173.454 24.4408 172.316 25.2901 171.083 25.7619C171.557 25.9506 171.936 26.4225 171.936 26.9887C171.936 27.6492 171.936 28.9704 171.841 30.3859C171.841 31.1408 171.841 31.9901 171.747 32.8394C178.67 27.5549 181.989 22.8366 185.308 16.0422C187.3 11.7957 191.472 8.30417 194.981 5.94502L196.878 4.81262L194.697 5.47319C190.998 6.60558 186.162 7.54924 180.946 7.54924C180.092 7.54924 179.144 7.54924 178.29 7.45488C177.057 7.36051 175.919 7.36051 174.781 7.36051C164.824 7.36051 155.909 10.6633 147.184 18.7788C144.718 21.5154 142.917 23.7802 141.589 25.8563C141.968 26.045 142.348 26.2337 142.632 26.4225C142.442 26.3281 142.537 26.4225 142.632 26.4225Z" fill="#E52B2B"/>
<path d="M172.031 43.1252C172.221 43.7858 171.842 44.5407 171.178 44.7295C168.902 45.5788 167.384 45.6731 166.151 45.2957C165.582 45.1069 165.203 44.8238 164.824 44.4464C164.35 44.8238 163.875 45.0126 163.401 45.2013C162.643 45.4844 161.789 45.5788 160.936 45.39C160.082 45.2957 159.323 44.9182 158.565 44.352C158.375 44.1633 158.09 43.9745 157.901 43.6914C157.806 44.1633 157.521 44.5407 157.047 44.6351C154.771 45.4844 153.254 45.5788 152.021 45.2013C151.452 45.0126 151.073 44.7295 150.693 44.352C150.219 44.7295 149.745 44.9182 149.271 45.1069C148.797 45.2957 148.228 45.39 147.659 45.39C146.426 46.5224 145.193 47.8436 143.77 49.259C142.443 50.4858 140.167 53.3168 138.649 54.2605C137.511 55.0154 131.821 56.9971 129.924 57.752C129.829 57.9407 129.735 58.0351 129.545 58.1295C130.967 57.752 137.321 55.8647 138.649 55.8647C140.261 55.8647 142.917 57.0914 144.244 57.4689C150.978 59.545 154.013 61.5266 159.892 61.5266C161.125 61.5266 162.453 61.4323 163.97 61.2436C172.695 61.2436 176.109 56.8083 182.084 52.7506C185.213 50.2027 188.817 49.0703 191.378 48.5985L192.99 48.6928L191.473 48.0323C189.007 47.183 185.782 45.5788 183.127 42.6534C179.713 38.7844 176.299 35.9534 171.083 35.2928C171.557 38.5957 171.557 41.6154 172.031 43.1252ZM182.748 47.6548L183.981 47.8436L185.688 48.0323H183.981H182.748H182.653C180.851 48.0323 179.428 47.9379 178.006 47.9379C174.497 47.9379 171.557 48.1266 165.772 49.3534C156.858 50.5802 151.642 51.6182 145.572 53.3168H145.477L142.063 54.2605L145.477 53.0337C151.547 50.3914 156.858 49.1647 165.772 47.8436C169.186 47.183 171.652 46.8999 173.833 46.8999C176.773 46.8999 179.144 47.3717 182.748 47.6548Z" fill="#E52B2B"/>
<path d="M129.545 58.1295V58.4126C129.545 58.4126 129.64 58.4126 129.829 58.3183C129.924 58.2239 130.019 58.0352 130.209 57.9408C129.735 58.0352 129.545 58.1295 129.545 58.1295Z" fill="#E52B2B"/>
<path fill-rule="evenodd" clip-rule="evenodd" d="M175.73 16.514L173.075 16.6084C172.221 15.3816 170.988 15.0985 169.755 15.1929C168.617 15.2872 167.29 15.8534 166.246 17.0802C165.108 18.2126 162.927 21.6098 159.798 20.1943C160.841 23.5915 163.875 25.1013 166.721 25.1013V26.8943H165.013V36.7084C165.108 41.0492 163.117 40.8605 163.117 36.7084C163.117 34.6323 163.117 32.8393 163.117 30.6689C163.117 26.3281 161.505 25.8562 157.521 27.3661C158.375 30.2915 157.996 36.8971 157.996 40.1055C158.09 45.2957 163.875 45.39 165.108 41.8985C165.393 44.2577 166.815 45.0126 170.609 43.5971C169.566 40.2943 170.135 30.7633 170.135 26.9886H168.902V25.0069H168.997C172.221 24.252 174.876 21.6098 173.928 18.2126C174.402 17.552 175.161 17.0802 175.73 16.514ZM167.479 26.8943V25.1013C167.764 25.1013 168.048 25.0069 168.333 25.0069V26.8943H167.479ZM171.083 18.6844C170.609 18.6844 170.135 18.3069 170.135 17.7408C170.135 17.2689 170.514 16.7971 171.083 16.7971C171.557 16.7971 172.031 17.1746 172.031 17.7408C172.031 18.3069 171.557 18.6844 171.083 18.6844Z" fill="#E52B2B"/>
<path fill-rule="evenodd" clip-rule="evenodd" d="M23.1394 39.9168C22.0014 39.9168 21.7169 39.3506 21.6221 38.0295V28.6872C21.6221 24.6295 18.208 23.214 14.6042 23.214C12.5178 23.214 10.3366 23.6858 8.72441 24.1577C8.91408 24.8182 9.4831 25.6675 9.38826 28.3098C9.29343 30.5746 8.81925 35.9534 8.06056 38.1239C7.68122 39.3506 7.11221 39.9168 5.87934 39.9168C5.87934 41.9929 6.16385 44.8239 5.5 46.7112C9.76761 48.3154 11.0005 47.183 11.0953 44.1633H17.9235C18.0183 47.183 19.2512 48.221 23.5188 46.7112C22.8549 44.8239 23.0446 41.9929 23.1394 39.9168ZM16.2164 39.9168H13.2765C14.13 35.7647 14.6042 29.7253 14.6042 25.7619V25.5731C15.7423 25.5731 16.2164 26.7055 16.2164 28.9703V39.9168Z" fill="#E52B2B"/>
<path fill-rule="evenodd" clip-rule="evenodd" d="M89.4301 26.8943H79.7568C79.9465 27.5549 80.1362 29.1591 80.1362 30.1971V43.9746H85.3521V29.8196C86.3953 29.8196 87.8179 30.1027 88.7662 30.3858L89.4301 26.8943Z" fill="#E52B2B"/>
<path fill-rule="evenodd" clip-rule="evenodd" d="M94.7407 26.6112C86.4899 26.6112 85.6364 44.2577 94.9303 44.2577C103.56 44.2577 103.94 26.6112 94.7407 26.6112ZM94.9303 40.9549C93.6975 40.9549 93.6975 29.8197 94.9303 29.8197C96.1632 29.8197 96.1632 40.9549 94.9303 40.9549Z" fill="#E52B2B"/>
<path fill-rule="evenodd" clip-rule="evenodd" d="M110.863 26.5168C109.819 26.5168 108.681 27.083 107.923 28.121C107.733 25.6675 103.655 26.7055 102.138 27.2717C102.327 27.6492 102.707 29.1591 102.707 30.1027V45.2957C102.707 48.5985 103.845 49.9196 108.302 48.221C107.828 46.8055 107.923 43.7858 107.923 42.276C108.776 43.4084 109.819 43.9746 110.957 44.0689C111.526 44.0689 112.19 43.8802 112.759 43.5027C115.035 41.8985 115.32 36.8027 115.225 34.3492C115.035 31.99 114.371 26.4224 110.863 26.5168ZM108.397 40.5774V30.1971C108.397 29.1591 109.819 30.1027 109.914 35.2929C109.819 40.483 108.397 41.6154 108.397 40.5774Z" fill="#E52B2B"/>
<path fill-rule="evenodd" clip-rule="evenodd" d="M137.7 26.6111C138.175 29.914 137.416 32.8393 135.519 33.3111V30.1971C135.519 26.8942 134.381 25.5731 129.924 27.2717C130.398 28.6872 130.398 30.1027 130.398 31.6126V43.8802H135.519V36.5196C137.606 44.4464 139.502 46.145 143.201 42.0872C144.434 40.6717 141.968 41.6154 139.313 34.5379C142.158 33.2168 145.287 25.6675 137.7 26.6111Z" fill="#E52B2B"/>
<path fill-rule="evenodd" clip-rule="evenodd" d="M72.2641 26.6112C64.0134 26.6112 63.1599 44.2577 72.4538 44.2577C81.0838 44.2577 81.4631 26.6112 72.2641 26.6112ZM72.4538 40.9549C71.2209 40.9549 71.2209 29.8197 72.4538 29.8197C73.6866 29.8197 73.6866 40.9549 72.4538 40.9549Z" fill="#E52B2B"/>
<path fill-rule="evenodd" clip-rule="evenodd" d="M64.583 39.1619V26.8943H59.367V33.0281H57.4703V30.2915C57.4703 26.9886 56.3323 25.6675 51.875 27.2717C52.2543 28.4041 52.2543 29.5365 52.3492 30.6689V43.9746H57.5651V37.652H59.4619V39.9168V40.483C59.4619 43.7858 60.5999 45.107 65.0572 43.5027C64.583 42.0872 64.583 40.6717 64.583 39.1619Z" fill="#E52B2B"/>
<path fill-rule="evenodd" clip-rule="evenodd" d="M123.57 37.6521C123.475 39.5394 123.191 41.0492 122.716 41.0492C121.484 41.0492 121.484 29.8197 122.716 29.8197C123.191 29.8197 123.475 31.8013 123.57 34.0661C125.277 35.2929 127.079 33.4999 129.07 33.1225C128.407 29.6309 126.225 26.6112 122.527 26.6112C114.276 26.6112 113.423 44.2577 122.716 44.2577C126.794 44.2577 128.976 40.3887 129.26 36.2366C128.217 35.7647 125.562 36.2366 123.57 37.6521Z" fill="#E52B2B"/>
<path fill-rule="evenodd" clip-rule="evenodd" d="M156.289 26.8942H151.073V36.7083C151.168 41.0492 149.176 40.8604 149.176 36.7083C149.176 34.6323 149.176 32.8393 149.176 30.6689C149.176 26.328 147.564 25.8562 143.581 27.3661C144.435 30.2914 144.055 36.8971 144.055 40.1055C144.15 45.2956 149.935 45.39 151.168 41.8985C151.452 44.2576 152.875 45.0125 156.668 43.5971C155.72 40.1999 156.289 30.6689 156.289 26.8942Z" fill="#E52B2B"/>
<path fill-rule="evenodd" clip-rule="evenodd" d="M36.6064 26.8942H31.3905V36.7083C31.4853 41.0492 29.4937 40.8604 29.4937 36.7083C29.4937 34.6323 29.4937 32.8393 29.4937 30.6689C29.4937 26.328 27.8815 25.8562 23.8984 27.3661C24.752 30.2914 24.3726 36.8971 24.3726 40.1055C24.4675 45.2956 30.2524 45.39 31.4853 41.8985C31.7698 44.2576 33.1923 45.0125 36.9858 43.5971C36.0374 40.1999 36.6064 30.6689 36.6064 26.8942Z" fill="#E52B2B"/>
<path fill-rule="evenodd" clip-rule="evenodd" d="M49.4087 31.2351C50.1674 29.8196 50.1674 27.9323 49.4087 26.4224C47.7017 23.3083 42.296 23.0252 40.1148 25.6675C39.1664 26.8942 38.7871 28.4985 38.7871 30.2914V44.2576H44.1927V43.314C45.5204 44.5407 46.943 44.6351 48.4603 43.6914C50.0726 42.6534 51.3054 40.5773 51.3054 37.652C51.4003 35.1985 50.5467 32.7449 49.4087 31.2351C49.5035 31.2351 49.4087 31.2351 49.4087 31.2351ZM44.1927 26.1393C44.1927 25.7618 44.3824 25.6675 44.6669 25.7618C45.4256 26.2337 45.6153 27.7435 45.6153 28.4041C45.6153 29.0647 45.4256 30.1971 44.8566 30.6689C44.5721 30.952 44.1927 30.7632 44.1927 30.3858V26.1393ZM45.8998 37.2745C45.8998 38.2182 45.7101 40.1055 44.9514 40.7661C44.5721 41.1435 44.0979 40.9548 44.0979 40.2942V33.5942C44.0979 33.028 44.3824 32.8393 44.6669 33.1224C45.8049 33.8773 45.9946 36.2365 45.8998 37.2745Z" fill="#E52B2B"/>
<path fill-rule="evenodd" clip-rule="evenodd" d="M66.9529 53.3169L65.5304 53.5056C65.5304 53.7887 65.1511 54.3549 64.2975 55.393C63.444 56.431 62.9698 57.0915 62.875 57.3746H62.7802C62.7802 56.7141 62.875 56.1479 62.875 55.7704C62.875 55.0155 62.875 54.1662 62.9698 53.4113L61.168 53.6C61.2628 54.3549 61.3576 55.2986 61.3576 56.5253C61.3576 57.5634 61.3576 58.6014 61.2628 59.4507H62.5905C62.5905 59.1676 62.9698 58.507 63.8234 57.5634C64.6769 56.5253 65.2459 55.8648 65.3407 55.5817H65.4356C65.4356 56.1479 65.3407 56.6197 65.3407 56.9972C65.3407 57.9408 65.3407 58.6958 65.2459 59.4507H66.8581C66.7633 58.507 66.7633 57.469 66.7633 56.5253C66.8581 55.2042 66.8581 54.1662 66.9529 53.3169Z" fill="#E52B2B"/>
<path fill-rule="evenodd" clip-rule="evenodd" d="M110.008 52.5619C111.526 52.5619 112.285 51.9013 112.285 50.5802L110.957 50.3915C110.957 50.769 110.862 51.052 110.767 51.2408C110.672 51.4295 110.388 51.5239 110.008 51.5239C109.439 51.5239 109.155 51.1464 109.155 50.2971L107.732 50.4859C107.732 51.052 107.922 51.4295 108.207 51.807C108.681 52.3732 109.25 52.5619 110.008 52.5619Z" fill="#E52B2B"/>
<path fill-rule="evenodd" clip-rule="evenodd" d="M79.7561 53.2224C78.9974 53.2224 78.3336 53.4111 77.9542 53.883H77.8594L77.7645 53.3168L76.1523 53.5055C76.342 54.5435 76.4368 56.1478 76.4368 58.1294C76.4368 59.7337 76.4368 61.0548 76.342 62.2816H78.0491C78.0491 61.2435 78.0491 60.2055 78.0491 59.1675H78.1439C78.4284 59.4506 78.9026 59.6393 79.5664 59.6393C80.4199 59.6393 81.1786 59.2618 81.6528 58.6013C82.127 57.9407 82.4115 57.0914 82.4115 56.2421C82.4115 55.4872 82.2218 54.7323 81.7476 54.1661C81.1786 53.5055 80.5148 53.2224 79.7561 53.2224ZM80.2303 57.8464C79.9458 58.2238 79.5664 58.5069 78.9974 58.5069C78.6181 58.5069 78.2387 58.4126 77.9542 58.2238C77.9542 57.2802 77.9542 56.1478 77.8594 55.0154C78.1439 54.6379 78.5232 54.5435 79.0922 54.5435C79.5664 54.5435 79.9458 54.7323 80.2303 55.1097C80.5148 55.4872 80.6096 55.959 80.6096 56.4309C80.7045 56.9027 80.5148 57.4689 80.2303 57.8464Z" fill="#E52B2B"/>
<path fill-rule="evenodd" clip-rule="evenodd" d="M59.0818 53.5056H56.7109C56.7109 53.9774 56.5212 54.8267 56.1419 55.9591C55.7625 57.0915 55.5728 57.8465 55.5728 58.0352H55.478C55.478 57.8465 55.2883 57.0915 54.909 55.9591C54.5296 54.8267 54.34 53.9774 54.34 53.5056H52.0639C52.0639 54.0718 51.9691 55.1098 51.8742 56.8084C51.6846 58.507 51.6846 59.3563 51.6846 59.4507H53.1071C53.1071 59.0732 53.1071 58.2239 53.2019 56.9972C53.2019 55.7704 53.2968 55.0155 53.2968 54.7324H53.3916C53.5813 55.3929 53.8658 56.2422 54.1503 57.2803C54.5296 58.2239 54.6245 58.9789 54.6245 59.4507H56.047C56.047 58.9789 56.2367 58.2239 56.7109 56.9972C57.185 55.7704 57.4696 55.0155 57.5644 54.7324H57.6592C57.6592 55.0155 57.6592 55.676 57.6592 56.8084C57.6592 57.9408 57.6592 58.7901 57.6592 59.4507H59.2714C59.2714 59.262 59.2714 58.4127 59.1766 56.7141C59.1766 55.1098 59.0818 53.9774 59.0818 53.5056Z" fill="#E52B2B"/>
<path fill-rule="evenodd" clip-rule="evenodd" d="M73.4964 57.0914C73.2119 56.714 72.9274 56.4309 72.5481 56.3365V56.2421C73.1171 56.0534 73.6861 55.2985 74.1603 53.9773C74.2551 53.6942 74.35 53.5055 74.35 53.4111H72.7378C72.6429 53.5055 72.6429 53.5999 72.6429 53.6942C72.2636 55.1097 71.7894 55.7703 71.0307 55.7703C70.9359 55.7703 70.841 55.7703 70.6514 55.7703C70.6514 54.7323 70.6514 53.883 70.7462 53.2224L68.9443 53.4111C69.134 54.2604 69.134 55.2041 69.134 56.4309C69.134 57.4689 69.134 58.4125 69.0392 59.2618H70.7462C70.6514 58.4125 70.6514 57.5633 70.6514 56.8083C70.841 56.8083 70.9359 56.8083 71.0307 56.8083C71.4101 56.8083 71.7894 56.9971 71.9791 57.2802C72.2636 57.5633 72.4533 58.1294 72.7378 58.9787C72.8326 59.1675 72.8326 59.2618 72.9274 59.3562H74.6345C74.5396 59.0731 74.4448 58.8844 74.35 58.6956C74.0655 58.0351 73.781 57.4689 73.4964 57.0914Z" fill="#E52B2B"/>
<path fill-rule="evenodd" clip-rule="evenodd" d="M87.2478 53.2224C86.3943 53.2224 85.6356 53.5055 84.9718 54.0717C84.3079 54.6379 84.0234 55.4872 84.0234 56.5252C84.0234 57.4689 84.3079 58.2238 84.877 58.79C85.446 59.3562 86.2047 59.6393 87.0582 59.6393C87.9117 59.6393 88.6704 59.3562 89.3342 58.79C89.9981 58.2238 90.2826 57.3745 90.2826 56.3365C90.2826 55.3928 89.9981 54.5435 89.4291 54.0717C88.7652 53.5055 88.0065 53.2224 87.2478 53.2224ZM88.1962 57.9407C87.9117 58.3182 87.5324 58.5069 87.153 58.5069C86.6788 58.5069 86.2995 58.3182 86.015 57.8464C85.7305 57.4689 85.5408 56.9027 85.5408 56.3365C85.5408 55.7703 85.6356 55.2985 85.9201 54.921C86.2047 54.5435 86.584 54.3548 86.9633 54.3548C87.4375 54.3548 87.8169 54.5435 88.1014 55.0154C88.3859 55.3928 88.4807 55.959 88.4807 56.5252C88.5756 57.0914 88.4807 57.5633 88.1962 57.9407Z" fill="#E52B2B"/>
<path fill-rule="evenodd" clip-rule="evenodd" d="M95.594 53.2224C94.8353 53.2224 94.1715 53.4111 93.7921 53.883H93.6973L93.6024 53.3168L91.9902 53.5055C92.1799 54.5435 92.2747 56.1478 92.2747 58.1294C92.2747 59.7337 92.2747 61.0548 92.1799 62.2816H93.8869C93.8869 61.2435 93.8869 60.2055 93.8869 59.1675H93.9818C94.2663 59.4506 94.7405 59.6393 95.4043 59.6393C96.2578 59.6393 97.0165 59.2618 97.4907 58.6013C97.9649 57.9407 98.2494 57.0914 98.2494 56.2421C98.2494 55.4872 98.0597 54.7323 97.5855 54.1661C97.0165 53.5055 96.3527 53.2224 95.594 53.2224ZM96.0682 57.8464C95.7837 58.2238 95.4043 58.5069 94.8353 58.5069C94.456 58.5069 94.0766 58.4126 93.7921 58.2238C93.7921 57.2802 93.7921 56.1478 93.6973 55.0154C93.9818 54.6379 94.3611 54.5435 94.9301 54.5435C95.4043 54.5435 95.7837 54.7323 96.0682 55.1097C96.3527 55.4872 96.4475 55.959 96.4475 56.4309C96.4475 56.9027 96.3527 57.4689 96.0682 57.8464Z" fill="#E52B2B"/>
<path fill-rule="evenodd" clip-rule="evenodd" d="M128.217 59.4506C128.122 58.5069 128.122 57.5632 128.122 56.5252C128.122 55.2985 128.122 54.2604 128.217 53.4111L126.415 53.5999C126.509 54.1661 126.604 54.921 126.604 55.7703H124.233C124.233 54.4492 124.328 53.6942 124.328 53.4111L122.526 53.5999C122.716 54.4492 122.716 55.3928 122.716 56.5252C122.716 57.6576 122.716 58.6013 122.621 59.4506H124.328C124.233 58.6956 124.233 57.752 124.233 56.9027H126.604C126.604 57.8463 126.604 58.79 126.509 59.4506H128.217Z" fill="#E52B2B"/>
<path fill-rule="evenodd" clip-rule="evenodd" d="M117.785 53.2224C116.931 53.2224 116.173 53.5055 115.509 54.0717C114.845 54.6379 114.561 55.4872 114.561 56.5252C114.561 57.4689 114.845 58.2238 115.414 58.79C115.983 59.3562 116.742 59.6393 117.595 59.6393C118.449 59.6393 119.207 59.3562 119.871 58.79C120.535 58.2238 120.82 57.3745 120.82 56.3365C120.82 55.3928 120.535 54.5435 119.966 54.0717C119.302 53.5055 118.544 53.2224 117.785 53.2224ZM118.733 57.9407C118.449 58.3182 118.069 58.5069 117.69 58.5069C117.216 58.5069 116.837 58.3182 116.552 57.8464C116.268 57.4689 116.078 56.9027 116.078 56.3365C116.078 55.7703 116.173 55.2985 116.457 54.921C116.742 54.5435 117.121 54.3548 117.5 54.3548C117.975 54.3548 118.354 54.5435 118.638 55.0154C118.923 55.3928 119.018 55.959 119.018 56.5252C119.113 57.0914 119.018 57.5633 118.733 57.9407Z" fill="#E52B2B"/>
<path fill-rule="evenodd" clip-rule="evenodd" d="M104.983 56.3365C104.983 55.8647 104.983 55.5816 104.983 55.3928C104.983 54.6379 104.793 54.0717 104.319 53.6942C103.939 53.4111 103.276 53.2224 102.517 53.2224C101.474 53.2224 100.715 53.3168 100.146 53.5055L100.051 54.6379C100.62 54.4492 101.284 54.3548 101.948 54.3548C102.517 54.3548 102.896 54.4492 103.181 54.5435C103.37 54.7323 103.465 55.0154 103.465 55.3928C103.465 55.4872 103.465 55.4872 103.465 55.5816C102.137 55.5816 101.189 55.8647 100.62 56.2421C100.051 56.6196 99.7666 57.1858 99.7666 57.752C99.7666 58.2238 99.9563 58.6013 100.241 58.8844C100.62 59.1675 100.999 59.3562 101.568 59.3562C102.327 59.3562 102.991 59.1675 103.465 58.79H103.56C103.56 58.8844 103.56 59.0731 103.655 59.2618L105.172 59.1675C105.077 58.6013 104.983 57.9407 104.983 57.0914C104.888 57.0914 104.983 56.8083 104.983 56.3365ZM102.232 58.5069C101.568 58.5069 101.284 58.2238 101.284 57.752C101.284 56.9971 102.043 56.714 103.465 56.714C103.465 57.0914 103.465 57.5633 103.465 58.1294C103.086 58.3182 102.707 58.5069 102.232 58.5069Z" fill="#E52B2B"/>
<path fill-rule="evenodd" clip-rule="evenodd" d="M112.664 53.3169L111.336 53.5056C111.336 53.7887 110.957 54.3549 110.103 55.393C109.25 56.431 108.776 57.0915 108.681 57.3746H108.586C108.586 56.7141 108.681 56.1479 108.681 55.7704C108.681 55.0155 108.681 54.1662 108.776 53.4113L106.974 53.6C107.068 54.3549 107.163 55.2986 107.163 56.5253C107.163 57.5634 107.163 58.6014 107.068 59.4507H108.396C108.396 59.1676 108.776 58.507 109.629 57.5634C110.483 56.5253 111.052 55.8648 111.146 55.5817H111.241C111.241 56.1479 111.146 56.6197 111.146 56.9972C111.146 57.9408 111.146 58.6958 111.052 59.4507H112.664C112.569 58.507 112.569 57.469 112.569 56.5253C112.569 55.2042 112.664 54.1662 112.664 53.3169Z" fill="#E52B2B"/>
</svg>
