<svg width="143" height="125" viewBox="0 0 143 125" fill="none" xmlns="http://www.w3.org/2000/svg">
<g clip-path="url(#clip0)">
<path fill-rule="evenodd" clip-rule="evenodd" d="M12.3382 117.174H13.9491L16.8259 120.863V117.174H18.2067V120.863L21.0835 117.174H22.637L19.6451 120.863L22.752 124.888H21.141L18.1492 120.919V124.888H16.7684V120.919L13.7765 124.888H12.1656L15.2725 120.863L12.3382 117.174ZM24.5356 124.888V117.174H25.9165V122.652L30.059 117.174H31.2672V124.888H29.8864V119.41L25.7439 124.888H24.5356ZM38.7468 118.459H36.4454L36.2728 119.913C35.8125 124.385 34.7769 125.112 33.2234 124.888L33.281 123.547C33.9138 123.602 34.7193 123.379 35.0645 118.739L35.1796 117.174H40.1852V124.888H38.7468V118.459ZM46.399 117.062C48.5853 116.95 50.4264 118.571 50.5415 120.696C50.5415 120.807 50.5415 120.919 50.5415 121.031C50.599 123.155 48.873 124.944 46.6291 125C46.5716 125 46.4565 125 46.399 125C44.2126 125.112 42.3715 123.491 42.2564 121.366C42.2564 121.255 42.2564 121.143 42.2564 121.031C42.1989 118.907 43.925 117.118 46.1113 117.062C46.2839 117.062 46.3414 117.062 46.399 117.062ZM46.399 123.77C47.8374 123.826 49.0456 122.708 49.0456 121.31C49.0456 121.199 49.0456 121.143 49.0456 121.031C49.1031 119.633 48.01 118.404 46.514 118.348C45.0757 118.292 43.8099 119.354 43.7524 120.807C43.7524 120.863 43.7524 120.975 43.7524 121.031C43.6948 122.484 44.8455 123.658 46.3414 123.714C46.3414 123.77 46.399 123.77 46.399 123.77ZM52.7278 124.888V117.174H54.1087V122.652L58.2512 117.174H59.4595V124.888H58.0786V119.41L53.9361 124.888H52.7278ZM55.2594 115.329C55.3745 115.776 55.7772 116.056 56.2375 115.944C56.6402 116.056 57.043 115.776 57.1005 115.385C57.1005 115.385 57.1005 115.329 57.1005 115.273H58.4238C58.3663 116.223 57.4457 116.838 56.2375 116.838C54.8566 116.838 54.0512 116.223 53.9936 115.273H55.2594V115.329ZM65.213 117.174H66.5938V120.807L69.7007 117.174H71.3692L68.0897 120.751L71.5418 124.888H69.8158L66.5938 120.919V124.888H65.213V117.174ZM76.4899 117.062C78.6762 116.95 80.5173 118.571 80.6324 120.696C80.6324 120.807 80.6324 120.919 80.6324 121.031C80.6899 123.155 78.9639 124.944 76.72 125C76.6625 125 76.5474 125 76.4899 125C74.3035 125.112 72.4624 123.491 72.3473 121.366C72.3473 121.255 72.3473 121.143 72.3473 121.031C72.2898 118.907 74.0159 117.118 76.2022 117.062C76.3173 117.062 76.3748 117.062 76.4899 117.062ZM76.4899 123.77C77.9282 123.826 79.1365 122.708 79.1365 121.31C79.1365 121.199 79.1365 121.143 79.1365 121.031C79.194 119.633 78.1009 118.404 76.6049 118.348C75.1666 118.292 73.9008 119.354 73.8432 120.807C73.8432 120.919 73.8432 120.975 73.8432 121.087C73.7857 122.54 74.9364 123.714 76.4323 123.77C76.4323 123.77 76.4323 123.77 76.4899 123.77ZM82.7612 117.174H84.142L86.8462 120.751L89.4353 117.174H90.7586V124.888H89.3777V119.298L86.9037 122.708H86.6736L84.142 119.298V124.832H82.7612V117.174ZM98.4683 118.459H94.9586V124.888H93.5778V117.174H99.9067V124.888H98.5258V118.459H98.4683ZM107.271 118.459H104.97L104.797 119.913C104.337 124.385 103.301 125.112 101.748 124.888L101.805 123.547C102.438 123.602 103.244 123.379 103.589 118.739L103.704 117.174H108.71V124.888H107.329L107.271 118.459ZM111.414 117.174H116.017V118.459H112.852V120.36H115.729V121.646H112.852V123.658H116.132V124.944H111.414V117.174ZM118.491 117.174H119.871V120.807L122.978 117.174H124.647L121.367 120.751L124.819 124.888H123.036L119.814 120.919V124.888H118.433V117.174H118.491ZM132.241 124.162C131.551 124.776 130.63 125.056 129.71 125.056C127.581 125.168 125.74 123.602 125.625 121.534C125.625 121.366 125.625 121.255 125.625 121.087C125.625 118.851 127.063 117.118 129.652 117.118C130.515 117.062 131.378 117.341 132.069 117.9L131.436 118.907C130.918 118.571 130.285 118.348 129.652 118.404C128.156 118.404 127.063 119.41 127.063 121.087C127.006 122.484 128.099 123.714 129.537 123.77C129.652 123.77 129.71 123.77 129.825 123.77C130.515 123.77 131.148 123.547 131.724 123.155L132.241 124.162ZM3.70789 97.8313H9.74908C9.05866 96.0424 7.27507 95.092 4.97366 95.092C3.76542 95.092 2.61472 95.4833 1.63662 96.1542L0.313313 93.5826C1.86676 92.4087 3.82296 91.7938 5.83669 91.8497C10.2669 91.8497 13.5464 94.9243 13.5464 99.5643C13.5464 104.372 10.382 107.279 5.37641 107.279C3.19007 107.279 1.1188 106.552 0.198242 105.714L1.69416 102.863C2.72979 103.645 3.99556 104.092 5.31887 104.092C7.3326 104.092 9.2888 103.198 9.86415 101.018H3.70789V97.8313ZM18.0341 92.1292C18.8972 92.0733 21.026 92.0174 22.6945 92.0174C26.3192 92.0174 27.8151 93.6385 27.8151 95.7069C27.8727 97.0486 27.2398 98.3344 26.0891 99.0052V99.0611C27.1822 99.4524 28.2754 100.571 28.2754 102.471C28.2754 105.602 25.8014 107.055 22.4643 107.055C21.026 107.055 18.9547 106.999 18.0917 106.943L18.0341 92.1292ZM21.5438 95.3156V97.999H22.6945C23.6151 97.999 24.3055 97.6636 24.3055 96.5455C24.3055 95.651 23.5 95.2038 22.637 95.2038C22.2342 95.2038 21.889 95.2597 21.5438 95.3156ZM21.5438 100.962V103.757C21.9465 103.869 22.3493 103.925 22.752 103.869C24.1329 103.869 24.7658 103.31 24.7658 102.303C24.7658 101.353 24.0178 100.962 22.9246 100.962H21.5438ZM40.1852 91.8497C44.8455 91.8497 48.2976 94.8125 48.2976 99.5643C48.2976 104.092 44.8455 107.279 40.1852 107.279C35.5248 107.279 32.0727 104.316 32.0727 99.5643C32.0727 95.2597 35.3522 91.8497 40.1852 91.8497ZM40.1852 104.092C43.1195 104.092 44.6154 102.08 44.6154 99.5643C44.6154 96.825 42.6592 95.0361 40.1852 95.0361C37.6536 95.0361 35.755 96.825 35.755 99.5643C35.6974 101.968 37.5961 103.981 40.0701 104.092C40.1276 104.036 40.1852 104.036 40.1852 104.092ZM61.0129 95.3156H57.6183L57.2731 98.1108C56.3526 105.937 54.4539 107.558 50.8292 106.999L50.8867 103.589C52.1525 103.813 53.4758 103.31 54.1087 95.092L54.3388 92.1292H64.465V106.999H60.9554L61.0129 95.3156ZM70.1035 92.1292H73.6131V97.8313H75.5118C76.1446 94.3094 79.3666 91.7379 83.0489 91.8497C87.7092 91.8497 90.9887 94.8125 90.9887 99.5643C90.9887 104.092 87.7092 107.279 83.0489 107.279C79.2515 107.391 75.972 104.707 75.4542 101.018H73.6131V106.999H70.1035V92.1292ZM83.1639 104.092C86.0982 104.092 87.2489 102.08 87.2489 99.5643C87.2489 96.825 85.638 95.0361 83.1639 95.0361C80.8625 95.0361 79.0789 96.825 79.0789 99.5643C79.0789 102.136 80.9201 104.092 83.1639 104.092ZM95.4765 92.1292H98.9861V103.813H104.222V92.1292H107.731V103.813H109.803V109.571H106.523V106.999H95.4765V92.1292ZM113.83 106.999V92.1292H117.34V101.353L124.129 92.1292H127.178V106.999H123.669V97.7754L116.88 106.999H113.83ZM139.376 102.192H137.822L134.888 106.999H130.976L134.543 101.465C133.047 100.626 132.126 99.0611 132.184 97.384C132.184 94.5889 134.025 92.0174 138.743 92.0174C139.721 92.0174 141.907 92.1292 142.828 92.1292V106.999H139.318L139.376 102.192ZM139.376 99.0052V95.2597C138.973 95.2038 138.513 95.2038 138.11 95.1479C137.017 95.092 136.039 95.8747 135.924 96.9368C135.924 96.9927 135.924 97.0486 135.924 97.1045C135.924 97.999 136.557 98.8375 137.535 98.9493H139.376V99.0052ZM56.7553 31.6982C55.2594 30.3565 54.1087 25.8843 57.1581 21.7475C62.739 14.1447 74.1885 9.33704 79.5968 9.33704C80.8625 9.33704 81.7256 9.56065 82.1858 10.0638C82.7037 10.6228 82.7037 11.685 82.5311 12.4117C81.668 17.6666 74.4186 27.4496 67.2267 31.4746C64.8102 32.8162 62.7965 33.4871 61.0704 33.4871C59.4595 33.4312 57.906 32.8162 56.7553 31.6982ZM61.128 34.6051C63.0842 34.6051 65.2705 33.8784 67.8596 32.4808C75.3392 28.344 82.8763 18.0579 83.7393 12.5794C83.9694 11.1259 83.7393 10.0079 83.1064 9.28114C82.7612 8.94572 82.3009 8.66621 81.8406 8.4985C84.4297 8.6103 86.2708 9.22523 87.0188 10.2874C87.8818 11.5173 87.8243 13.6416 86.7887 16.4367C83.9119 24.4308 73.7857 36.394 66.4212 38.5183C65.328 38.8537 64.1773 39.0215 63.0842 39.0774C59.9197 39.0774 58.1937 37.1767 55.432 33.8225C53.1306 31.0273 50.4264 26.7787 53.1306 21.6916C56.3526 15.5982 65.2705 11.2377 73.2104 9.44885C67.3993 11.4054 60.38 15.4864 56.2375 21.0766C52.8429 25.6607 53.9361 30.7478 56.0073 32.5367C57.3307 33.8225 59.1718 34.5492 61.128 34.6051ZM66.7664 39.7482C74.5912 37.5121 84.9475 25.2694 87.9969 16.828C89.1476 13.5298 89.2051 11.07 88.0544 9.50475C87.2489 8.5544 86.1558 7.88357 84.89 7.60405C88.3996 7.99537 90.8161 9.00162 91.7367 10.511C93.2326 12.8589 92.3696 17.443 89.4353 23.0332C84.027 33.2635 72.6925 45.059 65.5582 45.5621C65.2705 45.5621 64.9253 45.618 64.6376 45.618C60.38 45.618 58.8841 43.2701 56.0649 39.0215C55.432 38.0711 54.7416 37.009 53.9361 35.835C53.4758 35.1642 52.958 34.5492 52.4977 33.8784C49.8511 30.3565 47.0319 26.7228 48.9881 21.6916C51.6922 14.6478 62.3937 10.0638 72.2898 8.33079C64.2924 10.2874 55.3169 14.6478 51.8648 21.1325C48.4702 27.5055 52.8429 32.8721 54.2813 34.6051C56.8128 37.6798 58.9992 40.3631 62.9691 40.3631C64.2924 40.3072 65.5582 40.1395 66.7664 39.7482ZM65.6733 47.0156C73.2679 46.5124 85.1777 34.2697 90.8161 23.7041C93.1175 19.3437 95.3614 13.4179 93.06 9.72836C92.2545 8.4985 90.7586 7.49225 88.6873 6.87732C92.7148 7.60405 95.4765 8.94572 96.5696 10.7905C98.6409 14.2565 97.0299 20.853 92.2545 28.8471C85.2927 40.4749 72.0597 53.5003 64.8102 52.6059C60.2649 52.1027 58.8841 49.4194 56.4101 44.6117C55.3745 42.5992 54.2238 40.3631 52.6128 37.7916C51.6347 36.3381 50.5415 34.9405 49.3908 33.6548C46.3414 30.077 43.5222 26.6669 44.9606 21.5239C46.9743 14.3124 58.0786 9.16933 70.0459 7.15683C60.3225 9.28114 50.3114 13.977 47.6072 21.0766C45.3633 26.8905 48.5278 31.0273 51.2895 34.661C51.8073 35.3319 52.2676 35.9468 52.7278 36.5617C53.5333 37.6798 54.2238 38.7419 54.8566 39.6923C57.7334 44.0527 59.5745 46.9597 64.6952 46.9597C65.0404 47.0715 65.328 47.0156 65.6733 47.0156ZM93.6929 29.6857C96.6847 24.6544 101.23 15.4864 98.008 10.0079C97.0874 8.4985 95.3614 7.26864 92.8874 6.37419C97.2025 7.38044 100.194 9.05753 101.345 11.1259C103.762 15.4864 101.748 23.5923 95.7641 33.3194C87.8818 46.177 73.8432 59.985 65.5006 59.985C64.9828 59.985 64.465 59.9291 63.9472 59.7614C59.517 58.5316 58.2512 55.4569 56.1224 50.2579C54.7416 46.6801 53.0731 43.2142 51.1744 39.9159C49.7935 37.7916 48.1826 35.7791 46.3414 33.9902C42.7743 30.1888 39.7249 26.9464 40.8181 21.5798C42.1989 14.8155 51.6347 9.78426 62.9691 7.15683C53.7059 9.67246 45.3058 14.2565 43.3496 21.1884C41.6811 27.1141 44.9606 30.9714 48.125 34.7728C49.2182 36.0586 50.2538 37.3444 51.1744 38.7419C52.7278 41.2017 53.8785 43.4378 54.9142 45.3944C57.3307 50.202 59.1142 53.6121 64.5801 54.2829C64.8678 54.3388 65.1554 54.3388 65.4431 54.3388C73.8432 54.3388 86.6161 41.5371 93.6929 29.6857ZM65.5582 61.718C74.7638 61.718 89.2627 47.4069 97.3751 34.1579C101.057 28.1204 106.753 16.9398 102.956 10.1756C101.978 8.38669 100.079 6.93322 97.3751 5.81516C101.805 7.10093 104.855 9.00162 106.12 11.2936C108.94 16.5485 106.466 26.1079 99.3313 37.568C89.2627 53.668 73.7857 67.2524 65.4431 67.2524C64.6376 67.2524 63.8321 67.1406 63.0842 66.8052C58.654 65.0163 57.4457 61.2708 55.6046 55.6805C54.1662 50.8729 52.21 46.2888 49.7935 41.8725C48.0675 38.9096 45.7086 36.6176 43.4071 34.3815C39.4372 30.5242 35.9851 27.1701 36.7906 21.468C37.8262 14.3683 47.1469 9.11343 58.9992 6.26238C48.9881 9.11343 40.4729 13.977 39.0345 21.1325C37.7687 27.3937 41.451 31.3069 45.0181 35.1083C46.7442 36.8412 48.2976 38.686 49.6209 40.7544C51.5196 44.0527 53.1306 47.4069 54.4539 50.9288C56.5827 56.2395 58.1361 60.0409 63.4869 61.4944C64.1773 61.6621 64.8678 61.7739 65.5582 61.718ZM65.5006 69.2649C75.6844 69.2649 91.9093 53.3326 101.115 38.6301C108.594 26.611 111.126 16.3249 107.962 10.4551C106.926 8.5544 105.027 6.98912 102.323 5.64745C106.696 7.15683 109.688 9.22523 110.953 11.6291C114.175 17.7784 111.241 28.7912 103.014 41.8725C91.5641 59.985 74.7063 74.6875 65.4431 74.6875C64.3499 74.6875 63.3143 74.4639 62.3937 74.0166C57.8485 71.6687 56.6978 67.3083 55.0293 61.2149C53.7635 56.4631 52.1525 50.5933 48.4702 43.9409C46.399 40.2513 43.4071 37.568 40.5304 34.9965C36.0426 30.9714 32.2453 27.5614 32.7631 21.468C33.3385 15.095 40.5304 10.1197 50.484 6.87732C41.9112 10.1756 35.755 14.9832 34.8344 21.2443C33.9138 27.8968 38.0564 31.9218 42.0263 35.835C44.2126 37.9593 46.514 40.1954 48.0675 42.8788C51.0018 48.0218 52.4402 52.4381 53.7635 56.2954C55.6046 61.9975 57.1005 66.4698 62.3937 68.65C63.3718 69.0972 64.465 69.2649 65.5006 69.2649ZM65.4431 76.8118C76.7775 76.8118 94.3833 59.5937 104.912 42.9906C113.6 29.2385 116.534 17.443 112.967 10.6228C109.573 4.24988 97.2601 0.448486 80.057 0.448486C56.9854 0.448486 31.8426 7.77176 30.5768 21.3003C29.9439 28.3999 34.5467 32.5926 39.0345 36.5617C41.7962 39.0215 44.6729 41.593 46.514 44.9472C50.0812 51.376 51.6347 57.134 52.9004 61.718C54.6265 68.035 55.9498 73.0104 61.3006 75.8055C62.5664 76.5323 64.0047 76.8677 65.4431 76.8118Z" fill="#E52B2B"/>
<path fill-rule="evenodd" clip-rule="evenodd" d="M56.7557 31.6982C55.2598 30.3565 54.109 25.8843 57.1584 21.7475C62.7393 14.1447 74.1888 9.33704 79.5971 9.33704C80.8629 9.33704 81.7259 9.56065 82.1862 10.0638C82.704 10.6228 82.704 11.685 82.5314 12.4117C81.6684 17.6666 74.419 27.4496 67.2271 31.4746C64.8106 32.8162 62.7969 33.4871 61.0708 33.4871C59.4598 33.4312 57.9064 32.8162 56.7557 31.6982ZM61.1283 34.6051C63.0845 34.6051 65.2709 33.8784 67.86 32.4808C75.3395 28.344 82.8766 18.0579 83.7397 12.5794C83.9698 11.1259 83.7397 10.0079 83.1068 9.28114C82.7616 8.94572 82.3013 8.6662 81.841 8.4985C84.4301 8.6103 86.2712 9.22523 87.0192 10.2874C87.8822 11.5173 87.8246 13.6416 86.789 16.4367C83.9123 24.4308 73.7861 36.394 66.4216 38.5183C65.3284 38.8537 64.1777 39.0215 63.0845 39.0774C59.9201 39.0774 58.194 37.1767 55.4324 33.8225C53.131 31.0273 50.4268 26.7787 53.131 21.6916C56.3529 15.5982 65.2709 11.2377 73.2107 9.44884C67.3997 11.4054 60.3804 15.4864 56.2379 21.0766C52.8433 25.6607 53.9364 30.7478 56.0077 32.5367C57.331 33.8225 59.1721 34.5492 61.1283 34.6051ZM66.7668 39.7482C74.5916 37.5121 84.9479 25.2694 87.9973 16.828C89.148 13.5298 89.2055 11.07 88.0548 9.50475C87.2493 8.5544 86.1561 7.88356 84.8904 7.60405C88.4 7.99537 90.8165 9.00162 91.737 10.511C93.233 12.8589 92.3699 17.443 89.4356 23.0332C84.0273 33.2635 72.6929 45.059 65.5585 45.5621C65.2709 45.5621 64.9257 45.618 64.638 45.618C60.3804 45.618 58.8845 43.2701 56.0652 39.0215C55.4324 38.0711 54.7419 37.0089 53.9364 35.835C53.4762 35.1642 52.9583 34.5492 52.4981 33.8784C49.8514 30.3565 47.0322 26.7228 48.9884 21.6916C51.6926 14.6478 62.3941 10.0638 72.2902 8.33079C64.2928 10.2874 55.3173 14.6478 51.8652 21.1325C48.4706 27.5055 52.8433 32.8721 54.2817 34.6051C56.8132 37.6798 58.9995 40.3631 62.9695 40.3631C64.2928 40.3072 65.5585 40.1395 66.7668 39.7482ZM65.6736 47.0156C73.2683 46.5124 85.178 34.2697 90.8165 23.7041C93.1179 19.3436 95.3617 13.4179 93.0603 9.72836C92.2549 8.4985 90.7589 7.49224 88.6877 6.87731C92.7151 7.60405 95.4768 8.94572 96.57 10.7905C98.6413 14.2565 97.0303 20.853 92.2549 28.8471C85.2931 40.4749 72.06 53.5003 64.8106 52.6058C60.2653 52.1027 58.8845 49.4194 56.4105 44.6117C55.3748 42.5992 54.2241 40.3631 52.6131 37.7916C51.635 36.3381 50.5419 34.9405 49.3912 33.6548C46.3418 30.077 43.5226 26.6669 44.961 21.5239C46.9747 14.3124 58.079 9.16933 70.0463 7.15683C60.3228 9.28114 50.3117 13.977 47.6076 21.0766C45.3637 26.8905 48.5281 31.0273 51.2898 34.661C51.8076 35.3319 52.2679 35.9468 52.7282 36.5617C53.5337 37.6798 54.2241 38.7419 54.857 39.6923C57.7338 44.0527 59.5749 46.9597 64.6955 46.9597C65.0407 47.0715 65.3284 47.0156 65.6736 47.0156ZM93.6932 29.6857C96.6851 24.6544 101.23 15.4864 98.0084 10.0079C97.0878 8.4985 95.3618 7.26863 92.8877 6.37419C97.2029 7.38044 100.195 9.05752 101.345 11.1259C103.762 15.4864 101.748 23.5923 95.7645 33.3194C87.8822 46.177 73.8436 59.985 65.501 59.985C64.9832 59.985 64.4654 59.9291 63.9476 59.7614C59.5174 58.5315 58.2516 55.4569 56.1228 50.2579C54.7419 46.6801 53.0734 43.2142 51.1748 39.9159C49.7939 37.7916 48.1829 35.7791 46.3418 33.9902C42.7746 30.1888 39.7253 26.9464 40.8184 21.5798C42.1993 14.8155 51.635 9.78426 62.9695 7.15683C53.7063 9.67246 45.3062 14.2565 43.35 21.1884C41.6815 27.1141 44.961 30.9714 48.1254 34.7728C49.2186 36.0586 50.2542 37.3444 51.1748 38.7419C52.7282 41.2017 53.8789 43.4378 54.9145 45.3944C57.331 50.202 59.1146 53.6121 64.5804 54.2829C64.8681 54.3388 65.1558 54.3388 65.4435 54.3388C73.8436 54.3388 86.6164 41.5371 93.6932 29.6857ZM65.5585 61.718C74.7642 61.718 89.263 47.4069 97.3755 34.1579C101.058 28.1204 106.754 16.9398 102.956 10.1756C101.978 8.38669 100.08 6.93322 97.3755 5.81516C101.806 7.10092 104.855 9.00162 106.121 11.2936C108.94 16.5485 106.466 26.1079 99.3317 37.568C89.263 53.668 73.7861 67.2524 65.4435 67.2524C64.638 67.2524 63.8325 67.1406 63.0845 66.8052C58.6543 65.0163 57.4461 61.2708 55.605 55.6805C54.1666 50.8729 52.2104 46.2888 49.7939 41.8725C48.0679 38.9096 45.7089 36.6176 43.4075 34.3815C39.4376 30.5242 35.9855 27.17 36.791 21.468C37.8266 14.3683 47.1473 9.11343 58.9995 6.26238C48.9884 9.11343 40.4732 13.977 39.0348 21.1325C37.7691 27.3937 41.4513 31.3069 45.0185 35.1082C46.7446 36.8412 48.298 38.686 49.6213 40.7544C51.52 44.0527 53.131 47.4069 54.4543 50.9288C56.5831 56.2395 58.1365 60.0409 63.4873 61.4944C64.1777 61.6621 64.8681 61.7739 65.5585 61.718ZM65.501 69.2649C75.6847 69.2649 91.9096 53.3326 101.115 38.6301C108.595 26.611 111.126 16.3249 107.962 10.4551C106.926 8.5544 105.028 6.98912 102.324 5.64745C106.696 7.15683 109.688 9.22523 110.954 11.6291C114.176 17.7784 111.241 28.7912 103.014 41.8725C91.5644 59.985 74.7066 74.6875 65.4435 74.6875C64.3503 74.6875 63.3147 74.4639 62.3941 74.0166C57.8488 71.6687 56.6981 67.3083 55.0296 61.2149C53.7638 56.4631 52.1529 50.5933 48.4706 43.9409C46.3993 40.2513 43.4075 37.568 40.5308 34.9964C36.043 30.9714 32.2457 27.5614 32.7635 21.468C33.3389 15.095 40.5308 10.1197 50.4843 6.87731C41.9116 10.1756 35.7553 14.9832 34.8348 21.2443C33.9142 27.8968 38.0567 31.9218 42.0267 35.835C44.213 37.9593 46.5144 40.1954 48.0679 42.8787C51.0021 48.0218 52.4405 52.4381 53.7638 56.2954C55.605 61.9975 57.1009 66.4697 62.3941 68.65C63.3722 69.0972 64.4654 69.2649 65.501 69.2649ZM65.4435 76.8118C76.7779 76.8118 94.3837 59.5937 104.913 42.9906C113.6 29.2385 116.535 17.443 112.968 10.6228C109.573 4.24988 97.2604 0.448486 80.0574 0.448486C56.9858 0.448486 31.8429 7.77176 30.5772 21.3002C29.9443 28.3999 34.5471 32.5926 39.0348 36.5617C41.7965 39.0215 44.6733 41.593 46.5144 44.9472C50.0816 51.376 51.635 57.134 52.9008 61.718C54.6269 68.035 55.9502 73.0104 61.3009 75.8055C62.5667 76.5323 64.0051 76.8677 65.4435 76.8118Z" fill="#E52B2B"/>
</g>
<defs>
<clipPath id="clip0">
<rect width="142.687" height="124.552" fill="white" transform="translate(0.198242 0.448486)"/>
</clipPath>
</defs>
</svg>
