<svg width="96" height="86" viewBox="0 0 96 86" fill="none" xmlns="http://www.w3.org/2000/svg">
<g clip-path="url(#clip0)">
<path fill-rule="evenodd" clip-rule="evenodd" d="M8.16774 80.5961H9.25161L11.1871 83.1436V80.5961H12.1161V83.1436L14.0516 80.5961H15.0968L13.0839 83.1436L15.1742 85.9228H14.0903L12.0774 83.1822V85.9228H11.1484V83.1822L9.13548 85.9228H8.05161L10.1419 83.1436L8.16774 80.5961ZM16.3742 85.9228V80.5961H17.3032V84.3788L20.0903 80.5961H20.9032V85.9228H19.9742V82.14L17.1871 85.9228H16.3742ZM25.9355 81.4838H24.3871L24.271 82.4874C23.9613 85.5754 23.2645 86.0772 22.2194 85.9228L22.2581 84.9964C22.6839 85.035 23.2258 84.8806 23.4581 81.6768L23.5355 80.5961H26.9032V85.9228H25.9355V81.4838ZM31.0839 80.5189C32.5548 80.4417 33.7935 81.5611 33.871 83.0278C33.871 83.105 33.871 83.1822 33.871 83.2594C33.9097 84.7262 32.7484 85.9614 31.2387 86C31.2 86 31.1226 86 31.0839 86C29.6129 86.0772 28.3742 84.9578 28.2968 83.491C28.2968 83.4138 28.2968 83.3366 28.2968 83.2594C28.2581 81.7926 29.4194 80.5575 30.8903 80.5189C31.0065 80.5189 31.0452 80.5189 31.0839 80.5189ZM31.0839 85.1508C32.0516 85.1894 32.8645 84.4174 32.8645 83.4524C32.8645 83.3752 32.8645 83.3366 32.8645 83.2594C32.9032 82.2944 32.1677 81.4452 31.1613 81.4066C30.1935 81.368 29.3419 82.1014 29.3032 83.105C29.3032 83.1436 29.3032 83.2208 29.3032 83.2594C29.2645 84.263 30.0387 85.0736 31.0452 85.1122C31.0452 85.1508 31.0839 85.1508 31.0839 85.1508ZM35.3419 85.9228V80.5961H36.271V84.3788L39.0581 80.5961H39.871V85.9228H38.9419V82.14L36.1548 85.9228H35.3419ZM37.0452 79.3223C37.1226 79.6311 37.3935 79.8241 37.7032 79.7469C37.9742 79.8241 38.2452 79.6311 38.2839 79.3609C38.2839 79.3609 38.2839 79.3223 38.2839 79.2837H39.1742C39.1355 79.9399 38.5161 80.3645 37.7032 80.3645C36.7742 80.3645 36.2323 79.9399 36.1935 79.2837H37.0452V79.3223ZM43.7419 80.5961H44.671V83.105L46.7613 80.5961H47.8839L45.6774 83.0664L48 85.9228H46.8387L44.671 83.1822V85.9228H43.7419V80.5961ZM51.329 80.5189C52.8 80.4417 54.0387 81.5611 54.1161 83.0278C54.1161 83.105 54.1161 83.1822 54.1161 83.2594C54.1548 84.7262 52.9935 85.9614 51.4839 86C51.4452 86 51.3677 86 51.329 86C49.8581 86.0772 48.6194 84.9578 48.5419 83.491C48.5419 83.4138 48.5419 83.3366 48.5419 83.2594C48.5032 81.7926 49.6645 80.5575 51.1355 80.5189C51.2129 80.5189 51.2516 80.5189 51.329 80.5189ZM51.329 85.1508C52.2968 85.1894 53.1097 84.4174 53.1097 83.4524C53.1097 83.3752 53.1097 83.3366 53.1097 83.2594C53.1484 82.2944 52.4129 81.4452 51.4065 81.4066C50.4387 81.368 49.5871 82.1014 49.5484 83.105C49.5484 83.1822 49.5484 83.2208 49.5484 83.298C49.5097 84.3016 50.2839 85.1122 51.2903 85.1508C51.2903 85.1508 51.2903 85.1508 51.329 85.1508ZM55.5484 80.5961H56.4774L58.2968 83.0664L60.0387 80.5961H60.929V85.9228H60V82.0628L58.3355 84.4174H58.1806L56.4774 82.0628V85.8842H55.5484V80.5961ZM66.1161 81.4838H63.7548V85.9228H62.8258V80.5961H67.0839V85.9228H66.1548V81.4838H66.1161ZM72.0387 81.4838H70.4903L70.3742 82.4874C70.0645 85.5754 69.3677 86.0772 68.3226 85.9228L68.3613 84.9964C68.7871 85.035 69.329 84.8806 69.5613 81.6768L69.6387 80.5961H73.0065V85.9228H72.0774L72.0387 81.4838ZM74.8258 80.5961H77.9226V81.4838H75.7935V82.7962H77.729V83.684H75.7935V85.0736H78V85.9614H74.8258V80.5961ZM79.5871 80.5961H80.5161V83.105L82.6064 80.5961H83.729L81.5226 83.0664L83.8452 85.9228H82.6452L80.4774 83.1822V85.9228H79.5484V80.5961H79.5871ZM88.8387 85.421C88.3742 85.8456 87.7548 86.0386 87.1355 86.0386C85.7032 86.1158 84.4645 85.035 84.3871 83.6068C84.3871 83.491 84.3871 83.4138 84.3871 83.298C84.3871 81.754 85.3548 80.5575 87.0968 80.5575C87.6774 80.5189 88.2581 80.7119 88.7226 81.0979L88.2968 81.7926C87.9484 81.561 87.5226 81.4066 87.0968 81.4452C86.0903 81.4452 85.3548 82.14 85.3548 83.298C85.3161 84.263 86.0516 85.1122 87.0194 85.1508C87.0968 85.1508 87.1355 85.1508 87.2129 85.1508C87.6774 85.1508 88.1032 84.9964 88.4903 84.7262L88.8387 85.421ZM2.36129 67.2406H6.42581C5.96129 66.0054 4.76129 65.3492 3.2129 65.3492C2.4 65.3492 1.62581 65.6194 0.967742 66.0826L0.0774194 64.307C1.12258 63.4964 2.43871 63.0718 3.79355 63.1104C6.77419 63.1104 8.98065 65.2334 8.98065 68.4372C8.98065 71.7567 6.85161 73.7639 3.48387 73.7639C2.0129 73.7639 0.619355 73.2621 0 72.6831L1.00645 70.7145C1.70323 71.2549 2.55484 71.5637 3.44516 71.5637C4.8 71.5637 6.11613 70.9461 6.50323 69.4408H2.36129V67.2406ZM12 63.3034C12.5806 63.2648 14.0129 63.2262 15.1355 63.2262C17.5742 63.2262 18.5806 64.3456 18.5806 65.7738C18.6194 66.7002 18.1935 67.588 17.4194 68.0512V68.0898C18.1548 68.36 18.8903 69.132 18.8903 70.4444C18.8903 72.6059 17.2258 73.6095 14.9806 73.6095C14.0129 73.6095 12.6194 73.5709 12.0387 73.5323L12 63.3034ZM14.3613 65.5036V67.3564H15.1355C15.7548 67.3564 16.2194 67.1248 16.2194 66.3528C16.2194 65.7352 15.6774 65.4264 15.0968 65.4264C14.8258 65.4264 14.5935 65.465 14.3613 65.5036ZM14.3613 69.4022V71.3321C14.6323 71.4093 14.9032 71.4479 15.1742 71.4093C16.1032 71.4093 16.529 71.0233 16.529 70.3286C16.529 69.6724 16.0258 69.4022 15.2903 69.4022H14.3613ZM26.9032 63.1104C30.0387 63.1104 32.3613 65.1562 32.3613 68.4372C32.3613 71.5637 30.0387 73.7639 26.9032 73.7639C23.7677 73.7639 21.4452 71.7181 21.4452 68.4372C21.4452 65.465 23.6516 63.1104 26.9032 63.1104ZM26.9032 71.5637C28.8774 71.5637 29.8839 70.1741 29.8839 68.4372C29.8839 66.5458 28.5677 65.3106 26.9032 65.3106C25.2 65.3106 23.9226 66.5458 23.9226 68.4372C23.8839 70.097 25.1613 71.4865 26.8258 71.5637C26.8645 71.5251 26.9032 71.5251 26.9032 71.5637ZM40.9161 65.5036H38.6323L38.4 67.4336C37.7806 72.8375 36.5032 73.9569 34.0645 73.5709L34.1032 71.2163C34.9548 71.3707 35.8452 71.0233 36.271 65.3492L36.4258 63.3034H43.2387V73.5709H40.8774L40.9161 65.5036ZM47.0323 63.3034H49.3935V67.2406H50.671C51.0968 64.8088 53.2645 63.0332 55.7419 63.1104C58.8774 63.1104 61.0839 65.1562 61.0839 68.4372C61.0839 71.5637 58.8774 73.7639 55.7419 73.7639C53.1871 73.8411 50.9806 71.9883 50.6323 69.4408H49.3935V73.5709H47.0323V63.3034ZM55.8194 71.5637C57.7935 71.5637 58.5677 70.1741 58.5677 68.4372C58.5677 66.5458 57.4839 65.3106 55.8194 65.3106C54.271 65.3106 53.071 66.5458 53.071 68.4372C53.071 70.2128 54.3097 71.5637 55.8194 71.5637ZM64.1032 63.3034H66.4645V71.3707H69.9871V63.3034H72.3484V71.3707H73.7419V75.3465H71.5355V73.5709H64.1032V63.3034ZM76.4516 73.5709V63.3034H78.8129V69.6724L83.3806 63.3034H85.4323V73.5709H83.071V67.202L78.5032 73.5709H76.4516ZM93.6387 70.2514H92.5935L90.6194 73.5709H87.9871L90.3871 69.7496C89.3806 69.1706 88.7613 68.0898 88.8 66.9318C88.8 65.0018 90.0387 63.2262 93.2129 63.2262C93.871 63.2262 95.3419 63.3034 95.9613 63.3034V73.5709H93.6L93.6387 70.2514ZM93.6387 68.0512V65.465C93.3677 65.4264 93.0581 65.4264 92.7871 65.3878C92.0516 65.3492 91.3935 65.8896 91.3161 66.623C91.3161 66.6616 91.3161 66.7002 91.3161 66.7388C91.3161 67.3564 91.7419 67.9354 92.4 68.0126H93.6387V68.0512ZM38.0516 21.5772C37.0452 20.6508 36.271 17.5628 38.3226 14.7065C42.0774 9.45691 49.7806 6.13734 53.4194 6.13734C54.271 6.13734 54.8516 6.29174 55.1613 6.63914C55.5097 7.02514 55.5097 7.75853 55.3936 8.26032C54.8129 11.8887 49.9355 18.6436 45.0968 21.4228C43.471 22.3492 42.1161 22.8124 40.9548 22.8124C39.871 22.7738 38.8258 22.3492 38.0516 21.5772ZM40.9935 23.5844C42.3097 23.5844 43.7806 23.0826 45.5226 22.1176C50.5548 19.2612 55.6258 12.1589 56.2064 8.37612C56.3613 7.37253 56.2065 6.60054 55.7806 6.09874C55.5484 5.86715 55.2387 5.67415 54.929 5.55835C56.671 5.63555 57.9097 6.06014 58.4129 6.79354C58.9935 7.64273 58.9548 9.10952 58.2581 11.0395C56.3226 16.5592 49.5097 24.8196 44.5548 26.2864C43.8194 26.518 43.0452 26.6338 42.3097 26.6724C40.1806 26.6724 39.0194 25.36 37.1613 23.044C35.6129 21.114 33.7935 18.1804 35.6129 14.6679C37.7806 10.4605 43.7806 7.44973 49.1226 6.21454C45.2129 7.56553 40.4903 10.3833 37.7032 14.2433C35.4194 17.4084 36.1548 20.921 37.5484 22.1562C38.4387 23.044 39.6774 23.5458 40.9935 23.5844ZM44.7871 27.1355C50.0516 25.5916 57.0194 17.1382 59.071 11.3097C59.8452 9.03232 59.8839 7.33393 59.1097 6.25314C58.5677 5.59695 57.8323 5.13375 56.9806 4.94075C59.3419 5.21095 60.9677 5.90575 61.5871 6.94794C62.5935 8.56912 62.0129 11.7343 60.0387 15.5943C56.4 22.658 48.7742 30.8025 43.9742 31.1499C43.7806 31.1499 43.5484 31.1885 43.3548 31.1885C40.4903 31.1885 39.4839 29.5673 37.5871 26.6338C37.1613 25.9776 36.6968 25.2442 36.1548 24.4336C35.8452 23.9704 35.4968 23.5458 35.1871 23.0826C33.4065 20.6508 31.5097 18.1418 32.8258 14.6679C34.6452 9.80431 41.8452 6.63914 48.5032 5.44255C43.1226 6.79354 37.0839 9.80431 34.7613 14.2819C32.4774 18.6822 35.4194 22.3878 36.3871 23.5844C38.0903 25.7074 39.5613 27.5601 42.2323 27.5601C43.1226 27.5215 43.9742 27.4057 44.7871 27.1355ZM44.0516 32.1535C49.1613 31.8061 57.1742 23.3528 60.9677 16.0575C62.5161 13.0467 64.0258 8.95512 62.4774 6.40754C61.9355 5.55835 60.929 4.86355 59.5355 4.43896C62.2452 4.94075 64.1032 5.86715 64.8387 7.14093C66.2323 9.53411 65.1484 14.0889 61.9355 19.6086C57.2516 27.6373 48.3484 36.6311 43.471 36.0135C40.4129 35.6661 39.4839 33.8133 37.8194 30.4937C37.1226 29.1041 36.3484 27.5601 35.2645 25.7846C34.6064 24.781 33.871 23.816 33.0968 22.9282C31.0452 20.4578 29.1484 18.1032 30.1161 14.5521C31.471 9.57271 38.9419 6.02154 46.9935 4.63196C40.4516 6.09874 33.7161 9.34111 31.8968 14.2433C30.3871 18.2576 32.5161 21.114 34.3742 23.623C34.7226 24.0862 35.0323 24.5108 35.3419 24.9354C35.8839 25.7074 36.3484 26.4408 36.7742 27.0969C38.7097 30.1077 39.9484 32.1149 43.3935 32.1149C43.6258 32.1921 43.8194 32.1535 44.0516 32.1535ZM62.9032 20.1876C64.9161 16.7136 67.9742 10.3833 65.8064 6.60054C65.1871 5.55835 64.0258 4.70916 62.3613 4.09156C65.2645 4.78636 67.2774 5.94434 68.0516 7.37253C69.6774 10.3833 68.3226 15.9803 64.2968 22.6966C58.9935 31.5745 49.5484 41.1086 43.9355 41.1086C43.5871 41.1086 43.2387 41.07 42.8903 40.9542C39.9097 40.105 39.0581 37.982 37.6258 34.3923C36.6968 31.9219 35.5742 29.5287 34.2968 27.2513C33.3677 25.7846 32.2839 24.395 31.0452 23.1598C28.6452 20.535 26.5935 18.2962 27.329 14.5907C28.2581 9.92011 34.6064 6.44614 42.2323 4.63196C36 6.36894 30.3484 9.53411 29.0323 14.3205C27.9097 18.412 30.1161 21.0754 32.2452 23.7002C32.9806 24.588 33.6774 25.4758 34.2968 26.4408C35.3419 28.1391 36.1161 29.6831 36.8129 31.0341C38.4387 34.3537 39.6387 36.7083 43.3161 37.1715C43.5097 37.2101 43.7032 37.2101 43.8968 37.2101C49.5484 37.2101 58.1419 28.3707 62.9032 20.1876ZM43.9742 42.3052C50.1677 42.3052 59.9226 32.4237 65.3806 23.2756C67.8581 19.1068 71.6903 11.3869 69.1355 6.71634C68.4774 5.48115 67.2 4.47756 65.3806 3.70557C68.3613 4.59336 70.4129 5.90575 71.2645 7.48833C73.1613 11.1167 71.4968 17.7172 66.6968 25.6302C59.9226 36.7469 49.5097 46.1266 43.8968 46.1266C43.3548 46.1266 42.8129 46.0494 42.3097 45.8178C39.329 44.5826 38.5161 41.9964 37.2774 38.1364C36.3097 34.8169 34.9935 31.6517 33.3677 28.6023C32.2064 26.5566 30.6194 24.974 29.071 23.43C26.4 20.7666 24.0774 18.4506 24.6194 14.5135C25.3161 9.61131 31.5871 5.98294 39.5613 4.01436C32.8258 5.98294 27.0968 9.34111 26.129 14.2819C25.2774 18.605 27.7548 21.307 30.1548 23.9318C31.3161 25.1284 32.3613 26.4022 33.2516 27.8303C34.529 30.1077 35.6129 32.4237 36.5032 34.8555C37.9355 38.5224 38.9806 41.1472 42.5806 42.1508C43.0452 42.2666 43.5097 42.3438 43.9742 42.3052ZM43.9355 47.5162C50.7871 47.5162 61.7032 36.5153 67.8968 26.3636C72.929 18.0646 74.6323 10.9623 72.5032 6.90934C71.8064 5.59695 70.529 4.51616 68.7097 3.58977C71.6516 4.63196 73.6645 6.06014 74.5161 7.71993C76.6839 11.9659 74.7097 19.57 69.1742 28.6023C61.471 41.1086 50.129 51.2603 43.8968 51.2603C43.1613 51.2603 42.4645 51.1059 41.8452 50.7971C38.7871 49.1759 38.0129 46.1652 36.8903 41.9578C36.0387 38.6768 34.9548 34.6239 32.4774 30.0305C31.0839 27.4829 29.071 25.6302 27.1355 23.8546C24.1161 21.0754 21.5613 18.7208 21.9097 14.5135C22.2968 10.1131 27.1355 6.67774 33.8323 4.43896C28.0645 6.71634 23.9226 10.0359 23.3032 14.3591C22.6839 18.9524 25.471 21.7316 28.1419 24.4336C29.6129 25.9004 31.1613 27.4443 32.2064 29.2971C34.1806 32.8483 35.1484 35.8977 36.0387 38.561C37.2774 42.4982 38.2839 45.5862 41.8452 47.0916C42.5032 47.4004 43.2387 47.5162 43.9355 47.5162ZM43.8968 52.7271C51.5226 52.7271 63.3677 40.8384 70.4516 29.3743C76.2968 19.8788 78.271 11.7343 75.871 7.02514C73.5871 2.62478 65.3032 0 53.729 0C38.2065 0 21.2903 5.05655 20.4387 14.3977C20.0129 19.2998 23.1097 22.1948 26.129 24.9354C27.9871 26.6338 29.9226 28.4093 31.1613 30.7253C33.5613 35.1643 34.6064 39.14 35.4581 42.3052C36.6194 46.667 37.5097 50.1023 41.1097 52.0323C41.9613 52.5341 42.929 52.7657 43.8968 52.7271Z" fill="#E52B2B"/>
<path fill-rule="evenodd" clip-rule="evenodd" d="M38.0518 21.5772C37.0453 20.6508 36.2711 17.5628 38.3227 14.7065C42.0776 9.45691 49.7808 6.13734 53.4195 6.13734C54.2711 6.13734 54.8518 6.29174 55.1614 6.63914C55.5098 7.02513 55.5098 7.75853 55.3937 8.26032C54.813 11.8887 49.9356 18.6436 45.0969 21.4228C43.4711 22.3492 42.1163 22.8124 40.955 22.8124C39.8711 22.7738 38.826 22.3492 38.0518 21.5772ZM40.9937 23.5844C42.3098 23.5844 43.7808 23.0826 45.5227 22.1176C50.555 19.2612 55.6259 12.1589 56.2066 8.37612C56.3614 7.37253 56.2066 6.60054 55.7808 6.09874C55.5485 5.86715 55.2388 5.67415 54.9292 5.55835C56.6711 5.63555 57.9098 6.06014 58.413 6.79354C58.9937 7.64273 58.955 9.10951 58.2582 11.0395C56.3227 16.5592 49.5098 24.8196 44.555 26.2864C43.8195 26.518 43.0453 26.6337 42.3098 26.6723C40.1808 26.6723 39.0195 25.36 37.1614 23.044C35.613 21.114 33.7937 18.1804 35.613 14.6679C37.7808 10.4605 43.7808 7.44973 49.1227 6.21454C45.213 7.56553 40.4905 10.3833 37.7034 14.2433C35.4195 17.4084 36.155 20.921 37.5485 22.1562C38.4389 23.044 39.6776 23.5458 40.9937 23.5844ZM44.7872 27.1355C50.0518 25.5916 57.0195 17.1382 59.0711 11.3097C59.8453 9.03231 59.884 7.33393 59.1098 6.25314C58.5679 5.59695 57.8324 5.13375 56.9808 4.94075C59.3421 5.21095 60.9679 5.90574 61.5872 6.94793C62.5937 8.56912 62.0131 11.7343 60.0389 15.5943C56.4001 22.658 48.7743 30.8025 43.9743 31.1499C43.7808 31.1499 43.5485 31.1885 43.355 31.1885C40.4905 31.1885 39.484 29.5673 37.5872 26.6337C37.1614 25.9776 36.6969 25.2442 36.155 24.4336C35.8453 23.9704 35.4969 23.5458 35.1872 23.0826C33.4066 20.6508 31.5098 18.1418 32.8259 14.6679C34.6453 9.80431 41.8453 6.63914 48.5034 5.44255C43.1227 6.79354 37.084 9.80431 34.7614 14.2819C32.4776 18.6822 35.4195 22.3878 36.3872 23.5844C38.0905 25.7074 39.5614 27.5601 42.2324 27.5601C43.1227 27.5215 43.9743 27.4057 44.7872 27.1355ZM44.0518 32.1535C49.1614 31.8061 57.1743 23.3528 60.9679 16.0574C62.5163 13.0467 64.0259 8.95512 62.4776 6.40754C61.9356 5.55835 60.9292 4.86355 59.5356 4.43896C62.2453 4.94075 64.1034 5.86715 64.8389 7.14093C66.2324 9.53411 65.1485 14.0889 61.9356 19.6086C57.2518 27.6373 48.3485 36.6311 43.4711 36.0135C40.413 35.6661 39.484 33.8133 37.8195 30.4937C37.1227 29.1041 36.3485 27.5601 35.2647 25.7846C34.6066 24.781 33.8711 23.816 33.0969 22.9282C31.0453 20.4578 29.1485 18.1032 30.1163 14.5521C31.4711 9.57271 38.9421 6.02154 46.9937 4.63196C40.4518 6.09874 33.7163 9.34111 31.8969 14.2433C30.3872 18.2576 32.5163 21.114 34.3743 23.623C34.7227 24.0862 35.0324 24.5108 35.3421 24.9354C35.884 25.7074 36.3485 26.4408 36.7743 27.0969C38.7098 30.1077 39.9485 32.1149 43.3937 32.1149C43.6259 32.1921 43.8195 32.1535 44.0518 32.1535ZM62.9034 20.1876C64.9163 16.7136 67.9743 10.3833 65.8066 6.60054C65.1872 5.55835 64.026 4.70916 62.3614 4.09156C65.2647 4.78636 67.2776 5.94434 68.0518 7.37253C69.6776 10.3833 68.3227 15.9802 64.2969 22.6966C58.9937 31.5745 49.5485 41.1086 43.9356 41.1086C43.5872 41.1086 43.2389 41.07 42.8905 40.9542C39.9098 40.105 39.0582 37.982 37.6259 34.3923C36.6969 31.9219 35.5743 29.5287 34.2969 27.2513C33.3679 25.7846 32.284 24.395 31.0453 23.1598C28.6453 20.535 26.5937 18.2962 27.3292 14.5907C28.2582 9.92011 34.6066 6.44614 42.2324 4.63196C36.0001 6.36894 30.3485 9.53411 29.0324 14.3205C27.9098 18.412 30.1163 21.0754 32.2453 23.7002C32.9808 24.588 33.6776 25.4758 34.2969 26.4408C35.3421 28.1391 36.1163 29.6831 36.813 31.0341C38.4389 34.3537 39.6389 36.7083 43.3163 37.1715C43.5098 37.2101 43.7034 37.2101 43.8969 37.2101C49.5485 37.2101 58.1421 28.3707 62.9034 20.1876ZM43.9743 42.3052C50.1679 42.3052 59.9227 32.4237 65.3808 23.2756C67.8582 19.1068 71.6905 11.3869 69.1356 6.71634C68.4776 5.48115 67.2001 4.47756 65.3808 3.70557C68.3614 4.59336 70.413 5.90574 71.2647 7.48833C73.1614 11.1167 71.4969 17.7172 66.6969 25.6302C59.9227 36.7469 49.5098 46.1266 43.8969 46.1266C43.355 46.1266 42.813 46.0494 42.3098 45.8178C39.3292 44.5826 38.5163 41.9964 37.2776 38.1364C36.3098 34.8169 34.9937 31.6517 33.3679 28.6023C32.2066 26.5565 30.6195 24.974 29.0711 23.43C26.4001 20.7666 24.0776 18.4506 24.6195 14.5135C25.3163 9.61131 31.5872 5.98294 39.5614 4.01436C32.8259 5.98294 27.0969 9.34111 26.1292 14.2819C25.2776 18.605 27.755 21.307 30.155 23.9318C31.3163 25.1284 32.3614 26.4022 33.2518 27.8303C34.5292 30.1077 35.613 32.4237 36.5034 34.8555C37.9356 38.5224 38.9808 41.1472 42.5808 42.1508C43.0453 42.2666 43.5098 42.3438 43.9743 42.3052ZM43.9356 47.5162C50.7872 47.5162 61.7034 36.5153 67.8969 26.3636C72.9292 18.0646 74.6324 10.9623 72.5034 6.90934C71.8066 5.59695 70.5292 4.51616 68.7098 3.58977C71.6518 4.63196 73.6647 6.06014 74.5163 7.71993C76.684 11.9659 74.7098 19.57 69.1743 28.6023C61.4711 41.1086 50.1292 51.2603 43.8969 51.2603C43.1614 51.2603 42.4647 51.1059 41.8453 50.7971C38.7872 49.1759 38.013 46.1652 36.8905 41.9578C36.0389 38.6768 34.955 34.6239 32.4776 30.0305C31.084 27.4829 29.0711 25.6302 27.1356 23.8546C24.1163 21.0754 21.5614 18.7208 21.9098 14.5135C22.2969 10.1131 27.1356 6.67774 33.8324 4.43896C28.0647 6.71634 23.9227 10.0359 23.3034 14.3591C22.684 18.9524 25.4711 21.7316 28.1421 24.4336C29.613 25.9004 31.1614 27.4443 32.2066 29.2971C34.1808 32.8483 35.1485 35.8977 36.0389 38.561C37.2776 42.4982 38.284 45.5862 41.8453 47.0916C42.5034 47.4004 43.2389 47.5162 43.9356 47.5162ZM43.8969 52.7271C51.5227 52.7271 63.3679 40.8384 70.4518 29.3743C76.2969 19.8788 78.2711 11.7343 75.8711 7.02513C73.5872 2.62478 65.3034 0 53.7292 0C38.2066 0 21.2905 5.05655 20.4389 14.3977C20.013 19.2998 23.1098 22.1948 26.1292 24.9354C27.9872 26.6337 29.9227 28.4093 31.1614 30.7253C33.5614 35.1643 34.6066 39.14 35.4582 42.3052C36.6195 46.667 37.5098 50.1023 41.1098 52.0323C41.9614 52.5341 42.9292 52.7657 43.8969 52.7271Z" fill="#E52B2B"/>
</g>
<defs>
<clipPath id="clip0">
<rect width="96" height="86" fill="white"/>
</clipPath>
</defs>
</svg>
