<svg width="300" height="64" viewBox="0 0 300 64" fill="none" xmlns="http://www.w3.org/2000/svg">
<path d="M192.459 54.8147C192.459 54.8147 192.74 54.7271 193.302 54.552C195.832 52.6259 201.455 48.3359 203.142 47.5479C205.532 46.4098 210.873 45.009 213.403 44.221C215.09 43.7833 216.496 43.4331 218.042 43.0829C216.918 42.9078 215.793 42.6451 214.95 42.1198C214.387 41.8571 213.966 41.5069 213.544 41.1567C211.154 42.7327 209.186 43.4331 207.218 43.1704L205.672 44.3086L206.937 43.1704C206.234 43.0829 205.532 42.9078 204.829 42.5575C204.266 42.2949 203.704 41.9447 203.282 41.4194V41.5945C203.282 42.0322 202.861 42.3825 202.298 42.6451C202.017 44.1335 201.736 45.7094 201.033 46.76C199.909 48.3359 191.615 55.4275 191.615 55.4275L192.037 55.5151C192.037 55.5151 192.318 55.2524 192.88 54.9022C192.599 54.9898 192.459 54.9898 192.459 54.9898V54.8147Z" fill="#E52B2B"/>
<path d="M211.858 25.3975C212.139 25.2224 212.42 25.0473 212.701 25.0473C216.215 24.2594 218.746 23.9967 220.714 24.6096C221.416 24.8722 222.119 25.2224 222.541 25.6602C222.682 25.0473 223.525 24.522 224.509 24.522H232.24C232.802 24.522 233.365 24.6971 233.786 24.9598C233.786 24.9598 233.786 24.9598 233.927 24.9598C235.052 24.4345 236.036 23.8216 237.301 23.2088C237.582 23.0337 238.004 22.9461 238.285 22.771C237.16 21.983 236.317 21.1075 235.754 19.9694C235.614 19.7067 235.614 19.3565 235.895 19.0939C236.317 18.481 237.582 18.2184 238.566 18.481C241.096 19.1814 243.486 17.518 244.891 16.4673C245.172 16.2922 245.454 16.0296 245.735 15.8545C246.719 15.2416 247.703 14.7163 248.687 14.3661C249.811 14.0159 251.076 13.7533 252.201 13.7533C253.466 13.6657 254.731 13.7533 255.996 14.1035C256.699 14.2786 257.261 14.5412 257.964 14.8914C261.338 13.7533 264.993 12.7027 269.491 11.6521L272.162 10.9516L275.957 9.90103L272.302 11.1267L269.772 11.9147C266.117 12.9653 263.165 14.0159 260.354 15.0665H261.057C261.619 15.0665 262.181 15.1541 262.603 15.5043C263.306 16.0296 263.306 16.8176 262.462 17.2553L260.635 18.3059C261.057 19.9694 260.213 21.4577 258.808 22.5959C257.543 23.559 255.856 24.3469 254.028 24.7847C254.731 24.9598 255.293 25.3975 255.293 25.9228C255.293 26.5357 255.293 27.7614 255.153 29.0747C255.153 29.7751 255.153 30.563 255.012 31.351C265.274 26.4481 270.194 22.0706 275.114 15.7669C278.066 11.8272 284.251 8.58777 289.452 6.399L292.263 5.34839L289.03 5.96124C283.548 7.01186 276.379 7.88736 268.647 7.88736C267.382 7.88736 265.977 7.88736 264.712 7.79981C262.884 7.71226 261.197 7.71226 259.51 7.71226C244.751 7.71226 231.537 10.7765 218.605 18.3059C214.95 20.8449 212.279 22.9461 210.312 24.8722C210.874 25.0473 211.436 25.2224 211.858 25.3975C211.717 25.3975 211.577 25.31 211.858 25.3975Z" fill="#E52B2B"/>
<path d="M255.434 40.894C255.715 41.5069 255.153 42.2073 254.169 42.3824C250.795 43.1704 248.546 43.2579 246.718 42.9077C245.875 42.7326 245.313 42.47 244.75 42.1197C244.048 42.47 243.345 42.6451 242.642 42.8202C241.517 43.0828 240.252 43.1704 238.987 42.9953C237.722 42.9077 236.597 42.5575 235.473 42.0322C235.192 41.8571 234.77 41.682 234.489 41.4193C234.348 41.8571 233.927 42.2073 233.224 42.2949C229.85 43.0828 227.601 43.1704 225.774 42.8202C224.93 42.6451 224.368 42.3824 223.806 42.0322C223.103 42.3824 222.4 42.5575 221.697 42.7326C220.994 42.9077 220.151 42.9953 219.308 42.9953C217.48 44.0459 215.653 45.2716 213.544 46.5848C211.576 47.723 208.203 50.3495 205.954 51.225C204.267 51.9254 195.833 53.764 193.021 54.4644C192.881 54.6395 192.74 54.7271 192.459 54.8146C194.568 54.4644 203.986 52.7134 205.954 52.7134C208.343 52.7134 212.279 53.8516 214.247 54.2018C224.227 56.1279 228.726 57.9665 237.441 57.9665C239.268 57.9665 241.236 57.8789 243.485 57.7038C256.418 57.7038 261.478 53.5889 270.334 49.8242C274.973 47.4604 280.314 46.4097 284.11 45.972L286.499 46.0595L284.25 45.4467C280.595 44.6587 275.816 43.1704 271.88 40.4563C266.82 36.8667 261.759 34.2402 254.028 33.6273C254.731 36.6916 254.731 39.4932 255.434 40.894ZM271.318 45.0965L273.145 45.2716L275.676 45.4467H273.145H271.318H271.177C268.507 45.4467 266.398 45.3591 264.289 45.3591C259.088 45.3591 254.731 45.5342 246.156 46.6724C232.943 47.8106 225.211 48.7736 216.215 50.3495H216.074L211.014 51.225L216.074 50.0869C225.071 47.6355 232.943 46.4973 246.156 45.2716C251.217 44.6587 254.871 44.3961 258.104 44.3961C262.462 44.3961 265.976 44.8338 271.318 45.0965Z" fill="#E52B2B"/>
<path d="M192.459 54.8146V55.0773C192.459 55.0773 192.6 55.0773 192.881 54.9897C193.021 54.9022 193.162 54.7271 193.443 54.6395C192.74 54.7271 192.459 54.8146 192.459 54.8146Z" fill="#E52B2B"/>
<path fill-rule="evenodd" clip-rule="evenodd" d="M260.916 16.2046L256.98 16.2922C255.715 15.154 253.887 14.8913 252.06 14.9789C250.373 15.0664 248.405 15.5917 246.859 16.7299C245.172 17.7805 241.939 20.9323 237.3 19.6191C238.847 22.7709 243.345 24.1717 247.562 24.1717V25.8352H245.032V34.9405C245.172 38.9678 242.22 38.7927 242.22 34.9405C242.22 33.0144 242.22 31.3509 242.22 29.3372C242.22 25.3099 239.831 24.8721 233.927 26.2729C235.192 28.987 234.63 35.1156 234.63 38.0923C234.77 42.9076 243.345 42.9952 245.172 39.7558C245.594 41.9445 247.702 42.645 253.325 41.3317C251.779 38.2674 252.622 29.4248 252.622 25.9227H250.795V24.0842H250.936C255.715 23.3838 259.651 20.9323 258.245 17.7805C258.948 17.1677 260.073 16.7299 260.916 16.2046ZM248.686 25.8352V24.1717C249.108 24.1717 249.53 24.0842 249.952 24.0842V25.8352H248.686ZM254.028 18.2183C253.325 18.2183 252.622 17.8681 252.622 17.3428C252.622 16.905 253.185 16.4673 254.028 16.4673C254.731 16.4673 255.434 16.8175 255.434 17.3428C255.434 17.8681 254.731 18.2183 254.028 18.2183Z" fill="#E52B2B"/>
<path fill-rule="evenodd" clip-rule="evenodd" d="M34.7414 37.9173C33.0546 37.9173 32.6329 37.392 32.4924 36.1663V27.4987C32.4924 23.734 27.4319 22.4208 22.0903 22.4208C18.9978 22.4208 15.7647 22.8585 13.375 23.2963C13.6562 23.9091 14.4996 24.6971 14.359 27.1485C14.2184 29.2497 13.5156 34.2401 12.3911 36.2538C11.8288 37.392 10.9854 37.9173 9.15798 37.9173C9.15798 39.8434 9.57968 42.4699 8.5957 44.2209C14.9213 45.7093 16.7487 44.6587 16.8892 41.8571H27.0102C27.1507 44.6587 28.9781 45.6218 35.3037 44.2209C34.3197 42.4699 34.6009 39.8434 34.7414 37.9173ZM24.4799 37.9173H20.1223C21.3874 34.065 22.0903 28.4618 22.0903 24.7846V24.6095C23.7771 24.6095 24.4799 25.6602 24.4799 27.7614V37.9173Z" fill="#E52B2B"/>
<path fill-rule="evenodd" clip-rule="evenodd" d="M132.999 25.8352H118.661C118.942 26.4481 119.223 27.9364 119.223 28.8995V41.6819H126.955V28.5493C128.501 28.5493 130.609 28.8119 132.015 29.0746L132.999 25.8352Z" fill="#E52B2B"/>
<path fill-rule="evenodd" clip-rule="evenodd" d="M140.871 25.5726C128.641 25.5726 127.376 41.9446 141.152 41.9446C153.944 41.9446 154.506 25.5726 140.871 25.5726ZM141.152 38.8804C139.324 38.8804 139.324 28.5494 141.152 28.5494C142.979 28.5494 142.979 38.8804 141.152 38.8804Z" fill="#E52B2B"/>
<path fill-rule="evenodd" clip-rule="evenodd" d="M164.767 25.485C163.221 25.485 161.534 26.0103 160.41 26.9733C160.129 24.697 154.084 25.6601 151.835 26.1854C152.116 26.5356 152.678 27.9364 152.678 28.8119V42.9076C152.678 45.9719 154.365 47.1976 160.972 45.6217C160.269 44.3084 160.41 41.5068 160.41 40.106C161.675 41.1566 163.221 41.6819 164.908 41.7694C165.751 41.7694 166.735 41.5943 167.579 41.2441C170.952 39.7558 171.374 35.028 171.233 32.7517C170.952 30.5629 169.968 25.3974 164.767 25.485ZM161.112 38.5301V28.8995C161.112 27.9364 163.221 28.8119 163.362 33.6272C163.221 38.4425 161.112 39.4931 161.112 38.5301Z" fill="#E52B2B"/>
<path fill-rule="evenodd" clip-rule="evenodd" d="M204.548 25.5726C205.251 28.6368 204.126 31.3509 201.315 31.7887V28.8995C201.315 25.8352 199.628 24.6095 193.021 26.1854C193.724 27.4987 193.724 28.8119 193.724 30.2128V41.5944H201.315V34.7654C204.408 42.1197 207.219 43.6956 212.701 39.9309C214.528 38.6176 210.874 39.4931 206.938 32.9268C211.155 31.7011 215.794 24.6971 204.548 25.5726Z" fill="#E52B2B"/>
<path fill-rule="evenodd" clip-rule="evenodd" d="M107.556 25.5726C95.3268 25.5726 94.0617 41.9446 107.837 41.9446C120.629 41.9446 121.191 25.5726 107.556 25.5726ZM107.837 38.8804C106.01 38.8804 106.01 28.5494 107.837 28.5494C109.665 28.5494 109.665 38.8804 107.837 38.8804Z" fill="#E52B2B"/>
<path fill-rule="evenodd" clip-rule="evenodd" d="M96.1702 37.2168V25.8351H88.4389V31.5259H85.6275V28.987C85.6275 25.9227 83.9407 24.697 77.334 26.1853C77.8963 27.236 77.8963 28.2866 78.0368 29.3372V41.6818H85.7681V35.8159H88.5795V37.9172V38.4425C88.5795 41.5067 90.2663 42.7325 96.873 41.2441C96.1702 39.9308 96.1702 38.6176 96.1702 37.2168Z" fill="#E52B2B"/>
<path fill-rule="evenodd" clip-rule="evenodd" d="M183.603 35.8161C183.463 37.5671 183.041 38.9679 182.338 38.9679C180.511 38.9679 180.511 28.5494 182.338 28.5494C183.041 28.5494 183.463 30.3879 183.603 32.4892C186.134 33.6273 188.805 31.9638 191.756 31.6136C190.772 28.3743 187.539 25.5726 182.057 25.5726C169.828 25.5726 168.563 41.9446 182.338 41.9446C188.383 41.9446 191.616 38.3551 192.038 34.5028C190.491 34.0651 186.555 34.5028 183.603 35.8161Z" fill="#E52B2B"/>
<path fill-rule="evenodd" clip-rule="evenodd" d="M232.1 25.8353H224.369V34.9406C224.509 38.9679 221.557 38.7928 221.557 34.9406C221.557 33.0144 221.557 31.351 221.557 29.3373C221.557 25.31 219.168 24.8722 213.264 26.273C214.529 28.9871 213.967 35.1157 213.967 38.0924C214.107 42.9077 222.682 42.9952 224.509 39.7559C224.931 41.9446 227.039 42.645 232.662 41.3318C231.256 38.1799 232.1 29.3373 232.1 25.8353Z" fill="#E52B2B"/>
<path fill-rule="evenodd" clip-rule="evenodd" d="M54.7024 25.8353H46.9711V34.9406C47.1117 38.9679 44.1598 38.7928 44.1598 34.9406C44.1598 33.0144 44.1598 31.351 44.1598 29.3373C44.1598 25.31 41.7701 24.8722 35.8662 26.273C37.1313 28.9871 36.5691 35.1157 36.5691 38.0924C36.7096 42.9077 45.2843 42.9952 47.1117 39.7559C47.5334 41.9446 49.6419 42.645 55.2647 41.3318C53.859 38.1799 54.7024 29.3373 54.7024 25.8353Z" fill="#E52B2B"/>
<path fill-rule="evenodd" clip-rule="evenodd" d="M73.6792 29.8626C74.8038 28.5493 74.8038 26.7983 73.6792 25.3975C71.149 22.5083 63.1366 22.2457 59.9035 24.6971C58.4978 25.8353 57.9355 27.3236 57.9355 28.9871V41.9446H65.9479V41.0691C67.9159 42.2073 70.0244 42.2948 72.2735 41.4193C74.6632 40.4563 76.4906 38.5301 76.4906 35.8161C76.6311 33.5397 75.366 31.2634 73.6792 29.8626C73.6792 29.8626 73.8198 29.8626 73.6792 29.8626ZM65.9479 25.1349C65.9479 24.7847 66.2291 24.6971 66.6508 24.7847C67.7753 25.2224 68.0565 26.6232 68.0565 27.2361C68.0565 27.8489 67.7753 28.8996 66.9319 29.3373C66.5102 29.6 65.9479 29.4249 65.9479 29.0747V25.1349ZM68.4782 35.4659C68.4782 36.3414 68.197 38.0924 67.0725 38.7052C66.5102 39.0555 65.8074 38.8803 65.8074 38.2675V32.0514C65.8074 31.5261 66.2291 31.351 66.6508 31.6136C68.3376 32.314 68.6187 34.5028 68.4782 35.4659Z" fill="#E52B2B"/>
<path fill-rule="evenodd" clip-rule="evenodd" d="M99.684 50.3495L97.5755 50.5246C97.5755 50.7872 97.0132 51.3125 95.7481 52.2756C94.483 53.2387 93.7802 53.8515 93.6396 54.1142H93.499C93.499 53.5013 93.6396 52.976 93.6396 52.6258C93.6396 51.9254 93.6396 51.1374 93.7802 50.437L91.1094 50.6121C91.2499 51.3125 91.3905 52.1881 91.3905 53.3262C91.3905 54.2893 91.3905 55.2523 91.2499 56.0403H93.2179C93.2179 55.7776 93.7802 55.1648 95.0453 54.2893C96.3104 53.3262 97.1538 52.7134 97.2944 52.4507H97.4349C97.4349 52.976 97.2944 53.4138 97.2944 53.764C97.2944 54.6395 97.2944 55.3399 97.1538 56.0403H99.5435C99.4029 55.1648 99.4029 54.2017 99.4029 53.3262C99.5435 52.1005 99.5435 51.1374 99.684 50.3495Z" fill="#E52B2B"/>
<path fill-rule="evenodd" clip-rule="evenodd" d="M163.503 49.6491C165.752 49.6491 166.876 49.0362 166.876 47.8105L164.908 47.6354C164.908 47.9856 164.768 48.2483 164.627 48.4234C164.487 48.5985 164.065 48.686 163.503 48.686C162.659 48.686 162.237 48.3358 162.237 47.5479L160.129 47.723C160.129 48.2483 160.41 48.5985 160.832 48.9487C161.535 49.474 162.378 49.6491 163.503 49.6491Z" fill="#E52B2B"/>
<path fill-rule="evenodd" clip-rule="evenodd" d="M118.661 50.262C117.536 50.262 116.552 50.4371 115.99 50.8748H115.85L115.709 50.3495L113.319 50.5246C113.6 51.4877 113.741 52.976 113.741 54.8146C113.741 56.303 113.741 57.5287 113.6 58.6668H116.131C116.131 57.7038 116.131 56.7407 116.131 55.7777H116.271C116.693 56.0403 117.396 56.2154 118.38 56.2154C119.645 56.2154 120.769 55.8652 121.472 55.2524C122.175 54.6395 122.597 53.8515 122.597 53.0636C122.597 52.3632 122.316 51.6628 121.613 51.1375C120.769 50.5246 119.785 50.262 118.661 50.262ZM119.364 54.552C118.942 54.9022 118.38 55.1648 117.536 55.1648C116.974 55.1648 116.412 55.0773 115.99 54.9022C115.99 54.0266 115.99 52.976 115.85 51.9254C116.271 51.5752 116.834 51.4877 117.677 51.4877C118.38 51.4877 118.942 51.6628 119.364 52.013C119.785 52.3632 119.926 52.8009 119.926 53.2387C120.067 53.6764 119.785 54.2017 119.364 54.552Z" fill="#E52B2B"/>
<path fill-rule="evenodd" clip-rule="evenodd" d="M88.0171 50.5245H84.5029C84.5029 50.9623 84.2217 51.7502 83.6595 52.8009C83.0972 53.8515 82.816 54.5519 82.816 54.727H82.6755C82.6755 54.5519 82.3943 53.8515 81.8321 52.8009C81.2698 51.7502 80.9887 50.9623 80.9887 50.5245H77.615C77.615 51.0498 77.4744 52.0129 77.3339 53.5888C77.0527 55.1647 77.0527 55.9527 77.0527 56.0402H79.1613C79.1613 55.69 79.1613 54.9021 79.3018 53.7639C79.3018 52.6258 79.4424 51.9253 79.4424 51.6627H79.583C79.8641 52.2756 80.2858 53.0635 80.7075 54.0266C81.2698 54.9021 81.4104 55.6025 81.4104 56.0402H83.5189C83.5189 55.6025 83.8 54.9021 84.5029 53.7639C85.2057 52.6258 85.6274 51.9253 85.768 51.6627H85.9086C85.9086 51.9253 85.9086 52.5382 85.9086 53.5888C85.9086 54.6394 85.9086 55.4274 85.9086 56.0402H88.2982C88.2982 55.8651 88.2982 55.0772 88.1577 53.5013C88.1577 52.0129 88.0171 50.9623 88.0171 50.5245Z" fill="#E52B2B"/>
<path fill-rule="evenodd" clip-rule="evenodd" d="M109.383 53.8515C108.961 53.5013 108.54 53.2387 107.977 53.1511V53.0636C108.821 52.8885 109.664 52.1881 110.367 50.9624C110.508 50.6997 110.648 50.5246 110.648 50.4371H108.258C108.118 50.5246 108.118 50.6122 108.118 50.6997C107.556 52.013 106.853 52.6258 105.728 52.6258C105.588 52.6258 105.447 52.6258 105.166 52.6258C105.166 51.6628 105.166 50.8748 105.307 50.262L102.636 50.4371C102.917 51.225 102.917 52.1005 102.917 53.2387C102.917 54.2017 102.917 55.0773 102.776 55.8652H105.307C105.166 55.0773 105.166 54.2893 105.166 53.5889C105.447 53.5889 105.588 53.5889 105.728 53.5889C106.291 53.5889 106.853 53.764 107.134 54.0266C107.556 54.2893 107.837 54.8146 108.258 55.6026C108.399 55.7777 108.399 55.8652 108.54 55.9528H111.07C110.929 55.6901 110.789 55.515 110.648 55.3399C110.226 54.7271 109.805 54.2017 109.383 53.8515Z" fill="#E52B2B"/>
<path fill-rule="evenodd" clip-rule="evenodd" d="M129.766 50.262C128.501 50.262 127.376 50.5246 126.392 51.0499C125.408 51.5752 124.986 52.3632 124.986 53.3262C124.986 54.2018 125.408 54.9022 126.251 55.4275C127.095 55.9528 128.219 56.2154 129.485 56.2154C130.75 56.2154 131.874 55.9528 132.858 55.4275C133.842 54.9022 134.264 54.1142 134.264 53.1511C134.264 52.2756 133.842 51.4877 132.999 51.0499C132.015 50.5246 130.89 50.262 129.766 50.262ZM131.171 54.6395C130.75 54.9897 130.187 55.1648 129.625 55.1648C128.922 55.1648 128.36 54.9897 127.938 54.552C127.517 54.2017 127.235 53.6764 127.235 53.1511C127.235 52.6258 127.376 52.1881 127.798 51.8379C128.219 51.4877 128.782 51.3126 129.344 51.3126C130.047 51.3126 130.609 51.4877 131.031 51.9254C131.452 52.2756 131.593 52.8009 131.593 53.3262C131.734 53.8515 131.593 54.2893 131.171 54.6395Z" fill="#E52B2B"/>
<path fill-rule="evenodd" clip-rule="evenodd" d="M142.137 50.262C141.012 50.262 140.028 50.4371 139.466 50.8748H139.325L139.185 50.3495L136.795 50.5246C137.076 51.4877 137.217 52.976 137.217 54.8146C137.217 56.303 137.217 57.5287 137.076 58.6668H139.606C139.606 57.7038 139.606 56.7407 139.606 55.7777H139.747C140.169 56.0403 140.871 56.2154 141.855 56.2154C143.121 56.2154 144.245 55.8652 144.948 55.2524C145.651 54.6395 146.072 53.8515 146.072 53.0636C146.072 52.3632 145.791 51.6628 145.088 51.1375C144.245 50.5246 143.261 50.262 142.137 50.262ZM142.839 54.552C142.418 54.9022 141.855 55.1648 141.012 55.1648C140.45 55.1648 139.887 55.0773 139.466 54.9022C139.466 54.0266 139.466 52.976 139.325 51.9254C139.747 51.5752 140.309 51.4877 141.153 51.4877C141.855 51.4877 142.418 51.6628 142.839 52.013C143.261 52.3632 143.402 52.8009 143.402 53.2387C143.402 53.6764 143.261 54.2017 142.839 54.552Z" fill="#E52B2B"/>
<path fill-rule="evenodd" clip-rule="evenodd" d="M190.491 56.0403C190.35 55.1648 190.35 54.2893 190.35 53.3262C190.35 52.188 190.35 51.225 190.491 50.437L187.82 50.6121C187.961 51.1374 188.101 51.8378 188.101 52.6258H184.587C184.587 51.4001 184.727 50.6997 184.727 50.437L182.057 50.6121C182.338 51.4001 182.338 52.2756 182.338 53.3262C182.338 54.3768 182.338 55.2523 182.197 56.0403H184.727C184.587 55.3399 184.587 54.4644 184.587 53.6764H188.101C188.101 54.5519 188.101 55.4274 187.961 56.0403H190.491V56.0403Z" fill="#E52B2B"/>
<path fill-rule="evenodd" clip-rule="evenodd" d="M175.029 50.262C173.764 50.262 172.64 50.5246 171.656 51.0499C170.672 51.5752 170.25 52.3632 170.25 53.3262C170.25 54.2018 170.672 54.9022 171.515 55.4275C172.359 55.9528 173.483 56.2154 174.748 56.2154C176.013 56.2154 177.138 55.9528 178.122 55.4275C179.106 54.9022 179.527 54.1142 179.527 53.1511C179.527 52.2756 179.106 51.4877 178.262 51.0499C177.278 50.5246 176.154 50.262 175.029 50.262ZM176.435 54.6395C176.013 54.9897 175.451 55.1648 174.889 55.1648C174.186 55.1648 173.624 54.9897 173.202 54.552C172.78 54.2017 172.499 53.6764 172.499 53.1511C172.499 52.6258 172.64 52.1881 173.061 51.8379C173.483 51.4877 174.045 51.3126 174.608 51.3126C175.31 51.3126 175.873 51.4877 176.294 51.9254C176.716 52.2756 176.857 52.8009 176.857 53.3262C176.997 53.8515 176.857 54.2893 176.435 54.6395Z" fill="#E52B2B"/>
<path fill-rule="evenodd" clip-rule="evenodd" d="M156.053 53.1511C156.053 52.7134 156.053 52.4507 156.053 52.2756C156.053 51.5752 155.771 51.0499 155.069 50.6997C154.506 50.4371 153.522 50.262 152.398 50.262C150.852 50.262 149.727 50.3495 148.884 50.5246L148.743 51.5752C149.586 51.4001 150.57 51.3126 151.554 51.3126C152.398 51.3126 152.96 51.4001 153.382 51.4877C153.663 51.6628 153.803 51.9254 153.803 52.2756C153.803 52.3632 153.803 52.3632 153.803 52.4507C151.836 52.4507 150.43 52.7134 149.586 53.0636C148.743 53.4138 148.321 53.9391 148.321 54.4644C148.321 54.9022 148.602 55.2524 149.024 55.515C149.586 55.7777 150.149 55.9528 150.992 55.9528C152.117 55.9528 153.101 55.7777 153.803 55.4275H153.944C153.944 55.515 153.944 55.6901 154.085 55.8652L156.334 55.7777C156.193 55.2524 156.053 54.6395 156.053 53.8515C155.912 53.8515 156.053 53.5889 156.053 53.1511ZM151.976 55.1648C150.992 55.1648 150.57 54.9022 150.57 54.4644C150.57 53.764 151.695 53.5013 153.803 53.5013C153.803 53.8515 153.803 54.2893 153.803 54.8146C153.241 54.9897 152.679 55.1648 151.976 55.1648Z" fill="#E52B2B"/>
<path fill-rule="evenodd" clip-rule="evenodd" d="M167.438 50.3495L165.47 50.5246C165.47 50.7872 164.908 51.3125 163.643 52.2756C162.378 53.2387 161.675 53.8515 161.534 54.1142H161.394C161.394 53.5013 161.534 52.976 161.534 52.6258C161.534 51.9254 161.534 51.1374 161.675 50.437L159.004 50.6121C159.144 51.3125 159.285 52.1881 159.285 53.3262C159.285 54.2893 159.285 55.2523 159.144 56.0403H161.112C161.112 55.7776 161.675 55.1648 162.94 54.2893C164.205 53.3262 165.048 52.7134 165.189 52.4507H165.33C165.33 52.976 165.189 53.4138 165.189 53.764C165.189 54.6395 165.189 55.3399 165.048 56.0403H167.438C167.297 55.1648 167.297 54.2017 167.297 53.3262C167.297 52.1005 167.438 51.1374 167.438 50.3495Z" fill="#E52B2B"/>
</svg>
